<svg width="395" height="50" viewBox="0 0 395 50" fill="none" xmlns="http://www.w3.org/2000/svg">
<rect width="394" height="50" transform="translate(1)" fill="#4AE3B5"/>
<path d="M14 16.1053C14.5444 16.1053 15.0665 15.889 15.4514 15.5041C15.8364 15.1191 16.0526 14.597 16.0526 14.0526C16.0526 13.5082 15.8364 12.9861 15.4514 12.6012C15.0665 12.2163 14.5444 12 14 12C13.4556 12 12.9335 12.2163 12.5486 12.6012C12.1636 12.9861 11.9474 13.5082 11.9474 14.0526C11.9474 14.597 12.1636 15.1191 12.5486 15.5041C12.9335 15.889 13.4556 16.1053 14 16.1053ZM14 16.1053L12.6316 22.2632M14.6842 24.3158C14.6842 24.5853 14.6311 24.8523 14.528 25.1013C14.4248 25.3503 14.2736 25.5766 14.083 25.7672C13.8924 25.9578 13.6661 26.109 13.4171 26.2122C13.1681 26.3153 12.9011 26.3684 12.6316 26.3684C12.362 26.3684 12.0951 26.3153 11.8461 26.2122C11.597 26.109 11.3708 25.9578 11.1801 25.7672C10.9895 25.5766 10.8383 25.3503 10.7352 25.1013C10.632 24.8523 10.5789 24.5853 10.5789 24.3158C10.5789 23.7714 10.7952 23.2493 11.1801 22.8644C11.5651 22.4794 12.0872 22.2632 12.6316 22.2632M14.6842 24.3158C14.6842 23.7714 14.468 23.2493 14.083 22.8644C13.6981 22.4794 13.176 22.2632 12.6316 22.2632M14.6842 24.3158L20.1647 24.7865M16.0526 15.4211L21.5263 22.2632M17.4211 29.7895L11.9474 33.8947M8.52632 32.5263L4.42105 21.5789M6.21779 17.6844L11.9474 14.7368M27 25C27 25.4493 26.9115 25.8941 26.7396 26.3092C26.5677 26.7242 26.3157 27.1014 25.998 27.419C25.6803 27.7367 25.3032 27.9887 24.8881 28.1606C24.4731 28.3326 24.0282 28.4211 23.5789 28.4211C23.1297 28.4211 22.6848 28.3326 22.2698 28.1606C21.8547 27.9887 21.4776 27.7367 21.1599 27.419C20.8422 27.1014 20.5902 26.7242 20.4183 26.3092C20.2464 25.8941 20.1579 25.4493 20.1579 25C20.1579 24.0927 20.5183 23.2225 21.1599 22.581C21.8015 21.9394 22.6716 21.5789 23.5789 21.5789C24.4863 21.5789 25.3564 21.9394 25.998 22.581C26.6396 23.2225 27 24.0927 27 25ZM6.47368 18.8421C6.47368 19.568 6.18534 20.2641 5.67208 20.7773C5.15882 21.2906 4.4627 21.5789 3.73684 21.5789C3.01099 21.5789 2.31486 21.2906 1.8016 20.7773C1.28834 20.2641 1 19.568 1 18.8421C1 18.1162 1.28834 17.4201 1.8016 16.9069C2.31486 16.3936 3.01099 16.1053 3.73684 16.1053C4.4627 16.1053 5.15882 16.3936 5.67208 16.9069C6.18534 17.4201 6.47368 18.1162 6.47368 18.8421ZM11.9474 35.2632C11.9474 35.989 11.659 36.6851 11.1458 37.1984C10.6325 37.7117 9.93638 38 9.21053 38C8.48467 38 7.78854 37.7117 7.27529 37.1984C6.76203 36.6851 6.47368 35.989 6.47368 35.2632C6.47368 34.5373 6.76203 33.8412 7.27529 33.3279C7.78854 32.8147 8.48467 32.5263 9.21053 32.5263C9.93638 32.5263 10.6325 32.8147 11.1458 33.3279C11.659 33.8412 11.9474 34.5373 11.9474 35.2632Z" stroke="#1A1A1A" stroke-width="1.5" stroke-linecap="round" stroke-linejoin="round"/>
<path d="M55.3176 32.2376V18.2624H61.7328V20.1632H63.6336V22.0424H65.5776V28.4792H63.6336V30.38H61.7328V32.2376H55.3176ZM57.8664 29.5592H61.0848V27.68H63.0072V22.8416H61.0848V20.9624H57.8664V29.5592ZM70.1283 32.2376V30.38H68.2059V20.1632H70.1283V18.2624H76.5219V20.1632H78.4659V22.8416H75.8955V20.9624H70.7547V23.9216H74.6211V26.5784H70.7547V29.5592H75.8955V27.68H78.4659V30.38H76.5219V32.2376H70.1283ZM83.0166 32.2376V30.38H81.0942V27.68H83.643V29.5592H88.7838V26.5784H83.0166V24.7208H81.0942V20.1632H83.0166V18.2624H89.4102V20.1632H91.3542V22.8416H88.7838V20.9624H83.643V23.9216H89.4102V25.7792H91.3542V30.38H89.4102V32.2376H83.0166ZM93.9824 32.2376V29.5592H95.9048V20.9624H93.9824V18.2624H100.398V20.9624H98.4536V29.5592H100.398V32.2376H93.9824ZM104.954 32.2376V30.38H103.032V20.1632H104.954V18.2624H111.348V20.1632H113.292V24.7208H110.721V20.9624H105.58V29.5592H110.721V28.4792H108.799V26.5784H106.855V23.9216H109.447V25.7792H113.292V30.38H111.348V32.2376H104.954ZM115.92 32.2376V18.2624H118.469V20.1632H120.37V22.0424H122.335V27.68H123.61V18.2624H126.18V32.2376H123.61V30.38H121.709V28.4792H119.743V22.8416H118.469V32.2376H115.92ZM133.132 32.2376V18.2624H135.681V20.1632H137.582V22.0424H139.548V27.68H140.822V18.2624H143.392V32.2376H140.822V30.38H138.921V28.4792H136.956V22.8416H135.681V32.2376H133.132ZM147.943 32.2376V30.38H146.021V20.1632H147.943V18.2624H154.337V20.1632H156.281V22.8416H153.71V20.9624H148.57V23.9216H152.436V26.5784H148.57V29.5592H153.71V27.68H156.281V30.38H154.337V32.2376H147.943ZM160.831 32.2376V30.38H158.909V18.2624H161.458V29.5592H166.599V18.2624H169.169V30.38H167.225V32.2376H160.831ZM171.797 32.2376V20.1632H173.72V18.2624H180.113V20.1632H182.057V26.5784H180.113V28.4792H179.184V29.5592H181.085V32.2376H178.558V30.38H176.592V28.4792H174.346V32.2376H171.797ZM174.346 25.7792H179.487V20.9624H174.346V25.7792ZM184.686 32.2376V22.0424H186.608V20.1632H188.509V18.2624H191.101V20.1632H193.002V22.0424H194.946V32.2376H192.375V28.4792H187.234V32.2376H184.686ZM187.234 25.7792H192.375V22.8416H190.453V20.9624H189.157V22.8416H187.234V25.7792ZM199.496 32.2376V30.38H197.574V18.2624H200.123V29.5592H205.263V27.68H207.834V30.38H205.89V32.2376H199.496ZM214.786 32.2376V18.2624H217.335V20.1632H219.236V22.0424H221.202V27.68H222.476V18.2624H225.046V32.2376H222.476V30.38H220.575V28.4792H218.61V22.8416H217.335V32.2376H214.786ZM229.597 32.2376V30.38H227.675V20.1632H229.597V18.2624H235.991V20.1632H237.935V22.8416H235.364V20.9624H230.223V23.9216H234.09V26.5784H230.223V29.5592H235.364V27.68H237.935V30.38H235.991V32.2376H229.597ZM244.386 32.2376V20.9624H243.112V22.8416H240.563V20.1632H242.485V18.2624H248.879V20.1632H250.823V22.8416H248.253V20.9624H246.978V32.2376H244.386ZM255.374 32.2376V30.38H253.451V18.2624H256V29.5592H257.274V25.7792H259.218V20.1632H261.767V25.7792H263.711V29.5592H265.029V18.2624H267.556V30.38H265.655V32.2376H263.085V30.38H261.141V26.5784H259.866V30.38H257.922V32.2376H255.374ZM272.122 32.2376V30.38H270.2V20.1632H272.122V18.2624H278.516V20.1632H280.46V30.38H278.516V32.2376H272.122ZM272.748 29.5592H277.889V20.9624H272.748V29.5592ZM283.088 32.2376V20.1632H285.01V18.2624H291.404V20.1632H293.348V26.5784H291.404V28.4792H290.475V29.5592H292.376V32.2376H289.849V30.38H287.883V28.4792H285.637V32.2376H283.088ZM285.637 25.7792H290.778V20.9624H285.637V25.7792ZM295.976 32.2376V20.1632H297.899V18.2624H300.447V20.9624H298.525V23.9216H299.799V22.0424H301.765V20.1632H303.666V18.2624H306.236V20.9624H304.292V22.8416H302.391V24.7208H300.447V25.7792H302.391V27.68H304.292V29.5592H306.236V32.2376H303.666V30.38H301.765V28.4792H299.799V26.5784H298.525V32.2376H295.976Z" fill="#1A1A1A"/>
<rect x="347" width="48" height="50" rx="5" fill="#1A1A1A"/>
<path d="M372.946 25L363 15.0333L366.027 12L379 25L366.027 38L363 34.9667L372.946 25Z" fill="#4AE3B5"/>
</svg>
