<svg width="500" height="500" viewBox="0 0 500 500" fill="none" xmlns="http://www.w3.org/2000/svg">
<mask id="path-1-inside-1_103_131" fill="white">
<path d="M73.2233 426.777C32.3251 385.878 6.87302 332.065 1.20382 274.504C-4.46538 216.944 9.99907 159.199 42.1326 111.107C74.2661 63.0162 122.081 27.5546 177.429 10.7649C232.777 -6.02481 292.235 -3.10384 345.671 19.0301C399.107 41.1641 443.215 81.1415 470.48 132.151C497.745 183.16 506.48 242.045 495.196 298.773C483.913 355.5 453.308 406.56 408.598 443.253C363.888 479.945 307.839 500 250 500L250 454.421C297.294 454.421 343.124 438.022 379.683 408.019C416.242 378.016 441.266 336.266 450.493 289.88C459.719 243.495 452.577 195.346 430.283 153.637C407.989 111.927 371.922 79.2385 328.228 61.14C284.535 43.0414 235.917 40.653 190.66 54.3816C145.402 68.1103 106.305 97.1066 80.0304 136.43C53.7554 175.753 41.9281 222.971 46.5637 270.037C51.1993 317.103 72.011 361.105 105.453 394.547L73.2233 426.777Z"/>
</mask>
<path d="M73.2233 426.777C32.3251 385.878 6.87302 332.065 1.20382 274.504C-4.46538 216.944 9.99907 159.199 42.1326 111.107C74.2661 63.0162 122.081 27.5546 177.429 10.7649C232.777 -6.02481 292.235 -3.10384 345.671 19.0301C399.107 41.1641 443.215 81.1415 470.48 132.151C497.745 183.16 506.48 242.045 495.196 298.773C483.913 355.5 453.308 406.56 408.598 443.253C363.888 479.945 307.839 500 250 500L250 454.421C297.294 454.421 343.124 438.022 379.683 408.019C416.242 378.016 441.266 336.266 450.493 289.88C459.719 243.495 452.577 195.346 430.283 153.637C407.989 111.927 371.922 79.2385 328.228 61.14C284.535 43.0414 235.917 40.653 190.66 54.3816C145.402 68.1103 106.305 97.1066 80.0304 136.43C53.7554 175.753 41.9281 222.971 46.5637 270.037C51.1993 317.103 72.011 361.105 105.453 394.547L73.2233 426.777Z" fill="#1A1A1A" stroke="#4AE3B5" stroke-width="20" mask="url(#path-1-inside-1_103_131)"/>
</svg>
