<svg width="717" height="52" viewBox="0 0 717 52" fill="none" xmlns="http://www.w3.org/2000/svg">
<rect width="717" height="52" rx="5" fill="#1A1A1A"/>
<path d="M258.917 13.0001C249.463 13.0418 241.762 24.7192 251.524 34.1653C251.979 35.5763 253.946 36.4678 256.897 37.3782C259.039 38.0442 259.772 37.1025 259.28 35.8611C257.159 30.5013 252.339 30.6839 252 30.1935C246.159 21.7268 255.541 13.6796 263.252 17.3188C272.022 21.4561 268.526 29.4452 263.541 32.8253C261.617 34.1242 260.439 35.8183 261.071 37.4968C261.411 38.3949 263.051 39.1102 263.672 38.9859C264.162 38.888 261.617 37.5256 263.202 35.8793C264.46 34.5655 268.274 33.799 270.285 30.1317C274.104 23.1823 271.91 16.894 262.886 13.6812C262.198 13.4383 261.513 13.2637 260.826 13.1509C260.195 13.0478 259.557 12.9973 258.917 13.0001L258.917 13.0001ZM259.564 17.4533C259.564 17.4533 257.958 19.1597 257.986 20.9041C257.988 21.2613 258.06 21.6235 258.169 21.9668C258.747 22.6337 259.215 23.4066 259.621 24.2454C260.022 23.2181 260.534 22.3373 261.171 21.6195C261.211 21.403 261.233 21.1898 261.233 20.974C261.209 19.2306 259.564 17.4533 259.564 17.4533ZM266.055 20.4485C263.029 20.6239 261.072 23.2968 259.905 25.6255C259.855 25.7317 259.483 25.7608 259.418 25.6511C258.557 24.1224 258.016 22.974 256.952 22.1081C255.945 21.2865 254.674 20.7976 252.964 20.7885C253.038 21.4544 253.36 23.2795 254.708 24.2912C255.168 24.6377 255.836 24.8172 256.514 24.9711C257.189 25.1201 257.882 25.2378 258.411 25.5457C258.837 25.7943 259.109 26.1829 259.239 26.6348C259.368 27.085 259.364 27.5962 259.265 28.1379C259.099 29.0788 258.648 30.1136 258.045 31.0668C258.045 31.0668 259.828 31.7953 260.145 34.5448C260.736 33.1371 261.98 32.3321 261.98 32.3321C261.325 31.4191 260.395 29.0566 260.173 28.128C260.051 27.5939 260.012 27.0858 260.113 26.629C260.212 26.173 260.457 25.768 260.868 25.4972C261.379 25.1621 262.059 25.0073 262.728 24.8197C263.4 24.6311 264.053 24.4105 264.502 24.0368C265.298 23.37 265.694 22.4126 265.887 21.6093C265.981 21.2067 266.03 20.8477 266.048 20.5926C266.055 20.53 266.054 20.497 266.055 20.4485ZM253.99 33.2743C254.54 33.2891 256.002 34.4091 255.589 34.4925C253.791 34.8553 253.552 33.736 253.818 33.3419C253.851 33.2926 253.911 33.2722 253.99 33.2743Z" fill="#4AE3B5"/>
<path d="M298.7 32.198V30.65H297.098V20.552H299.222V29.966H303.506V20.552H305.648V30.65H304.028V32.198H298.7ZM307.838 32.198V20.552H309.962V22.136H311.546V23.702H313.184V28.4H314.246V20.552H316.388V32.198H314.246V30.65H312.662V29.066H311.024V24.368H309.962V32.198H307.838ZM320.18 32.198V30.65H318.578V20.552H320.702V29.966H324.986V28.4H327.128V30.65H325.508V32.198H320.18ZM330.921 32.198V30.65H329.319V22.136H330.921V20.552H336.249V22.136H337.869V24.368H335.727V22.802H331.443V25.268H334.665V27.482H331.443V29.966H335.727V28.4H337.869V30.65H336.249V32.198H330.921ZM340.059 32.198V23.702H341.661V22.136H343.245V20.552H345.405V22.136H346.989V23.702H348.609V32.198H346.467V29.066H342.183V32.198H340.059ZM342.183 26.816H346.467V24.368H344.865V22.802H343.785V24.368H342.183V26.816ZM352.401 32.198V30.65H350.799V28.4H352.923V29.966H357.207V27.482H352.401V25.934H350.799V22.136H352.401V20.552H357.729V22.136H359.349V24.368H357.207V22.802H352.923V25.268H357.729V26.816H359.349V30.65H357.729V32.198H352.401ZM361.539 32.198V20.552H363.663V25.268H364.725V23.702H366.885V25.268H367.947V20.552H370.089V32.198H367.947V27.482H363.663V32.198H361.539ZM377.485 32.198V30.65H375.883V22.136H377.485V20.552H382.813V22.136H384.433V30.65H382.813V32.198H377.485ZM378.007 29.966H382.291V22.802H378.007V29.966ZM386.623 32.198V22.136H388.225V20.552H393.553V22.136H395.173V27.482H393.553V29.066H392.779V29.966H394.363V32.198H392.257V30.65H390.619V29.066H388.747V32.198H386.623ZM388.747 26.816H393.031V22.802H388.747V26.816ZM398.966 32.198V30.65H397.364V22.136H398.966V20.552H404.294V22.136H405.914V25.934H403.772V22.802H399.488V29.966H403.772V29.066H402.17V27.482H400.55V25.268H402.71V26.816H405.914V30.65H404.294V32.198H398.966ZM408.104 32.198V23.702H409.706V22.136H411.29V20.552H413.45V22.136H415.034V23.702H416.654V32.198H414.512V29.066H410.228V32.198H408.104ZM410.228 26.816H414.512V24.368H412.91V22.802H411.83V24.368H410.228V26.816ZM418.844 32.198V20.552H420.968V22.136H422.552V23.702H424.19V28.4H425.252V20.552H427.394V32.198H425.252V30.65H423.668V29.066H422.03V24.368H420.968V32.198H418.844ZM429.584 32.198V29.966H431.186V22.802H429.584V20.552H434.93V22.802H433.31V29.966H434.93V32.198H429.584ZM438.727 32.198V30.65H437.125V28.4H439.249V29.966H443.533V27.482H438.727V25.934H437.125V22.136H438.727V20.552H444.055V22.136H445.675V24.368H443.533V22.802H439.249V25.268H444.055V26.816H445.675V30.65H444.055V32.198H438.727ZM447.866 32.198V22.136H449.468V20.552H451.592V22.136H453.212V25.268H454.274V22.136H455.894V20.552H458.036V22.136H459.62V32.198H457.514V22.802H456.416V25.934H454.796V30.65H452.672V25.934H451.052V22.802H449.99V32.198H447.866Z" fill="#4AE3B5"/>
</svg>
