<svg width="45" height="45" viewBox="0 0 45 45" fill="none" xmlns="http://www.w3.org/2000/svg">
<rect width="45" height="45" fill="#4AE3B5"/>
<path d="M18.4411 23.4731L25.5315 29.6774C26.3685 30.4096 27.6777 29.8146 27.6777 28.7033V16.2947C27.6779 16.0461 27.6064 15.8026 27.4718 15.5935C27.3372 15.3843 27.1452 15.2184 26.9187 15.1157C26.6923 15.0129 26.441 14.9775 26.1949 15.0139C25.9489 15.0502 25.7186 15.1567 25.5315 15.3206L18.4424 21.5249C18.3034 21.6463 18.1921 21.7961 18.1158 21.9641C18.0395 22.1321 18 22.3145 18 22.499C18 22.6836 18.0395 22.866 18.1158 23.034C18.1921 23.202 18.3022 23.3517 18.4411 23.4731Z" fill="#1A1A1A"/>
</svg>
