<svg width="368" height="968" viewBox="0 0 368 968" fill="none" xmlns="http://www.w3.org/2000/svg">
<rect x="2" y="2" width="364" height="964" rx="12" fill="#4AE3B5" stroke="#4AE3B5" stroke-width="4" stroke-linejoin="round"/>
<path d="M131.365 357.252V345.66H133.276V343.749H139.198V345.66H141.13V351.54H139.198V353.451H133.486V357.252H131.365ZM133.486 351.33H138.988V345.87H133.486V351.33ZM144.945 357.252V355.362H143.034V349.461H144.945V347.55H150.867V349.461H152.799V355.362H150.867V357.252H144.945ZM145.155 355.152H150.657V349.65H145.155V355.152ZM155.339 360.948V349.461H157.25V347.55H163.172V349.461H165.104V355.362H163.172V357.252H157.46V360.948H155.339ZM157.46 355.152H162.962V349.65H157.46V355.152ZM169.555 357.252V355.362H167.644V347.55H169.765V355.152H175.267V347.55H177.409V355.362H175.477V357.252H169.555ZM179.948 357.252V343.749H182.069V357.252H179.948ZM186.105 357.252V355.362H184.194V349.461H186.105V347.55H192.027V349.461H193.959V355.152H195.87V357.252H193.749V355.362H192.027V357.252H186.105ZM186.315 355.152H191.817V349.65H186.315V355.152ZM199.889 357.252V355.362H197.999V349.65H196.088V347.55H197.999V343.749H200.099V347.55H205.853V349.65H200.099V355.152H205.643V353.241H207.764V355.362H205.853V357.252H199.889ZM210.3 357.252V347.55H212.421V357.252H210.3ZM210.3 345.87V343.749H212.421V345.87H210.3ZM216.456 357.252V355.362H214.545V349.461H216.456V347.55H222.378V349.461H224.31V355.362H222.378V357.252H216.456ZM216.666 355.152H222.168V349.65H216.666V355.152ZM226.85 357.252V347.55H234.683V349.461H236.615V357.252H234.473V349.65H228.971V357.252H226.85Z" fill="black"/>
<path d="M146.111 612.252V598.749H153.944V600.66H155.876V602.76H153.734V600.87H148.232V604.461H152.054V606.54H148.232V612.252H146.111ZM158.415 612.252V602.55H160.536V612.252H158.415ZM158.415 600.87V598.749H160.536V600.87H158.415ZM166.236 612.252V610.362H164.346V604.65H162.435V602.55H164.346V598.749H166.446V602.55H172.2V604.65H166.446V610.152H171.99V608.241H174.111V610.362H172.2V612.252H166.236ZM176.237 612.252V602.55H184.07V604.461H186.002V612.252H183.86V604.65H178.358V612.252H176.237ZM189.817 612.252V610.362H187.906V604.461H189.817V602.55H195.739V604.461H197.671V606.54H195.529V604.65H190.027V606.33H193.849V608.451H190.027V610.152H195.529V608.22H197.671V610.341H195.739V612.252H189.817ZM200.21 612.252V610.152H207.833V608.451H202.121V606.54H200.21V604.461H202.121V602.55H209.975V604.65H202.331V606.33H208.043V608.241H209.975V610.362H208.043V612.252H200.21ZM212.105 612.252V610.152H219.728V608.451H214.016V606.54H212.105V604.461H214.016V602.55H221.87V604.65H214.226V606.33H219.938V608.241H221.87V610.362H219.938V612.252H212.105Z" fill="black"/>
<path d="M155.462 864.252V852.66H157.373V850.749H163.295V852.66H165.227V858.54H163.295V860.451H157.583V864.252H155.462ZM157.583 858.33H163.085V852.87H157.583V858.33ZM167.357 864.252V850.749H169.478V864.252H167.357ZM173.513 864.252V862.362H171.602V856.461H173.513V854.55H179.435V856.461H181.367V862.152H183.278V864.252H181.157V862.362H179.435V864.252H173.513ZM173.723 862.152H179.225V856.65H173.723V862.152ZM185.178 864.252V854.55H193.011V856.461H194.943V864.252H192.801V856.65H187.299V864.252H185.178ZM200.443 864.252V862.362H198.553V856.65H196.642V854.55H198.553V850.749H200.653V854.55H206.407V856.65H200.653V862.152H206.197V860.241H208.318V862.362H206.407V864.252H200.443ZM130.186 882.252V872.55H132.097V870.66H133.987V868.749H136.129V870.66H138.019V872.55H139.951V882.252H137.809V878.451H132.307V882.252H130.186ZM132.307 876.33H137.809V872.76H135.919V870.87H134.197V872.76H132.307V876.33ZM144.402 882.252V880.362H142.491V868.749H144.612V872.55H150.324V874.461H152.256V880.362H150.324V882.252H144.402ZM144.612 880.152H150.114V874.65H144.612V880.152ZM156.707 882.252V880.362H154.796V872.55H156.917V880.152H162.419V872.55H164.561V880.362H162.629V882.252H156.707ZM167.1 882.252V872.55H174.933V874.461H176.865V882.252H174.723V874.65H169.221V882.252H167.1ZM180.906 882.252V880.362H178.995V874.461H180.906V872.55H186.639V868.749H188.76V880.362H186.828V882.252H180.906ZM181.116 880.152H186.618V874.65H181.116V880.152ZM192.8 882.252V880.362H190.889V874.461H192.8V872.55H198.722V874.461H200.654V880.152H202.565V882.252H200.444V880.362H198.722V882.252H192.8ZM193.01 880.152H198.512V874.65H193.01V880.152ZM204.466 882.252V872.55H212.299V874.461H214.231V882.252H212.089V874.65H206.587V882.252H204.466ZM218.271 882.252V880.362H216.36V874.461H218.271V872.55H224.193V874.461H226.125V876.54H223.983V874.65H218.481V880.152H223.983V878.241H226.125V880.362H224.193V882.252H218.271ZM229.94 882.252V880.362H228.029V874.461H229.94V872.55H235.862V874.461H237.794V876.54H235.652V874.65H230.15V876.33H233.972V878.451H230.15V880.152H235.652V878.22H237.794V880.341H235.862V882.252H229.94Z" fill="black"/>
</svg>
