<svg width="893" height="78" viewBox="0 0 893 78" fill="none" xmlns="http://www.w3.org/2000/svg">
<rect width="893" height="78" fill="#4AE3B5"/>
<path d="M3.2616 20.2592V18.3152H1.296V6.3704H3.4776V18.0992H5.2056V14.168H7.1928V8.336H9.3528V14.168H11.34V18.0992H13.0896V6.3704H15.2496V18.3152H13.3056V20.2592H11.124V18.3152H9.1368V14.384H7.4088V18.3152H5.4216V20.2592H3.2616ZM19.1663 20.2592V18.3152H17.2007V12.2456H19.1663V10.28H25.2575V12.2456H27.2447V14.384H25.0415V12.44H19.3823V14.168H23.3135V16.3496H19.3823V18.0992H25.0415V16.112H27.2447V18.2936H25.2575V20.2592H19.1663ZM29.8569 20.2592V6.3704H32.0385V20.2592H29.8569ZM35.9569 20.2592V18.3152H33.9913V12.2456H35.9569V10.28H42.0481V12.2456H44.0353V14.384H41.8321V12.44H36.1729V18.0992H41.8321V16.1336H44.0353V18.3152H42.0481V20.2592H35.9569ZM47.9593 20.2592V18.3152H45.9937V12.2456H47.9593V10.28H54.0505V12.2456H56.0377V18.3152H54.0505V20.2592H47.9593ZM48.1753 18.0992H53.8345V12.44H48.1753V18.0992ZM58.6499 20.2592V10.28H64.7627V12.2456H66.4907V10.28H70.6595V12.2456H72.6035V20.2592H70.4435V12.44H66.7067V20.2592H64.5467V12.44H60.8315V20.2592H58.6499ZM76.9632 20.2592V18.3152H74.9976V12.2456H76.9632V10.28H83.0544V12.2456H85.0416V14.384H82.8384V12.44H77.1792V14.168H81.1104V16.3496H77.1792V18.0992H82.8384V16.112H85.0416V18.2936H83.0544V20.2592H76.9632ZM95.8876 20.2592V18.3152H93.9436V12.44H91.978V10.28H93.9436V6.3704H96.1036V10.28H102.022V12.44H96.1036V18.0992H101.806V16.1336H103.988V18.3152H102.022V20.2592H95.8876ZM107.908 20.2592V18.3152H105.942V12.2456H107.908V10.28H113.999V12.2456H115.986V18.3152H113.999V20.2592H107.908ZM108.124 18.0992H113.783V12.44H108.124V18.0992ZM126.832 20.2592V18.3152H124.888V12.44H122.923V10.28H124.888V6.3704H127.048V10.28H132.967V12.44H127.048V18.0992H132.751V16.1336H134.932V18.3152H132.967V20.2592H126.832ZM137.119 20.2592V6.3704H139.3V12.2456H141.028V10.28H145.175V12.2456H147.163V20.2592H144.959V12.44H141.244V14.384H139.3V20.2592H137.119ZM151.319 20.2592V18.3152H149.353V12.2456H151.319V10.28H157.41V12.2456H159.397V14.384H157.194V12.44H151.535V14.168H155.466V16.3496H151.535V18.0992H157.194V16.112H159.397V18.2936H157.41V20.2592H151.319ZM166.334 20.2592V6.3704H168.515V20.2592H166.334ZM172.666 20.2592V18.3152H170.7V12.2456H172.666V10.28H178.757V12.2456H180.744V18.0992H182.71V20.2592H180.528V18.3152H178.757V20.2592H172.666ZM172.882 18.0992H178.541V12.44H172.882V18.0992ZM186.208 20.2592V18.3152H184.242V6.3704H186.424V10.28H192.299V12.2456H194.286V18.3152H192.299V20.2592H186.208ZM186.424 18.0992H192.083V12.44H186.424V18.0992ZM198.442 20.2592V18.3152H196.476V12.2456H198.442V10.28H204.533V12.2456H206.52V18.3152H204.533V20.2592H198.442ZM198.658 18.0992H204.317V12.44H198.658V18.0992ZM209.133 20.2592V12.2456H211.098V10.28H217.19V12.2456H219.177V14.384H216.974V12.44H211.314V20.2592H209.133ZM223.101 20.2592V18.3152H221.135V12.2456H223.101V10.28H229.192V12.2456H231.179V18.0992H233.145V20.2592H230.963V18.3152H229.192V20.2592H223.101ZM223.317 18.0992H228.976V12.44H223.317V18.0992ZM237.279 20.2592V18.3152H235.335V12.44H233.369V10.28H235.335V6.3704H237.495V10.28H243.413V12.44H237.495V18.0992H243.197V16.1336H245.379V18.3152H243.413V20.2592H237.279ZM249.299 20.2592V18.3152H247.334V12.2456H249.299V10.28H255.39V12.2456H257.378V18.3152H255.39V20.2592H249.299ZM249.515 18.0992H255.174V12.44H249.515V18.0992ZM259.99 20.2592V12.2456H261.955V10.28H268.047V12.2456H270.034V14.384H267.831V12.44H262.171V20.2592H259.99ZM274.19 24.1688V22.2248H272.224V20.0648H274.406V22.0088H280.087V18.3152H274.19V16.3496H272.224V10.28H274.406V16.1336H280.087V10.28H282.268V22.2248H280.303V24.1688H274.19ZM284.88 20V17.8184H287.062V20H284.88ZM295.958 20.2592V18.3152H293.993V8.336H295.958V6.3704H302.05V8.336H304.037V12.44H301.834V8.552H296.174V18.0992H301.834V14.168H304.037V18.3152H302.05V20.2592H295.958ZM308.615 20.2592V18.3152H306.649V10.28H308.831V18.0992H314.49V10.28H316.693V18.3152H314.706V20.2592H308.615ZM319.094 20.2592V18.0992H326.935V16.3496H321.06V14.384H319.094V12.2456H321.06V10.28H329.138V12.44H321.276V14.168H327.151V16.1336H329.138V18.3152H327.151V20.2592H319.094ZM335.66 20.2592V18.3152H333.716V12.44H331.751V10.28H333.716V6.3704H335.876V10.28H341.795V12.44H335.876V18.0992H341.579V16.1336H343.76V18.3152H341.795V20.2592H335.66ZM347.68 20.2592V18.3152H345.715V12.2456H347.68V10.28H353.772V12.2456H355.759V18.3152H353.772V20.2592H347.68ZM347.896 18.0992H353.556V12.44H347.896V18.0992ZM358.371 20.2592V10.28H364.484V12.2456H366.212V10.28H370.381V12.2456H372.325V20.2592H370.165V12.44H366.428V20.2592H364.268V12.44H360.553V20.2592H358.371ZM374.93 20.2592V10.28H377.111V20.2592H374.93ZM374.93 8.552V6.3704H377.111V8.552H374.93ZM379.507 20.2592V18.0992H381.473V16.1336H383.417V14.168H385.404V12.44H379.507V10.28H389.551V12.44H387.564V14.384H385.62V16.3496H383.633V18.0992H389.551V20.2592H379.507ZM393.707 20.2592V18.3152H391.741V12.2456H393.707V10.28H399.798V12.2456H401.785V14.384H399.582V12.44H393.923V14.168H397.854V16.3496H393.923V18.0992H399.582V16.112H401.785V18.2936H399.798V20.2592H393.707ZM410.687 20.2592V18.3152H408.722V12.2456H410.687V10.28H416.779V12.2456H418.766V18.3152H416.779V20.2592H410.687ZM410.903 18.0992H416.563V12.44H410.903V18.0992ZM421.378 20.2592V12.2456H423.344V10.28H429.435V12.2456H431.422V14.384H429.219V12.44H423.56V20.2592H421.378ZM435.578 24.1688V22.2248H433.612V20.0648H435.794V22.0088H441.475V18.3152H435.578V16.3496H433.612V12.2456H435.578V10.28H441.691V12.2456H443.656V22.2248H441.691V24.1688H435.578ZM435.794 16.1336H441.475V12.44H435.794V16.1336ZM447.58 20.2592V18.3152H445.615V12.2456H447.58V10.28H453.672V12.2456H455.659V18.0992H457.624V20.2592H455.443V18.3152H453.672V20.2592H447.58ZM447.796 18.0992H453.456V12.44H447.796V18.0992ZM459.579 20.2592V10.28H467.636V12.2456H469.623V20.2592H467.42V12.44H461.76V20.2592H459.579ZM472.235 20.2592V10.28H474.417V20.2592H472.235ZM472.235 8.552V6.3704H474.417V8.552H472.235ZM477.023 20.2592V18.0992H484.864V16.3496H478.989V14.384H477.023V12.2456H478.989V10.28H487.067V12.44H479.205V14.168H485.08V16.1336H487.067V18.3152H485.08V20.2592H477.023ZM489.68 20.2592V10.28H495.792V12.2456H497.52V10.28H501.689V12.2456H503.633V20.2592H501.473V12.44H497.736V20.2592H495.576V12.44H491.861V20.2592H489.68ZM505.816 20.2592V18.0992H513.657V16.3496H507.782V14.384H505.816V12.2456H507.782V10.28H515.86V12.44H507.998V14.168H513.873V16.1336H515.86V18.3152H513.873V20.2592H505.816ZM524.762 20.2592V18.3152H522.797V6.3704H524.978V10.28H530.854V12.2456H532.841V18.3152H530.854V20.2592H524.762ZM524.978 18.0992H530.638V12.44H524.978V18.0992ZM536.997 24.1688V22.2248H535.031V20.0648H537.213V22.0088H542.894V18.3152H536.997V16.3496H535.031V10.28H537.213V16.1336H542.894V10.28H545.075V22.2248H543.11V24.1688H536.997ZM553.977 20.2592V18.3152H552.012V12.2456H553.977V10.28H560.068V12.2456H562.056V18.0992H564.021V20.2592H561.84V18.3152H560.068V20.2592H553.977ZM554.193 18.0992H559.852V12.44H554.193V18.0992ZM567.519 20.2592V18.3152H565.554V12.2456H567.519V10.28H573.416V6.3704H575.598V18.3152H573.611V20.2592H567.519ZM567.735 18.0992H573.395V12.44H567.735V18.0992ZM579.754 20.2808V18.3152H577.788V16.1336H579.97V18.0992H583.685V10.28H585.867V18.3152H583.901V20.2808H579.754ZM590.448 20.2592V18.3152H588.483V10.28H590.664V18.0992H596.324V10.28H598.527V18.3152H596.54V20.2592H590.448ZM600.928 20.2592V18.0992H608.769V16.3496H602.894V14.384H600.928V12.2456H602.894V10.28H610.972V12.44H603.11V14.168H608.985V16.1336H610.972V18.3152H608.985V20.2592H600.928ZM617.494 20.2592V18.3152H615.55V12.44H613.584V10.28H615.55V6.3704H617.71V10.28H623.628V12.44H617.71V18.0992H623.412V16.1336H625.594V18.3152H623.628V20.2592H617.494ZM628.202 20.2592V10.28H630.384V20.2592H628.202ZM628.202 8.552V6.3704H630.384V8.552H628.202ZM632.569 20.2592V10.28H640.625V12.2456H642.613V20.2592H640.409V12.44H634.75V20.2592H632.569ZM646.769 24.1688V22.2248H644.803V20.0648H646.985V22.0088H652.665V18.3152H646.769V16.3496H644.803V12.2456H646.769V10.28H652.881V12.2456H654.847V22.2248H652.881V24.1688H646.769ZM646.985 16.1336H652.665V12.44H646.985V16.1336ZM665.693 20.2592V18.3152H663.749V12.44H661.783V10.28H663.749V6.3704H665.909V10.28H671.827V12.44H665.909V18.0992H671.611V16.1336H673.793V18.3152H671.827V20.2592H665.693ZM676.401 20.2592V12.2456H678.367V10.28H684.458V12.2456H686.445V14.384H684.242V12.44H678.583V20.2592H676.401ZM690.369 20.2592V18.3152H688.404V12.2456H690.369V10.28H696.461V12.2456H698.448V18.0992H700.413V20.2592H698.232V18.3152H696.461V20.2592H690.369ZM690.585 18.0992H696.245V12.44H690.585V18.0992ZM702.368 20.2592V10.28H704.549V20.2592H702.368ZM702.368 8.552V6.3704H704.549V8.552H702.368ZM710.412 20.2592V18.3152H708.468V12.44H706.502V10.28H708.468V6.3704H710.628V10.28H716.546V12.44H710.628V18.0992H716.33V16.1336H718.512V18.3152H716.546V20.2592H710.412ZM720.698 20.2592V18.0992H728.539V16.3496H722.664V14.384H720.698V12.2456H722.664V10.28H730.742V12.44H722.88V14.168H728.755V16.1336H730.742V18.3152H728.755V20.2592H720.698ZM737.679 20.2592V6.3704H739.86V20.2592H737.679ZM742.467 20.2592V10.28H744.649V20.2592H742.467ZM742.467 8.552V6.3704H744.649V8.552H742.467ZM747.255 20.2592V6.3704H749.437V14.168H751.165V12.2456H755.096V10.28H757.299V12.44H755.312V14.384H751.381V16.1336H755.312V18.0992H757.299V20.2592H755.096V18.3152H751.165V16.3496H749.437V20.2592H747.255ZM760.591 20.2592V18.3152H758.625V12.2456H760.591V10.28H766.682V12.2456H768.669V14.384H766.466V12.44H760.807V14.168H764.738V16.3496H760.807V18.0992H766.466V16.112H768.669V18.2936H766.682V20.2592H760.591ZM775.605 20.2592V18.0992H783.446V16.3496H777.571V14.384H775.605V12.2456H777.571V10.28H785.649V12.44H777.787V14.168H783.662V16.1336H785.649V18.3152H783.662V20.2592H775.605ZM788.262 20.2592V10.28H790.443V20.2592H788.262ZM788.262 8.552V6.3704H790.443V8.552H788.262ZM792.839 20.2592V18.0992H794.805V16.1336H796.749V14.168H798.736V12.44H792.839V10.28H802.883V12.44H800.896V14.384H798.952V16.3496H796.965V18.0992H802.883V20.2592H792.839ZM807.039 20.2592V18.3152H805.073V12.2456H807.039V10.28H813.13V12.2456H815.117V14.384H812.914V12.44H807.255V14.168H811.186V16.3496H807.255V18.0992H812.914V16.112H815.117V18.2936H813.13V20.2592H807.039ZM818.702 21.944V20.7344H819.695V20H817.73V17.8184H819.911V19.784H820.883V20.9504H819.911V21.944H818.702ZM1.296 46.2592V44.0992H9.1368V42.3496H3.2616V40.384H1.296V38.2456H3.2616V36.28H11.34V38.44H3.4776V40.168H9.3528V42.1336H11.34V44.3152H9.3528V46.2592H1.296ZM13.9523 50.0608V38.2456H15.9179V36.28H22.0091V38.2456H23.9963V44.3152H22.0091V46.2592H16.1339V50.0608H13.9523ZM16.1339 44.0992H21.7931V38.44H16.1339V44.0992ZM28.5741 46.2592V44.3152H26.6085V38.2456H28.5741V36.28H34.6653V38.2456H36.6525V40.384H34.4493V38.44H28.7901V40.168H32.7213V42.3496H28.7901V44.0992H34.4493V42.112H36.6525V44.2936H34.6653V46.2592H28.5741ZM41.2304 46.2592V44.3152H39.2648V38.2456H41.2304V36.28H47.3216V38.2456H49.3088V40.384H47.1056V38.44H41.4464V40.168H45.3776V42.3496H41.4464V44.0992H47.1056V42.112H49.3088V44.2936H47.3216V46.2592H41.2304ZM53.8866 46.2592V44.3152H51.921V38.2456H53.8866V36.28H59.7834V32.3704H61.965V44.3152H59.9778V46.2592H53.8866ZM54.1026 44.0992H59.7618V38.44H54.1026V44.0992ZM65.5493 47.944V46.7344H66.5429V46H64.5773V43.8184H66.7589V45.784H67.7309V46.9504H66.7589V47.944H65.5493ZM74.6601 46.2592V36.28H76.8417V44.0992H80.5569V36.28H82.7169V44.0992H86.4537V36.28H88.6137V44.3152H86.6697V46.2592H82.5009V44.3152H80.7729V46.2592H74.6601ZM92.5304 46.2592V44.3152H90.5648V38.2456H92.5304V36.28H98.6216V38.2456H100.609V40.384H98.4056V38.44H92.7464V40.168H96.6776V42.3496H92.7464V44.0992H98.4056V42.112H100.609V44.2936H98.6216V46.2592H92.5304ZM105.187 46.2592V44.3152H103.221V38.2456H105.187V36.28H111.278V38.2456H113.265V44.0992H115.231V46.2592H113.049V44.3152H111.278V46.2592H105.187ZM105.403 44.0992H111.062V38.44H105.403V44.0992ZM117.839 50.0608V38.2456H119.805V36.28H125.896V38.2456H127.883V44.3152H125.896V46.2592H120.021V50.0608H117.839ZM120.021 44.0992H125.68V38.44H120.021V44.0992ZM132.461 46.2592V44.3152H130.495V38.2456H132.461V36.28H138.552V38.2456H140.539V44.3152H138.552V46.2592H132.461ZM132.677 44.0992H138.336V38.44H132.677V44.0992ZM143.151 46.2592V36.28H151.208V38.2456H153.195V46.2592H150.992V38.44H145.333V46.2592H143.151ZM155.386 46.2592V44.0992H163.227V42.3496H157.351V40.384H155.386V38.2456H157.351V36.28H165.43V38.44H157.567V40.168H163.443V42.1336H165.43V44.3152H163.443V46.2592H155.386ZM169.014 47.944V46.7344H170.008V46H168.042V43.8184H170.224V45.784H171.196V46.9504H170.224V47.944H169.014ZM180.091 46.2592V44.3152H178.125V38.2456H180.091V36.28H186.182V38.2456H188.169V44.0992H190.135V46.2592H187.953V44.3152H186.182V46.2592H180.091ZM180.307 44.0992H185.966V38.44H180.307V44.0992ZM192.089 46.2592V36.28H200.146V38.2456H202.133V46.2592H199.93V38.44H194.271V46.2592H192.089ZM206.289 46.2592V44.3152H204.323V38.2456H206.289V36.28H212.186V32.3704H214.367V44.3152H212.38V46.2592H206.289ZM206.505 44.0992H212.164V38.44H206.505V44.0992ZM223.269 46.2592V44.3152H221.304V38.2456H223.269V36.28H229.166V32.3704H231.348V44.3152H229.361V46.2592H223.269ZM223.485 44.0992H229.145V38.44H223.485V44.0992ZM235.504 46.2592V44.3152H233.538V38.2456H235.504V36.28H241.595V38.2456H243.582V40.384H241.379V38.44H235.72V40.168H239.651V42.3496H235.72V44.0992H241.379V42.112H243.582V44.2936H241.595V46.2592H235.504ZM246.194 46.2592V34.336H248.16V32.3704H254.251V34.336H256.238V36.496H254.035V34.552H248.376V38.2456H252.307V40.384H248.376V46.2592H246.194ZM258.665 46.2592V44.3152H256.699V38.2456H258.665V36.28H264.756V38.2456H266.743V40.384H264.54V38.44H258.881V40.168H262.812V42.3496H258.881V44.0992H264.54V42.112H266.743V44.2936H264.756V46.2592H258.665ZM269.355 46.2592V36.28H277.412V38.2456H279.399V46.2592H277.196V38.44H271.537V46.2592H269.355ZM281.59 46.2592V44.0992H289.431V42.3496H283.555V40.384H281.59V38.2456H283.555V36.28H291.634V38.44H283.771V40.168H289.647V42.1336H291.634V44.3152H289.647V46.2592H281.59ZM294.246 46.2592V36.28H296.428V46.2592H294.246ZM294.246 34.552V32.3704H296.428V34.552H294.246ZM302.749 46.2592V44.3152H300.784V40.384H298.818V36.28H301V40.168H302.944V44.0992H304.715V40.168H306.659V36.28H308.862V40.384H306.875V44.3152H304.931V46.2592H302.749ZM312.58 46.2592V44.3152H310.615V38.2456H312.58V36.28H318.672V38.2456H320.659V40.384H318.456V38.44H312.796V40.168H316.728V42.3496H312.796V44.0992H318.456V42.112H320.659V44.2936H318.672V46.2592H312.58ZM329.561 46.2592V44.3152H327.595V38.2456H329.561V36.28H335.652V38.2456H337.639V44.0992H339.605V46.2592H337.423V44.3152H335.652V46.2592H329.561ZM329.777 44.0992H335.436V38.44H329.777V44.0992ZM343.103 46.2592V44.3152H341.137V32.3704H343.319V36.28H349.194V38.2456H351.181V44.3152H349.194V46.2592H343.103ZM343.319 44.0992H348.978V38.44H343.319V44.0992ZM353.794 46.2592V36.28H355.975V46.2592H353.794ZM353.794 34.552V32.3704H355.975V34.552H353.794ZM358.582 46.2592V32.3704H360.764V46.2592H358.582ZM363.37 46.2592V36.28H365.552V46.2592H363.37ZM363.37 34.552V32.3704H365.552V34.552H363.37ZM371.414 46.2592V44.3152H369.47V38.44H367.505V36.28H369.47V32.3704H371.63V36.28H377.549V38.44H371.63V44.0992H377.333V42.1336H379.514V44.3152H377.549V46.2592H371.414ZM382.123 46.2592V36.28H384.304V46.2592H382.123ZM382.123 34.552V32.3704H384.304V34.552H382.123ZM388.455 46.2592V44.3152H386.489V38.2456H388.455V36.28H394.546V38.2456H396.533V40.384H394.33V38.44H388.671V40.168H392.602V42.3496H388.671V44.0992H394.33V42.112H396.533V44.2936H394.546V46.2592H388.455ZM399.145 46.2592V44.0992H406.986V42.3496H401.111V40.384H399.145V38.2456H401.111V36.28H409.189V38.44H401.327V40.168H407.202V42.1336H409.189V44.3152H407.202V46.2592H399.145ZM411.801 46V43.8184H413.983V46H411.801ZM420.914 46.2592V32.3704H427.027V34.336H428.971V36.28H430.958V42.3496H428.971V44.3152H427.027V46.2592H420.914ZM423.096 44.0992H426.811V42.1336H428.755V36.496H426.811V34.552H423.096V44.0992ZM435.536 46.2592V44.3152H433.57V38.2456H435.536V36.28H441.627V38.2456H443.614V40.384H441.411V38.44H435.752V40.168H439.683V42.3496H435.752V44.0992H441.411V42.112H443.614V44.2936H441.627V46.2592H435.536ZM446.226 50.0608V38.2456H448.192V36.28H454.283V38.2456H456.27V44.3152H454.283V46.2592H448.408V50.0608H446.226ZM448.408 44.0992H454.067V38.44H448.408V44.0992ZM458.883 46.2592V32.3704H461.064V46.2592H458.883ZM465.215 46.2592V44.3152H463.249V38.2456H465.215V36.28H471.306V38.2456H473.293V44.3152H471.306V46.2592H465.215ZM465.431 44.0992H471.09V38.44H465.431V44.0992ZM477.871 50.1688V48.2248H475.905V46.0648H478.087V48.0088H483.768V44.3152H477.871V42.3496H475.905V36.28H478.087V42.1336H483.768V36.28H485.949V48.2248H483.984V50.1688H477.871ZM496.795 46.2592V44.3152H494.851V38.44H492.886V36.28H494.851V32.3704H497.011V36.28H502.93V38.44H497.011V44.0992H502.714V42.1336H504.895V44.3152H502.93V46.2592H496.795ZM507.082 46.2592V32.3704H509.264V38.2456H510.992V36.28H515.139V38.2456H517.126V46.2592H514.923V38.44H511.208V40.384H509.264V46.2592H507.082ZM521.282 46.2592V44.3152H519.316V38.2456H521.282V36.28H527.373V38.2456H529.36V40.384H527.157V38.44H521.498V40.168H525.429V42.3496H521.498V44.0992H527.157V42.112H529.36V44.2936H527.373V46.2592H521.282ZM531.973 46.2592V36.28H538.085V38.2456H539.813V36.28H543.982V38.2456H545.926V46.2592H543.766V38.44H540.029V46.2592H537.869V38.44H534.154V46.2592H531.973ZM552.855 46.2592V36.28H555.037V46.2592H552.855ZM552.855 34.552V32.3704H555.037V34.552H552.855ZM557.222 46.2592V36.28H565.279V38.2456H567.266V46.2592H565.063V38.44H559.403V46.2592H557.222ZM572.923 46.2592V44.3152H570.979V38.44H569.013V36.28H570.979V32.3704H573.139V36.28H579.057V38.44H573.139V44.0992H578.841V42.1336H581.023V44.3152H579.057V46.2592H572.923ZM584.943 46.2592V44.3152H582.977V38.2456H584.943V36.28H591.034V38.2456H593.021V44.3152H591.034V46.2592H584.943ZM585.159 44.0992H590.818V38.44H585.159V44.0992ZM603.867 46.2592V44.3152H601.923V38.44H599.958V36.28H601.923V32.3704H604.083V36.28H610.002V38.44H604.083V44.0992H609.786V42.1336H611.967V44.3152H610.002V46.2592H603.867ZM614.154 46.2592V32.3704H616.335V38.2456H618.063V36.28H622.211V38.2456H624.198V46.2592H621.995V38.44H618.279V40.384H616.335V46.2592H614.154ZM628.354 46.2592V44.3152H626.388V38.2456H628.354V36.28H634.445V38.2456H636.432V40.384H634.229V38.44H628.57V40.168H632.501V42.3496H628.57V44.0992H634.229V42.112H636.432V44.2936H634.445V46.2592H628.354ZM643.369 46.2592V44.0992H651.209V42.3496H645.334V40.384H643.369V38.2456H645.334V36.28H653.413V38.44H645.55V40.168H651.425V42.1336H653.413V44.3152H651.425V46.2592H643.369ZM656.025 46.2592V36.28H658.206V46.2592H656.025ZM656.025 34.552V32.3704H658.206V34.552H656.025ZM660.391 46.2592V36.28H666.504V38.2456H668.232V36.28H672.401V38.2456H674.345V46.2592H672.185V38.44H668.448V46.2592H666.288V38.44H662.573V46.2592H660.391ZM678.494 46.2592V44.3152H676.528V36.28H678.71V44.0992H684.369V36.28H686.572V44.3152H684.585V46.2592H678.494ZM689.184 46.2592V32.3704H691.366V46.2592H689.184ZM695.516 46.2592V44.3152H693.551V38.2456H695.516V36.28H701.608V38.2456H703.595V44.0992H705.56V46.2592H703.379V44.3152H701.608V46.2592H695.516ZM695.732 44.0992H701.392V38.44H695.732V44.0992ZM709.695 46.2592V44.3152H707.751V38.44H705.785V36.28H707.751V32.3704H709.911V36.28H715.829V38.44H709.911V44.0992H715.613V42.1336H717.795V44.3152H715.829V46.2592H709.695ZM720.403 46.2592V36.28H722.585V46.2592H720.403ZM720.403 34.552V32.3704H722.585V34.552H720.403ZM726.735 46.2592V44.3152H724.769V38.2456H726.735V36.28H732.826V38.2456H734.813V44.3152H732.826V46.2592H726.735ZM726.951 44.0992H732.61V38.44H726.951V44.0992ZM737.426 46.2592V36.28H745.483V38.2456H747.47V46.2592H745.267V38.44H739.607V46.2592H737.426ZM756.372 46.2592V44.3152H754.406V38.2456H756.372V36.28H762.463V38.2456H764.45V44.0992H766.416V46.2592H764.234V44.3152H762.463V46.2592H756.372ZM756.588 44.0992H762.247V38.44H756.588V44.0992ZM768.37 46.2592V36.28H776.427V38.2456H778.414V46.2592H776.211V38.44H770.552V46.2592H768.37ZM782.57 46.2592V44.3152H780.605V38.2456H782.57V36.28H788.467V32.3704H790.649V44.3152H788.661V46.2592H782.57ZM782.786 44.0992H788.445V38.44H782.786V44.0992ZM801.495 46.2592V44.3152H799.551V38.44H797.585V36.28H799.551V32.3704H801.711V36.28H807.629V38.44H801.711V44.0992H807.413V42.1336H809.595V44.3152H807.629V46.2592H801.495ZM812.203 46.2592V38.2456H814.169V36.28H820.26V38.2456H822.247V40.384H820.044V38.44H814.385V46.2592H812.203ZM826.171 46.2592V44.3152H824.205V38.2456H826.171V36.28H832.262V38.2456H834.249V44.0992H836.215V46.2592H834.033V44.3152H832.262V46.2592H826.171ZM826.387 44.0992H832.046V38.44H826.387V44.0992ZM839.713 46.2592V44.3152H837.748V38.2456H839.713V36.28H845.804V38.2456H847.792V40.384H845.588V38.44H839.929V44.0992H845.588V42.1336H847.792V44.3152H845.804V46.2592H839.713ZM849.982 46.2592V32.3704H852.164V40.168H853.892V38.2456H857.823V36.28H860.026V38.44H858.039V40.384H854.108V42.1336H858.039V44.0992H860.026V46.2592H857.823V44.3152H853.892V42.3496H852.164V46.2592H849.982ZM1.296 72.2592V58.3704H3.4776V64.2456H5.2056V62.28H9.3528V64.2456H11.34V72.2592H9.1368V64.44H5.4216V66.384H3.4776V72.2592H1.296ZM15.496 72.2592V70.3152H13.5304V64.2456H15.496V62.28H21.5872V64.2456H23.5744V70.3152H21.5872V72.2592H15.496ZM15.712 70.0992H21.3712V64.44H15.712V70.0992ZM26.1866 72.2592V62.28H28.3682V70.0992H32.0834V62.28H34.2434V70.0992H37.9802V62.28H40.1402V70.3152H38.1962V72.2592H34.0274V70.3152H32.2994V72.2592H26.1866ZM50.979 72.2592V70.3152H49.035V64.44H47.0694V62.28H49.035V58.3704H51.195V62.28H57.1134V64.44H51.195V70.0992H56.8974V68.1336H59.079V70.3152H57.1134V72.2592H50.979ZM61.2655 72.2592V58.3704H63.4471V64.2456H65.1751V62.28H69.3223V64.2456H71.3095V72.2592H69.1063V64.44H65.3911V66.384H63.4471V72.2592H61.2655ZM75.4655 72.2592V70.3152H73.4999V64.2456H75.4655V62.28H81.5567V64.2456H83.5439V66.384H81.3407V64.44H75.6815V66.168H79.6127V68.3496H75.6815V70.0992H81.3407V68.112H83.5439V70.2936H81.5567V72.2592H75.4655ZM88.1218 76.1688V74.2248H86.1562V72.0648H88.3378V74.0088H94.0186V70.3152H88.1218V68.3496H86.1562V62.28H88.3378V68.1336H94.0186V62.28H96.2002V74.2248H94.2346V76.1688H88.1218ZM105.102 72.2592V70.3152H103.137V64.2456H105.102V62.28H111.193V64.2456H113.181V66.384H110.977V64.44H105.318V66.168H109.249V68.3496H105.318V70.0992H110.977V68.112H113.181V70.2936H111.193V72.2592H105.102ZM119.508 72.2592V70.3152H117.542V66.384H115.577V62.28H117.758V66.168H119.702V70.0992H121.474V66.168H123.418V62.28H125.621V66.384H123.634V70.3152H121.69V72.2592H119.508ZM129.339 72.2592V70.3152H127.373V64.2456H129.339V62.28H135.43V64.2456H137.417V70.3152H135.43V72.2592H129.339ZM129.555 70.0992H135.214V64.44H129.555V70.0992ZM140.03 72.2592V58.3704H142.211V72.2592H140.03ZM147.879 72.2592V70.3152H145.914V66.384H143.948V62.28H146.13V66.168H148.074V70.0992H149.845V66.168H151.789V62.28H153.992V66.384H152.005V70.3152H150.061V72.2592H147.879ZM157.71 72.2592V70.3152H155.744V64.2456H157.71V62.28H163.801V64.2456H165.788V66.384H163.585V64.44H157.926V66.168H161.857V68.3496H157.926V70.0992H163.585V68.112H165.788V70.2936H163.801V72.2592H157.71ZM176.635 72.2592V70.3152H174.691V64.44H172.725V62.28H174.691V58.3704H176.851V62.28H182.769V64.44H176.851V70.0992H182.553V68.1336H184.735V70.3152H182.769V72.2592H176.635ZM188.655 72.2592V70.3152H186.689V64.2456H188.655V62.28H194.746V64.2456H196.733V70.3152H194.746V72.2592H188.655ZM188.871 70.0992H194.53V64.44H188.871V70.0992ZM203.669 72.2592V70.0992H211.51V68.3496H205.635V66.384H203.669V64.2456H205.635V62.28H213.713V64.44H205.851V66.168H211.726V68.1336H213.713V70.3152H211.726V72.2592H203.669ZM218.291 72.2592V70.3152H216.326V62.28H218.507V70.0992H224.166V62.28H226.37V70.3152H224.382V72.2592H218.291ZM228.771 72.2592V64.2456H230.737V62.28H236.828V64.2456H238.815V66.384H236.612V64.44H230.953V72.2592H228.771ZM244.721 72.2592V70.3152H242.755V66.384H240.789V62.28H242.971V66.168H244.915V70.0992H246.686V66.168H248.63V62.28H250.833V66.384H248.846V70.3152H246.902V72.2592H244.721ZM253.029 72.2592V62.28H255.21V72.2592H253.029ZM253.029 60.552V58.3704H255.21V60.552H253.029ZM261.532 72.2592V70.3152H259.567V66.384H257.601V62.28H259.783V66.168H261.727V70.0992H263.498V66.168H265.442V62.28H267.645V66.384H265.658V70.3152H263.714V72.2592H261.532ZM271.363 72.2592V70.3152H269.398V64.2456H271.363V62.28H277.454V64.2456H279.442V66.384H277.238V64.44H271.579V66.168H275.51V68.3496H271.579V70.0992H277.238V68.112H279.442V70.2936H277.454V72.2592H271.363ZM286.378 72.2592V62.28H288.56V72.2592H286.378ZM286.378 60.552V58.3704H288.56V60.552H286.378ZM290.744 72.2592V62.28H298.801V64.2456H300.788V72.2592H298.585V64.44H292.926V72.2592H290.744ZM311.634 72.2592V70.3152H309.69V64.44H307.725V62.28H309.69V58.3704H311.85V62.28H317.769V64.44H311.85V70.0992H317.553V68.1336H319.734V70.3152H317.769V72.2592H311.634ZM321.921 72.2592V58.3704H324.103V64.2456H325.831V62.28H329.978V64.2456H331.965V72.2592H329.762V64.44H326.047V66.384H324.103V72.2592H321.921ZM336.121 72.2592V70.3152H334.155V64.2456H336.121V62.28H342.212V64.2456H344.199V66.384H341.996V64.44H336.337V66.168H340.268V68.3496H336.337V70.0992H341.996V68.112H344.199V70.2936H342.212V72.2592H336.121ZM346.812 72.2592V62.28H348.993V72.2592H346.812ZM346.812 60.552V58.3704H348.993V60.552H346.812ZM351.6 72.2592V64.2456H353.565V62.28H359.657V64.2456H361.644V66.384H359.441V64.44H353.781V72.2592H351.6ZM370.546 72.2592V70.3152H368.58V64.2456H370.546V62.28H376.637V64.2456H378.624V66.384H376.421V64.44H370.762V66.168H374.693V68.3496H370.762V70.0992H376.421V68.112H378.624V70.2936H376.637V72.2592H370.546ZM381.237 72.2592V62.28H389.293V64.2456H391.281V72.2592H389.077V64.44H383.418V72.2592H381.237ZM396.743 72.2592V70.3152H394.778V66.384H392.812V62.28H394.994V66.168H396.938V70.0992H398.709V66.168H400.653V62.28H402.856V66.384H400.869V70.3152H398.925V72.2592H396.743ZM405.051 72.2592V62.28H407.233V72.2592H405.051ZM405.051 60.552V58.3704H407.233V60.552H405.051ZM409.84 72.2592V64.2456H411.805V62.28H417.897V64.2456H419.884V66.384H417.681V64.44H412.021V72.2592H409.84ZM423.808 72.2592V70.3152H421.842V64.2456H423.808V62.28H429.899V64.2456H431.886V70.3152H429.899V72.2592H423.808ZM424.024 70.0992H429.683V64.44H424.024V70.0992ZM434.498 72.2592V62.28H442.555V64.2456H444.542V72.2592H442.339V64.44H436.68V72.2592H434.498ZM447.155 72.2592V62.28H453.267V64.2456H454.995V62.28H459.164V64.2456H461.108V72.2592H458.948V64.44H455.211V72.2592H453.051V64.44H449.336V72.2592H447.155ZM465.468 72.2592V70.3152H463.502V64.2456H465.468V62.28H471.559V64.2456H473.546V66.384H471.343V64.44H465.684V66.168H469.615V68.3496H465.684V70.0992H471.343V68.112H473.546V70.2936H471.559V72.2592H465.468ZM476.158 72.2592V62.28H484.215V64.2456H486.202V72.2592H483.999V64.44H478.34V72.2592H476.158ZM491.86 72.2592V70.3152H489.916V64.44H487.95V62.28H489.916V58.3704H492.076V62.28H497.994V64.44H492.076V70.0992H497.778V68.1336H499.96V70.3152H497.994V72.2592H491.86ZM502.568 72V69.8184H504.749V72H502.568Z" fill="#1A1A1A"/>
</svg>
