<svg width="893" height="137" viewBox="0 0 893 137" fill="none" xmlns="http://www.w3.org/2000/svg">
<rect width="893" height="137" fill="#4AE3B5"/>
<path d="M1.68 26.336V13.4H4.228V10.88H6.748V8.332H9.604V10.88H12.124V13.4H14.7V26.336H11.844V21.268H4.508V26.336H1.68ZM4.508 18.44H11.844V13.68H9.324V11.16H7.028V13.68H4.508V18.44ZM22.6074 26.336V23.816H20.0874V16.2H17.5394V13.4H20.0874V8.332H22.8874V13.4H30.5594V16.2H22.8874V23.536H30.2794V20.988H33.1074V23.816H30.5594V26.336H22.6074ZM39.5878 26.336V23.816H37.0678V16.2H34.5198V13.4H37.0678V8.332H39.8678V13.4H47.5398V16.2H39.8678V23.536H47.2598V20.988H50.0878V23.816H47.5398V26.336H39.5878ZM53.4691 26.336V15.948H56.0171V13.4H63.9131V15.948H66.4891V18.72H63.6331V16.2H56.2971V26.336H53.4691ZM69.8753 26.336V13.4H72.7033V26.336H69.8753ZM69.8753 11.16V8.332H72.7033V11.16H69.8753ZM78.3569 26.336V23.816H75.8089V8.332H78.6369V13.4H86.2529V15.948H88.8289V23.816H86.2529V26.336H78.3569ZM78.6369 23.536H85.9729V16.2H78.6369V23.536ZM94.7632 26.336V23.816H92.2152V13.4H95.0432V23.536H102.379V13.4H105.235V23.816H102.659V26.336H94.7632ZM112.568 26.336V23.816H110.048V16.2H107.5V13.4H110.048V8.332H112.848V13.4H120.52V16.2H112.848V23.536H120.24V20.988H123.068V23.816H120.52V26.336H112.568ZM128.15 26.336V23.816H125.602V15.948H128.15V13.4H136.046V15.948H138.622V18.72H135.766V16.2H128.43V18.44H133.526V21.268H128.43V23.536H135.766V20.96H138.622V23.788H136.046V26.336H128.15ZM142.008 26.336V23.536H152.172V21.268H144.556V18.72H142.008V15.948H144.556V13.4H155.028V16.2H144.836V18.44H152.452V20.988H155.028V23.816H152.452V26.336H142.008ZM169.088 30.48V25.328H166.568V20.288H164.02V14.94H166.568V9.844H169.088V4.804H171.944V10.124H169.368V15.22H166.848V20.008H169.368V25.132H171.944V30.48H169.088ZM177.041 26.336V23.816H174.493V10.88H177.041V8.332H184.937V10.88H187.513V16.2H184.937V18.44H187.513V23.816H184.937V26.336H177.041ZM177.321 23.536H184.657V18.72H179.561V15.948H184.657V11.16H177.321V23.536ZM193.447 26.336V23.816H190.899V10.88H193.447V8.332H201.343V10.88H203.919V23.816H201.343V26.336H193.447ZM193.727 23.536H201.063V11.16H193.727V23.536ZM207.305 26.336V8.332H215.229V10.88H217.749V13.4H220.325V21.268H217.749V23.816H215.229V26.336H207.305ZM210.133 23.536H214.949V20.988H217.469V13.68H214.949V11.16H210.133V23.536ZM227.111 26.336V16.2H224.591V13.68H222.043V8.332H224.871V13.4H227.391V15.948H229.687V13.4H232.207V8.332H235.063V13.68H232.487V16.2H229.967V26.336H227.111ZM237.61 30.48V25.132H240.158V20.008H242.706V15.22H240.158V10.124H237.61V4.804H240.438V9.844H242.986V14.94H245.534V20.288H242.986V25.328H240.438V30.48H237.61ZM3.2616 78.2592V76.3152H1.296V64.3704H3.4776V76.0992H5.2056V72.168H7.1928V66.336H9.3528V72.168H11.34V76.0992H13.0896V64.3704H15.2496V76.3152H13.3056V78.2592H11.124V76.3152H9.1368V72.384H7.4088V76.3152H5.4216V78.2592H3.2616ZM19.1663 78.2592V76.3152H17.2007V70.2456H19.1663V68.28H25.2575V70.2456H27.2447V72.384H25.0415V70.44H19.3823V72.168H23.3135V74.3496H19.3823V76.0992H25.0415V74.112H27.2447V76.2936H25.2575V78.2592H19.1663ZM29.8569 78.2592V64.3704H32.0385V78.2592H29.8569ZM35.9569 78.2592V76.3152H33.9913V70.2456H35.9569V68.28H42.0481V70.2456H44.0353V72.384H41.8321V70.44H36.1729V76.0992H41.8321V74.1336H44.0353V76.3152H42.0481V78.2592H35.9569ZM47.9593 78.2592V76.3152H45.9937V70.2456H47.9593V68.28H54.0505V70.2456H56.0377V76.3152H54.0505V78.2592H47.9593ZM48.1753 76.0992H53.8345V70.44H48.1753V76.0992ZM58.6499 78.2592V68.28H64.7627V70.2456H66.4907V68.28H70.6595V70.2456H72.6035V78.2592H70.4435V70.44H66.7067V78.2592H64.5467V70.44H60.8315V78.2592H58.6499ZM76.9632 78.2592V76.3152H74.9976V70.2456H76.9632V68.28H83.0544V70.2456H85.0416V72.384H82.8384V70.44H77.1792V72.168H81.1104V74.3496H77.1792V76.0992H82.8384V74.112H85.0416V76.2936H83.0544V78.2592H76.9632ZM95.8876 78.2592V76.3152H93.9436V70.44H91.978V68.28H93.9436V64.3704H96.1036V68.28H102.022V70.44H96.1036V76.0992H101.806V74.1336H103.988V76.3152H102.022V78.2592H95.8876ZM107.908 78.2592V76.3152H105.942V70.2456H107.908V68.28H113.999V70.2456H115.986V76.3152H113.999V78.2592H107.908ZM108.124 76.0992H113.783V70.44H108.124V76.0992ZM126.832 78.2592V76.3152H124.888V70.44H122.923V68.28H124.888V64.3704H127.048V68.28H132.967V70.44H127.048V76.0992H132.751V74.1336H134.932V76.3152H132.967V78.2592H126.832ZM137.119 78.2592V64.3704H139.3V70.2456H141.028V68.28H145.175V70.2456H147.163V78.2592H144.959V70.44H141.244V72.384H139.3V78.2592H137.119ZM151.319 78.2592V76.3152H149.353V70.2456H151.319V68.28H157.41V70.2456H159.397V72.384H157.194V70.44H151.535V72.168H155.466V74.3496H151.535V76.0992H157.194V74.112H159.397V76.2936H157.41V78.2592H151.319ZM166.334 78.2592V64.3704H168.515V78.2592H166.334ZM172.666 78.2592V76.3152H170.7V70.2456H172.666V68.28H178.757V70.2456H180.744V76.0992H182.71V78.2592H180.528V76.3152H178.757V78.2592H172.666ZM172.882 76.0992H178.541V70.44H172.882V76.0992ZM186.208 78.2592V76.3152H184.242V64.3704H186.424V68.28H192.299V70.2456H194.286V76.3152H192.299V78.2592H186.208ZM186.424 76.0992H192.083V70.44H186.424V76.0992ZM198.442 78.2592V76.3152H196.476V70.2456H198.442V68.28H204.533V70.2456H206.52V76.3152H204.533V78.2592H198.442ZM198.658 76.0992H204.317V70.44H198.658V76.0992ZM209.133 78.2592V70.2456H211.098V68.28H217.19V70.2456H219.177V72.384H216.974V70.44H211.314V78.2592H209.133ZM223.101 78.2592V76.3152H221.135V70.2456H223.101V68.28H229.192V70.2456H231.179V76.0992H233.145V78.2592H230.963V76.3152H229.192V78.2592H223.101ZM223.317 76.0992H228.976V70.44H223.317V76.0992ZM237.279 78.2592V76.3152H235.335V70.44H233.369V68.28H235.335V64.3704H237.495V68.28H243.413V70.44H237.495V76.0992H243.197V74.1336H245.379V76.3152H243.413V78.2592H237.279ZM249.299 78.2592V76.3152H247.334V70.2456H249.299V68.28H255.39V70.2456H257.378V76.3152H255.39V78.2592H249.299ZM249.515 76.0992H255.174V70.44H249.515V76.0992ZM259.99 78.2592V70.2456H261.955V68.28H268.047V70.2456H270.034V72.384H267.831V70.44H262.171V78.2592H259.99ZM274.19 82.1688V80.2248H272.224V78.0648H274.406V80.0088H280.087V76.3152H274.19V74.3496H272.224V68.28H274.406V74.1336H280.087V68.28H282.268V80.2248H280.303V82.1688H274.19ZM284.88 78V75.8184H287.062V78H284.88ZM295.958 78.2592V76.3152H293.993V66.336H295.958V64.3704H302.05V66.336H304.037V70.44H301.834V66.552H296.174V76.0992H301.834V72.168H304.037V76.3152H302.05V78.2592H295.958ZM308.615 78.2592V76.3152H306.649V68.28H308.831V76.0992H314.49V68.28H316.693V76.3152H314.706V78.2592H308.615ZM319.094 78.2592V76.0992H326.935V74.3496H321.06V72.384H319.094V70.2456H321.06V68.28H329.138V70.44H321.276V72.168H327.151V74.1336H329.138V76.3152H327.151V78.2592H319.094ZM335.66 78.2592V76.3152H333.716V70.44H331.751V68.28H333.716V64.3704H335.876V68.28H341.795V70.44H335.876V76.0992H341.579V74.1336H343.76V76.3152H341.795V78.2592H335.66ZM347.68 78.2592V76.3152H345.715V70.2456H347.68V68.28H353.772V70.2456H355.759V76.3152H353.772V78.2592H347.68ZM347.896 76.0992H353.556V70.44H347.896V76.0992ZM358.371 78.2592V68.28H364.484V70.2456H366.212V68.28H370.381V70.2456H372.325V78.2592H370.165V70.44H366.428V78.2592H364.268V70.44H360.553V78.2592H358.371ZM374.93 78.2592V68.28H377.111V78.2592H374.93ZM374.93 66.552V64.3704H377.111V66.552H374.93ZM379.507 78.2592V76.0992H381.473V74.1336H383.417V72.168H385.404V70.44H379.507V68.28H389.551V70.44H387.564V72.384H385.62V74.3496H383.633V76.0992H389.551V78.2592H379.507ZM393.707 78.2592V76.3152H391.741V70.2456H393.707V68.28H399.798V70.2456H401.785V72.384H399.582V70.44H393.923V72.168H397.854V74.3496H393.923V76.0992H399.582V74.112H401.785V76.2936H399.798V78.2592H393.707ZM410.687 78.2592V76.3152H408.722V70.2456H410.687V68.28H416.779V70.2456H418.766V76.3152H416.779V78.2592H410.687ZM410.903 76.0992H416.563V70.44H410.903V76.0992ZM421.378 78.2592V70.2456H423.344V68.28H429.435V70.2456H431.422V72.384H429.219V70.44H423.56V78.2592H421.378ZM435.578 82.1688V80.2248H433.612V78.0648H435.794V80.0088H441.475V76.3152H435.578V74.3496H433.612V70.2456H435.578V68.28H441.691V70.2456H443.656V80.2248H441.691V82.1688H435.578ZM435.794 74.1336H441.475V70.44H435.794V74.1336ZM447.58 78.2592V76.3152H445.615V70.2456H447.58V68.28H453.672V70.2456H455.659V76.0992H457.624V78.2592H455.443V76.3152H453.672V78.2592H447.58ZM447.796 76.0992H453.456V70.44H447.796V76.0992ZM459.579 78.2592V68.28H467.636V70.2456H469.623V78.2592H467.42V70.44H461.76V78.2592H459.579ZM472.235 78.2592V68.28H474.417V78.2592H472.235ZM472.235 66.552V64.3704H474.417V66.552H472.235ZM477.023 78.2592V76.0992H484.864V74.3496H478.989V72.384H477.023V70.2456H478.989V68.28H487.067V70.44H479.205V72.168H485.08V74.1336H487.067V76.3152H485.08V78.2592H477.023ZM489.68 78.2592V68.28H495.792V70.2456H497.52V68.28H501.689V70.2456H503.633V78.2592H501.473V70.44H497.736V78.2592H495.576V70.44H491.861V78.2592H489.68ZM505.816 78.2592V76.0992H513.657V74.3496H507.782V72.384H505.816V70.2456H507.782V68.28H515.86V70.44H507.998V72.168H513.873V74.1336H515.86V76.3152H513.873V78.2592H505.816ZM524.762 78.2592V76.3152H522.797V64.3704H524.978V68.28H530.854V70.2456H532.841V76.3152H530.854V78.2592H524.762ZM524.978 76.0992H530.638V70.44H524.978V76.0992ZM536.997 82.1688V80.2248H535.031V78.0648H537.213V80.0088H542.894V76.3152H536.997V74.3496H535.031V68.28H537.213V74.1336H542.894V68.28H545.075V80.2248H543.11V82.1688H536.997ZM553.977 78.2592V76.3152H552.012V70.2456H553.977V68.28H560.068V70.2456H562.056V76.0992H564.021V78.2592H561.84V76.3152H560.068V78.2592H553.977ZM554.193 76.0992H559.852V70.44H554.193V76.0992ZM567.519 78.2592V76.3152H565.554V70.2456H567.519V68.28H573.416V64.3704H575.598V76.3152H573.611V78.2592H567.519ZM567.735 76.0992H573.395V70.44H567.735V76.0992ZM579.754 78.2808V76.3152H577.788V74.1336H579.97V76.0992H583.685V68.28H585.867V76.3152H583.901V78.2808H579.754ZM590.448 78.2592V76.3152H588.483V68.28H590.664V76.0992H596.324V68.28H598.527V76.3152H596.54V78.2592H590.448ZM600.928 78.2592V76.0992H608.769V74.3496H602.894V72.384H600.928V70.2456H602.894V68.28H610.972V70.44H603.11V72.168H608.985V74.1336H610.972V76.3152H608.985V78.2592H600.928ZM617.494 78.2592V76.3152H615.55V70.44H613.584V68.28H615.55V64.3704H617.71V68.28H623.628V70.44H617.71V76.0992H623.412V74.1336H625.594V76.3152H623.628V78.2592H617.494ZM628.202 78.2592V68.28H630.384V78.2592H628.202ZM628.202 66.552V64.3704H630.384V66.552H628.202ZM632.569 78.2592V68.28H640.625V70.2456H642.613V78.2592H640.409V70.44H634.75V78.2592H632.569ZM646.769 82.1688V80.2248H644.803V78.0648H646.985V80.0088H652.665V76.3152H646.769V74.3496H644.803V70.2456H646.769V68.28H652.881V70.2456H654.847V80.2248H652.881V82.1688H646.769ZM646.985 74.1336H652.665V70.44H646.985V74.1336ZM665.693 78.2592V76.3152H663.749V70.44H661.783V68.28H663.749V64.3704H665.909V68.28H671.827V70.44H665.909V76.0992H671.611V74.1336H673.793V76.3152H671.827V78.2592H665.693ZM676.401 78.2592V70.2456H678.367V68.28H684.458V70.2456H686.445V72.384H684.242V70.44H678.583V78.2592H676.401ZM690.369 78.2592V76.3152H688.404V70.2456H690.369V68.28H696.461V70.2456H698.448V76.0992H700.413V78.2592H698.232V76.3152H696.461V78.2592H690.369ZM690.585 76.0992H696.245V70.44H690.585V76.0992ZM702.368 78.2592V68.28H704.549V78.2592H702.368ZM702.368 66.552V64.3704H704.549V66.552H702.368ZM710.412 78.2592V76.3152H708.468V70.44H706.502V68.28H708.468V64.3704H710.628V68.28H716.546V70.44H710.628V76.0992H716.33V74.1336H718.512V76.3152H716.546V78.2592H710.412ZM720.698 78.2592V76.0992H728.539V74.3496H722.664V72.384H720.698V70.2456H722.664V68.28H730.742V70.44H722.88V72.168H728.755V74.1336H730.742V76.3152H728.755V78.2592H720.698ZM737.679 78.2592V64.3704H739.86V78.2592H737.679ZM742.467 78.2592V68.28H744.649V78.2592H742.467ZM742.467 66.552V64.3704H744.649V66.552H742.467ZM747.255 78.2592V64.3704H749.437V72.168H751.165V70.2456H755.096V68.28H757.299V70.44H755.312V72.384H751.381V74.1336H755.312V76.0992H757.299V78.2592H755.096V76.3152H751.165V74.3496H749.437V78.2592H747.255ZM760.591 78.2592V76.3152H758.625V70.2456H760.591V68.28H766.682V70.2456H768.669V72.384H766.466V70.44H760.807V72.168H764.738V74.3496H760.807V76.0992H766.466V74.112H768.669V76.2936H766.682V78.2592H760.591ZM775.605 78.2592V76.0992H783.446V74.3496H777.571V72.384H775.605V70.2456H777.571V68.28H785.649V70.44H777.787V72.168H783.662V74.1336H785.649V76.3152H783.662V78.2592H775.605ZM788.262 78.2592V68.28H790.443V78.2592H788.262ZM788.262 66.552V64.3704H790.443V66.552H788.262ZM792.839 78.2592V76.0992H794.805V74.1336H796.749V72.168H798.736V70.44H792.839V68.28H802.883V70.44H800.896V72.384H798.952V74.3496H796.965V76.0992H802.883V78.2592H792.839ZM807.039 78.2592V76.3152H805.073V70.2456H807.039V68.28H813.13V70.2456H815.117V72.384H812.914V70.44H807.255V72.168H811.186V74.3496H807.255V76.0992H812.914V74.112H815.117V76.2936H813.13V78.2592H807.039ZM818.702 79.944V78.7344H819.695V78H817.73V75.8184H819.911V77.784H820.883V78.9504H819.911V79.944H818.702ZM1.296 104.259V102.099H9.1368V100.35H3.2616V98.384H1.296V96.2456H3.2616V94.28H11.34V96.44H3.4776V98.168H9.3528V100.134H11.34V102.315H9.3528V104.259H1.296ZM13.9523 108.061V96.2456H15.9179V94.28H22.0091V96.2456H23.9963V102.315H22.0091V104.259H16.1339V108.061H13.9523ZM16.1339 102.099H21.7931V96.44H16.1339V102.099ZM28.5741 104.259V102.315H26.6085V96.2456H28.5741V94.28H34.6653V96.2456H36.6525V98.384H34.4493V96.44H28.7901V98.168H32.7213V100.35H28.7901V102.099H34.4493V100.112H36.6525V102.294H34.6653V104.259H28.5741ZM41.2304 104.259V102.315H39.2648V96.2456H41.2304V94.28H47.3216V96.2456H49.3088V98.384H47.1056V96.44H41.4464V98.168H45.3776V100.35H41.4464V102.099H47.1056V100.112H49.3088V102.294H47.3216V104.259H41.2304ZM53.8866 104.259V102.315H51.921V96.2456H53.8866V94.28H59.7834V90.3704H61.965V102.315H59.9778V104.259H53.8866ZM54.1026 102.099H59.7618V96.44H54.1026V102.099ZM65.5493 105.944V104.734H66.5429V104H64.5773V101.818H66.7589V103.784H67.7309V104.95H66.7589V105.944H65.5493ZM74.6601 104.259V94.28H76.8417V102.099H80.5569V94.28H82.7169V102.099H86.4537V94.28H88.6137V102.315H86.6697V104.259H82.5009V102.315H80.7729V104.259H74.6601ZM92.5304 104.259V102.315H90.5648V96.2456H92.5304V94.28H98.6216V96.2456H100.609V98.384H98.4056V96.44H92.7464V98.168H96.6776V100.35H92.7464V102.099H98.4056V100.112H100.609V102.294H98.6216V104.259H92.5304ZM105.187 104.259V102.315H103.221V96.2456H105.187V94.28H111.278V96.2456H113.265V102.099H115.231V104.259H113.049V102.315H111.278V104.259H105.187ZM105.403 102.099H111.062V96.44H105.403V102.099ZM117.839 108.061V96.2456H119.805V94.28H125.896V96.2456H127.883V102.315H125.896V104.259H120.021V108.061H117.839ZM120.021 102.099H125.68V96.44H120.021V102.099ZM132.461 104.259V102.315H130.495V96.2456H132.461V94.28H138.552V96.2456H140.539V102.315H138.552V104.259H132.461ZM132.677 102.099H138.336V96.44H132.677V102.099ZM143.151 104.259V94.28H151.208V96.2456H153.195V104.259H150.992V96.44H145.333V104.259H143.151ZM155.386 104.259V102.099H163.227V100.35H157.351V98.384H155.386V96.2456H157.351V94.28H165.43V96.44H157.567V98.168H163.443V100.134H165.43V102.315H163.443V104.259H155.386ZM169.014 105.944V104.734H170.008V104H168.042V101.818H170.224V103.784H171.196V104.95H170.224V105.944H169.014ZM180.091 104.259V102.315H178.125V96.2456H180.091V94.28H186.182V96.2456H188.169V102.099H190.135V104.259H187.953V102.315H186.182V104.259H180.091ZM180.307 102.099H185.966V96.44H180.307V102.099ZM192.089 104.259V94.28H200.146V96.2456H202.133V104.259H199.93V96.44H194.271V104.259H192.089ZM206.289 104.259V102.315H204.323V96.2456H206.289V94.28H212.186V90.3704H214.367V102.315H212.38V104.259H206.289ZM206.505 102.099H212.164V96.44H206.505V102.099ZM223.269 104.259V102.315H221.304V96.2456H223.269V94.28H229.166V90.3704H231.348V102.315H229.361V104.259H223.269ZM223.485 102.099H229.145V96.44H223.485V102.099ZM235.504 104.259V102.315H233.538V96.2456H235.504V94.28H241.595V96.2456H243.582V98.384H241.379V96.44H235.72V98.168H239.651V100.35H235.72V102.099H241.379V100.112H243.582V102.294H241.595V104.259H235.504ZM246.194 104.259V92.336H248.16V90.3704H254.251V92.336H256.238V94.496H254.035V92.552H248.376V96.2456H252.307V98.384H248.376V104.259H246.194ZM258.665 104.259V102.315H256.699V96.2456H258.665V94.28H264.756V96.2456H266.743V98.384H264.54V96.44H258.881V98.168H262.812V100.35H258.881V102.099H264.54V100.112H266.743V102.294H264.756V104.259H258.665ZM269.355 104.259V94.28H277.412V96.2456H279.399V104.259H277.196V96.44H271.537V104.259H269.355ZM281.59 104.259V102.099H289.431V100.35H283.555V98.384H281.59V96.2456H283.555V94.28H291.634V96.44H283.771V98.168H289.647V100.134H291.634V102.315H289.647V104.259H281.59ZM294.246 104.259V94.28H296.428V104.259H294.246ZM294.246 92.552V90.3704H296.428V92.552H294.246ZM302.749 104.259V102.315H300.784V98.384H298.818V94.28H301V98.168H302.944V102.099H304.715V98.168H306.659V94.28H308.862V98.384H306.875V102.315H304.931V104.259H302.749ZM312.58 104.259V102.315H310.615V96.2456H312.58V94.28H318.672V96.2456H320.659V98.384H318.456V96.44H312.796V98.168H316.728V100.35H312.796V102.099H318.456V100.112H320.659V102.294H318.672V104.259H312.58ZM329.561 104.259V102.315H327.595V96.2456H329.561V94.28H335.652V96.2456H337.639V102.099H339.605V104.259H337.423V102.315H335.652V104.259H329.561ZM329.777 102.099H335.436V96.44H329.777V102.099ZM343.103 104.259V102.315H341.137V90.3704H343.319V94.28H349.194V96.2456H351.181V102.315H349.194V104.259H343.103ZM343.319 102.099H348.978V96.44H343.319V102.099ZM353.794 104.259V94.28H355.975V104.259H353.794ZM353.794 92.552V90.3704H355.975V92.552H353.794ZM358.582 104.259V90.3704H360.764V104.259H358.582ZM363.37 104.259V94.28H365.552V104.259H363.37ZM363.37 92.552V90.3704H365.552V92.552H363.37ZM371.414 104.259V102.315H369.47V96.44H367.505V94.28H369.47V90.3704H371.63V94.28H377.549V96.44H371.63V102.099H377.333V100.134H379.514V102.315H377.549V104.259H371.414ZM382.123 104.259V94.28H384.304V104.259H382.123ZM382.123 92.552V90.3704H384.304V92.552H382.123ZM388.455 104.259V102.315H386.489V96.2456H388.455V94.28H394.546V96.2456H396.533V98.384H394.33V96.44H388.671V98.168H392.602V100.35H388.671V102.099H394.33V100.112H396.533V102.294H394.546V104.259H388.455ZM399.145 104.259V102.099H406.986V100.35H401.111V98.384H399.145V96.2456H401.111V94.28H409.189V96.44H401.327V98.168H407.202V100.134H409.189V102.315H407.202V104.259H399.145ZM411.801 104V101.818H413.983V104H411.801ZM420.914 104.259V90.3704H427.027V92.336H428.971V94.28H430.958V100.35H428.971V102.315H427.027V104.259H420.914ZM423.096 102.099H426.811V100.134H428.755V94.496H426.811V92.552H423.096V102.099ZM435.536 104.259V102.315H433.57V96.2456H435.536V94.28H441.627V96.2456H443.614V98.384H441.411V96.44H435.752V98.168H439.683V100.35H435.752V102.099H441.411V100.112H443.614V102.294H441.627V104.259H435.536ZM446.226 108.061V96.2456H448.192V94.28H454.283V96.2456H456.27V102.315H454.283V104.259H448.408V108.061H446.226ZM448.408 102.099H454.067V96.44H448.408V102.099ZM458.883 104.259V90.3704H461.064V104.259H458.883ZM465.215 104.259V102.315H463.249V96.2456H465.215V94.28H471.306V96.2456H473.293V102.315H471.306V104.259H465.215ZM465.431 102.099H471.09V96.44H465.431V102.099ZM477.871 108.169V106.225H475.905V104.065H478.087V106.009H483.768V102.315H477.871V100.35H475.905V94.28H478.087V100.134H483.768V94.28H485.949V106.225H483.984V108.169H477.871ZM496.795 104.259V102.315H494.851V96.44H492.886V94.28H494.851V90.3704H497.011V94.28H502.93V96.44H497.011V102.099H502.714V100.134H504.895V102.315H502.93V104.259H496.795ZM507.082 104.259V90.3704H509.264V96.2456H510.992V94.28H515.139V96.2456H517.126V104.259H514.923V96.44H511.208V98.384H509.264V104.259H507.082ZM521.282 104.259V102.315H519.316V96.2456H521.282V94.28H527.373V96.2456H529.36V98.384H527.157V96.44H521.498V98.168H525.429V100.35H521.498V102.099H527.157V100.112H529.36V102.294H527.373V104.259H521.282ZM531.973 104.259V94.28H538.085V96.2456H539.813V94.28H543.982V96.2456H545.926V104.259H543.766V96.44H540.029V104.259H537.869V96.44H534.154V104.259H531.973ZM552.855 104.259V94.28H555.037V104.259H552.855ZM552.855 92.552V90.3704H555.037V92.552H552.855ZM557.222 104.259V94.28H565.279V96.2456H567.266V104.259H565.063V96.44H559.403V104.259H557.222ZM572.923 104.259V102.315H570.979V96.44H569.013V94.28H570.979V90.3704H573.139V94.28H579.057V96.44H573.139V102.099H578.841V100.134H581.023V102.315H579.057V104.259H572.923ZM584.943 104.259V102.315H582.977V96.2456H584.943V94.28H591.034V96.2456H593.021V102.315H591.034V104.259H584.943ZM585.159 102.099H590.818V96.44H585.159V102.099ZM603.867 104.259V102.315H601.923V96.44H599.958V94.28H601.923V90.3704H604.083V94.28H610.002V96.44H604.083V102.099H609.786V100.134H611.967V102.315H610.002V104.259H603.867ZM614.154 104.259V90.3704H616.335V96.2456H618.063V94.28H622.211V96.2456H624.198V104.259H621.995V96.44H618.279V98.384H616.335V104.259H614.154ZM628.354 104.259V102.315H626.388V96.2456H628.354V94.28H634.445V96.2456H636.432V98.384H634.229V96.44H628.57V98.168H632.501V100.35H628.57V102.099H634.229V100.112H636.432V102.294H634.445V104.259H628.354ZM643.369 104.259V102.099H651.209V100.35H645.334V98.384H643.369V96.2456H645.334V94.28H653.413V96.44H645.55V98.168H651.425V100.134H653.413V102.315H651.425V104.259H643.369ZM656.025 104.259V94.28H658.206V104.259H656.025ZM656.025 92.552V90.3704H658.206V92.552H656.025ZM660.391 104.259V94.28H666.504V96.2456H668.232V94.28H672.401V96.2456H674.345V104.259H672.185V96.44H668.448V104.259H666.288V96.44H662.573V104.259H660.391ZM678.494 104.259V102.315H676.528V94.28H678.71V102.099H684.369V94.28H686.572V102.315H684.585V104.259H678.494ZM689.184 104.259V90.3704H691.366V104.259H689.184ZM695.516 104.259V102.315H693.551V96.2456H695.516V94.28H701.608V96.2456H703.595V102.099H705.56V104.259H703.379V102.315H701.608V104.259H695.516ZM695.732 102.099H701.392V96.44H695.732V102.099ZM709.695 104.259V102.315H707.751V96.44H705.785V94.28H707.751V90.3704H709.911V94.28H715.829V96.44H709.911V102.099H715.613V100.134H717.795V102.315H715.829V104.259H709.695ZM720.403 104.259V94.28H722.585V104.259H720.403ZM720.403 92.552V90.3704H722.585V92.552H720.403ZM726.735 104.259V102.315H724.769V96.2456H726.735V94.28H732.826V96.2456H734.813V102.315H732.826V104.259H726.735ZM726.951 102.099H732.61V96.44H726.951V102.099ZM737.426 104.259V94.28H745.483V96.2456H747.47V104.259H745.267V96.44H739.607V104.259H737.426ZM756.372 104.259V102.315H754.406V96.2456H756.372V94.28H762.463V96.2456H764.45V102.099H766.416V104.259H764.234V102.315H762.463V104.259H756.372ZM756.588 102.099H762.247V96.44H756.588V102.099ZM768.37 104.259V94.28H776.427V96.2456H778.414V104.259H776.211V96.44H770.552V104.259H768.37ZM782.57 104.259V102.315H780.605V96.2456H782.57V94.28H788.467V90.3704H790.649V102.315H788.661V104.259H782.57ZM782.786 102.099H788.445V96.44H782.786V102.099ZM801.495 104.259V102.315H799.551V96.44H797.585V94.28H799.551V90.3704H801.711V94.28H807.629V96.44H801.711V102.099H807.413V100.134H809.595V102.315H807.629V104.259H801.495ZM812.203 104.259V96.2456H814.169V94.28H820.26V96.2456H822.247V98.384H820.044V96.44H814.385V104.259H812.203ZM826.171 104.259V102.315H824.205V96.2456H826.171V94.28H832.262V96.2456H834.249V102.099H836.215V104.259H834.033V102.315H832.262V104.259H826.171ZM826.387 102.099H832.046V96.44H826.387V102.099ZM839.713 104.259V102.315H837.748V96.2456H839.713V94.28H845.804V96.2456H847.792V98.384H845.588V96.44H839.929V102.099H845.588V100.134H847.792V102.315H845.804V104.259H839.713ZM849.982 104.259V90.3704H852.164V98.168H853.892V96.2456H857.823V94.28H860.026V96.44H858.039V98.384H854.108V100.134H858.039V102.099H860.026V104.259H857.823V102.315H853.892V100.35H852.164V104.259H849.982ZM1.296 130.259V116.37H3.4776V122.246H5.2056V120.28H9.3528V122.246H11.34V130.259H9.1368V122.44H5.4216V124.384H3.4776V130.259H1.296ZM15.496 130.259V128.315H13.5304V122.246H15.496V120.28H21.5872V122.246H23.5744V128.315H21.5872V130.259H15.496ZM15.712 128.099H21.3712V122.44H15.712V128.099ZM26.1866 130.259V120.28H28.3682V128.099H32.0834V120.28H34.2434V128.099H37.9802V120.28H40.1402V128.315H38.1962V130.259H34.0274V128.315H32.2994V130.259H26.1866ZM50.979 130.259V128.315H49.035V122.44H47.0694V120.28H49.035V116.37H51.195V120.28H57.1134V122.44H51.195V128.099H56.8974V126.134H59.079V128.315H57.1134V130.259H50.979ZM61.2655 130.259V116.37H63.4471V122.246H65.1751V120.28H69.3223V122.246H71.3095V130.259H69.1063V122.44H65.3911V124.384H63.4471V130.259H61.2655ZM75.4655 130.259V128.315H73.4999V122.246H75.4655V120.28H81.5567V122.246H83.5439V124.384H81.3407V122.44H75.6815V124.168H79.6127V126.35H75.6815V128.099H81.3407V126.112H83.5439V128.294H81.5567V130.259H75.4655ZM88.1218 134.169V132.225H86.1562V130.065H88.3378V132.009H94.0186V128.315H88.1218V126.35H86.1562V120.28H88.3378V126.134H94.0186V120.28H96.2002V132.225H94.2346V134.169H88.1218ZM105.102 130.259V128.315H103.137V122.246H105.102V120.28H111.193V122.246H113.181V124.384H110.977V122.44H105.318V124.168H109.249V126.35H105.318V128.099H110.977V126.112H113.181V128.294H111.193V130.259H105.102ZM119.508 130.259V128.315H117.542V124.384H115.577V120.28H117.758V124.168H119.702V128.099H121.474V124.168H123.418V120.28H125.621V124.384H123.634V128.315H121.69V130.259H119.508ZM129.339 130.259V128.315H127.373V122.246H129.339V120.28H135.43V122.246H137.417V128.315H135.43V130.259H129.339ZM129.555 128.099H135.214V122.44H129.555V128.099ZM140.03 130.259V116.37H142.211V130.259H140.03ZM147.879 130.259V128.315H145.914V124.384H143.948V120.28H146.13V124.168H148.074V128.099H149.845V124.168H151.789V120.28H153.992V124.384H152.005V128.315H150.061V130.259H147.879ZM157.71 130.259V128.315H155.744V122.246H157.71V120.28H163.801V122.246H165.788V124.384H163.585V122.44H157.926V124.168H161.857V126.35H157.926V128.099H163.585V126.112H165.788V128.294H163.801V130.259H157.71ZM176.635 130.259V128.315H174.691V122.44H172.725V120.28H174.691V116.37H176.851V120.28H182.769V122.44H176.851V128.099H182.553V126.134H184.735V128.315H182.769V130.259H176.635ZM188.655 130.259V128.315H186.689V122.246H188.655V120.28H194.746V122.246H196.733V128.315H194.746V130.259H188.655ZM188.871 128.099H194.53V122.44H188.871V128.099ZM203.669 130.259V128.099H211.51V126.35H205.635V124.384H203.669V122.246H205.635V120.28H213.713V122.44H205.851V124.168H211.726V126.134H213.713V128.315H211.726V130.259H203.669ZM218.291 130.259V128.315H216.326V120.28H218.507V128.099H224.166V120.28H226.37V128.315H224.382V130.259H218.291ZM228.771 130.259V122.246H230.737V120.28H236.828V122.246H238.815V124.384H236.612V122.44H230.953V130.259H228.771ZM244.721 130.259V128.315H242.755V124.384H240.789V120.28H242.971V124.168H244.915V128.099H246.686V124.168H248.63V120.28H250.833V124.384H248.846V128.315H246.902V130.259H244.721ZM253.029 130.259V120.28H255.21V130.259H253.029ZM253.029 118.552V116.37H255.21V118.552H253.029ZM261.532 130.259V128.315H259.567V124.384H257.601V120.28H259.783V124.168H261.727V128.099H263.498V124.168H265.442V120.28H267.645V124.384H265.658V128.315H263.714V130.259H261.532ZM271.363 130.259V128.315H269.398V122.246H271.363V120.28H277.454V122.246H279.442V124.384H277.238V122.44H271.579V124.168H275.51V126.35H271.579V128.099H277.238V126.112H279.442V128.294H277.454V130.259H271.363ZM286.378 130.259V120.28H288.56V130.259H286.378ZM286.378 118.552V116.37H288.56V118.552H286.378ZM290.744 130.259V120.28H298.801V122.246H300.788V130.259H298.585V122.44H292.926V130.259H290.744ZM311.634 130.259V128.315H309.69V122.44H307.725V120.28H309.69V116.37H311.85V120.28H317.769V122.44H311.85V128.099H317.553V126.134H319.734V128.315H317.769V130.259H311.634ZM321.921 130.259V116.37H324.103V122.246H325.831V120.28H329.978V122.246H331.965V130.259H329.762V122.44H326.047V124.384H324.103V130.259H321.921ZM336.121 130.259V128.315H334.155V122.246H336.121V120.28H342.212V122.246H344.199V124.384H341.996V122.44H336.337V124.168H340.268V126.35H336.337V128.099H341.996V126.112H344.199V128.294H342.212V130.259H336.121ZM346.812 130.259V120.28H348.993V130.259H346.812ZM346.812 118.552V116.37H348.993V118.552H346.812ZM351.6 130.259V122.246H353.565V120.28H359.657V122.246H361.644V124.384H359.441V122.44H353.781V130.259H351.6ZM370.546 130.259V128.315H368.58V122.246H370.546V120.28H376.637V122.246H378.624V124.384H376.421V122.44H370.762V124.168H374.693V126.35H370.762V128.099H376.421V126.112H378.624V128.294H376.637V130.259H370.546ZM381.237 130.259V120.28H389.293V122.246H391.281V130.259H389.077V122.44H383.418V130.259H381.237ZM396.743 130.259V128.315H394.778V124.384H392.812V120.28H394.994V124.168H396.938V128.099H398.709V124.168H400.653V120.28H402.856V124.384H400.869V128.315H398.925V130.259H396.743ZM405.051 130.259V120.28H407.233V130.259H405.051ZM405.051 118.552V116.37H407.233V118.552H405.051ZM409.84 130.259V122.246H411.805V120.28H417.897V122.246H419.884V124.384H417.681V122.44H412.021V130.259H409.84ZM423.808 130.259V128.315H421.842V122.246H423.808V120.28H429.899V122.246H431.886V128.315H429.899V130.259H423.808ZM424.024 128.099H429.683V122.44H424.024V128.099ZM434.498 130.259V120.28H442.555V122.246H444.542V130.259H442.339V122.44H436.68V130.259H434.498ZM447.155 130.259V120.28H453.267V122.246H454.995V120.28H459.164V122.246H461.108V130.259H458.948V122.44H455.211V130.259H453.051V122.44H449.336V130.259H447.155ZM465.468 130.259V128.315H463.502V122.246H465.468V120.28H471.559V122.246H473.546V124.384H471.343V122.44H465.684V124.168H469.615V126.35H465.684V128.099H471.343V126.112H473.546V128.294H471.559V130.259H465.468ZM476.158 130.259V120.28H484.215V122.246H486.202V130.259H483.999V122.44H478.34V130.259H476.158ZM491.86 130.259V128.315H489.916V122.44H487.95V120.28H489.916V116.37H492.076V120.28H497.994V122.44H492.076V128.099H497.778V126.134H499.96V128.315H497.994V130.259H491.86ZM502.568 130V127.818H504.749V130H502.568Z" fill="#1A1A1A"/>
</svg>
