<svg width="1800" height="968" viewBox="0 0 1800 968" fill="none" xmlns="http://www.w3.org/2000/svg">
<rect x="2" y="2" width="1795.6" height="964" rx="12" fill="#4AE3B5" stroke="#4AE3B5" stroke-width="4" stroke-linejoin="round"/>
<path d="M79.436 173.432V170.192H76.16V150.284H79.796V169.832H89.228V166.556H92.9V170.192H89.588V173.432H79.436ZM99.4399 173.432V170.192H96.1639V160.076H99.4399V156.8H109.592V160.076H112.904V169.832H116.18V173.432H112.544V170.192H109.592V173.432H99.4399ZM99.7999 169.832H109.232V160.4H99.7999V169.832ZM122.01 173.432V170.192H118.734V150.284H122.37V156.8H132.162V160.076H135.474V170.192H132.162V173.432H122.01ZM122.37 169.832H131.802V160.4H122.37V169.832ZM142.401 173.432V170.192H139.125V160.076H142.401V156.8H152.553V160.076H155.865V170.192H152.553V173.432H142.401ZM142.761 169.832H152.193V160.4H142.761V169.832ZM160.219 173.432V160.076H163.495V156.8H173.647V160.076H176.959V163.64H173.287V160.4H163.855V173.432H160.219ZM183.499 173.432V170.192H180.223V160.076H183.499V156.8H193.651V160.076H196.963V169.832H200.239V173.432H196.603V170.192H193.651V173.432H183.499ZM183.859 169.832H193.291V160.4H183.859V169.832ZM207.129 173.432V170.192H203.889V160.4H200.613V156.8H203.889V150.284H207.489V156.8H217.353V160.4H207.489V169.832H216.993V166.556H220.629V170.192H217.353V173.432H207.129ZM227.163 173.432V170.192H223.887V160.076H227.163V156.8H237.315V160.076H240.627V170.192H237.315V173.432H227.163ZM227.523 169.832H236.955V160.4H227.523V169.832ZM244.98 173.432V160.076H248.256V156.8H258.408V160.076H261.72V163.64H258.048V160.4H248.616V173.432H244.98ZM268.647 179.948V176.708H265.371V173.108H269.007V176.348H278.475V170.192H268.647V166.916H265.371V156.8H269.007V166.556H278.475V156.8H282.111V176.708H278.835V179.948H268.647Z" fill="#1A1A1A"/>
</svg>
