<svg width="1800" height="968" viewBox="0 0 1800 968" fill="none" xmlns="http://www.w3.org/2000/svg">
<rect x="2" y="2" width="1795.6" height="964" rx="12" fill="#4AE3B5" stroke="#4AE3B5" stroke-width="4" stroke-linejoin="round"/>
<path d="M79.436 173.432V170.192H76.16V150.284H79.796V169.832H89.228V166.556H92.9V170.192H89.588V173.432H79.436ZM99.4399 173.432V170.192H96.1639V160.076H99.4399V156.8H109.592V160.076H112.904V169.832H116.18V173.432H112.544V170.192H109.592V173.432H99.4399ZM99.7999 169.832H109.232V160.4H99.7999V169.832ZM122.01 173.432V170.192H118.734V150.284H122.37V156.8H132.162V160.076H135.474V170.192H132.162V173.432H122.01ZM122.37 169.832H131.802V160.4H122.37V169.832ZM142.401 173.432V170.192H139.125V160.076H142.401V156.8H152.553V160.076H155.865V170.192H152.553V173.432H142.401ZM142.761 169.832H152.193V160.4H142.761V169.832ZM160.219 173.432V160.076H163.495V156.8H173.647V160.076H176.959V163.64H173.287V160.4H163.855V173.432H160.219ZM183.499 173.432V170.192H180.223V160.076H183.499V156.8H193.651V160.076H196.963V169.832H200.239V173.432H196.603V170.192H193.651V173.432H183.499ZM183.859 169.832H193.291V160.4H183.859V169.832ZM207.129 173.432V170.192H203.889V160.4H200.613V156.8H203.889V150.284H207.489V156.8H217.353V160.4H207.489V169.832H216.993V166.556H220.629V170.192H217.353V173.432H207.129ZM227.163 173.432V170.192H223.887V160.076H227.163V156.8H237.315V160.076H240.627V170.192H237.315V173.432H227.163ZM227.523 169.832H236.955V160.4H227.523V169.832ZM244.98 173.432V160.076H248.256V156.8H258.408V160.076H261.72V163.64H258.048V160.4H248.616V173.432H244.98ZM268.647 179.948V176.708H265.371V173.108H269.007V176.348H278.475V170.192H268.647V166.916H265.371V156.8H269.007V166.556H278.475V156.8H282.111V176.708H278.835V179.948H268.647Z" fill="#1A1A1A"/>
<path d="M77.2616 234.259V232.315H75.296V220.37H77.4776V232.099H79.2056V228.168H81.1928V222.336H83.3528V228.168H85.34V232.099H87.0896V220.37H89.2496V232.315H87.3056V234.259H85.124V232.315H83.1368V228.384H81.4088V232.315H79.4216V234.259H77.2616ZM93.1663 234.259V232.315H91.2007V226.246H93.1663V224.28H99.2575V226.246H101.245V228.384H99.0415V226.44H93.3823V228.168H97.3135V230.35H93.3823V232.099H99.0415V230.112H101.245V232.294H99.2575V234.259H93.1663ZM103.857 234.259V220.37H106.039V234.259H103.857ZM109.957 234.259V232.315H107.991V226.246H109.957V224.28H116.048V226.246H118.035V228.384H115.832V226.44H110.173V232.099H115.832V230.134H118.035V232.315H116.048V234.259H109.957ZM121.959 234.259V232.315H119.994V226.246H121.959V224.28H128.05V226.246H130.038V232.315H128.05V234.259H121.959ZM122.175 232.099H127.834V226.44H122.175V232.099ZM132.65 234.259V224.28H138.763V226.246H140.491V224.28H144.66V226.246H146.604V234.259H144.444V226.44H140.707V234.259H138.547V226.44H134.832V234.259H132.65ZM150.963 234.259V232.315H148.998V226.246H150.963V224.28H157.054V226.246H159.042V228.384H156.838V226.44H151.179V228.168H155.11V230.35H151.179V232.099H156.838V230.112H159.042V232.294H157.054V234.259H150.963ZM169.888 234.259V232.315H167.944V226.44H165.978V224.28H167.944V220.37H170.104V224.28H176.022V226.44H170.104V232.099H175.806V230.134H177.988V232.315H176.022V234.259H169.888ZM181.908 234.259V232.315H179.942V226.246H181.908V224.28H187.999V226.246H189.986V232.315H187.999V234.259H181.908ZM182.124 232.099H187.783V226.44H182.124V232.099ZM200.832 234.259V232.315H198.888V226.44H196.923V224.28H198.888V220.37H201.048V224.28H206.967V226.44H201.048V232.099H206.751V230.134H208.932V232.315H206.967V234.259H200.832ZM211.119 234.259V220.37H213.3V226.246H215.028V224.28H219.175V226.246H221.163V234.259H218.959V226.44H215.244V228.384H213.3V234.259H211.119ZM225.319 234.259V232.315H223.353V226.246H225.319V224.28H231.41V226.246H233.397V228.384H231.194V226.44H225.535V228.168H229.466V230.35H225.535V232.099H231.194V230.112H233.397V232.294H231.41V234.259H225.319ZM240.334 234.259V220.37H242.515V234.259H240.334ZM246.666 234.259V232.315H244.7V226.246H246.666V224.28H252.757V226.246H254.744V232.099H256.71V234.259H254.528V232.315H252.757V234.259H246.666ZM246.882 232.099H252.541V226.44H246.882V232.099ZM260.208 234.259V232.315H258.242V220.37H260.424V224.28H266.299V226.246H268.286V232.315H266.299V234.259H260.208ZM260.424 232.099H266.083V226.44H260.424V232.099ZM272.442 234.259V232.315H270.476V226.246H272.442V224.28H278.533V226.246H280.52V232.315H278.533V234.259H272.442ZM272.658 232.099H278.317V226.44H272.658V232.099ZM283.133 234.259V226.246H285.098V224.28H291.19V226.246H293.177V228.384H290.974V226.44H285.314V234.259H283.133ZM297.101 234.259V232.315H295.135V226.246H297.101V224.28H303.192V226.246H305.179V232.099H307.145V234.259H304.963V232.315H303.192V234.259H297.101ZM297.317 232.099H302.976V226.44H297.317V232.099ZM311.279 234.259V232.315H309.335V226.44H307.369V224.28H309.335V220.37H311.495V224.28H317.413V226.44H311.495V232.099H317.197V230.134H319.379V232.315H317.413V234.259H311.279ZM323.299 234.259V232.315H321.334V226.246H323.299V224.28H329.39V226.246H331.378V232.315H329.39V234.259H323.299ZM323.515 232.099H329.174V226.44H323.515V232.099ZM333.99 234.259V226.246H335.955V224.28H342.047V226.246H344.034V228.384H341.831V226.44H336.171V234.259H333.99ZM348.19 238.169V236.225H346.224V234.065H348.406V236.009H354.087V232.315H348.19V230.35H346.224V224.28H348.406V230.134H354.087V224.28H356.268V236.225H354.303V238.169H348.19ZM358.88 234V231.818H361.062V234H358.88ZM369.958 234.259V232.315H367.993V222.336H369.958V220.37H376.05V222.336H378.037V226.44H375.834V222.552H370.174V232.099H375.834V228.168H378.037V232.315H376.05V234.259H369.958ZM382.615 234.259V232.315H380.649V224.28H382.831V232.099H388.49V224.28H390.693V232.315H388.706V234.259H382.615ZM393.094 234.259V232.099H400.935V230.35H395.06V228.384H393.094V226.246H395.06V224.28H403.138V226.44H395.276V228.168H401.151V230.134H403.138V232.315H401.151V234.259H393.094ZM409.66 234.259V232.315H407.716V226.44H405.751V224.28H407.716V220.37H409.876V224.28H415.795V226.44H409.876V232.099H415.579V230.134H417.76V232.315H415.795V234.259H409.66ZM421.68 234.259V232.315H419.715V226.246H421.68V224.28H427.772V226.246H429.759V232.315H427.772V234.259H421.68ZM421.896 232.099H427.556V226.44H421.896V232.099ZM432.371 234.259V224.28H438.484V226.246H440.212V224.28H444.381V226.246H446.325V234.259H444.165V226.44H440.428V234.259H438.268V226.44H434.553V234.259H432.371ZM448.93 234.259V224.28H451.111V234.259H448.93ZM448.93 222.552V220.37H451.111V222.552H448.93ZM453.507 234.259V232.099H455.473V230.134H457.417V228.168H459.404V226.44H453.507V224.28H463.551V226.44H461.564V228.384H459.62V230.35H457.633V232.099H463.551V234.259H453.507ZM467.707 234.259V232.315H465.741V226.246H467.707V224.28H473.798V226.246H475.785V228.384H473.582V226.44H467.923V228.168H471.854V230.35H467.923V232.099H473.582V230.112H475.785V232.294H473.798V234.259H467.707ZM484.687 234.259V232.315H482.722V226.246H484.687V224.28H490.779V226.246H492.766V232.315H490.779V234.259H484.687ZM484.903 232.099H490.563V226.44H484.903V232.099ZM495.378 234.259V226.246H497.344V224.28H503.435V226.246H505.422V228.384H503.219V226.44H497.56V234.259H495.378ZM509.578 238.169V236.225H507.612V234.065H509.794V236.009H515.475V232.315H509.578V230.35H507.612V226.246H509.578V224.28H515.691V226.246H517.656V236.225H515.691V238.169H509.578ZM509.794 230.134H515.475V226.44H509.794V230.134ZM521.58 234.259V232.315H519.615V226.246H521.58V224.28H527.672V226.246H529.659V232.099H531.624V234.259H529.443V232.315H527.672V234.259H521.58ZM521.796 232.099H527.456V226.44H521.796V232.099ZM533.579 234.259V224.28H541.636V226.246H543.623V234.259H541.42V226.44H535.76V234.259H533.579ZM546.235 234.259V224.28H548.417V234.259H546.235ZM546.235 222.552V220.37H548.417V222.552H546.235ZM551.023 234.259V232.099H558.864V230.35H552.989V228.384H551.023V226.246H552.989V224.28H561.067V226.44H553.205V228.168H559.08V230.134H561.067V232.315H559.08V234.259H551.023ZM563.68 234.259V224.28H569.792V226.246H571.52V224.28H575.689V226.246H577.633V234.259H575.473V226.44H571.736V234.259H569.576V226.44H565.861V234.259H563.68ZM579.816 234.259V232.099H587.657V230.35H581.782V228.384H579.816V226.246H581.782V224.28H589.86V226.44H581.998V228.168H587.873V230.134H589.86V232.315H587.873V234.259H579.816ZM598.762 234.259V232.315H596.797V220.37H598.978V224.28H604.854V226.246H606.841V232.315H604.854V234.259H598.762ZM598.978 232.099H604.638V226.44H598.978V232.099ZM610.997 238.169V236.225H609.031V234.065H611.213V236.009H616.894V232.315H610.997V230.35H609.031V224.28H611.213V230.134H616.894V224.28H619.075V236.225H617.11V238.169H610.997ZM627.977 234.259V232.315H626.012V226.246H627.977V224.28H634.068V226.246H636.056V232.099H638.021V234.259H635.84V232.315H634.068V234.259H627.977ZM628.193 232.099H633.852V226.44H628.193V232.099ZM641.519 234.259V232.315H639.554V226.246H641.519V224.28H647.416V220.37H649.598V232.315H647.611V234.259H641.519ZM641.735 232.099H647.395V226.44H641.735V232.099ZM653.754 234.281V232.315H651.788V230.134H653.97V232.099H657.685V224.28H659.867V232.315H657.901V234.281H653.754ZM664.448 234.259V232.315H662.483V224.28H664.664V232.099H670.324V224.28H672.527V232.315H670.54V234.259H664.448ZM674.928 234.259V232.099H682.769V230.35H676.894V228.384H674.928V226.246H676.894V224.28H684.972V226.44H677.11V228.168H682.985V230.134H684.972V232.315H682.985V234.259H674.928ZM691.494 234.259V232.315H689.55V226.44H687.584V224.28H689.55V220.37H691.71V224.28H697.628V226.44H691.71V232.099H697.412V230.134H699.594V232.315H697.628V234.259H691.494ZM702.202 234.259V224.28H704.384V234.259H702.202ZM702.202 222.552V220.37H704.384V222.552H702.202ZM706.569 234.259V224.28H714.625V226.246H716.613V234.259H714.409V226.44H708.75V234.259H706.569ZM720.769 238.169V236.225H718.803V234.065H720.985V236.009H726.665V232.315H720.769V230.35H718.803V226.246H720.769V224.28H726.881V226.246H728.847V236.225H726.881V238.169H720.769ZM720.985 230.134H726.665V226.44H720.985V230.134ZM739.693 234.259V232.315H737.749V226.44H735.783V224.28H737.749V220.37H739.909V224.28H745.827V226.44H739.909V232.099H745.611V230.134H747.793V232.315H745.827V234.259H739.693ZM750.401 234.259V226.246H752.367V224.28H758.458V226.246H760.445V228.384H758.242V226.44H752.583V234.259H750.401ZM764.369 234.259V232.315H762.404V226.246H764.369V224.28H770.461V226.246H772.448V232.099H774.413V234.259H772.232V232.315H770.461V234.259H764.369ZM764.585 232.099H770.245V226.44H764.585V232.099ZM776.368 234.259V224.28H778.549V234.259H776.368ZM776.368 222.552V220.37H778.549V222.552H776.368ZM784.412 234.259V232.315H782.468V226.44H780.502V224.28H782.468V220.37H784.628V224.28H790.546V226.44H784.628V232.099H790.33V230.134H792.512V232.315H790.546V234.259H784.412ZM794.698 234.259V232.099H802.539V230.35H796.664V228.384H794.698V226.246H796.664V224.28H804.742V226.44H796.88V228.168H802.755V230.134H804.742V232.315H802.755V234.259H794.698ZM811.679 234.259V220.37H813.86V234.259H811.679ZM816.467 234.259V224.28H818.649V234.259H816.467ZM816.467 222.552V220.37H818.649V222.552H816.467ZM821.255 234.259V220.37H823.437V228.168H825.165V226.246H829.096V224.28H831.299V226.44H829.312V228.384H825.381V230.134H829.312V232.099H831.299V234.259H829.096V232.315H825.165V230.35H823.437V234.259H821.255ZM834.591 234.259V232.315H832.625V226.246H834.591V224.28H840.682V226.246H842.669V228.384H840.466V226.44H834.807V228.168H838.738V230.35H834.807V232.099H840.466V230.112H842.669V232.294H840.682V234.259H834.591ZM849.605 234.259V232.099H857.446V230.35H851.571V228.384H849.605V226.246H851.571V224.28H859.649V226.44H851.787V228.168H857.662V230.134H859.649V232.315H857.662V234.259H849.605ZM862.262 234.259V224.28H864.443V234.259H862.262ZM862.262 222.552V220.37H864.443V222.552H862.262ZM866.839 234.259V232.099H868.805V230.134H870.749V228.168H872.736V226.44H866.839V224.28H876.883V226.44H874.896V228.384H872.952V230.35H870.965V232.099H876.883V234.259H866.839ZM881.039 234.259V232.315H879.073V226.246H881.039V224.28H887.13V226.246H889.117V228.384H886.914V226.44H881.255V228.168H885.186V230.35H881.255V232.099H886.914V230.112H889.117V232.294H887.13V234.259H881.039ZM892.702 235.944V234.734H893.695V234H891.73V231.818H893.911V233.784H894.883V234.95H893.911V235.944H892.702ZM75.296 260.259V258.099H83.1368V256.35H77.2616V254.384H75.296V252.246H77.2616V250.28H85.34V252.44H77.4776V254.168H83.3528V256.134H85.34V258.315H83.3528V260.259H75.296ZM87.9523 264.061V252.246H89.9179V250.28H96.0091V252.246H97.9963V258.315H96.0091V260.259H90.1339V264.061H87.9523ZM90.1339 258.099H95.7931V252.44H90.1339V258.099ZM102.574 260.259V258.315H100.609V252.246H102.574V250.28H108.665V252.246H110.653V254.384H108.449V252.44H102.79V254.168H106.721V256.35H102.79V258.099H108.449V256.112H110.653V258.294H108.665V260.259H102.574ZM115.23 260.259V258.315H113.265V252.246H115.23V250.28H121.322V252.246H123.309V254.384H121.106V252.44H115.446V254.168H119.378V256.35H115.446V258.099H121.106V256.112H123.309V258.294H121.322V260.259H115.23ZM127.887 260.259V258.315H125.921V252.246H127.887V250.28H133.783V246.37H135.965V258.315H133.978V260.259H127.887ZM128.103 258.099H133.762V252.44H128.103V258.099ZM139.549 261.944V260.734H140.543V260H138.577V257.818H140.759V259.784H141.731V260.95H140.759V261.944H139.549ZM148.66 260.259V250.28H150.842V258.099H154.557V250.28H156.717V258.099H160.454V250.28H162.614V258.315H160.67V260.259H156.501V258.315H154.773V260.259H148.66ZM166.53 260.259V258.315H164.565V252.246H166.53V250.28H172.622V252.246H174.609V254.384H172.406V252.44H166.746V254.168H170.678V256.35H166.746V258.099H172.406V256.112H174.609V258.294H172.622V260.259H166.53ZM179.187 260.259V258.315H177.221V252.246H179.187V250.28H185.278V252.246H187.265V258.099H189.231V260.259H187.049V258.315H185.278V260.259H179.187ZM179.403 258.099H185.062V252.44H179.403V258.099ZM191.839 264.061V252.246H193.805V250.28H199.896V252.246H201.883V258.315H199.896V260.259H194.021V264.061H191.839ZM194.021 258.099H199.68V252.44H194.021V258.099ZM206.461 260.259V258.315H204.495V252.246H206.461V250.28H212.552V252.246H214.539V258.315H212.552V260.259H206.461ZM206.677 258.099H212.336V252.44H206.677V258.099ZM217.151 260.259V250.28H225.208V252.246H227.195V260.259H224.992V252.44H219.333V260.259H217.151ZM229.386 260.259V258.099H237.227V256.35H231.351V254.384H229.386V252.246H231.351V250.28H239.43V252.44H231.567V254.168H237.443V256.134H239.43V258.315H237.443V260.259H229.386ZM243.014 261.944V260.734H244.008V260H242.042V257.818H244.224V259.784H245.196V260.95H244.224V261.944H243.014ZM254.091 260.259V258.315H252.125V252.246H254.091V250.28H260.182V252.246H262.169V258.099H264.135V260.259H261.953V258.315H260.182V260.259H254.091ZM254.307 258.099H259.966V252.44H254.307V258.099ZM266.089 260.259V250.28H274.146V252.246H276.133V260.259H273.93V252.44H268.271V260.259H266.089ZM280.289 260.259V258.315H278.323V252.246H280.289V250.28H286.186V246.37H288.367V258.315H286.38V260.259H280.289ZM280.505 258.099H286.164V252.44H280.505V258.099ZM297.269 260.259V258.315H295.304V252.246H297.269V250.28H303.166V246.37H305.348V258.315H303.361V260.259H297.269ZM297.485 258.099H303.145V252.44H297.485V258.099ZM309.504 260.259V258.315H307.538V252.246H309.504V250.28H315.595V252.246H317.582V254.384H315.379V252.44H309.72V254.168H313.651V256.35H309.72V258.099H315.379V256.112H317.582V258.294H315.595V260.259H309.504ZM320.194 260.259V248.336H322.16V246.37H328.251V248.336H330.238V250.496H328.035V248.552H322.376V252.246H326.307V254.384H322.376V260.259H320.194ZM332.665 260.259V258.315H330.699V252.246H332.665V250.28H338.756V252.246H340.743V254.384H338.54V252.44H332.881V254.168H336.812V256.35H332.881V258.099H338.54V256.112H340.743V258.294H338.756V260.259H332.665ZM343.355 260.259V250.28H351.412V252.246H353.399V260.259H351.196V252.44H345.537V260.259H343.355ZM355.59 260.259V258.099H363.431V256.35H357.555V254.384H355.59V252.246H357.555V250.28H365.634V252.44H357.771V254.168H363.647V256.134H365.634V258.315H363.647V260.259H355.59ZM368.246 260.259V250.28H370.428V260.259H368.246ZM368.246 248.552V246.37H370.428V248.552H368.246ZM376.749 260.259V258.315H374.784V254.384H372.818V250.28H375V254.168H376.944V258.099H378.715V254.168H380.659V250.28H382.862V254.384H380.875V258.315H378.931V260.259H376.749ZM386.58 260.259V258.315H384.615V252.246H386.58V250.28H392.672V252.246H394.659V254.384H392.456V252.44H386.796V254.168H390.728V256.35H386.796V258.099H392.456V256.112H394.659V258.294H392.672V260.259H386.58ZM403.561 260.259V258.315H401.595V252.246H403.561V250.28H409.652V252.246H411.639V258.099H413.605V260.259H411.423V258.315H409.652V260.259H403.561ZM403.777 258.099H409.436V252.44H403.777V258.099ZM417.103 260.259V258.315H415.137V246.37H417.319V250.28H423.194V252.246H425.181V258.315H423.194V260.259H417.103ZM417.319 258.099H422.978V252.44H417.319V258.099ZM427.794 260.259V250.28H429.975V260.259H427.794ZM427.794 248.552V246.37H429.975V248.552H427.794ZM432.582 260.259V246.37H434.764V260.259H432.582ZM437.37 260.259V250.28H439.552V260.259H437.37ZM437.37 248.552V246.37H439.552V248.552H437.37ZM445.414 260.259V258.315H443.47V252.44H441.505V250.28H443.47V246.37H445.63V250.28H451.549V252.44H445.63V258.099H451.333V256.134H453.514V258.315H451.549V260.259H445.414ZM456.123 260.259V250.28H458.304V260.259H456.123ZM456.123 248.552V246.37H458.304V248.552H456.123ZM462.455 260.259V258.315H460.489V252.246H462.455V250.28H468.546V252.246H470.533V254.384H468.33V252.44H462.671V254.168H466.602V256.35H462.671V258.099H468.33V256.112H470.533V258.294H468.546V260.259H462.455ZM473.145 260.259V258.099H480.986V256.35H475.111V254.384H473.145V252.246H475.111V250.28H483.189V252.44H475.327V254.168H481.202V256.134H483.189V258.315H481.202V260.259H473.145ZM485.801 260V257.818H487.983V260H485.801ZM494.914 260.259V246.37H501.027V248.336H502.971V250.28H504.958V256.35H502.971V258.315H501.027V260.259H494.914ZM497.096 258.099H500.811V256.134H502.755V250.496H500.811V248.552H497.096V258.099ZM509.536 260.259V258.315H507.57V252.246H509.536V250.28H515.627V252.246H517.614V254.384H515.411V252.44H509.752V254.168H513.683V256.35H509.752V258.099H515.411V256.112H517.614V258.294H515.627V260.259H509.536ZM520.226 264.061V252.246H522.192V250.28H528.283V252.246H530.27V258.315H528.283V260.259H522.408V264.061H520.226ZM522.408 258.099H528.067V252.44H522.408V258.099ZM532.883 260.259V246.37H535.064V260.259H532.883ZM539.215 260.259V258.315H537.249V252.246H539.215V250.28H545.306V252.246H547.293V258.315H545.306V260.259H539.215ZM539.431 258.099H545.09V252.44H539.431V258.099ZM551.871 264.169V262.225H549.905V260.065H552.087V262.009H557.768V258.315H551.871V256.35H549.905V250.28H552.087V256.134H557.768V250.28H559.949V262.225H557.984V264.169H551.871ZM570.795 260.259V258.315H568.851V252.44H566.886V250.28H568.851V246.37H571.011V250.28H576.93V252.44H571.011V258.099H576.714V256.134H578.895V258.315H576.93V260.259H570.795ZM581.082 260.259V246.37H583.264V252.246H584.992V250.28H589.139V252.246H591.126V260.259H588.923V252.44H585.208V254.384H583.264V260.259H581.082ZM595.282 260.259V258.315H593.316V252.246H595.282V250.28H601.373V252.246H603.36V254.384H601.157V252.44H595.498V254.168H599.429V256.35H595.498V258.099H601.157V256.112H603.36V258.294H601.373V260.259H595.282ZM605.973 260.259V250.28H612.085V252.246H613.813V250.28H617.982V252.246H619.926V260.259H617.766V252.44H614.029V260.259H611.869V252.44H608.154V260.259H605.973ZM626.855 260.259V250.28H629.037V260.259H626.855ZM626.855 248.552V246.37H629.037V248.552H626.855ZM631.222 260.259V250.28H639.279V252.246H641.266V260.259H639.063V252.44H633.403V260.259H631.222ZM646.923 260.259V258.315H644.979V252.44H643.013V250.28H644.979V246.37H647.139V250.28H653.057V252.44H647.139V258.099H652.841V256.134H655.023V258.315H653.057V260.259H646.923ZM658.943 260.259V258.315H656.977V252.246H658.943V250.28H665.034V252.246H667.021V258.315H665.034V260.259H658.943ZM659.159 258.099H664.818V252.44H659.159V258.099ZM677.867 260.259V258.315H675.923V252.44H673.958V250.28H675.923V246.37H678.083V250.28H684.002V252.44H678.083V258.099H683.786V256.134H685.967V258.315H684.002V260.259H677.867ZM688.154 260.259V246.37H690.335V252.246H692.063V250.28H696.211V252.246H698.198V260.259H695.995V252.44H692.279V254.384H690.335V260.259H688.154ZM702.354 260.259V258.315H700.388V252.246H702.354V250.28H708.445V252.246H710.432V254.384H708.229V252.44H702.57V254.168H706.501V256.35H702.57V258.099H708.229V256.112H710.432V258.294H708.445V260.259H702.354ZM717.369 260.259V258.099H725.209V256.35H719.334V254.384H717.369V252.246H719.334V250.28H727.413V252.44H719.55V254.168H725.425V256.134H727.413V258.315H725.425V260.259H717.369ZM730.025 260.259V250.28H732.206V260.259H730.025ZM730.025 248.552V246.37H732.206V248.552H730.025ZM734.391 260.259V250.28H740.504V252.246H742.232V250.28H746.401V252.246H748.345V260.259H746.185V252.44H742.448V260.259H740.288V252.44H736.573V260.259H734.391ZM752.494 260.259V258.315H750.528V250.28H752.71V258.099H758.369V250.28H760.572V258.315H758.585V260.259H752.494ZM763.184 260.259V246.37H765.366V260.259H763.184ZM769.516 260.259V258.315H767.551V252.246H769.516V250.28H775.608V252.246H777.595V258.099H779.56V260.259H777.379V258.315H775.608V260.259H769.516ZM769.732 258.099H775.392V252.44H769.732V258.099ZM783.695 260.259V258.315H781.751V252.44H779.785V250.28H781.751V246.37H783.911V250.28H789.829V252.44H783.911V258.099H789.613V256.134H791.795V258.315H789.829V260.259H783.695ZM794.403 260.259V250.28H796.585V260.259H794.403ZM794.403 248.552V246.37H796.585V248.552H794.403ZM800.735 260.259V258.315H798.769V252.246H800.735V250.28H806.826V252.246H808.813V258.315H806.826V260.259H800.735ZM800.951 258.099H806.61V252.44H800.951V258.099ZM811.426 260.259V250.28H819.483V252.246H821.47V260.259H819.267V252.44H813.607V260.259H811.426ZM830.372 260.259V258.315H828.406V252.246H830.372V250.28H836.463V252.246H838.45V258.099H840.416V260.259H838.234V258.315H836.463V260.259H830.372ZM830.588 258.099H836.247V252.44H830.588V258.099ZM842.37 260.259V250.28H850.427V252.246H852.414V260.259H850.211V252.44H844.552V260.259H842.37ZM856.57 260.259V258.315H854.605V252.246H856.57V250.28H862.467V246.37H864.649V258.315H862.661V260.259H856.57ZM856.786 258.099H862.445V252.44H856.786V258.099ZM875.495 260.259V258.315H873.551V252.44H871.585V250.28H873.551V246.37H875.711V250.28H881.629V252.44H875.711V258.099H881.413V256.134H883.595V258.315H881.629V260.259H875.495ZM886.203 260.259V252.246H888.169V250.28H894.26V252.246H896.247V254.384H894.044V252.44H888.385V260.259H886.203ZM900.171 260.259V258.315H898.205V252.246H900.171V250.28H906.262V252.246H908.249V258.099H910.215V260.259H908.033V258.315H906.262V260.259H900.171ZM900.387 258.099H906.046V252.44H900.387V258.099ZM913.713 260.259V258.315H911.748V252.246H913.713V250.28H919.804V252.246H921.792V254.384H919.588V252.44H913.929V258.099H919.588V256.134H921.792V258.315H919.804V260.259H913.713ZM923.982 260.259V246.37H926.164V254.168H927.892V252.246H931.823V250.28H934.026V252.44H932.039V254.384H928.108V256.134H932.039V258.099H934.026V260.259H931.823V258.315H927.892V256.35H926.164V260.259H923.982ZM75.296 286.259V272.37H77.4776V278.246H79.2056V276.28H83.3528V278.246H85.34V286.259H83.1368V278.44H79.4216V280.384H77.4776V286.259H75.296ZM89.496 286.259V284.315H87.5304V278.246H89.496V276.28H95.5872V278.246H97.5744V284.315H95.5872V286.259H89.496ZM89.712 284.099H95.3712V278.44H89.712V284.099ZM100.187 286.259V276.28H102.368V284.099H106.083V276.28H108.243V284.099H111.98V276.28H114.14V284.315H112.196V286.259H108.027V284.315H106.299V286.259H100.187ZM124.979 286.259V284.315H123.035V278.44H121.069V276.28H123.035V272.37H125.195V276.28H131.113V278.44H125.195V284.099H130.897V282.134H133.079V284.315H131.113V286.259H124.979ZM135.266 286.259V272.37H137.447V278.246H139.175V276.28H143.322V278.246H145.31V286.259H143.106V278.44H139.391V280.384H137.447V286.259H135.266ZM149.466 286.259V284.315H147.5V278.246H149.466V276.28H155.557V278.246H157.544V280.384H155.341V278.44H149.682V280.168H153.613V282.35H149.682V284.099H155.341V282.112H157.544V284.294H155.557V286.259H149.466ZM162.122 290.169V288.225H160.156V286.065H162.338V288.009H168.019V284.315H162.122V282.35H160.156V276.28H162.338V282.134H168.019V276.28H170.2V288.225H168.235V290.169H162.122ZM179.102 286.259V284.315H177.137V278.246H179.102V276.28H185.193V278.246H187.181V280.384H184.977V278.44H179.318V280.168H183.249V282.35H179.318V284.099H184.977V282.112H187.181V284.294H185.193V286.259H179.102ZM193.508 286.259V284.315H191.542V280.384H189.577V276.28H191.758V280.168H193.702V284.099H195.474V280.168H197.418V276.28H199.621V280.384H197.634V284.315H195.69V286.259H193.508ZM203.339 286.259V284.315H201.373V278.246H203.339V276.28H209.43V278.246H211.417V284.315H209.43V286.259H203.339ZM203.555 284.099H209.214V278.44H203.555V284.099ZM214.03 286.259V272.37H216.211V286.259H214.03ZM221.879 286.259V284.315H219.914V280.384H217.948V276.28H220.13V280.168H222.074V284.099H223.845V280.168H225.789V276.28H227.992V280.384H226.005V284.315H224.061V286.259H221.879ZM231.71 286.259V284.315H229.744V278.246H231.71V276.28H237.801V278.246H239.788V280.384H237.585V278.44H231.926V280.168H235.857V282.35H231.926V284.099H237.585V282.112H239.788V284.294H237.801V286.259H231.71ZM250.635 286.259V284.315H248.691V278.44H246.725V276.28H248.691V272.37H250.851V276.28H256.769V278.44H250.851V284.099H256.553V282.134H258.735V284.315H256.769V286.259H250.635ZM262.655 286.259V284.315H260.689V278.246H262.655V276.28H268.746V278.246H270.733V284.315H268.746V286.259H262.655ZM262.871 284.099H268.53V278.44H262.871V284.099ZM277.669 286.259V284.099H285.51V282.35H279.635V280.384H277.669V278.246H279.635V276.28H287.713V278.44H279.851V280.168H285.726V282.134H287.713V284.315H285.726V286.259H277.669ZM292.291 286.259V284.315H290.326V276.28H292.507V284.099H298.166V276.28H300.37V284.315H298.382V286.259H292.291ZM302.771 286.259V278.246H304.737V276.28H310.828V278.246H312.815V280.384H310.612V278.44H304.953V286.259H302.771ZM318.721 286.259V284.315H316.755V280.384H314.789V276.28H316.971V280.168H318.915V284.099H320.686V280.168H322.63V276.28H324.833V280.384H322.846V284.315H320.902V286.259H318.721ZM327.029 286.259V276.28H329.21V286.259H327.029ZM327.029 274.552V272.37H329.21V274.552H327.029ZM335.532 286.259V284.315H333.567V280.384H331.601V276.28H333.783V280.168H335.727V284.099H337.498V280.168H339.442V276.28H341.645V280.384H339.658V284.315H337.714V286.259H335.532ZM345.363 286.259V284.315H343.398V278.246H345.363V276.28H351.454V278.246H353.442V280.384H351.238V278.44H345.579V280.168H349.51V282.35H345.579V284.099H351.238V282.112H353.442V284.294H351.454V286.259H345.363ZM360.378 286.259V276.28H362.56V286.259H360.378ZM360.378 274.552V272.37H362.56V274.552H360.378ZM364.744 286.259V276.28H372.801V278.246H374.788V286.259H372.585V278.44H366.926V286.259H364.744ZM385.634 286.259V284.315H383.69V278.44H381.725V276.28H383.69V272.37H385.85V276.28H391.769V278.44H385.85V284.099H391.553V282.134H393.734V284.315H391.769V286.259H385.634ZM395.921 286.259V272.37H398.103V278.246H399.831V276.28H403.978V278.246H405.965V286.259H403.762V278.44H400.047V280.384H398.103V286.259H395.921ZM410.121 286.259V284.315H408.155V278.246H410.121V276.28H416.212V278.246H418.199V280.384H415.996V278.44H410.337V280.168H414.268V282.35H410.337V284.099H415.996V282.112H418.199V284.294H416.212V286.259H410.121ZM420.812 286.259V276.28H422.993V286.259H420.812ZM420.812 274.552V272.37H422.993V274.552H420.812ZM425.6 286.259V278.246H427.565V276.28H433.657V278.246H435.644V280.384H433.441V278.44H427.781V286.259H425.6ZM444.546 286.259V284.315H442.58V278.246H444.546V276.28H450.637V278.246H452.624V280.384H450.421V278.44H444.762V280.168H448.693V282.35H444.762V284.099H450.421V282.112H452.624V284.294H450.637V286.259H444.546ZM455.237 286.259V276.28H463.293V278.246H465.281V286.259H463.077V278.44H457.418V286.259H455.237ZM470.743 286.259V284.315H468.778V280.384H466.812V276.28H468.994V280.168H470.938V284.099H472.709V280.168H474.653V276.28H476.856V280.384H474.869V284.315H472.925V286.259H470.743ZM479.051 286.259V276.28H481.233V286.259H479.051ZM479.051 274.552V272.37H481.233V274.552H479.051ZM483.84 286.259V278.246H485.805V276.28H491.897V278.246H493.884V280.384H491.681V278.44H486.021V286.259H483.84ZM497.808 286.259V284.315H495.842V278.246H497.808V276.28H503.899V278.246H505.886V284.315H503.899V286.259H497.808ZM498.024 284.099H503.683V278.44H498.024V284.099ZM508.498 286.259V276.28H516.555V278.246H518.542V286.259H516.339V278.44H510.68V286.259H508.498ZM521.155 286.259V276.28H527.267V278.246H528.995V276.28H533.164V278.246H535.108V286.259H532.948V278.44H529.211V286.259H527.051V278.44H523.336V286.259H521.155ZM539.468 286.259V284.315H537.502V278.246H539.468V276.28H545.559V278.246H547.546V280.384H545.343V278.44H539.684V280.168H543.615V282.35H539.684V284.099H545.343V282.112H547.546V284.294H545.559V286.259H539.468ZM550.158 286.259V276.28H558.215V278.246H560.202V286.259H557.999V278.44H552.34V286.259H550.158ZM565.86 286.259V284.315H563.916V278.44H561.95V276.28H563.916V272.37H566.076V276.28H571.994V278.44H566.076V284.099H571.778V282.134H573.96V284.315H571.994V286.259H565.86ZM576.568 286V283.818H578.749V286H576.568Z" fill="black"/>
<path d="M87.5293 83.1678L96.0378 90.6129C97.0422 91.4916 98.6132 90.7775 98.6132 89.444V74.5537C98.6135 74.2553 98.5277 73.9631 98.3662 73.7121C98.2046 73.4612 97.9742 73.2621 97.7025 73.1388C97.4307 73.0155 97.1292 72.9731 96.8339 73.0167C96.5387 73.0603 96.2623 73.1881 96.0378 73.3848L87.5309 80.8299C87.3641 80.9756 87.2305 81.1553 87.1389 81.3569C87.0474 81.5585 87 81.7774 87 81.9988C87 82.2203 87.0474 82.4391 87.1389 82.6408C87.2305 82.8424 87.3626 83.0221 87.5293 83.1678Z" fill="#4AE3B5"/>
</svg>
