<svg width="500" height="500" viewBox="0 0 500 500" fill="none" xmlns="http://www.w3.org/2000/svg">
<circle cx="250" cy="250" r="248" fill="#1A1A1A" stroke="#4AE3B5" stroke-width="4"/>
<g clip-path="url(#clip0_103_132)">
<g clip-path="url(#clip1_103_132)">
<circle cx="1.5" cy="4.50006" r="1.5" fill="#D2D6DB"/>
<circle cx="29.5" cy="4.50006" r="1.5" fill="#D2D6DB"/>
<circle cx="57.5" cy="4.50006" r="1.5" fill="#D2D6DB"/>
<circle cx="85.5" cy="4.50006" r="1.5" fill="#D2D6DB"/>
<circle cx="113.5" cy="4.50006" r="1.5" fill="#D2D6DB"/>
<circle cx="141.5" cy="4.50006" r="1.5" fill="#D2D6DB"/>
<circle cx="169.5" cy="4.50006" r="1.5" fill="#D2D6DB"/>
<circle cx="197.5" cy="4.50006" r="1.5" fill="#D2D6DB"/>
<circle cx="225.5" cy="4.50006" r="1.5" fill="#D2D6DB"/>
<circle cx="253.5" cy="4.50006" r="1.5" fill="#D2D6DB"/>
<circle cx="281.5" cy="4.50006" r="1.5" fill="#D2D6DB"/>
<circle cx="309.5" cy="4.50006" r="1.5" fill="#D2D6DB"/>
<circle cx="337.5" cy="4.50006" r="1.5" fill="#D2D6DB"/>
<circle cx="365.5" cy="4.50006" r="1.5" fill="#D2D6DB"/>
<circle cx="393.5" cy="4.50006" r="1.5" fill="#D2D6DB"/>
<circle cx="421.5" cy="4.50006" r="1.5" fill="#D2D6DB"/>
<circle cx="449.5" cy="4.50006" r="1.5" fill="#D2D6DB"/>
<circle cx="477.5" cy="4.50006" r="1.5" fill="#D2D6DB"/>
</g>
<g clip-path="url(#clip2_103_132)">
<circle cx="1.5" cy="32.5001" r="1.5" fill="#D2D6DB"/>
<circle cx="29.5" cy="32.5001" r="1.5" fill="#D2D6DB"/>
<circle cx="57.5" cy="32.5001" r="1.5" fill="#D2D6DB"/>
<circle cx="85.5" cy="32.5001" r="1.5" fill="#D2D6DB"/>
<circle cx="113.5" cy="32.5001" r="1.5" fill="#D2D6DB"/>
<circle cx="141.5" cy="32.5001" r="1.5" fill="#D2D6DB"/>
<circle cx="169.5" cy="32.5001" r="1.5" fill="#D2D6DB"/>
<circle cx="197.5" cy="32.5001" r="1.5" fill="#D2D6DB"/>
<circle cx="225.5" cy="32.5001" r="1.5" fill="#D2D6DB"/>
<circle cx="253.5" cy="32.5001" r="1.5" fill="#D2D6DB"/>
<circle cx="281.5" cy="32.5001" r="1.5" fill="#D2D6DB"/>
<circle cx="309.5" cy="32.5001" r="1.5" fill="#D2D6DB"/>
<circle cx="337.5" cy="32.5001" r="1.5" fill="#D2D6DB"/>
<circle cx="365.5" cy="32.5001" r="1.5" fill="#D2D6DB"/>
<circle cx="393.5" cy="32.5001" r="1.5" fill="#D2D6DB"/>
<circle cx="421.5" cy="32.5001" r="1.5" fill="#D2D6DB"/>
<circle cx="449.5" cy="32.5001" r="1.5" fill="#D2D6DB"/>
<circle cx="477.5" cy="32.5001" r="1.5" fill="#D2D6DB"/>
</g>
<g clip-path="url(#clip3_103_132)">
<circle cx="1.5" cy="60.5001" r="1.5" fill="#D2D6DB"/>
<circle cx="29.5" cy="60.5001" r="1.5" fill="#D2D6DB"/>
<circle cx="57.5" cy="60.5001" r="1.5" fill="#D2D6DB"/>
<circle cx="85.5" cy="60.5001" r="1.5" fill="#D2D6DB"/>
<circle cx="113.5" cy="60.5001" r="1.5" fill="#D2D6DB"/>
<circle cx="141.5" cy="60.5001" r="1.5" fill="#D2D6DB"/>
<circle cx="169.5" cy="60.5001" r="1.5" fill="#D2D6DB"/>
<circle cx="197.5" cy="60.5001" r="1.5" fill="#D2D6DB"/>
<circle cx="225.5" cy="60.5001" r="1.5" fill="#D2D6DB"/>
<circle cx="253.5" cy="60.5001" r="1.5" fill="#D2D6DB"/>
<circle cx="281.5" cy="60.5001" r="1.5" fill="#D2D6DB"/>
<circle cx="309.5" cy="60.5001" r="1.5" fill="#D2D6DB"/>
<circle cx="337.5" cy="60.5001" r="1.5" fill="#D2D6DB"/>
<circle cx="365.5" cy="60.5001" r="1.5" fill="#D2D6DB"/>
<circle cx="393.5" cy="60.5001" r="1.5" fill="#D2D6DB"/>
<circle cx="421.5" cy="60.5001" r="1.5" fill="#D2D6DB"/>
<circle cx="449.5" cy="60.5001" r="1.5" fill="#D2D6DB"/>
<circle cx="477.5" cy="60.5001" r="1.5" fill="#D2D6DB"/>
</g>
<g clip-path="url(#clip4_103_132)">
<circle cx="1.5" cy="88.5001" r="1.5" fill="#D2D6DB"/>
<circle cx="29.5" cy="88.5001" r="1.5" fill="#D2D6DB"/>
<circle cx="57.5" cy="88.5001" r="1.5" fill="#D2D6DB"/>
<circle cx="85.5" cy="88.5001" r="1.5" fill="#D2D6DB"/>
<circle cx="113.5" cy="88.5001" r="1.5" fill="#D2D6DB"/>
<circle cx="141.5" cy="88.5001" r="1.5" fill="#D2D6DB"/>
<circle cx="169.5" cy="88.5001" r="1.5" fill="#D2D6DB"/>
<circle cx="197.5" cy="88.5001" r="1.5" fill="#D2D6DB"/>
<circle cx="225.5" cy="88.5001" r="1.5" fill="#D2D6DB"/>
<circle cx="253.5" cy="88.5001" r="1.5" fill="#D2D6DB"/>
<circle cx="281.5" cy="88.5001" r="1.5" fill="#D2D6DB"/>
<circle cx="309.5" cy="88.5001" r="1.5" fill="#D2D6DB"/>
<circle cx="337.5" cy="88.5001" r="1.5" fill="#D2D6DB"/>
<circle cx="365.5" cy="88.5001" r="1.5" fill="#D2D6DB"/>
<circle cx="393.5" cy="88.5001" r="1.5" fill="#D2D6DB"/>
<circle cx="421.5" cy="88.5001" r="1.5" fill="#D2D6DB"/>
<circle cx="449.5" cy="88.5001" r="1.5" fill="#D2D6DB"/>
<circle cx="477.5" cy="88.5001" r="1.5" fill="#D2D6DB"/>
</g>
<g clip-path="url(#clip5_103_132)">
<circle cx="1.5" cy="116.5" r="1.5" fill="#D2D6DB"/>
<circle cx="29.5" cy="116.5" r="1.5" fill="#D2D6DB"/>
<circle cx="57.5" cy="116.5" r="1.5" fill="#D2D6DB"/>
<circle cx="85.5" cy="116.5" r="1.5" fill="#D2D6DB"/>
<circle cx="113.5" cy="116.5" r="1.5" fill="#D2D6DB"/>
<circle cx="141.5" cy="116.5" r="1.5" fill="#D2D6DB"/>
<circle cx="169.5" cy="116.5" r="1.5" fill="#D2D6DB"/>
<circle cx="197.5" cy="116.5" r="1.5" fill="#D2D6DB"/>
<circle cx="225.5" cy="116.5" r="1.5" fill="#D2D6DB"/>
<circle cx="253.5" cy="116.5" r="1.5" fill="#D2D6DB"/>
<circle cx="281.5" cy="116.5" r="1.5" fill="#D2D6DB"/>
<circle cx="309.5" cy="116.5" r="1.5" fill="#D2D6DB"/>
<circle cx="337.5" cy="116.5" r="1.5" fill="#D2D6DB"/>
<circle cx="365.5" cy="116.5" r="1.5" fill="#D2D6DB"/>
<circle cx="393.5" cy="116.5" r="1.5" fill="#D2D6DB"/>
<circle cx="421.5" cy="116.5" r="1.5" fill="#D2D6DB"/>
<circle cx="449.5" cy="116.5" r="1.5" fill="#D2D6DB"/>
<circle cx="477.5" cy="116.5" r="1.5" fill="#D2D6DB"/>
</g>
<g clip-path="url(#clip6_103_132)">
<circle cx="1.5" cy="144.5" r="1.5" fill="#D2D6DB"/>
<circle cx="29.5" cy="144.5" r="1.5" fill="#D2D6DB"/>
<circle cx="57.5" cy="144.5" r="1.5" fill="#D2D6DB"/>
<circle cx="85.5" cy="144.5" r="1.5" fill="#D2D6DB"/>
<circle cx="113.5" cy="144.5" r="1.5" fill="#D2D6DB"/>
<circle cx="141.5" cy="144.5" r="1.5" fill="#D2D6DB"/>
<circle cx="169.5" cy="144.5" r="1.5" fill="#D2D6DB"/>
<circle cx="197.5" cy="144.5" r="1.5" fill="#D2D6DB"/>
<circle cx="225.5" cy="144.5" r="1.5" fill="#D2D6DB"/>
<circle cx="253.5" cy="144.5" r="1.5" fill="#D2D6DB"/>
<circle cx="281.5" cy="144.5" r="1.5" fill="#D2D6DB"/>
<circle cx="309.5" cy="144.5" r="1.5" fill="#D2D6DB"/>
<circle cx="337.5" cy="144.5" r="1.5" fill="#D2D6DB"/>
<circle cx="365.5" cy="144.5" r="1.5" fill="#D2D6DB"/>
<circle cx="393.5" cy="144.5" r="1.5" fill="#D2D6DB"/>
<circle cx="421.5" cy="144.5" r="1.5" fill="#D2D6DB"/>
<circle cx="449.5" cy="144.5" r="1.5" fill="#D2D6DB"/>
<circle cx="477.5" cy="144.5" r="1.5" fill="#D2D6DB"/>
</g>
<g clip-path="url(#clip7_103_132)">
<circle cx="1.5" cy="172.5" r="1.5" fill="#D2D6DB"/>
<circle cx="29.5" cy="172.5" r="1.5" fill="#D2D6DB"/>
<circle cx="57.5" cy="172.5" r="1.5" fill="#D2D6DB"/>
<circle cx="85.5" cy="172.5" r="1.5" fill="#D2D6DB"/>
<circle cx="113.5" cy="172.5" r="1.5" fill="#D2D6DB"/>
<circle cx="141.5" cy="172.5" r="1.5" fill="#D2D6DB"/>
<circle cx="169.5" cy="172.5" r="1.5" fill="#D2D6DB"/>
<circle cx="197.5" cy="172.5" r="1.5" fill="#D2D6DB"/>
<circle cx="225.5" cy="172.5" r="1.5" fill="#D2D6DB"/>
<circle cx="253.5" cy="172.5" r="1.5" fill="#D2D6DB"/>
<circle cx="281.5" cy="172.5" r="1.5" fill="#D2D6DB"/>
<circle cx="309.5" cy="172.5" r="1.5" fill="#D2D6DB"/>
<circle cx="337.5" cy="172.5" r="1.5" fill="#D2D6DB"/>
<circle cx="365.5" cy="172.5" r="1.5" fill="#D2D6DB"/>
<circle cx="393.5" cy="172.5" r="1.5" fill="#D2D6DB"/>
<circle cx="421.5" cy="172.5" r="1.5" fill="#D2D6DB"/>
<circle cx="449.5" cy="172.5" r="1.5" fill="#D2D6DB"/>
<circle cx="477.5" cy="172.5" r="1.5" fill="#D2D6DB"/>
</g>
<circle cx="1.5" cy="200.5" r="1.5" fill="#D2D6DB"/>
<circle cx="29.5" cy="200.5" r="1.5" fill="#D2D6DB"/>
<circle cx="57.5" cy="200.5" r="1.5" fill="#D2D6DB"/>
<circle cx="85.5" cy="200.5" r="1.5" fill="#D2D6DB"/>
<circle cx="113.5" cy="200.5" r="1.5" fill="#D2D6DB"/>
<circle cx="141.5" cy="200.5" r="1.5" fill="#D2D6DB"/>
<circle cx="169.5" cy="200.5" r="1.5" fill="#D2D6DB"/>
<circle cx="197.5" cy="200.5" r="1.5" fill="#D2D6DB"/>
<circle cx="225.5" cy="200.5" r="1.5" fill="#D2D6DB"/>
<circle cx="253.5" cy="200.5" r="1.5" fill="#D2D6DB"/>
<circle cx="281.5" cy="200.5" r="1.5" fill="#D2D6DB"/>
<circle cx="309.5" cy="200.5" r="1.5" fill="#D2D6DB"/>
<circle cx="337.5" cy="200.5" r="1.5" fill="#D2D6DB"/>
<circle cx="365.5" cy="200.5" r="1.5" fill="#D2D6DB"/>
<circle cx="393.5" cy="200.5" r="1.5" fill="#D2D6DB"/>
<circle cx="421.5" cy="200.5" r="1.5" fill="#D2D6DB"/>
<circle cx="449.5" cy="200.5" r="1.5" fill="#D2D6DB"/>
<circle cx="477.5" cy="200.5" r="1.5" fill="#D2D6DB"/>
<circle cx="1.5" cy="228.5" r="1.5" fill="#D2D6DB"/>
<circle cx="29.5" cy="228.5" r="1.5" fill="#D2D6DB"/>
<circle cx="57.5" cy="228.5" r="1.5" fill="#D2D6DB"/>
<circle cx="85.5" cy="228.5" r="1.5" fill="#D2D6DB"/>
<circle cx="113.5" cy="228.5" r="1.5" fill="#D2D6DB"/>
<circle cx="141.5" cy="228.5" r="1.5" fill="#D2D6DB"/>
<circle cx="169.5" cy="228.5" r="1.5" fill="#D2D6DB"/>
<circle cx="197.5" cy="228.5" r="1.5" fill="#D2D6DB"/>
<circle cx="225.5" cy="228.5" r="1.5" fill="#D2D6DB"/>
<circle cx="253.5" cy="228.5" r="1.5" fill="#D2D6DB"/>
<circle cx="281.5" cy="228.5" r="1.5" fill="#D2D6DB"/>
<circle cx="309.5" cy="228.5" r="1.5" fill="#D2D6DB"/>
<circle cx="337.5" cy="228.5" r="1.5" fill="#D2D6DB"/>
<circle cx="365.5" cy="228.5" r="1.5" fill="#D2D6DB"/>
<circle cx="393.5" cy="228.5" r="1.5" fill="#D2D6DB"/>
<circle cx="421.5" cy="228.5" r="1.5" fill="#D2D6DB"/>
<circle cx="449.5" cy="228.5" r="1.5" fill="#D2D6DB"/>
<circle cx="477.5" cy="228.5" r="1.5" fill="#D2D6DB"/>
<circle cx="1.5" cy="256.5" r="1.5" fill="#D2D6DB"/>
<circle cx="29.5" cy="256.5" r="1.5" fill="#D2D6DB"/>
<circle cx="57.5" cy="256.5" r="1.5" fill="#D2D6DB"/>
<circle cx="85.5" cy="256.5" r="1.5" fill="#D2D6DB"/>
<circle cx="113.5" cy="256.5" r="1.5" fill="#D2D6DB"/>
<circle cx="141.5" cy="256.5" r="1.5" fill="#D2D6DB"/>
<circle cx="169.5" cy="256.5" r="1.5" fill="#D2D6DB"/>
<circle cx="197.5" cy="256.5" r="1.5" fill="#D2D6DB"/>
<circle cx="225.5" cy="256.5" r="1.5" fill="#D2D6DB"/>
<circle cx="253.5" cy="256.5" r="1.5" fill="#D2D6DB"/>
<circle cx="281.5" cy="256.5" r="1.5" fill="#D2D6DB"/>
<circle cx="309.5" cy="256.5" r="1.5" fill="#D2D6DB"/>
<circle cx="337.5" cy="256.5" r="1.5" fill="#D2D6DB"/>
<circle cx="365.5" cy="256.5" r="1.5" fill="#D2D6DB"/>
<circle cx="393.5" cy="256.5" r="1.5" fill="#D2D6DB"/>
<circle cx="421.5" cy="256.5" r="1.5" fill="#D2D6DB"/>
<circle cx="449.5" cy="256.5" r="1.5" fill="#D2D6DB"/>
<circle cx="477.5" cy="256.5" r="1.5" fill="#D2D6DB"/>
<circle cx="1.5" cy="284.5" r="1.5" fill="#D2D6DB"/>
<circle cx="29.5" cy="284.5" r="1.5" fill="#D2D6DB"/>
<circle cx="57.5" cy="284.5" r="1.5" fill="#D2D6DB"/>
<circle cx="85.5" cy="284.5" r="1.5" fill="#D2D6DB"/>
<circle cx="113.5" cy="284.5" r="1.5" fill="#D2D6DB"/>
<circle cx="141.5" cy="284.5" r="1.5" fill="#D2D6DB"/>
<circle cx="169.5" cy="284.5" r="1.5" fill="#D2D6DB"/>
<circle cx="197.5" cy="284.5" r="1.5" fill="#D2D6DB"/>
<circle cx="225.5" cy="284.5" r="1.5" fill="#D2D6DB"/>
<circle cx="253.5" cy="284.5" r="1.5" fill="#D2D6DB"/>
<circle cx="281.5" cy="284.5" r="1.5" fill="#D2D6DB"/>
<circle cx="309.5" cy="284.5" r="1.5" fill="#D2D6DB"/>
<circle cx="337.5" cy="284.5" r="1.5" fill="#D2D6DB"/>
<circle cx="365.5" cy="284.5" r="1.5" fill="#D2D6DB"/>
<circle cx="393.5" cy="284.5" r="1.5" fill="#D2D6DB"/>
<circle cx="421.5" cy="284.5" r="1.5" fill="#D2D6DB"/>
<circle cx="449.5" cy="284.5" r="1.5" fill="#D2D6DB"/>
<circle cx="477.5" cy="284.5" r="1.5" fill="#D2D6DB"/>
<circle cx="1.5" cy="312.5" r="1.5" fill="#D2D6DB"/>
<circle cx="29.5" cy="312.5" r="1.5" fill="#D2D6DB"/>
<circle cx="57.5" cy="312.5" r="1.5" fill="#D2D6DB"/>
<circle cx="85.5" cy="312.5" r="1.5" fill="#D2D6DB"/>
<circle cx="113.5" cy="312.5" r="1.5" fill="#D2D6DB"/>
<circle cx="141.5" cy="312.5" r="1.5" fill="#D2D6DB"/>
<circle cx="169.5" cy="312.5" r="1.5" fill="#D2D6DB"/>
<circle cx="197.5" cy="312.5" r="1.5" fill="#D2D6DB"/>
<circle cx="225.5" cy="312.5" r="1.5" fill="#D2D6DB"/>
<circle cx="253.5" cy="312.5" r="1.5" fill="#D2D6DB"/>
<circle cx="281.5" cy="312.5" r="1.5" fill="#D2D6DB"/>
<circle cx="309.5" cy="312.5" r="1.5" fill="#D2D6DB"/>
<circle cx="337.5" cy="312.5" r="1.5" fill="#D2D6DB"/>
<circle cx="365.5" cy="312.5" r="1.5" fill="#D2D6DB"/>
<circle cx="393.5" cy="312.5" r="1.5" fill="#D2D6DB"/>
<circle cx="421.5" cy="312.5" r="1.5" fill="#D2D6DB"/>
<circle cx="449.5" cy="312.5" r="1.5" fill="#D2D6DB"/>
<circle cx="477.5" cy="312.5" r="1.5" fill="#D2D6DB"/>
<circle cx="1.5" cy="340.5" r="1.5" fill="#D2D6DB"/>
<circle cx="29.5" cy="340.5" r="1.5" fill="#D2D6DB"/>
<circle cx="57.5" cy="340.5" r="1.5" fill="#D2D6DB"/>
<circle cx="85.5" cy="340.5" r="1.5" fill="#D2D6DB"/>
<circle cx="113.5" cy="340.5" r="1.5" fill="#D2D6DB"/>
<circle cx="141.5" cy="340.5" r="1.5" fill="#D2D6DB"/>
<circle cx="169.5" cy="340.5" r="1.5" fill="#D2D6DB"/>
<circle cx="197.5" cy="340.5" r="1.5" fill="#D2D6DB"/>
<circle cx="225.5" cy="340.5" r="1.5" fill="#D2D6DB"/>
<circle cx="253.5" cy="340.5" r="1.5" fill="#D2D6DB"/>
<circle cx="281.5" cy="340.5" r="1.5" fill="#D2D6DB"/>
<circle cx="309.5" cy="340.5" r="1.5" fill="#D2D6DB"/>
<circle cx="337.5" cy="340.5" r="1.5" fill="#D2D6DB"/>
<circle cx="365.5" cy="340.5" r="1.5" fill="#D2D6DB"/>
<circle cx="393.5" cy="340.5" r="1.5" fill="#D2D6DB"/>
<circle cx="421.5" cy="340.5" r="1.5" fill="#D2D6DB"/>
<circle cx="449.5" cy="340.5" r="1.5" fill="#D2D6DB"/>
<circle cx="477.5" cy="340.5" r="1.5" fill="#D2D6DB"/>
<circle cx="1.5" cy="368.5" r="1.5" fill="#D2D6DB"/>
<circle cx="29.5" cy="368.5" r="1.5" fill="#D2D6DB"/>
<circle cx="57.5" cy="368.5" r="1.5" fill="#D2D6DB"/>
<circle cx="85.5" cy="368.5" r="1.5" fill="#D2D6DB"/>
<circle cx="113.5" cy="368.5" r="1.5" fill="#D2D6DB"/>
<circle cx="141.5" cy="368.5" r="1.5" fill="#D2D6DB"/>
<circle cx="169.5" cy="368.5" r="1.5" fill="#D2D6DB"/>
<circle cx="197.5" cy="368.5" r="1.5" fill="#D2D6DB"/>
<circle cx="225.5" cy="368.5" r="1.5" fill="#D2D6DB"/>
<circle cx="253.5" cy="368.5" r="1.5" fill="#D2D6DB"/>
<circle cx="281.5" cy="368.5" r="1.5" fill="#D2D6DB"/>
<circle cx="309.5" cy="368.5" r="1.5" fill="#D2D6DB"/>
<circle cx="337.5" cy="368.5" r="1.5" fill="#D2D6DB"/>
<circle cx="365.5" cy="368.5" r="1.5" fill="#D2D6DB"/>
<circle cx="393.5" cy="368.5" r="1.5" fill="#D2D6DB"/>
<circle cx="421.5" cy="368.5" r="1.5" fill="#D2D6DB"/>
<circle cx="449.5" cy="368.5" r="1.5" fill="#D2D6DB"/>
<circle cx="477.5" cy="368.5" r="1.5" fill="#D2D6DB"/>
<circle cx="1.5" cy="396.5" r="1.5" fill="#D2D6DB"/>
<circle cx="29.5" cy="396.5" r="1.5" fill="#D2D6DB"/>
<circle cx="57.5" cy="396.5" r="1.5" fill="#D2D6DB"/>
<circle cx="85.5" cy="396.5" r="1.5" fill="#D2D6DB"/>
<circle cx="113.5" cy="396.5" r="1.5" fill="#D2D6DB"/>
<circle cx="141.5" cy="396.5" r="1.5" fill="#D2D6DB"/>
<circle cx="169.5" cy="396.5" r="1.5" fill="#D2D6DB"/>
<circle cx="197.5" cy="396.5" r="1.5" fill="#D2D6DB"/>
<circle cx="225.5" cy="396.5" r="1.5" fill="#D2D6DB"/>
<circle cx="253.5" cy="396.5" r="1.5" fill="#D2D6DB"/>
<circle cx="281.5" cy="396.5" r="1.5" fill="#D2D6DB"/>
<circle cx="309.5" cy="396.5" r="1.5" fill="#D2D6DB"/>
<circle cx="337.5" cy="396.5" r="1.5" fill="#D2D6DB"/>
<circle cx="365.5" cy="396.5" r="1.5" fill="#D2D6DB"/>
<circle cx="393.5" cy="396.5" r="1.5" fill="#D2D6DB"/>
<circle cx="421.5" cy="396.5" r="1.5" fill="#D2D6DB"/>
<circle cx="449.5" cy="396.5" r="1.5" fill="#D2D6DB"/>
<circle cx="477.5" cy="396.5" r="1.5" fill="#D2D6DB"/>
<circle cx="1.5" cy="424.5" r="1.5" fill="#D2D6DB"/>
<circle cx="29.5" cy="424.5" r="1.5" fill="#D2D6DB"/>
<circle cx="57.5" cy="424.5" r="1.5" fill="#D2D6DB"/>
<circle cx="85.5" cy="424.5" r="1.5" fill="#D2D6DB"/>
<circle cx="113.5" cy="424.5" r="1.5" fill="#D2D6DB"/>
<circle cx="141.5" cy="424.5" r="1.5" fill="#D2D6DB"/>
<circle cx="169.5" cy="424.5" r="1.5" fill="#D2D6DB"/>
<circle cx="197.5" cy="424.5" r="1.5" fill="#D2D6DB"/>
<circle cx="225.5" cy="424.5" r="1.5" fill="#D2D6DB"/>
<circle cx="253.5" cy="424.5" r="1.5" fill="#D2D6DB"/>
<circle cx="281.5" cy="424.5" r="1.5" fill="#D2D6DB"/>
<circle cx="309.5" cy="424.5" r="1.5" fill="#D2D6DB"/>
<circle cx="337.5" cy="424.5" r="1.5" fill="#D2D6DB"/>
<circle cx="365.5" cy="424.5" r="1.5" fill="#D2D6DB"/>
<circle cx="393.5" cy="424.5" r="1.5" fill="#D2D6DB"/>
<circle cx="421.5" cy="424.5" r="1.5" fill="#D2D6DB"/>
<circle cx="449.5" cy="424.5" r="1.5" fill="#D2D6DB"/>
<circle cx="477.5" cy="424.5" r="1.5" fill="#D2D6DB"/>
<circle cx="1.5" cy="452.5" r="1.5" fill="#D2D6DB"/>
<circle cx="29.5" cy="452.5" r="1.5" fill="#D2D6DB"/>
<circle cx="57.5" cy="452.5" r="1.5" fill="#D2D6DB"/>
<circle cx="85.5" cy="452.5" r="1.5" fill="#D2D6DB"/>
<circle cx="113.5" cy="452.5" r="1.5" fill="#D2D6DB"/>
<circle cx="141.5" cy="452.5" r="1.5" fill="#D2D6DB"/>
<circle cx="169.5" cy="452.5" r="1.5" fill="#D2D6DB"/>
<circle cx="197.5" cy="452.5" r="1.5" fill="#D2D6DB"/>
<circle cx="225.5" cy="452.5" r="1.5" fill="#D2D6DB"/>
<circle cx="253.5" cy="452.5" r="1.5" fill="#D2D6DB"/>
<circle cx="281.5" cy="452.5" r="1.5" fill="#D2D6DB"/>
<circle cx="309.5" cy="452.5" r="1.5" fill="#D2D6DB"/>
<circle cx="337.5" cy="452.5" r="1.5" fill="#D2D6DB"/>
<circle cx="365.5" cy="452.5" r="1.5" fill="#D2D6DB"/>
<circle cx="393.5" cy="452.5" r="1.5" fill="#D2D6DB"/>
<circle cx="421.5" cy="452.5" r="1.5" fill="#D2D6DB"/>
<circle cx="449.5" cy="452.5" r="1.5" fill="#D2D6DB"/>
<circle cx="477.5" cy="452.5" r="1.5" fill="#D2D6DB"/>
<circle cx="1.5" cy="480.5" r="1.5" fill="#D2D6DB"/>
<circle cx="29.5" cy="480.5" r="1.5" fill="#D2D6DB"/>
<circle cx="57.5" cy="480.5" r="1.5" fill="#D2D6DB"/>
<circle cx="85.5" cy="480.5" r="1.5" fill="#D2D6DB"/>
<circle cx="113.5" cy="480.5" r="1.5" fill="#D2D6DB"/>
<circle cx="141.5" cy="480.5" r="1.5" fill="#D2D6DB"/>
<circle cx="169.5" cy="480.5" r="1.5" fill="#D2D6DB"/>
<circle cx="197.5" cy="480.5" r="1.5" fill="#D2D6DB"/>
<circle cx="225.5" cy="480.5" r="1.5" fill="#D2D6DB"/>
<circle cx="253.5" cy="480.5" r="1.5" fill="#D2D6DB"/>
<circle cx="281.5" cy="480.5" r="1.5" fill="#D2D6DB"/>
<circle cx="309.5" cy="480.5" r="1.5" fill="#D2D6DB"/>
<circle cx="337.5" cy="480.5" r="1.5" fill="#D2D6DB"/>
<circle cx="365.5" cy="480.5" r="1.5" fill="#D2D6DB"/>
</g>
<defs>
<clipPath id="clip0_103_132">
<rect width="500" height="493.124" fill="white" transform="translate(0 3.00006)"/>
</clipPath>
<clipPath id="clip1_103_132">
<rect width="509" height="28" fill="white" transform="translate(0 3.00006)"/>
</clipPath>
<clipPath id="clip2_103_132">
<rect width="509" height="28" fill="white" transform="translate(0 31.0001)"/>
</clipPath>
<clipPath id="clip3_103_132">
<rect width="509" height="28" fill="white" transform="translate(0 59.0001)"/>
</clipPath>
<clipPath id="clip4_103_132">
<rect width="509" height="28" fill="white" transform="translate(0 87.0001)"/>
</clipPath>
<clipPath id="clip5_103_132">
<rect width="509" height="28" fill="white" transform="translate(0 115)"/>
</clipPath>
<clipPath id="clip6_103_132">
<rect width="509" height="28" fill="white" transform="translate(0 143)"/>
</clipPath>
<clipPath id="clip7_103_132">
<rect width="509" height="28" fill="white" transform="translate(0 171)"/>
</clipPath>
</defs>
</svg>
