<svg width="503" height="501" viewBox="0 0 503 501" fill="none" xmlns="http://www.w3.org/2000/svg">
<circle cx="252.982" cy="250" r="248" fill="#1A1A1A" stroke="#4AE3B5" stroke-width="4"/>
<g clip-path="url(#clip0_127_31)">
<g clip-path="url(#clip1_127_31)">
<circle cx="197.5" cy="12.4404" r="1.5" fill="#D2D6DB"/>
<circle cx="225.5" cy="12.4404" r="1.5" fill="#D2D6DB"/>
<circle cx="253.5" cy="12.4404" r="1.5" fill="#D2D6DB"/>
<circle cx="281.5" cy="12.4404" r="1.5" fill="#D2D6DB"/>
<circle cx="309.5" cy="12.4404" r="1.5" fill="#D2D6DB"/>
</g>
<g clip-path="url(#clip2_127_31)">
<circle cx="141.5" cy="40.4404" r="1.5" fill="#D2D6DB"/>
<circle cx="169.5" cy="40.4404" r="1.5" fill="#D2D6DB"/>
<circle cx="197.5" cy="40.4404" r="1.5" fill="#D2D6DB"/>
<circle cx="225.5" cy="40.4404" r="1.5" fill="#D2D6DB"/>
<circle cx="253.5" cy="40.4404" r="1.5" fill="#D2D6DB"/>
<circle cx="281.5" cy="40.4404" r="1.5" fill="#D2D6DB"/>
<circle cx="309.5" cy="40.4404" r="1.5" fill="#D2D6DB"/>
<circle cx="337.5" cy="40.4404" r="1.5" fill="#D2D6DB"/>
<circle cx="365.5" cy="40.4404" r="1.5" fill="#D2D6DB"/>
</g>
<g clip-path="url(#clip3_127_31)">
<circle cx="85.5" cy="68.4404" r="1.5" fill="#D2D6DB"/>
<circle cx="113.5" cy="68.4404" r="1.5" fill="#D2D6DB"/>
<circle cx="141.5" cy="68.4404" r="1.5" fill="#D2D6DB"/>
<circle cx="169.5" cy="68.4404" r="1.5" fill="#D2D6DB"/>
<circle cx="197.5" cy="68.4404" r="1.5" fill="#D2D6DB"/>
<circle cx="225.5" cy="68.4404" r="1.5" fill="#D2D6DB"/>
<circle cx="253.5" cy="68.4404" r="1.5" fill="#D2D6DB"/>
<circle cx="281.5" cy="68.4404" r="1.5" fill="#D2D6DB"/>
<circle cx="309.5" cy="68.4404" r="1.5" fill="#D2D6DB"/>
<circle cx="337.5" cy="68.4404" r="1.5" fill="#D2D6DB"/>
<circle cx="365.5" cy="68.4404" r="1.5" fill="#D2D6DB"/>
<circle cx="393.5" cy="68.4404" r="1.5" fill="#D2D6DB"/>
</g>
<g clip-path="url(#clip4_127_31)">
<circle cx="57.5" cy="96.4404" r="1.5" fill="#D2D6DB"/>
<circle cx="85.5" cy="96.4404" r="1.5" fill="#D2D6DB"/>
<circle cx="113.5" cy="96.4404" r="1.5" fill="#D2D6DB"/>
<circle cx="141.5" cy="96.4404" r="1.5" fill="#D2D6DB"/>
<circle cx="169.5" cy="96.4404" r="1.5" fill="#D2D6DB"/>
<circle cx="197.5" cy="96.4404" r="1.5" fill="#D2D6DB"/>
<circle cx="225.5" cy="96.4404" r="1.5" fill="#D2D6DB"/>
<circle cx="253.5" cy="96.4404" r="1.5" fill="#D2D6DB"/>
<circle cx="281.5" cy="96.4404" r="1.5" fill="#D2D6DB"/>
<circle cx="309.5" cy="96.4404" r="1.5" fill="#D2D6DB"/>
<circle cx="337.5" cy="96.4404" r="1.5" fill="#D2D6DB"/>
<circle cx="365.5" cy="96.4404" r="1.5" fill="#D2D6DB"/>
<circle cx="393.5" cy="96.4404" r="1.5" fill="#D2D6DB"/>
<circle cx="421.5" cy="96.4404" r="1.5" fill="#D2D6DB"/>
</g>
<g clip-path="url(#clip5_127_31)">
<circle cx="57.5" cy="124.44" r="1.5" fill="#D2D6DB"/>
<circle cx="85.5" cy="124.44" r="1.5" fill="#D2D6DB"/>
<circle cx="113.5" cy="124.44" r="1.5" fill="#D2D6DB"/>
<circle cx="141.5" cy="124.44" r="1.5" fill="#D2D6DB"/>
<circle cx="169.5" cy="124.44" r="1.5" fill="#D2D6DB"/>
<circle cx="197.5" cy="124.44" r="1.5" fill="#D2D6DB"/>
<circle cx="225.5" cy="124.44" r="1.5" fill="#D2D6DB"/>
<circle cx="253.5" cy="124.44" r="1.5" fill="#D2D6DB"/>
<circle cx="281.5" cy="124.44" r="1.5" fill="#D2D6DB"/>
<circle cx="309.5" cy="124.44" r="1.5" fill="#D2D6DB"/>
<circle cx="337.5" cy="124.44" r="1.5" fill="#D2D6DB"/>
<circle cx="365.5" cy="124.44" r="1.5" fill="#D2D6DB"/>
<circle cx="393.5" cy="124.44" r="1.5" fill="#D2D6DB"/>
<circle cx="421.5" cy="124.44" r="1.5" fill="#D2D6DB"/>
<circle cx="449.5" cy="124.44" r="1.5" fill="#D2D6DB"/>
</g>
<g clip-path="url(#clip6_127_31)">
<circle cx="29.5" cy="152.44" r="1.5" fill="#D2D6DB"/>
<circle cx="57.5" cy="152.44" r="1.5" fill="#D2D6DB"/>
<circle cx="85.5" cy="152.44" r="1.5" fill="#D2D6DB"/>
<circle cx="113.5" cy="152.44" r="1.5" fill="#D2D6DB"/>
<circle cx="141.5" cy="152.44" r="1.5" fill="#D2D6DB"/>
<circle cx="169.5" cy="152.44" r="1.5" fill="#D2D6DB"/>
<circle cx="197.5" cy="152.44" r="1.5" fill="#D2D6DB"/>
<circle cx="225.5" cy="152.44" r="1.5" fill="#D2D6DB"/>
<circle cx="253.5" cy="152.44" r="1.5" fill="#D2D6DB"/>
<circle cx="281.5" cy="152.44" r="1.5" fill="#D2D6DB"/>
<circle cx="309.5" cy="152.44" r="1.5" fill="#D2D6DB"/>
<circle cx="337.5" cy="152.44" r="1.5" fill="#D2D6DB"/>
<circle cx="365.5" cy="152.44" r="1.5" fill="#D2D6DB"/>
<circle cx="393.5" cy="152.44" r="1.5" fill="#D2D6DB"/>
<circle cx="421.5" cy="152.44" r="1.5" fill="#D2D6DB"/>
<circle cx="449.5" cy="152.44" r="1.5" fill="#D2D6DB"/>
<circle cx="477.5" cy="152.44" r="1.5" fill="#D2D6DB"/>
</g>
<g clip-path="url(#clip7_127_31)">
<circle cx="29.5" cy="180.44" r="1.5" fill="#D2D6DB"/>
<circle cx="57.5" cy="180.44" r="1.5" fill="#D2D6DB"/>
<circle cx="85.5" cy="180.44" r="1.5" fill="#D2D6DB"/>
<circle cx="113.5" cy="180.44" r="1.5" fill="#D2D6DB"/>
<circle cx="141.5" cy="180.44" r="1.5" fill="#D2D6DB"/>
<circle cx="169.5" cy="180.44" r="1.5" fill="#D2D6DB"/>
<circle cx="197.5" cy="180.44" r="1.5" fill="#D2D6DB"/>
<circle cx="225.5" cy="180.44" r="1.5" fill="#D2D6DB"/>
<circle cx="253.5" cy="180.44" r="1.5" fill="#D2D6DB"/>
<circle cx="281.5" cy="180.44" r="1.5" fill="#D2D6DB"/>
<circle cx="309.5" cy="180.44" r="1.5" fill="#D2D6DB"/>
<circle cx="337.5" cy="180.44" r="1.5" fill="#D2D6DB"/>
<circle cx="365.5" cy="180.44" r="1.5" fill="#D2D6DB"/>
<circle cx="393.5" cy="180.44" r="1.5" fill="#D2D6DB"/>
<circle cx="421.5" cy="180.44" r="1.5" fill="#D2D6DB"/>
<circle cx="449.5" cy="180.44" r="1.5" fill="#D2D6DB"/>
<circle cx="477.5" cy="180.44" r="1.5" fill="#D2D6DB"/>
</g>
<g clip-path="url(#clip8_127_31)">
<circle cx="29.5" cy="208.44" r="1.5" fill="#D2D6DB"/>
<circle cx="57.5" cy="208.44" r="1.5" fill="#D2D6DB"/>
<circle cx="85.5" cy="208.44" r="1.5" fill="#D2D6DB"/>
<circle cx="113.5" cy="208.44" r="1.5" fill="#D2D6DB"/>
<circle cx="141.5" cy="208.44" r="1.5" fill="#D2D6DB"/>
<circle cx="169.5" cy="208.44" r="1.5" fill="#D2D6DB"/>
<circle cx="197.5" cy="208.44" r="1.5" fill="#D2D6DB"/>
<circle cx="225.5" cy="208.44" r="1.5" fill="#D2D6DB"/>
<circle cx="253.5" cy="208.44" r="1.5" fill="#D2D6DB"/>
<circle cx="281.5" cy="208.44" r="1.5" fill="#D2D6DB"/>
<circle cx="309.5" cy="208.44" r="1.5" fill="#D2D6DB"/>
<circle cx="337.5" cy="208.44" r="1.5" fill="#D2D6DB"/>
<circle cx="365.5" cy="208.44" r="1.5" fill="#D2D6DB"/>
<circle cx="393.5" cy="208.44" r="1.5" fill="#D2D6DB"/>
<circle cx="421.5" cy="208.44" r="1.5" fill="#D2D6DB"/>
<circle cx="449.5" cy="208.44" r="1.5" fill="#D2D6DB"/>
<circle cx="477.5" cy="208.44" r="1.5" fill="#D2D6DB"/>
</g>
<g clip-path="url(#clip9_127_31)">
<circle cx="29.5" cy="236.44" r="1.5" fill="#D2D6DB"/>
<circle cx="57.5" cy="236.44" r="1.5" fill="#D2D6DB"/>
<circle cx="85.5" cy="236.44" r="1.5" fill="#D2D6DB"/>
<circle cx="113.5" cy="236.44" r="1.5" fill="#D2D6DB"/>
<circle cx="141.5" cy="236.44" r="1.5" fill="#D2D6DB"/>
<circle cx="169.5" cy="236.44" r="1.5" fill="#D2D6DB"/>
<circle cx="197.5" cy="236.44" r="1.5" fill="#D2D6DB"/>
<circle cx="225.5" cy="236.44" r="1.5" fill="#D2D6DB"/>
<circle cx="253.5" cy="236.44" r="1.5" fill="#D2D6DB"/>
<circle cx="281.5" cy="236.44" r="1.5" fill="#D2D6DB"/>
<circle cx="309.5" cy="236.44" r="1.5" fill="#D2D6DB"/>
<circle cx="337.5" cy="236.44" r="1.5" fill="#D2D6DB"/>
<circle cx="365.5" cy="236.44" r="1.5" fill="#D2D6DB"/>
<circle cx="393.5" cy="236.44" r="1.5" fill="#D2D6DB"/>
<circle cx="421.5" cy="236.44" r="1.5" fill="#D2D6DB"/>
<circle cx="449.5" cy="236.44" r="1.5" fill="#D2D6DB"/>
<circle cx="477.5" cy="236.44" r="1.5" fill="#D2D6DB"/>
</g>
<g clip-path="url(#clip10_127_31)">
<circle cx="29.5" cy="264.44" r="1.5" fill="#D2D6DB"/>
<circle cx="57.5" cy="264.44" r="1.5" fill="#D2D6DB"/>
<circle cx="85.5" cy="264.44" r="1.5" fill="#D2D6DB"/>
<circle cx="113.5" cy="264.44" r="1.5" fill="#D2D6DB"/>
<circle cx="141.5" cy="264.44" r="1.5" fill="#D2D6DB"/>
<circle cx="169.5" cy="264.44" r="1.5" fill="#D2D6DB"/>
<circle cx="197.5" cy="264.44" r="1.5" fill="#D2D6DB"/>
<circle cx="225.5" cy="264.44" r="1.5" fill="#D2D6DB"/>
<circle cx="253.5" cy="264.44" r="1.5" fill="#D2D6DB"/>
<circle cx="281.5" cy="264.44" r="1.5" fill="#D2D6DB"/>
<circle cx="309.5" cy="264.44" r="1.5" fill="#D2D6DB"/>
<circle cx="337.5" cy="264.44" r="1.5" fill="#D2D6DB"/>
<circle cx="365.5" cy="264.44" r="1.5" fill="#D2D6DB"/>
<circle cx="393.5" cy="264.44" r="1.5" fill="#D2D6DB"/>
<circle cx="421.5" cy="264.44" r="1.5" fill="#D2D6DB"/>
<circle cx="449.5" cy="264.44" r="1.5" fill="#D2D6DB"/>
<circle cx="477.5" cy="264.44" r="1.5" fill="#D2D6DB"/>
</g>
<g clip-path="url(#clip11_127_31)">
<circle cx="29.5" cy="292.44" r="1.5" fill="#D2D6DB"/>
<circle cx="57.5" cy="292.44" r="1.5" fill="#D2D6DB"/>
<circle cx="85.5" cy="292.44" r="1.5" fill="#D2D6DB"/>
<circle cx="113.5" cy="292.44" r="1.5" fill="#D2D6DB"/>
<circle cx="141.5" cy="292.44" r="1.5" fill="#D2D6DB"/>
<circle cx="169.5" cy="292.44" r="1.5" fill="#D2D6DB"/>
<circle cx="197.5" cy="292.44" r="1.5" fill="#D2D6DB"/>
<circle cx="225.5" cy="292.44" r="1.5" fill="#D2D6DB"/>
<circle cx="253.5" cy="292.44" r="1.5" fill="#D2D6DB"/>
<circle cx="281.5" cy="292.44" r="1.5" fill="#D2D6DB"/>
<circle cx="309.5" cy="292.44" r="1.5" fill="#D2D6DB"/>
<circle cx="337.5" cy="292.44" r="1.5" fill="#D2D6DB"/>
<circle cx="365.5" cy="292.44" r="1.5" fill="#D2D6DB"/>
<circle cx="393.5" cy="292.44" r="1.5" fill="#D2D6DB"/>
<circle cx="421.5" cy="292.44" r="1.5" fill="#D2D6DB"/>
<circle cx="449.5" cy="292.44" r="1.5" fill="#D2D6DB"/>
<circle cx="477.5" cy="292.44" r="1.5" fill="#D2D6DB"/>
</g>
<g clip-path="url(#clip12_127_31)">
<circle cx="29.5" cy="320.44" r="1.5" fill="#D2D6DB"/>
<circle cx="57.5" cy="320.44" r="1.5" fill="#D2D6DB"/>
<circle cx="85.5" cy="320.44" r="1.5" fill="#D2D6DB"/>
<circle cx="113.5" cy="320.44" r="1.5" fill="#D2D6DB"/>
<circle cx="141.5" cy="320.44" r="1.5" fill="#D2D6DB"/>
<circle cx="169.5" cy="320.44" r="1.5" fill="#D2D6DB"/>
<circle cx="197.5" cy="320.44" r="1.5" fill="#D2D6DB"/>
<circle cx="225.5" cy="320.44" r="1.5" fill="#D2D6DB"/>
<circle cx="253.5" cy="320.44" r="1.5" fill="#D2D6DB"/>
<circle cx="281.5" cy="320.44" r="1.5" fill="#D2D6DB"/>
<circle cx="309.5" cy="320.44" r="1.5" fill="#D2D6DB"/>
<circle cx="337.5" cy="320.44" r="1.5" fill="#D2D6DB"/>
<circle cx="365.5" cy="320.44" r="1.5" fill="#D2D6DB"/>
<circle cx="393.5" cy="320.44" r="1.5" fill="#D2D6DB"/>
<circle cx="421.5" cy="320.44" r="1.5" fill="#D2D6DB"/>
<circle cx="449.5" cy="320.44" r="1.5" fill="#D2D6DB"/>
<circle cx="477.5" cy="320.44" r="1.5" fill="#D2D6DB"/>
</g>
<g clip-path="url(#clip13_127_31)">
<circle cx="29.5" cy="348.44" r="1.5" fill="#D2D6DB"/>
<circle cx="57.5" cy="348.44" r="1.5" fill="#D2D6DB"/>
<circle cx="85.5" cy="348.44" r="1.5" fill="#D2D6DB"/>
<circle cx="113.5" cy="348.44" r="1.5" fill="#D2D6DB"/>
<circle cx="141.5" cy="348.44" r="1.5" fill="#D2D6DB"/>
<circle cx="169.5" cy="348.44" r="1.5" fill="#D2D6DB"/>
<circle cx="197.5" cy="348.44" r="1.5" fill="#D2D6DB"/>
<circle cx="225.5" cy="348.44" r="1.5" fill="#D2D6DB"/>
<circle cx="253.5" cy="348.44" r="1.5" fill="#D2D6DB"/>
<circle cx="281.5" cy="348.44" r="1.5" fill="#D2D6DB"/>
<circle cx="309.5" cy="348.44" r="1.5" fill="#D2D6DB"/>
<circle cx="337.5" cy="348.44" r="1.5" fill="#D2D6DB"/>
<circle cx="365.5" cy="348.44" r="1.5" fill="#D2D6DB"/>
<circle cx="393.5" cy="348.44" r="1.5" fill="#D2D6DB"/>
<circle cx="421.5" cy="348.44" r="1.5" fill="#D2D6DB"/>
<circle cx="449.5" cy="348.44" r="1.5" fill="#D2D6DB"/>
<circle cx="477.5" cy="348.44" r="1.5" fill="#D2D6DB"/>
</g>
<g clip-path="url(#clip14_127_31)">
<circle cx="57.5" cy="376.44" r="1.5" fill="#D2D6DB"/>
<circle cx="85.5" cy="376.44" r="1.5" fill="#D2D6DB"/>
<circle cx="113.5" cy="376.44" r="1.5" fill="#D2D6DB"/>
<circle cx="141.5" cy="376.44" r="1.5" fill="#D2D6DB"/>
<circle cx="169.5" cy="376.44" r="1.5" fill="#D2D6DB"/>
<circle cx="197.5" cy="376.44" r="1.5" fill="#D2D6DB"/>
<circle cx="225.5" cy="376.44" r="1.5" fill="#D2D6DB"/>
<circle cx="253.5" cy="376.44" r="1.5" fill="#D2D6DB"/>
<circle cx="281.5" cy="376.44" r="1.5" fill="#D2D6DB"/>
<circle cx="309.5" cy="376.44" r="1.5" fill="#D2D6DB"/>
<circle cx="337.5" cy="376.44" r="1.5" fill="#D2D6DB"/>
<circle cx="365.5" cy="376.44" r="1.5" fill="#D2D6DB"/>
<circle cx="393.5" cy="376.44" r="1.5" fill="#D2D6DB"/>
<circle cx="421.5" cy="376.44" r="1.5" fill="#D2D6DB"/>
<circle cx="449.5" cy="376.44" r="1.5" fill="#D2D6DB"/>
</g>
<g clip-path="url(#clip15_127_31)">
<circle cx="57.5" cy="404.44" r="1.5" fill="#D2D6DB"/>
<circle cx="85.5" cy="404.44" r="1.5" fill="#D2D6DB"/>
<circle cx="113.5" cy="404.44" r="1.5" fill="#D2D6DB"/>
<circle cx="141.5" cy="404.44" r="1.5" fill="#D2D6DB"/>
<circle cx="169.5" cy="404.44" r="1.5" fill="#D2D6DB"/>
<circle cx="197.5" cy="404.44" r="1.5" fill="#D2D6DB"/>
<circle cx="225.5" cy="404.44" r="1.5" fill="#D2D6DB"/>
<circle cx="253.5" cy="404.44" r="1.5" fill="#D2D6DB"/>
<circle cx="281.5" cy="404.44" r="1.5" fill="#D2D6DB"/>
<circle cx="309.5" cy="404.44" r="1.5" fill="#D2D6DB"/>
<circle cx="337.5" cy="404.44" r="1.5" fill="#D2D6DB"/>
<circle cx="365.5" cy="404.44" r="1.5" fill="#D2D6DB"/>
<circle cx="393.5" cy="404.44" r="1.5" fill="#D2D6DB"/>
<circle cx="421.5" cy="404.44" r="1.5" fill="#D2D6DB"/>
</g>
<g clip-path="url(#clip16_127_31)">
<circle cx="85.5" cy="432.44" r="1.5" fill="#D2D6DB"/>
<circle cx="113.5" cy="432.44" r="1.5" fill="#D2D6DB"/>
<circle cx="141.5" cy="432.44" r="1.5" fill="#D2D6DB"/>
<circle cx="169.5" cy="432.44" r="1.5" fill="#D2D6DB"/>
<circle cx="197.5" cy="432.44" r="1.5" fill="#D2D6DB"/>
<circle cx="225.5" cy="432.44" r="1.5" fill="#D2D6DB"/>
<circle cx="253.5" cy="432.44" r="1.5" fill="#D2D6DB"/>
<circle cx="281.5" cy="432.44" r="1.5" fill="#D2D6DB"/>
<circle cx="309.5" cy="432.44" r="1.5" fill="#D2D6DB"/>
<circle cx="337.5" cy="432.44" r="1.5" fill="#D2D6DB"/>
<circle cx="365.5" cy="432.44" r="1.5" fill="#D2D6DB"/>
<circle cx="393.5" cy="432.44" r="1.5" fill="#D2D6DB"/>
</g>
<g clip-path="url(#clip17_127_31)">
<circle cx="141.5" cy="460.44" r="1.5" fill="#D2D6DB"/>
<circle cx="169.5" cy="460.44" r="1.5" fill="#D2D6DB"/>
<circle cx="197.5" cy="460.44" r="1.5" fill="#D2D6DB"/>
<circle cx="225.5" cy="460.44" r="1.5" fill="#D2D6DB"/>
<circle cx="253.5" cy="460.44" r="1.5" fill="#D2D6DB"/>
<circle cx="281.5" cy="460.44" r="1.5" fill="#D2D6DB"/>
<circle cx="309.5" cy="460.44" r="1.5" fill="#D2D6DB"/>
<circle cx="337.5" cy="460.44" r="1.5" fill="#D2D6DB"/>
<circle cx="365.5" cy="460.44" r="1.5" fill="#D2D6DB"/>
</g>
<g clip-path="url(#clip18_127_31)">
<circle cx="197.5" cy="488.44" r="1.5" fill="#D2D6DB"/>
<circle cx="225.5" cy="488.44" r="1.5" fill="#D2D6DB"/>
<circle cx="253.5" cy="488.44" r="1.5" fill="#D2D6DB"/>
<circle cx="281.5" cy="488.44" r="1.5" fill="#D2D6DB"/>
<circle cx="309.5" cy="488.44" r="1.5" fill="#D2D6DB"/>
</g>
</g>
<defs>
<clipPath id="clip0_127_31">
<rect width="497.018" height="490.06" fill="white" transform="translate(0 10.9404)"/>
</clipPath>
<clipPath id="clip1_127_31">
<rect width="500" height="28" fill="white" transform="translate(0 10.9404)"/>
</clipPath>
<clipPath id="clip2_127_31">
<rect width="500" height="28" fill="white" transform="translate(0 38.9404)"/>
</clipPath>
<clipPath id="clip3_127_31">
<rect width="500" height="28" fill="white" transform="translate(0 66.9404)"/>
</clipPath>
<clipPath id="clip4_127_31">
<rect width="500" height="28" fill="white" transform="translate(0 94.9404)"/>
</clipPath>
<clipPath id="clip5_127_31">
<rect width="500" height="28" fill="white" transform="translate(0 122.94)"/>
</clipPath>
<clipPath id="clip6_127_31">
<rect width="500" height="28" fill="white" transform="translate(0 150.94)"/>
</clipPath>
<clipPath id="clip7_127_31">
<rect width="500" height="28" fill="white" transform="translate(0 178.94)"/>
</clipPath>
<clipPath id="clip8_127_31">
<rect width="500" height="28" fill="white" transform="translate(0 206.94)"/>
</clipPath>
<clipPath id="clip9_127_31">
<rect width="500" height="28" fill="white" transform="translate(0 234.94)"/>
</clipPath>
<clipPath id="clip10_127_31">
<rect width="500" height="28" fill="white" transform="translate(0 262.94)"/>
</clipPath>
<clipPath id="clip11_127_31">
<rect width="500" height="28" fill="white" transform="translate(0 290.94)"/>
</clipPath>
<clipPath id="clip12_127_31">
<rect width="500" height="28" fill="white" transform="translate(0 318.94)"/>
</clipPath>
<clipPath id="clip13_127_31">
<rect width="500" height="28" fill="white" transform="translate(0 346.94)"/>
</clipPath>
<clipPath id="clip14_127_31">
<rect width="500" height="28" fill="white" transform="translate(0 374.94)"/>
</clipPath>
<clipPath id="clip15_127_31">
<rect width="500" height="28" fill="white" transform="translate(0 402.94)"/>
</clipPath>
<clipPath id="clip16_127_31">
<rect width="500" height="28" fill="white" transform="translate(0 430.94)"/>
</clipPath>
<clipPath id="clip17_127_31">
<rect width="500" height="28" fill="white" transform="translate(0 458.94)"/>
</clipPath>
<clipPath id="clip18_127_31">
<rect width="500" height="28" fill="white" transform="translate(0 486.94)"/>
</clipPath>
</defs>
</svg>
