<svg width="194" height="365" viewBox="0 0 194 365" fill="none" xmlns="http://www.w3.org/2000/svg">
<path d="M1.296 20.2592V17.84H3.24V8.768H1.296V6.3272H7.56V8.768H5.5944V17.84H7.56V20.2592H1.296ZM9.52256 20.2592V10.1504H17.7306V12.0944H19.6962V20.2592H17.2986V12.5696H11.8986V20.2592H9.52256ZM22.3054 20.2592V10.1504H24.6814V20.2592H22.3054ZM22.3054 8.768V6.3272H24.6814V8.768H22.3054ZM30.5387 20.2592V18.3368H28.5947V12.5696H26.6507V10.1504H28.5947V6.3272H30.9491V10.1504H36.8243V12.5696H30.9491V17.84H36.3923V15.896H38.7683V18.3368H36.8243V20.2592H30.5387ZM41.3741 20.2592V10.1504H43.7501V20.2592H41.3741ZM41.3741 8.768V6.3272H43.7501V8.768H41.3741ZM47.8955 20.2592V18.3368H45.9515V12.0944H47.8955V10.1504H54.1595V12.0944H56.1251V17.84H58.0691V20.2592H55.6931V18.3368H54.1595V20.2592H47.8955ZM48.3275 17.84H53.7275V12.5696H48.3275V17.84ZM60.021 20.2592V6.3272H62.397V20.2592H60.021ZM69.3444 20.2592V8.2496H71.2884V6.3272H77.5524V8.2496H79.518V14.492H77.5524V16.4144H71.7204V20.2592H69.3444ZM71.7204 13.9736H77.1204V8.768H71.7204V13.9736ZM83.4173 20.2592V18.3368H81.4733V12.0944H83.4173V10.1504H89.6813V12.0944H91.6469V18.3368H89.6813V20.2592H83.4173ZM83.8493 17.84H89.2493V12.5696H83.8493V17.84ZM94.2562 23.9744V12.0944H96.2002V10.1504H102.464V12.0944H104.43V18.3368H102.464V20.2592H96.6322V23.9744H94.2562ZM96.6322 17.84H102.032V12.5696H96.6322V17.84ZM108.983 20.2592V18.3368H107.039V10.1504H109.415V17.84H114.815V10.1504H117.213V18.3368H115.247V20.2592H108.983ZM119.822 20.2592V6.3272H122.198V20.2592H119.822ZM126.343 20.2592V18.3368H124.399V12.0944H126.343V10.1504H132.607V12.0944H134.573V17.84H136.517V20.2592H134.141V18.3368H132.607V20.2592H126.343ZM126.775 17.84H132.175V12.5696H126.775V17.84ZM140.627 20.2592V18.3368H138.683V12.5696H136.739V10.1504H138.683V6.3272H141.037V10.1504H146.913V12.5696H141.037V17.84H146.481V15.896H148.857V18.3368H146.913V20.2592H140.627ZM151.462 20.2592V10.1504H153.838V20.2592H151.462ZM151.462 8.768V6.3272H153.838V8.768H151.462ZM157.984 20.2592V18.3368H156.04V12.0944H157.984V10.1504H164.248V12.0944H166.213V18.3368H164.248V20.2592H157.984ZM158.416 17.84H163.816V12.5696H158.416V17.84ZM168.823 20.2592V10.1504H177.031V12.0944H178.996V20.2592H176.599V12.5696H171.199V20.2592H168.823ZM181.605 18.272V15.8312H183.981V18.272H181.605ZM181.605 14.5136V12.0944H183.981V14.5136H181.605Z" fill="#1A1A1A"/>
<path d="M3.24 54.2592V52.3368H1.296V49.896H3.672V51.84H9.072V48.492H3.24V46.5696H1.296V42.2496H3.24V40.3272H9.504V42.2496H11.4696V44.6688H9.072V42.768H3.672V46.0944H9.504V47.9736H11.4696V52.3368H9.504V54.2592H3.24ZM14.0788 57.9744V46.0944H16.0228V44.1504H22.2868V46.0944H24.2524V52.3368H22.2868V54.2592H16.4548V57.9744H14.0788ZM16.4548 51.84H21.8548V46.5696H16.4548V51.84ZM28.8056 54.2592V52.3368H26.8616V46.0944H28.8056V44.1504H35.0696V46.0944H37.0352V48.492H34.6376V46.5696H29.2376V47.9736H33.1256V50.4144H29.2376V51.84H34.6376V49.8744H37.0352V52.3152H35.0696V54.2592H28.8056ZM41.5884 54.2592V52.3368H39.6444V46.0944H41.5884V44.1504H47.8524V46.0944H49.818V48.492H47.4204V46.5696H42.0204V51.84H47.4204V49.896H49.818V52.3368H47.8524V54.2592H41.5884ZM52.4273 54.2592V44.1504H54.8033V54.2592H52.4273ZM52.4273 42.768V40.3272H54.8033V42.768H52.4273ZM58.9486 54.2592V52.3368H57.0046V46.0944H58.9486V44.1504H65.2126V46.0944H67.1782V48.492H64.7806V46.5696H59.3806V47.9736H63.2686V50.4144H59.3806V51.84H64.7806V49.8744H67.1782V52.3152H65.2126V54.2592H58.9486ZM69.7874 54.2592V51.84H77.5634V50.4144H71.7314V48.492H69.7874V46.0944H71.7314V44.1504H79.961V46.5696H72.1634V47.9736H77.9954V49.896H79.961V52.3368H77.9954V54.2592H69.7874ZM82.5702 52.272V49.8312H84.9462V52.272H82.5702ZM82.5702 48.5136V46.0944H84.9462V48.5136H82.5702Z" fill="#1A1A1A"/>
<path d="M5.184 88.2592V76.768H3.672V78.6688H1.296V76.2496H3.24V74.3272H9.504V76.2496H11.4696V78.6688H9.072V76.768H7.56V88.2592H5.184ZM11.9273 88.2592V80.0944H13.8713V78.1504H20.1353V80.0944H22.1009V82.492H19.7033V80.5696H14.3033V88.2592H11.9273ZM26.0002 88.2592V86.3368H24.0562V80.0944H26.0002V78.1504H32.2642V80.0944H34.2298V85.84H36.1738V88.2592H33.7978V86.3368H32.2642V88.2592H26.0002ZM26.4322 85.84H31.8322V80.5696H26.4322V85.84ZM38.1257 88.2592V78.1504H40.5017V88.2592H38.1257ZM38.1257 76.768V74.3272H40.5017V76.768H38.1257ZM46.359 88.2592V86.3368H44.415V80.5696H42.471V78.1504H44.415V74.3272H46.7694V78.1504H52.6446V80.5696H46.7694V85.84H52.2126V83.896H54.5886V86.3368H52.6446V88.2592H46.359ZM56.7726 88.2592V74.3272H59.1486V88.2592H56.7726ZM61.7718 88.2592V78.1504H64.1478V88.2592H61.7718ZM61.7718 76.768V74.3272H64.1478V76.768H61.7718ZM66.3491 88.2592V78.1504H74.5571V80.0944H76.5227V88.2592H74.1251V80.5696H68.7251V88.2592H66.3491ZM80.422 88.2592V86.3368H78.478V80.0944H80.422V78.1504H86.686V80.0944H88.6516V82.492H86.254V80.5696H80.854V81.9736H84.742V84.4144H80.854V85.84H86.254V83.8744H88.6516V86.3152H86.686V88.2592H80.422Z" fill="#1A1A1A"/>
<path d="M1.296 122.259V108.327H7.56V110.25H9.504V112.15H11.4696V118.414H9.504V120.337H7.56V122.259H1.296ZM3.672 119.84H7.1496V117.896H9.072V112.669H7.1496V110.768H3.672V119.84ZM16.0228 122.259V120.337H14.0788V114.094H16.0228V112.15H22.2868V114.094H24.2524V120.337H22.2868V122.259H16.0228ZM16.4548 119.84H21.8548V114.57H16.4548V119.84ZM26.8616 122.259V112.15H33.1256V114.094H34.6376V112.15H38.9792V114.094H40.9016V122.259H38.5472V114.57H35.0696V122.259H32.7152V114.57H29.2376V122.259H26.8616ZM45.2588 122.259V120.337H43.3148V114.094H45.2588V112.15H51.5228V114.094H53.4884V119.84H55.4324V122.259H53.0564V120.337H51.5228V122.259H45.2588ZM45.6908 119.84H51.0908V114.57H45.6908V119.84ZM57.3843 122.259V112.15H59.7603V122.259H57.3843ZM57.3843 110.768V108.327H59.7603V110.768H57.3843ZM61.9616 122.259V112.15H70.1696V114.094H72.1352V122.259H69.7376V114.57H64.3376V122.259H61.9616ZM74.7444 120.272V117.831H77.1204V120.272H74.7444ZM74.7444 116.514V114.094H77.1204V116.514H74.7444Z" fill="#1A1A1A"/>
<path d="M1.296 156.259V144.25H3.24V142.327H5.5944V144.768H3.672V148.094H5.184V146.15H7.1496V144.25H9.072V142.327H11.4696V144.768H9.504V146.669H7.56V148.57H5.5944V149.974H7.56V151.896H9.504V153.84H11.4696V156.259H9.072V154.337H7.1496V152.414H5.184V150.492H3.672V156.259H1.296ZM14.0788 156.259V146.15H16.4548V156.259H14.0788ZM14.0788 144.768V142.327H16.4548V144.768H14.0788ZM18.6562 156.259V146.15H26.8642V148.094H28.8298V156.259H26.4322V148.57H21.0322V156.259H18.6562ZM32.9611 160.082V158.182H31.0171V155.762H33.3931V157.663H38.8147V154.337H32.9611V152.414H31.0171V148.094H32.9611V146.15H39.2467V148.094H41.1907V158.182H39.2467V160.082H32.9611ZM33.3931 151.896H38.8147V148.57H33.3931V151.896ZM45.322 156.259V154.337H43.378V148.094H45.322V146.15H51.1756V142.327H53.5516V154.337H51.586V156.259H45.322ZM45.754 153.84H51.154V148.57H45.754V153.84ZM57.683 156.259V154.337H55.739V148.094H57.683V146.15H63.947V148.094H65.9126V154.337H63.947V156.259H57.683ZM58.115 153.84H63.515V148.57H58.115V153.84ZM68.5218 156.259V146.15H74.7858V148.094H76.2978V146.15H80.6394V148.094H82.5618V156.259H80.2074V148.57H76.7298V156.259H74.3754V148.57H70.8978V156.259H68.5218ZM85.1858 154.272V151.831H87.5618V154.272H85.1858ZM85.1858 150.514V148.094H87.5618V150.514H85.1858Z" fill="#1A1A1A"/>
<path d="M5.184 190.259V188.337H3.24V184.492H1.296V176.327H3.672V183.974H5.5944V187.84H7.1496V183.974H9.072V176.327H11.4696V184.492H9.504V188.337H7.56V190.259H5.184ZM14.0788 190.259V180.15H16.4548V190.259H14.0788ZM14.0788 178.768V176.327H16.4548V178.768H14.0788ZM19.078 190.259V187.84H26.854V186.414H21.022V184.492H19.078V182.094H21.022V180.15H29.2516V182.57H21.454V183.974H27.286V185.896H29.2516V188.337H27.286V190.259H19.078ZM31.8608 190.259V180.15H34.2368V190.259H31.8608ZM31.8608 178.768V176.327H34.2368V178.768H31.8608ZM38.3822 190.259V188.337H36.4382V182.094H38.3822V180.15H44.6462V182.094H46.6118V188.337H44.6462V190.259H38.3822ZM38.8142 187.84H44.2142V182.57H38.8142V187.84ZM49.221 190.259V180.15H57.429V182.094H59.3946V190.259H56.997V182.57H51.597V190.259H49.221ZM66.328 190.259V178.25H68.272V176.327H74.536V178.25H76.5016V184.492H74.536V186.414H73.5856V187.84H75.508V190.259H73.1536V188.337H71.188V186.414H68.704V190.259H66.328ZM68.704 183.974H74.104V178.768H68.704V183.974ZM81.0549 190.259V188.337H79.1108V182.094H81.0549V180.15H87.3189V182.094H89.2845V187.84H91.2285V190.259H88.8525V188.337H87.3189V190.259H81.0549ZM81.4868 187.84H86.8869V182.57H81.4868V187.84ZM94.7025 190.259V188.337H92.7585V182.094H94.7025V180.15H100.556V176.327H102.932V188.337H100.967V190.259H94.7025ZM95.1345 187.84H100.535V182.57H95.1345V187.84ZM105.541 190.259V180.15H107.917V190.259H105.541ZM105.541 178.768V176.327H107.917V178.768H105.541ZM112.485 190.259V188.337H110.541V180.15H112.917V187.84H118.317V180.15H120.714V188.337H118.749V190.259H112.485ZM123.112 190.259V187.84H130.888V186.414H125.056V184.492H123.112V182.094H125.056V180.15H133.286V182.57H125.488V183.974H131.32V185.896H133.286V188.337H131.32V190.259H123.112ZM135.895 188.272V185.831H138.271V188.272H135.895ZM135.895 184.514V182.094H138.271V184.514H135.895Z" fill="#1A1A1A"/>
<path d="M3.24 224.259V222.337H1.296V219.896H3.672V221.84H9.072V218.492H3.24V216.57H1.296V212.25H3.24V210.327H9.504V212.25H11.4696V214.669H9.072V212.768H3.672V216.094H9.504V217.974H11.4696V222.337H9.504V224.259H3.24ZM14.0788 224.259V214.15H16.4548V224.259H14.0788ZM14.0788 212.768V210.327H16.4548V212.768H14.0788ZM18.8671 224.259V221.84H20.8111V219.896H22.7551V217.974H24.7207V216.57H18.8671V214.15H29.0407V216.57H27.0751V218.492H25.1311V220.414H23.1655V221.84H29.0407V224.259H18.8671ZM33.172 224.259V222.337H31.228V216.094H33.172V214.15H39.436V216.094H41.4016V218.492H39.004V216.57H33.604V217.974H37.492V220.414H33.604V221.84H39.004V219.874H41.4016V222.315H39.436V224.259H33.172ZM44.0108 222.272V219.831H46.3868V222.272H44.0108ZM44.0108 218.514V216.094H46.3868V218.514H44.0108Z" fill="#1A1A1A"/>
<path d="M3.24 258.259V256.337H1.296V246.25H3.24V244.327H9.504V246.25H11.4696V250.57H9.072V246.768H3.672V255.84H9.072V251.974H11.4696V256.337H9.504V258.259H3.24ZM16.0228 258.259V256.337H14.0788V250.094H16.0228V248.15H22.2868V250.094H24.2524V256.337H22.2868V258.259H16.0228ZM16.4548 255.84H21.8548V250.57H16.4548V255.84ZM26.8616 258.259V244.327H29.2376V258.259H26.8616ZM33.383 258.259V256.337H31.439V250.094H33.383V248.15H39.647V250.094H41.6126V256.337H39.647V258.259H33.383ZM33.815 255.84H39.215V250.57H33.815V255.84ZM44.2218 258.259V250.094H46.1658V248.15H52.4298V250.094H54.3954V252.492H51.9978V250.57H46.5978V258.259H44.2218ZM57.0046 256.272V253.831H59.3806V256.272H57.0046ZM57.0046 252.514V250.094H59.3806V252.514H57.0046Z" fill="#1A1A1A"/>
<path d="M3.24 292.259V290.337H1.296V287.896H3.672V289.84H9.072V286.492H3.24V284.57H1.296V280.25H3.24V278.327H9.504V280.25H11.4696V282.669H9.072V280.768H3.672V284.094H9.504V285.974H11.4696V290.337H9.504V292.259H3.24ZM14.0788 295.974V284.094H16.0228V282.15H22.2868V284.094H24.2524V290.337H22.2868V292.259H16.4548V295.974H14.0788ZM16.4548 289.84H21.8548V284.57H16.4548V289.84ZM28.8056 292.259V290.337H26.8616V284.094H28.8056V282.15H35.0696V284.094H37.0352V286.492H34.6376V284.57H29.2376V285.974H33.1256V288.414H29.2376V289.84H34.6376V287.874H37.0352V290.315H35.0696V292.259H28.8056ZM41.5884 292.259V290.337H39.6444V284.094H41.5884V282.15H47.8524V284.094H49.818V286.492H47.4204V284.57H42.0204V285.974H45.9084V288.414H42.0204V289.84H47.4204V287.874H49.818V290.315H47.8524V292.259H41.5884ZM54.3713 292.259V290.337H52.4273V284.094H54.3713V282.15H60.2249V278.327H62.6009V290.337H60.6353V292.259H54.3713ZM54.8033 289.84H60.2033V284.57H54.8033V289.84ZM65.2101 290.272V287.831H67.5861V290.272H65.2101ZM65.2101 286.514V284.094H67.5861V286.514H65.2101Z" fill="#1A1A1A"/>
<path d="M1.296 326.259V314.25H3.24V312.327H5.5944V314.25H7.56V318.094H9.072V314.25H11.0376V312.327H13.4136V314.25H15.336V326.259H12.9816V314.768H11.4696V318.57H9.504V324.337H7.1496V318.57H5.184V314.768H3.672V326.259H1.296ZM19.9041 326.259V324.337H17.9601V318.094H19.9041V316.15H26.1681V318.094H28.1337V323.84H30.0777V326.259H27.7017V324.337H26.1681V326.259H19.9041ZM20.3361 323.84H25.7361V318.57H20.3361V323.84ZM31.8187 326.259V323.84H33.7627V321.896H35.7067V320.492H33.7627V318.57H31.8187V316.15H34.1947V318.094H36.1171V319.974H37.6723V318.094H39.5947V316.15H41.9923V318.57H40.0267V320.492H38.0827V321.896H40.0267V323.84H41.9923V326.259H39.5947V324.337H37.6723V322.414H36.1171V324.337H34.1947V326.259H31.8187ZM50.8697 326.259V324.337H48.9257V314.25H50.8697V312.327H57.1337V314.25H59.0993V316.669H56.7017V314.768H51.3017V318.094H55.1897V320.492H51.3017V323.84H56.7017V321.896H59.0993V324.337H57.1337V326.259H50.8697ZM61.7085 326.259V316.15H69.9165V318.094H71.8821V326.259H69.4845V318.57H64.0845V326.259H61.7085ZM75.7814 326.259V324.337H73.8374V318.094H75.7814V316.15H82.0454V318.094H84.011V320.492H81.6134V318.57H76.2134V319.974H80.1014V322.414H76.2134V323.84H81.6134V321.874H84.011V324.315H82.0454V326.259H75.7814ZM86.6202 326.259V318.094H88.5642V316.15H94.8282V318.094H96.7938V320.492H94.3962V318.57H88.9962V326.259H86.6202ZM100.925 330.082V328.182H98.9812V325.762H101.357V327.663H106.779V324.337H100.925V322.414H98.9812V318.094H100.925V316.15H107.211V318.094H109.155V328.182H107.211V330.082H100.925ZM101.357 321.896H106.779V318.57H101.357V321.896ZM113.708 330.082V328.182H111.764V325.762H114.14V327.663H119.562V324.337H113.708V322.414H111.764V316.15H114.14V321.896H119.562V316.15H121.938V328.182H119.994V330.082H113.708ZM124.547 324.272V321.831H126.923V324.272H124.547ZM124.547 320.514V318.094H126.923V320.514H124.547Z" fill="#1A1A1A"/>
<path d="M3.24 360.259V358.337H1.296V348.25H3.24V346.327H9.504V348.25H11.4696V352.57H9.504V353.974H11.4696V358.337H9.504V360.259H3.24ZM3.672 357.84H9.072V354.492H5.184V352.094H9.072V348.768H3.672V357.84ZM14.0788 360.259V346.327H16.4548V360.259H14.0788ZM20.6002 360.259V358.337H18.6562V352.094H20.6002V350.15H26.8642V352.094H28.8298V358.337H26.8642V360.259H20.6002ZM21.0322 357.84H26.4322V352.57H21.0322V357.84ZM33.383 360.259V358.337H31.439V352.094H33.383V350.15H39.647V352.094H41.6126V358.337H39.647V360.259H33.383ZM33.815 357.84H39.215V352.57H33.815V357.84ZM46.1658 360.259V358.337H44.2218V352.094H46.1658V350.15H52.0194V346.327H54.3954V358.337H52.4298V360.259H46.1658ZM46.5978 357.84H51.9978V352.57H46.5978V357.84ZM65.2168 360.259V348.768H63.7048V350.669H61.3288V348.25H63.2728V346.327H69.5368V348.25H71.5024V350.669H69.1048V348.768H67.5928V360.259H65.2168ZM73.4577 360.259V346.327H75.8337V352.094H77.3457V350.15H81.6657V352.094H83.6313V360.259H81.2337V352.57H77.7561V354.492H75.8337V360.259H73.4577ZM86.2405 360.259V350.15H88.6165V360.259H86.2405ZM86.2405 348.768V346.327H88.6165V348.768H86.2405ZM91.2398 360.259V352.094H93.1838V350.15H99.4478V352.094H101.413V354.492H99.0158V352.57H93.6158V360.259H91.2398ZM103.601 360.259V357.84H111.377V356.414H105.545V354.492H103.601V352.094H105.545V350.15H113.774V352.57H105.977V353.974H111.809V355.896H113.774V358.337H111.809V360.259H103.601ZM120.272 360.259V358.337H118.328V352.57H116.384V350.15H118.328V346.327H120.682V350.15H126.557V352.57H120.682V357.84H126.125V355.896H128.501V358.337H126.557V360.259H120.272ZM133.051 364.082V362.182H131.107V359.762H133.483V361.663H138.905V358.337H133.051V356.414H131.107V350.15H133.483V355.896H138.905V350.15H141.281V362.182H139.337V364.082H133.051ZM143.89 358.272V355.831H146.266V358.272H143.89ZM143.89 354.514V352.094H146.266V354.514H143.89Z" fill="#1A1A1A"/>
</svg>
