<svg width="1920" height="1080" viewBox="0 0 1920 1080" fill="none" xmlns="http://www.w3.org/2000/svg">
<rect width="1920" height="1080" fill="#1A1A1A"/>
<path d="M49.436 83.432V80.192H46.16V63.56H49.436V60.284H59.588V63.56H62.9V67.16H59.228V63.92H49.796V70.076H56.348V73.64H49.796V79.832H59.228V76.556H62.9V80.192H59.588V83.432H49.436ZM67.2538 83.432V66.8H80.6818V70.076H83.9938V83.432H80.3218V70.4H70.8898V83.432H67.2538ZM93.0981 83.432V80.192H89.8221V73.64H86.5461V66.8H90.1821V73.28H93.4221V79.832H96.3741V73.28H99.6141V66.8H103.286V73.64H99.9741V80.192H96.7341V83.432H93.0981ZM106.945 83.432V66.8H110.581V83.432H106.945ZM106.945 63.92V60.284H110.581V63.92H106.945ZM114.926 83.432V70.076H118.202V66.8H128.354V70.076H131.666V73.64H127.994V70.4H118.562V83.432H114.926ZM138.206 83.432V80.192H134.93V70.076H138.206V66.8H148.358V70.076H151.67V80.192H148.358V83.432H138.206ZM138.566 79.832H147.998V70.4H138.566V79.832ZM156.023 83.432V66.8H169.451V70.076H172.763V83.432H169.091V70.4H159.659V83.432H156.023ZM177.117 83.432V66.8H187.305V70.076H190.185V66.8H197.133V70.076H200.373V83.432H196.773V70.4H190.545V83.432H186.945V70.4H180.753V83.432H177.117ZM207.639 83.432V80.192H204.363V70.076H207.639V66.8H217.791V70.076H221.103V73.64H217.431V70.4H207.999V73.28H214.551V76.916H207.999V79.832H217.431V76.52H221.103V80.156H217.791V83.432H207.639ZM225.457 83.432V66.8H238.885V70.076H242.197V83.432H238.525V70.4H229.093V83.432H225.457ZM251.625 83.432V80.192H248.385V70.4H245.109V66.8H248.385V60.284H251.985V66.8H261.849V70.4H251.985V79.832H261.489V76.556H265.125V80.192H261.849V83.432H251.625Z" fill="#4AE3B5"/>
</svg>
