<svg width="1600" height="900" viewBox="0 0 1600 900" fill="none" xmlns="http://www.w3.org/2000/svg">
<rect width="1600" height="900" fill="#1A1A1A"/>
<path d="M48.53 78.36V75.66H45.8V61.8H48.53V59.07H56.99V61.8H59.75V64.8H56.69V62.1H48.83V67.23H54.29V70.2H48.83V75.36H56.69V72.63H59.75V75.66H56.99V78.36H48.53ZM63.3781 78.36V64.5H74.5681V67.23H77.3281V78.36H74.2681V67.5H66.4081V78.36H63.3781ZM84.9151 78.36V75.66H82.1851V70.2H79.4551V64.5H82.4851V69.9H85.1851V75.36H87.6451V69.9H90.3451V64.5H93.4051V70.2H90.6451V75.66H87.9451V78.36H84.9151ZM96.4543 78.36V64.5H99.4843V78.36H96.4543ZM96.4543 62.1V59.07H99.4843V62.1H96.4543ZM103.105 78.36V67.23H105.835V64.5H114.295V67.23H117.055V70.2H113.995V67.5H106.135V78.36H103.105ZM122.505 78.36V75.66H119.775V67.23H122.505V64.5H130.965V67.23H133.725V75.66H130.965V78.36H122.505ZM122.805 75.36H130.665V67.5H122.805V75.36ZM137.353 78.36V64.5H148.543V67.23H151.303V78.36H148.243V67.5H140.383V78.36H137.353ZM154.931 78.36V64.5H163.421V67.23H165.821V64.5H171.611V67.23H174.311V78.36H171.311V67.5H166.121V78.36H163.121V67.5H157.961V78.36H154.931ZM180.366 78.36V75.66H177.636V67.23H180.366V64.5H188.826V67.23H191.586V70.2H188.526V67.5H180.666V69.9H186.126V72.93H180.666V75.36H188.526V72.6H191.586V75.63H188.826V78.36H180.366ZM195.214 78.36V64.5H206.404V67.23H209.164V78.36H206.104V67.5H198.244V78.36H195.214ZM217.021 78.36V75.66H214.321V67.5H211.591V64.5H214.321V59.07H217.321V64.5H225.541V67.5H217.321V75.36H225.241V72.63H228.271V75.66H225.541V78.36H217.021Z" fill="#4AE3B5"/>
</svg>
