<svg width="313" height="52" viewBox="0 0 313 52" fill="none" xmlns="http://www.w3.org/2000/svg">
<rect width="313" height="52" rx="5" fill="#1A1A1A"/>
<path d="M31.9168 13.0001C22.4626 13.0418 14.7623 24.7192 24.5237 34.1653C24.9786 35.5763 26.9459 36.4678 29.8969 37.3782C32.0387 38.0442 32.7719 37.1025 32.2804 35.8611C30.1587 30.5013 25.3387 30.6839 25.0004 30.1935C19.1588 21.7268 28.5408 13.6796 36.252 17.3188C45.0225 21.4561 41.526 29.4452 36.5406 32.8253C34.617 34.1242 33.4386 35.8183 34.0715 37.4968C34.4106 38.3949 36.0505 39.1102 36.6716 38.9859C37.1617 38.888 34.6169 37.5256 36.2015 35.8793C37.4604 34.5655 41.2742 33.799 43.2852 30.1317C47.1039 23.1823 44.91 16.894 35.886 13.6812C35.1978 13.4383 34.5129 13.2637 33.8264 13.1509C33.1954 13.0478 32.5566 12.9973 31.9169 13.0001L31.9168 13.0001ZM32.5641 17.4533C32.5641 17.4533 30.9578 19.1597 30.9863 20.9041C30.988 21.2613 31.0601 21.6235 31.1692 21.9668C31.7467 22.6337 32.215 23.4066 32.6212 24.2454C33.0224 23.2181 33.5343 22.3373 34.1705 21.6195C34.2108 21.403 34.2326 21.1898 34.2326 20.974C34.2091 19.2306 32.5641 17.4533 32.5641 17.4533ZM39.0552 20.4485C36.0287 20.6239 34.0716 23.2968 32.905 25.6255C32.8546 25.7317 32.4832 25.7608 32.4181 25.6511C31.557 24.1224 31.0165 22.974 29.9523 22.1081C28.9452 21.2865 27.6744 20.7976 25.9639 20.7885C26.0378 21.4544 26.3602 23.2795 27.7081 24.2912C28.168 24.6377 28.836 24.8172 29.5142 24.9711C30.1891 25.1201 30.8822 25.2378 31.4109 25.5457C31.8373 25.7943 32.1092 26.1829 32.2385 26.6348C32.3678 27.085 32.3644 27.5962 32.2654 28.1379C32.0991 29.0788 31.6476 30.1136 31.045 31.0668C31.045 31.0668 32.8276 31.7953 33.1449 34.5448C33.7358 33.1371 34.9796 32.3321 34.9796 32.3321C34.325 31.4191 33.395 29.0566 33.1735 28.128C33.0509 27.5939 33.0123 27.0858 33.113 26.629C33.2121 26.173 33.4572 25.768 33.8684 25.4972C34.3787 25.1621 35.0585 25.0073 35.7282 24.8197C36.3997 24.6311 37.0527 24.4105 37.5025 24.0368C38.2981 23.37 38.6942 22.4126 38.8873 21.6093C38.9813 21.2067 39.03 20.8477 39.0484 20.5926C39.0552 20.53 39.0535 20.497 39.0552 20.4485ZM26.9898 33.2743C27.5401 33.2891 29.0022 34.4091 28.5892 34.4925C26.7908 34.8553 26.5518 33.736 26.8179 33.3419C26.8512 33.2926 26.9112 33.2722 26.9898 33.2743Z" fill="#4AE3B5"/>
<path d="M71.7 32.198V30.65H70.098V22.136H71.7V20.552H77.028V22.136H78.648V25.934H76.506V22.802H72.222V29.966H76.506V26.816H78.648V30.65H77.028V32.198H71.7ZM80.8382 32.198V22.136H82.4402V20.552H87.7682V22.136H89.3882V27.482H87.7682V29.066H86.9942V29.966H88.5782V32.198H86.4722V30.65H84.8342V29.066H82.9622V32.198H80.8382ZM82.9622 26.816H87.2462V22.802H82.9622V26.816ZM93.1805 32.198V30.65H91.5785V22.136H93.1805V20.552H98.5085V22.136H100.128V24.368H97.9865V22.802H93.7025V25.268H96.9245V27.482H93.7025V29.966H97.9865V28.4H100.128V30.65H98.5085V32.198H93.1805ZM102.319 32.198V23.702H103.921V22.136H105.505V20.552H107.665V22.136H109.249V23.702H110.869V32.198H108.727V29.066H104.443V32.198H102.319ZM104.443 26.816H108.727V24.368H107.125V22.802H106.045V24.368H104.443V26.816ZM115.173 32.198V22.802H114.111V24.368H111.987V22.136H113.589V20.552H118.917V22.136H120.537V24.368H118.395V22.802H117.333V32.198H115.173ZM123.784 32.198V30.65H122.182V22.136H123.784V20.552H129.112V22.136H130.732V24.368H128.59V22.802H124.306V25.268H127.528V27.482H124.306V29.966H128.59V28.4H130.732V30.65H129.112V32.198H123.784ZM138.128 32.198V30.65H136.526V22.136H138.128V20.552H143.456V22.136H145.076V30.65H143.456V32.198H138.128ZM138.65 29.966H142.934V22.802H138.65V29.966ZM147.266 32.198V22.136H148.868V20.552H154.196V22.136H155.816V27.482H154.196V29.066H153.422V29.966H155.006V32.198H152.9V30.65H151.262V29.066H149.39V32.198H147.266ZM149.39 26.816H153.674V22.802H149.39V26.816ZM159.608 32.198V30.65H158.006V22.136H159.608V20.552H164.936V22.136H166.556V25.934H164.414V22.802H160.13V29.966H164.414V29.066H162.812V27.482H161.192V25.268H163.352V26.816H166.556V30.65H164.936V32.198H159.608ZM168.746 32.198V23.702H170.348V22.136H171.932V20.552H174.092V22.136H175.676V23.702H177.296V32.198H175.154V29.066H170.87V32.198H168.746ZM170.87 26.816H175.154V24.368H173.552V22.802H172.472V24.368H170.87V26.816ZM179.487 32.198V20.552H181.611V22.136H183.195V23.702H184.833V28.4H185.895V20.552H188.037V32.198H185.895V30.65H184.311V29.066H182.673V24.368H181.611V32.198H179.487ZM190.227 32.198V29.966H191.829V22.802H190.227V20.552H195.573V22.802H193.953V29.966H195.573V32.198H190.227ZM199.37 32.198V30.65H197.768V28.4H199.892V29.966H204.176V27.482H199.37V25.934H197.768V22.136H199.37V20.552H204.698V22.136H206.318V24.368H204.176V22.802H199.892V25.268H204.698V26.816H206.318V30.65H204.698V32.198H199.37ZM208.508 32.198V22.136H210.11V20.552H212.234V22.136H213.854V25.268H214.916V22.136H216.536V20.552H218.678V22.136H220.262V32.198H218.156V22.802H217.058V25.934H215.438V30.65H213.314V25.934H211.694V22.802H210.632V32.198H208.508Z" fill="#4AE3B5"/>
</svg>
