<svg width="46" height="46" viewBox="0 0 46 46" fill="none" xmlns="http://www.w3.org/2000/svg">
<rect x="4" y="4" width="42" height="42" rx="2.5" fill="#E6C767"/>
<path d="M15.0469 17.646C14.9491 17.5638 14.8331 17.5142 14.712 17.5026C14.5909 17.491 14.4693 17.518 14.3608 17.5804C14.2523 17.6429 14.1611 17.7384 14.0974 17.8563C14.0337 17.9743 14 18.11 14 18.2485V32.7515C14 32.89 14.0337 33.0257 14.0974 33.1437C14.1611 33.2616 14.2523 33.3571 14.3608 33.4196C14.4693 33.482 14.5909 33.509 14.712 33.4974C14.8331 33.4858 14.9491 33.4362 15.0469 33.354L23.6864 26.1025C23.7692 26.033 23.8366 25.9422 23.883 25.8375C23.9294 25.7329 23.9536 25.6173 23.9536 25.5C23.9536 25.3827 23.9294 25.2671 23.883 25.1625C23.8366 25.0578 23.7692 24.967 23.6864 24.8975L15.0469 17.646ZM27.0933 17.646C26.9955 17.5638 26.8795 17.5142 26.7584 17.5026C26.6372 17.491 26.5156 17.518 26.4071 17.5804C26.2986 17.6429 26.2075 17.7384 26.1438 17.8563C26.0801 17.9743 26.0464 18.11 26.0464 18.2485V32.7515C26.0464 32.89 26.0801 33.0257 26.1438 33.1437C26.2075 33.2616 26.2986 33.3571 26.4071 33.4196C26.5156 33.482 26.6372 33.509 26.7584 33.4974C26.8795 33.4858 26.9955 33.4362 27.0933 33.354L35.7327 26.1025C35.8156 26.033 35.883 25.9422 35.9294 25.8375C35.9758 25.7329 36 25.6173 36 25.5C36 25.3827 35.9758 25.2671 35.9294 25.1625C35.883 25.0578 35.8156 24.967 35.7327 24.8975L27.0933 17.646Z" fill="#1A1A1A" stroke="#1A1A1A" stroke-width="1.5" stroke-linecap="round" stroke-linejoin="round"/>
</svg>
