<svg width="42" height="43" viewBox="0 0 42 43" fill="none" xmlns="http://www.w3.org/2000/svg">
<rect y="0.5" width="42" height="42" rx="2.5" fill="#AFFF32"/>
<path d="M11.0469 14.146C10.9491 14.0638 10.8331 14.0142 10.712 14.0026C10.5909 13.991 10.4693 14.018 10.3608 14.0804C10.2523 14.1429 10.1611 14.2384 10.0974 14.3563C10.0337 14.4743 9.99999 14.61 10 14.7485V29.2515C9.99999 29.39 10.0337 29.5257 10.0974 29.6437C10.1611 29.7616 10.2523 29.8571 10.3608 29.9196C10.4693 29.982 10.5909 30.009 10.712 29.9974C10.8331 29.9858 10.9491 29.9362 11.0469 29.854L19.6864 22.6025C19.7692 22.533 19.8366 22.4422 19.883 22.3375C19.9294 22.2329 19.9536 22.1173 19.9536 22C19.9536 21.8827 19.9294 21.7671 19.883 21.6625C19.8366 21.5578 19.7692 21.467 19.6864 21.3975L11.0469 14.146ZM23.0933 14.146C22.9955 14.0638 22.8795 14.0142 22.7584 14.0026C22.6372 13.991 22.5156 14.018 22.4071 14.0804C22.2986 14.1429 22.2075 14.2384 22.1438 14.3563C22.0801 14.4743 22.0464 14.61 22.0464 14.7485V29.2515C22.0464 29.39 22.0801 29.5257 22.1438 29.6437C22.2075 29.7616 22.2986 29.8571 22.4071 29.9196C22.5156 29.982 22.6372 30.009 22.7584 29.9974C22.8795 29.9858 22.9955 29.9362 23.0933 29.854L31.7327 22.6025C31.8156 22.533 31.883 22.4422 31.9294 22.3375C31.9758 22.2329 32 22.1173 32 22C32 21.8827 31.9758 21.7671 31.9294 21.6625C31.883 21.5578 31.8156 21.467 31.7327 21.3975L23.0933 14.146Z" fill="#1A1A1A" stroke="#1A1A1A" stroke-width="1.5" stroke-linecap="round" stroke-linejoin="round"/>
</svg>
