<svg width="46" height="46" viewBox="0 0 46 46" fill="none" xmlns="http://www.w3.org/2000/svg">
<rect x="4" y="4" width="42" height="42" rx="2.5" fill="#E6C767" fill-opacity="0.5"/>
<rect width="42" height="42" rx="2.5" fill="#E6C767"/>
<path d="M11.0469 13.646C10.9491 13.5638 10.8331 13.5142 10.712 13.5026C10.5909 13.491 10.4693 13.518 10.3608 13.5804C10.2523 13.6429 10.1611 13.7384 10.0974 13.8563C10.0337 13.9743 9.99999 14.11 10 14.2485V28.7515C9.99999 28.89 10.0337 29.0257 10.0974 29.1437C10.1611 29.2616 10.2523 29.3571 10.3608 29.4196C10.4693 29.482 10.5909 29.509 10.712 29.4974C10.8331 29.4858 10.9491 29.4362 11.0469 29.354L19.6864 22.1025C19.7692 22.033 19.8366 21.9422 19.883 21.8375C19.9294 21.7329 19.9536 21.6173 19.9536 21.5C19.9536 21.3827 19.9294 21.2671 19.883 21.1625C19.8366 21.0578 19.7692 20.967 19.6864 20.8975L11.0469 13.646ZM23.0933 13.646C22.9955 13.5638 22.8795 13.5142 22.7584 13.5026C22.6372 13.491 22.5156 13.518 22.4071 13.5804C22.2986 13.6429 22.2075 13.7384 22.1438 13.8563C22.0801 13.9743 22.0464 14.11 22.0464 14.2485V28.7515C22.0464 28.89 22.0801 29.0257 22.1438 29.1437C22.2075 29.2616 22.2986 29.3571 22.4071 29.4196C22.5156 29.482 22.6372 29.509 22.7584 29.4974C22.8795 29.4858 22.9955 29.4362 23.0933 29.354L31.7327 22.1025C31.8156 22.033 31.883 21.9422 31.9294 21.8375C31.9758 21.7329 32 21.6173 32 21.5C32 21.3827 31.9758 21.2671 31.9294 21.1625C31.883 21.0578 31.8156 20.967 31.7327 20.8975L23.0933 13.646Z" fill="#1A1A1A" stroke="#1A1A1A" stroke-width="1.5" stroke-linecap="round" stroke-linejoin="round"/>
</svg>
