<svg width="42" height="43" viewBox="0 0 42 43" fill="none" xmlns="http://www.w3.org/2000/svg">
<rect y="0.5" width="42" height="42" rx="2.5" fill="#00FFFF"/>
<path d="M13 16.7C13 15.1912 13 14.4376 13.4688 13.9688C13.9376 13.5 14.6912 13.5 16.2 13.5C17.7088 13.5 18.4624 13.5 18.9312 13.9688C19.4 14.4376 19.4 15.1912 19.4 16.7V26.3C19.4 27.8088 19.4 28.5624 18.9312 29.0312C18.4624 29.5 17.7088 29.5 16.2 29.5C14.6912 29.5 13.9376 29.5 13.4688 29.0312C13 28.5624 13 27.8088 13 26.3V16.7ZM22.6 16.7C22.6 15.1912 22.6 14.4376 23.0688 13.9688C23.5376 13.5 24.2912 13.5 25.8 13.5C27.3088 13.5 28.0624 13.5 28.5312 13.9688C29 14.4376 29 15.1912 29 16.7V26.3C29 27.8088 29 28.5624 28.5312 29.0312C28.0624 29.5 27.3088 29.5 25.8 29.5C24.2912 29.5 23.5376 29.5 23.0688 29.0312C22.6 28.5624 22.6 27.8088 22.6 26.3V16.7Z" fill="#1A1A1A"/>
</svg>
