<svg width="313" height="50" viewBox="0 0 313 50" fill="none" xmlns="http://www.w3.org/2000/svg">
<rect width="313" height="50" rx="5" fill="#1A1A1A"/>
<path d="M39.5 30C39.37 30 39.24 30 39.11 30.04L37.5 26.79C37.8562 26.4427 38.1008 25.9969 38.2022 25.5098C38.3037 25.0227 38.2575 24.5164 38.0696 24.0557C37.8816 23.595 37.5605 23.2009 37.1473 22.9237C36.7341 22.6466 36.2476 22.4991 35.75 22.5C35.62 22.5 35.5 22.5 35.36 22.54L33.73 19.29C34.21 18.84 34.5 18.21 34.5 17.5C34.5 16.837 34.2366 16.2011 33.7678 15.7322C33.2989 15.2634 32.663 15 32 15C31.337 15 30.7011 15.2634 30.2322 15.7322C29.7634 16.2011 29.5 16.837 29.5 17.5C29.5 18.21 29.79 18.84 30.26 19.29L28.64 22.54C28.5 22.5 28.38 22.5 28.25 22.5C27.7524 22.4991 27.2659 22.6466 26.8527 22.9237C26.4395 23.2009 26.1184 23.595 25.9304 24.0557C25.7425 24.5164 25.6963 25.0227 25.7978 25.5098C25.8992 25.9969 26.1438 26.4427 26.5 26.79L24.89 30.04C24.76 30 24.63 30 24.5 30C23.837 30 23.2011 30.2634 22.7322 30.7322C22.2634 31.2011 22 31.837 22 32.5C22 33.163 22.2634 33.7989 22.7322 34.2678C23.2011 34.7366 23.837 35 24.5 35C24.8283 35 25.1534 34.9353 25.4567 34.8097C25.76 34.6841 26.0356 34.4999 26.2678 34.2678C26.4999 34.0356 26.6841 33.76 26.8097 33.4567C26.9353 33.1534 27 32.8283 27 32.5C27 31.8 26.71 31.16 26.24 30.71L27.86 27.46C28 27.5 28.12 27.5 28.25 27.5C28.38 27.5 28.5 27.5 28.64 27.46L30.27 30.71C29.8 31.16 29.5 31.8 29.5 32.5C29.5 33.163 29.7634 33.7989 30.2322 34.2678C30.7011 34.7366 31.337 35 32 35C32.663 35 33.2989 34.7366 33.7678 34.2678C34.2366 33.7989 34.5 33.163 34.5 32.5C34.5 31.837 34.2366 31.2011 33.7678 30.7322C33.2989 30.2634 32.663 30 32 30C31.87 30 31.74 30 31.61 30.04L30 26.79C30.46 26.34 30.75 25.71 30.75 25C30.75 24.29 30.46 23.66 30 23.21L31.61 19.96C31.74 20 31.87 20 32 20C32.13 20 32.26 20 32.39 19.96L34 23.21C33.55 23.66 33.25 24.3 33.25 25C33.25 25.663 33.5134 26.2989 33.9822 26.7678C34.4511 27.2366 35.087 27.5 35.75 27.5C35.88 27.5 36 27.5 36.14 27.46L37.77 30.71C37.3 31.16 37 31.8 37 32.5C37 33.163 37.2634 33.7989 37.7322 34.2678C38.2011 34.7366 38.837 35 39.5 35C40.163 35 40.7989 34.7366 41.2678 34.2678C41.7366 33.7989 42 33.163 42 32.5C42 31.837 41.7366 31.2011 41.2678 30.7322C40.7989 30.2634 40.163 30 39.5 30Z" fill="#4AE3B5"/>
<path d="M66.7 31.198V29.65H65.098V27.4H67.222V28.966H71.506V26.482H66.7V24.934H65.098V21.136H66.7V19.552H72.028V21.136H73.648V23.368H71.506V21.802H67.222V24.268H72.028V25.816H73.648V29.65H72.028V31.198H66.7ZM75.8382 31.198V19.552H77.9622V24.268H79.0242V22.702H81.1842V24.268H82.2462V19.552H84.3882V31.198H82.2462V26.482H77.9622V31.198H75.8382ZM88.1805 31.198V29.65H86.5785V21.136H88.1805V19.552H93.5085V21.136H95.1285V29.65H93.5085V31.198H88.1805ZM88.7025 28.966H92.9865V21.802H88.7025V28.966ZM98.9207 31.198V29.65H97.3187V19.552H99.4427V28.966H100.505V25.816H102.125V21.136H104.249V25.816H105.869V28.966H106.967V19.552H109.073V29.65H107.489V31.198H105.347V29.65H103.727V26.482H102.665V29.65H101.045V31.198H98.9207ZM116.481 31.198V29.65H114.879V21.136H116.481V19.552H121.809V21.136H123.429V24.934H121.287V21.802H117.003V28.966H121.287V28.066H119.685V26.482H118.065V24.268H120.225V25.816H123.429V29.65H121.809V31.198H116.481ZM125.619 31.198V21.136H127.221V19.552H132.549V21.136H134.169V26.482H132.549V28.066H131.775V28.966H133.359V31.198H131.253V29.65H129.615V28.066H127.743V31.198H125.619ZM127.743 25.816H132.027V21.802H127.743V25.816ZM136.36 31.198V22.702H137.962V21.136H139.546V19.552H141.706V21.136H143.29V22.702H144.91V31.198H142.768V28.066H138.484V31.198H136.36ZM138.484 25.816H142.768V23.368H141.166V21.802H140.086V23.368H138.484V25.816ZM147.1 31.198V21.136H148.702V19.552H154.03V21.136H155.65V26.482H154.03V28.066H149.224V31.198H147.1ZM149.224 25.816H153.508V21.802H149.224V25.816ZM157.84 31.198V19.552H159.964V24.268H161.026V22.702H163.186V24.268H164.248V19.552H166.39V31.198H164.248V26.482H159.964V31.198H157.84ZM170.182 31.198V29.65H168.58V27.4H170.704V28.966H174.988V26.482H170.182V24.934H168.58V21.136H170.182V19.552H175.51V21.136H177.13V23.368H174.988V21.802H170.704V24.268H175.51V25.816H177.13V29.65H175.51V31.198H170.182Z" fill="#4AE3B5"/>
</svg>
