<svg width="408" height="988" viewBox="0 0 408 988" fill="none" xmlns="http://www.w3.org/2000/svg">
<rect x="2" y="2" width="404" height="984" rx="12" fill="#4AE3B5" stroke="#4AE3B5" stroke-width="4" stroke-linejoin="round"/>
<path d="M99.95 325C101.95 325 103.625 325.781 104.976 327.343C106.326 328.905 107.001 330.763 107 332.916C107 333.296 106.98 333.67 106.94 334.04C106.9 334.41 106.83 334.774 106.73 335.132H99.23L97.22 331.902H95.06L93.44 337.348L92.03 335.132H83.27C83.17 334.773 83.1 334.409 83.06 334.04C83.02 333.671 83 333.307 83 332.947C83 330.773 83.67 328.905 85.01 327.343C86.35 325.781 88.02 325 90.02 325C90.98 325 91.8852 325.201 92.7356 325.602C93.586 326.003 94.3408 326.562 95 327.28C95.64 326.562 96.3852 326.003 97.2356 325.602C98.086 325.201 98.9908 325 99.95 325ZM94.97 349L85.04 338.456C84.92 338.33 84.81 338.203 84.71 338.077C84.61 337.95 84.51 337.813 84.41 337.665H90.74L92.81 340.926H94.94L96.56 335.449L97.94 337.665H105.56L105.26 338.045L104.96 338.425L94.97 349Z" fill="#1A1A1A"/>
<path fill-rule="evenodd" clip-rule="evenodd" d="M326 335.8C326.003 338.397 325.161 340.924 323.6 343V345.4C323.6 346.355 323.221 347.27 322.546 347.946C321.87 348.621 320.955 349 320 349V347.8C320 347.482 319.874 347.176 319.649 346.951C319.423 346.726 319.118 346.6 318.8 346.6C318.482 346.6 318.177 346.726 317.951 346.951C317.726 347.176 317.6 347.482 317.6 347.8V349H315.2V347.8C315.2 347.482 315.074 347.176 314.849 346.951C314.623 346.726 314.318 346.6 314 346.6C313.682 346.6 313.377 346.726 313.151 346.951C312.926 347.176 312.8 347.482 312.8 347.8V349H310.4V347.8C310.4 347.482 310.274 347.176 310.049 346.951C309.823 346.726 309.518 346.6 309.2 346.6C308.882 346.6 308.577 346.726 308.351 346.951C308.126 347.176 308 347.482 308 347.8V349C307.045 349 306.13 348.621 305.454 347.946C304.779 347.27 304.4 346.355 304.4 345.4V343C302.839 340.924 301.997 338.397 302 335.8C302 332.465 303.363 329.73 305.588 327.848C307.794 325.98 310.782 325 314 325C317.218 325 320.206 325.98 322.412 327.848C324.636 329.73 326 332.464 326 335.8ZM309.2 333.4C308.563 333.4 307.953 333.653 307.503 334.103C307.053 334.553 306.8 335.163 306.8 335.8C306.8 336.437 307.053 337.047 307.503 337.497C307.953 337.947 308.563 338.2 309.2 338.2C309.837 338.2 310.447 337.947 310.897 337.497C311.347 337.047 311.6 336.437 311.6 335.8C311.6 335.163 311.347 334.553 310.897 334.103C310.447 333.653 309.837 333.4 309.2 333.4ZM315.073 339.898C314.87 339.592 314.456 339.4 314 339.4C313.544 339.4 313.13 339.592 312.927 339.898L311.727 341.698C311.636 341.829 311.592 341.986 311.601 342.145C311.61 342.304 311.673 342.455 311.779 342.574C311.998 342.838 312.384 343 312.8 343H315.2C315.616 343 316.002 342.838 316.22 342.573C316.326 342.454 316.389 342.303 316.398 342.144C316.408 341.985 316.364 341.827 316.273 341.697L315.073 339.897V339.898ZM316.4 335.8C316.4 335.163 316.653 334.553 317.103 334.103C317.553 333.653 318.163 333.4 318.8 333.4C319.437 333.4 320.047 333.653 320.497 334.103C320.947 334.553 321.2 335.163 321.2 335.8C321.2 336.437 320.947 337.047 320.497 337.497C320.047 337.947 319.437 338.2 318.8 338.2C318.163 338.2 317.553 337.947 317.103 337.497C316.653 337.047 316.4 336.437 316.4 335.8Z" fill="#1A1A1A"/>
<path d="M106.752 98.646V95.55H103.548V91.05H107.796V94.182H116.364V89.214H106.752V86.118H103.548V78.522H106.752V75.354H117.408V78.522H120.648V82.986H116.364V79.854H107.796V84.786H117.408V87.882H120.648V95.55H117.408V98.646H106.752ZM125.028 98.646V94.182H128.232V79.854H125.028V75.354H135.72V79.854H132.48V94.182H135.72V98.646H125.028ZM140.11 98.646V78.522H143.314V75.354H147.562V78.522H150.802V84.786H152.926V78.522H156.166V75.354H160.45V78.522H163.618V98.646H159.406V79.854H157.21V86.118H153.97V95.55H149.722V86.118H146.482V79.854H144.358V98.646H140.11ZM171.228 98.646V95.55H168.024V75.354H172.272V94.182H180.84V75.354H185.124V95.55H181.884V98.646H171.228ZM192.709 98.646V95.55H189.505V75.354H193.753V94.182H202.321V91.05H206.605V95.55H203.365V98.646H192.709ZM210.985 98.646V81.654H214.189V78.522H217.357V75.354H221.677V78.522H224.845V81.654H228.085V98.646H223.801V92.382H215.233V98.646H210.985ZM215.233 87.882H223.801V82.986H220.597V79.854H218.437V82.986H215.233V87.882ZM236.693 98.646V79.854H234.569V82.986H230.321V78.522H233.525V75.354H244.181V78.522H247.421V82.986H243.137V79.854H241.013V98.646H236.693ZM251.801 98.646V94.182H255.005V79.854H251.801V75.354H262.493V79.854H259.253V94.182H262.493V98.646H251.801ZM266.884 98.646V75.354H271.132V78.522H274.3V81.654H277.576V91.05H279.7V75.354H283.984V98.646H279.7V95.55H276.532V92.382H273.256V82.986H271.132V98.646H266.884ZM291.568 98.646V95.55H288.364V78.522H291.568V75.354H302.224V78.522H305.464V86.118H301.18V79.854H292.612V94.182H301.18V92.382H297.976V89.214H294.736V84.786H299.056V87.882H305.464V95.55H302.224V98.646H291.568ZM133.132 141.646V118.354H137.38V121.522H140.548V124.654H143.824V134.05H145.948V118.354H150.232V141.646H145.948V138.55H142.78V135.382H139.504V125.986H137.38V141.646H133.132ZM154.612 141.646V124.654H157.816V121.522H160.984V118.354H165.304V121.522H168.472V124.654H171.712V141.646H167.428V135.382H158.86V141.646H154.612ZM158.86 130.882H167.428V125.986H164.224V122.854H162.064V125.986H158.86V130.882ZM180.32 141.646V122.854H178.196V125.986H173.948V121.522H177.152V118.354H187.808V121.522H191.048V125.986H186.764V122.854H184.64V141.646H180.32ZM197.543 141.646V138.55H194.339V118.354H198.587V137.182H207.155V118.354H211.439V138.55H208.199V141.646H197.543ZM215.819 141.646V121.522H219.023V118.354H229.679V121.522H232.919V132.214H229.679V135.382H228.131V137.182H231.299V141.646H227.087V138.55H223.811V135.382H220.067V141.646H215.819ZM220.067 130.882H228.635V122.854H220.067V130.882ZM237.3 141.646V124.654H240.504V121.522H243.672V118.354H247.992V121.522H251.16V124.654H254.4V141.646H250.116V135.382H241.548V141.646H237.3ZM241.548 130.882H250.116V125.986H246.912V122.854H244.752V125.986H241.548V130.882ZM261.984 141.646V138.55H258.78V118.354H263.028V137.182H271.596V134.05H275.88V138.55H272.64V141.646H261.984ZM116.982 184.646V181.55H113.778V177.05H118.026V180.182H126.594V175.214H116.982V172.118H113.778V164.522H116.982V161.354H127.638V164.522H130.878V168.986H126.594V165.854H118.026V170.786H127.638V173.882H130.878V181.55H127.638V184.646H116.982ZM138.463 184.646V181.55H135.259V164.522H138.463V161.354H149.119V164.522H152.359V168.986H148.075V165.854H139.507V170.786H145.951V175.214H139.507V180.182H148.075V177.05H152.359V181.55H149.119V184.646H138.463ZM159.943 184.646V181.55H156.739V161.354H160.987V180.182H169.555V177.05H173.839V181.55H170.599V184.646H159.943ZM181.423 184.646V181.55H178.219V164.522H181.423V161.354H192.079V164.522H195.319V168.986H191.035V165.854H182.467V170.786H188.911V175.214H182.467V180.182H191.035V177.05H195.319V181.55H192.079V184.646H181.423ZM202.904 184.646V181.55H199.7V164.522H202.904V161.354H213.56V164.522H216.8V172.118H212.516V165.854H203.948V180.182H212.516V173.882H216.8V181.55H213.56V184.646H202.904ZM226.463 184.646V165.854H224.339V168.986H220.091V164.522H223.295V161.354H233.951V164.522H237.191V168.986H232.907V165.854H230.783V184.646H226.463ZM241.571 184.646V180.182H244.775V165.854H241.571V161.354H252.263V165.854H249.023V180.182H252.263V184.646H241.571ZM259.857 184.646V181.55H256.653V164.522H259.857V161.354H270.513V164.522H273.753V181.55H270.513V184.646H259.857ZM260.901 180.182H269.469V165.854H260.901V180.182ZM278.134 184.646V161.354H282.382V164.522H285.55V167.654H288.826V177.05H290.95V161.354H295.234V184.646H290.95V181.55H287.782V178.382H284.506V168.986H282.382V184.646H278.134ZM92.232 227.646V224.55H89.028V204.354H93.276V223.182H95.4V216.882H98.64V207.522H102.888V216.882H106.128V223.182H108.324V204.354H112.536V224.55H109.368V227.646H105.084V224.55H101.844V218.214H99.72V224.55H96.48V227.646H92.232ZM116.942 227.646V223.182H120.146V208.854H116.942V204.354H127.634V208.854H124.394V223.182H127.634V227.646H116.942ZM138.396 227.646V208.854H136.272V211.986H132.024V207.522H135.228V204.354H145.884V207.522H149.124V211.986H144.84V208.854H142.716V227.646H138.396ZM152.415 227.646V204.354H156.663V213.786H158.787V210.654H163.107V213.786H165.231V204.354H169.515V227.646H165.231V218.214H156.663V227.646H152.415ZM184.306 227.646V224.55H181.102V207.522H184.306V204.354H194.962V207.522H198.202V215.118H193.918V208.854H185.35V223.182H193.918V221.382H190.714V218.214H187.474V213.786H191.794V216.882H198.202V224.55H194.962V227.646H184.306ZM205.787 227.646V224.55H202.583V207.522H205.787V204.354H216.443V207.522H219.683V211.986H215.399V208.854H206.831V213.786H213.275V218.214H206.831V223.182H215.399V220.05H219.683V224.55H216.443V227.646H205.787ZM224.063 227.646V204.354H228.311V207.522H231.479V210.654H234.755V220.05H236.879V204.354H241.163V227.646H236.879V224.55H233.711V221.382H230.435V211.986H228.311V227.646H224.063ZM248.748 227.646V224.55H245.544V207.522H248.748V204.354H259.404V207.522H262.644V211.986H258.36V208.854H249.792V213.786H256.236V218.214H249.792V223.182H258.36V220.05H262.644V224.55H259.404V227.646H248.748ZM273.396 227.646V208.854H271.272V211.986H267.024V207.522H270.228V204.354H280.884V207.522H284.124V211.986H279.84V208.854H277.716V227.646H273.396ZM288.505 227.646V223.182H291.709V208.854H288.505V204.354H299.197V208.854H295.957V223.182H299.197V227.646H288.505ZM306.088 227.646V224.55H302.884V207.522H306.088V204.354H316.744V207.522H319.984V215.118H315.7V208.854H307.132V223.182H315.7V216.882H319.984V224.55H316.744V227.646H306.088ZM110.561 270.646V253.654H113.765V250.522H116.933V247.354H121.253V250.522H124.421V253.654H127.661V270.646H123.377V264.382H114.809V270.646H110.561ZM114.809 259.882H123.377V254.986H120.173V251.854H118.013V254.986H114.809V259.882ZM135.246 270.646V267.55H132.042V247.354H136.29V266.182H144.858V263.05H149.142V267.55H145.902V270.646H135.246ZM156.726 270.646V267.55H153.522V250.522H156.726V247.354H167.382V250.522H170.622V258.118H166.338V251.854H157.77V266.182H166.338V264.382H163.134V261.214H159.894V256.786H164.214V259.882H170.622V267.55H167.382V270.646H156.726ZM178.207 270.646V267.55H175.003V250.522H178.207V247.354H188.863V250.522H192.103V267.55H188.863V270.646H178.207ZM179.251 266.182H187.819V251.854H179.251V266.182ZM196.483 270.646V250.522H199.687V247.354H210.343V250.522H213.583V261.214H210.343V264.382H208.795V266.182H211.963V270.646H207.751V267.55H204.475V264.382H200.731V270.646H196.483ZM200.731 259.882H209.299V251.854H200.731V259.882ZM217.964 270.646V266.182H221.168V251.854H217.964V247.354H228.656V251.854H225.416V266.182H228.656V270.646H217.964ZM239.418 270.646V251.854H237.294V254.986H233.046V250.522H236.25V247.354H246.906V250.522H250.146V254.986H245.862V251.854H243.738V270.646H239.418ZM253.436 270.646V247.354H257.684V256.786H259.808V253.654H264.128V256.786H266.252V247.354H270.536V270.646H266.252V261.214H257.684V270.646H253.436ZM274.917 270.646V250.522H278.121V247.354H282.369V250.522H285.609V256.786H287.733V250.522H290.973V247.354H295.257V250.522H298.425V270.646H294.213V251.854H292.017V258.118H288.777V267.55H284.529V258.118H281.289V251.854H279.165V270.646H274.917Z" fill="#1A1A1A"/>
</svg>
