<svg width="313" height="50" viewBox="0 0 313 50" fill="none" xmlns="http://www.w3.org/2000/svg">
<rect width="313" height="50" rx="5" fill="#1A1A1A"/>
<path d="M31.9168 12.0001C22.4626 12.0418 14.7623 23.7192 24.5237 33.1653C24.9786 34.5763 26.9459 35.4678 29.8969 36.3782C32.0387 37.0442 32.7719 36.1025 32.2804 34.8611C30.1587 29.5013 25.3387 29.6839 25.0004 29.1935C19.1588 20.7268 28.5408 12.6796 36.252 16.3188C45.0225 20.4561 41.526 28.4452 36.5406 31.8253C34.617 33.1242 33.4386 34.8183 34.0715 36.4968C34.4106 37.3949 36.0505 38.1102 36.6716 37.9859C37.1617 37.888 34.6169 36.5256 36.2015 34.8793C37.4604 33.5655 41.2742 32.799 43.2852 29.1317C47.1039 22.1823 44.91 15.894 35.886 12.6812C35.1978 12.4383 34.5129 12.2637 33.8264 12.1509C33.1954 12.0478 32.5566 11.9973 31.9169 12.0001L31.9168 12.0001ZM32.5641 16.4533C32.5641 16.4533 30.9578 18.1597 30.9863 19.9041C30.988 20.2613 31.0601 20.6235 31.1692 20.9668C31.7467 21.6337 32.215 22.4066 32.6212 23.2454C33.0224 22.2181 33.5343 21.3373 34.1705 20.6195C34.2108 20.403 34.2326 20.1898 34.2326 19.974C34.2091 18.2306 32.5641 16.4533 32.5641 16.4533ZM39.0552 19.4485C36.0287 19.6239 34.0716 22.2968 32.905 24.6255C32.8546 24.7317 32.4832 24.7608 32.4181 24.6511C31.557 23.1224 31.0165 21.974 29.9523 21.1081C28.9452 20.2865 27.6744 19.7976 25.9639 19.7885C26.0378 20.4544 26.3602 22.2795 27.7081 23.2912C28.168 23.6377 28.836 23.8172 29.5142 23.9711C30.1891 24.1201 30.8822 24.2378 31.4109 24.5457C31.8373 24.7943 32.1092 25.1829 32.2385 25.6348C32.3678 26.085 32.3644 26.5962 32.2654 27.1379C32.0991 28.0788 31.6476 29.1136 31.045 30.0668C31.045 30.0668 32.8276 30.7953 33.1449 33.5448C33.7358 32.1371 34.9796 31.3321 34.9796 31.3321C34.325 30.4191 33.395 28.0566 33.1735 27.128C33.0509 26.5939 33.0123 26.0858 33.113 25.629C33.2121 25.173 33.4572 24.768 33.8684 24.4972C34.3787 24.1621 35.0585 24.0073 35.7282 23.8197C36.3997 23.6311 37.0527 23.4105 37.5025 23.0368C38.2981 22.37 38.6942 21.4126 38.8873 20.6093C38.9813 20.2067 39.03 19.8477 39.0484 19.5926C39.0552 19.53 39.0535 19.497 39.0552 19.4485ZM26.9898 32.2743C27.5401 32.2891 29.0022 33.4091 28.5892 33.4925C26.7908 33.8553 26.5518 32.736 26.8179 32.3419C26.8512 32.2926 26.9112 32.2722 26.9898 32.2743Z" fill="#4AE3B5"/>
<path d="M78.0164 31.198V29.65H76.4144V21.136H78.0164V19.552H83.3444V21.136H84.9644V24.934H82.8224V21.802H78.5384V28.966H82.8224V25.816H84.9644V29.65H83.3444V31.198H78.0164ZM87.1546 31.198V21.136H88.7566V19.552H94.0846V21.136H95.7046V26.482H94.0846V28.066H93.3106V28.966H94.8946V31.198H92.7886V29.65H91.1506V28.066H89.2786V31.198H87.1546ZM89.2786 25.816H93.5626V21.802H89.2786V25.816ZM99.4969 31.198V29.65H97.8949V21.136H99.4969V19.552H104.825V21.136H106.445V23.368H104.303V21.802H100.019V24.268H103.241V26.482H100.019V28.966H104.303V27.4H106.445V29.65H104.825V31.198H99.4969ZM108.635 31.198V22.702H110.237V21.136H111.821V19.552H113.981V21.136H115.565V22.702H117.185V31.198H115.043V28.066H110.759V31.198H108.635ZM110.759 25.816H115.043V23.368H113.441V21.802H112.361V23.368H110.759V25.816ZM121.489 31.198V21.802H120.427V23.368H118.303V21.136H119.905V19.552H125.233V21.136H126.853V23.368H124.711V21.802H123.649V31.198H121.489ZM130.1 31.198V29.65H128.498V21.136H130.1V19.552H135.428V21.136H137.048V23.368H134.906V21.802H130.622V24.268H133.844V26.482H130.622V28.966H134.906V27.4H137.048V29.65H135.428V31.198H130.1ZM144.444 31.198V29.65H142.842V21.136H144.444V19.552H149.772V21.136H151.392V29.65H149.772V31.198H144.444ZM144.966 28.966H149.25V21.802H144.966V28.966ZM153.582 31.198V21.136H155.184V19.552H160.512V21.136H162.132V26.482H160.512V28.066H159.738V28.966H161.322V31.198H159.216V29.65H157.578V28.066H155.706V31.198H153.582ZM155.706 25.816H159.99V21.802H155.706V25.816ZM165.925 31.198V29.65H164.323V21.136H165.925V19.552H171.253V21.136H172.873V24.934H170.731V21.802H166.447V28.966H170.731V28.066H169.129V26.482H167.509V24.268H169.669V25.816H172.873V29.65H171.253V31.198H165.925ZM175.063 31.198V22.702H176.665V21.136H178.249V19.552H180.409V21.136H181.993V22.702H183.613V31.198H181.471V28.066H177.187V31.198H175.063ZM177.187 25.816H181.471V23.368H179.869V21.802H178.789V23.368H177.187V25.816ZM185.803 31.198V19.552H187.927V21.136H189.511V22.702H191.149V27.4H192.211V19.552H194.353V31.198H192.211V29.65H190.627V28.066H188.989V23.368H187.927V31.198H185.803ZM196.543 31.198V28.966H198.145V21.802H196.543V19.552H201.889V21.802H200.269V28.966H201.889V31.198H196.543ZM205.686 31.198V29.65H204.084V27.4H206.208V28.966H210.492V26.482H205.686V24.934H204.084V21.136H205.686V19.552H211.014V21.136H212.634V23.368H210.492V21.802H206.208V24.268H211.014V25.816H212.634V29.65H211.014V31.198H205.686ZM214.825 31.198V21.136H216.427V19.552H218.551V21.136H220.171V24.268H221.233V21.136H222.853V19.552H224.995V21.136H226.579V31.198H224.473V21.802H223.375V24.934H221.755V29.65H219.631V24.934H218.011V21.802H216.949V31.198H214.825Z" fill="#4AE3B5"/>
</svg>
