<svg width="150" height="50" viewBox="0 0 150 50" fill="none" xmlns="http://www.w3.org/2000/svg">
<rect width="150" height="50" rx="5" fill="#4AE3B5"/>
<g clip-path="url(#clip0_271_2881)">
<path fill-rule="evenodd" clip-rule="evenodd" d="M38.125 23.75V30.625H29.375V19.375H33.75V22.5C33.75 22.8315 33.8817 23.1495 34.1161 23.3839C34.3505 23.6183 34.6685 23.75 35 23.75H38.125ZM35.625 19.5263L37.9737 21.875H35.625V19.5263ZM28.75 17.5C28.4185 17.5 28.1005 17.6317 27.8661 17.8661C27.6317 18.1005 27.5 18.4185 27.5 18.75H25C24.6685 18.75 24.3505 18.8817 24.1161 19.1161C23.8817 19.3505 23.75 19.6685 23.75 20H21.25C20.9185 20 20.6005 20.1317 20.3661 20.3661C20.1317 20.6005 20 20.9185 20 21.25V28.75C20 29.0815 20.1317 29.3995 20.3661 29.6339C20.6005 29.8683 20.9185 30 21.25 30H23.75C23.75 30.3315 23.8817 30.6495 24.1161 30.8839C24.3505 31.1183 24.6685 31.25 25 31.25H27.5C27.5 31.5815 27.6317 31.8995 27.8661 32.1339C28.1005 32.3683 28.4185 32.5 28.75 32.5H38.75C39.0815 32.5 39.3995 32.3683 39.6339 32.1339C39.8683 31.8995 40 31.5815 40 31.25V21.7675C39.9999 21.436 39.8682 21.1181 39.6337 20.8837L36.6163 17.8662C36.3819 17.6318 36.064 17.5001 35.7325 17.5H28.75ZM27.5 29.375V20.625H25.625V29.375H27.5ZM23.75 28.125V21.875H21.875V28.125H23.75Z" fill="#1A1A1A"/>
</g>
<path d="M71.1175 31.198V19.552H76.4635V21.136H78.0475V22.702H79.6675V28.066H78.0475V29.65H76.4635V31.198H71.1175ZM73.2415 28.966H75.9235V27.4H77.5255V23.368H75.9235V21.802H73.2415V28.966ZM83.4598 31.198V29.65H81.8578V21.136H83.4598V19.552H88.7878V21.136H90.4078V29.65H88.7878V31.198H83.4598ZM83.9818 28.966H88.2658V21.802H83.9818V28.966ZM94.2 31.198V29.65H92.598V21.136H94.2V19.552H99.528V21.136H101.148V24.934H99.006V21.802H94.722V28.966H99.006V25.816H101.148V29.65H99.528V31.198H94.2ZM104.94 31.198V29.65H103.338V27.4H105.462V28.966H109.746V26.482H104.94V24.934H103.338V21.136H104.94V19.552H110.268V21.136H111.888V23.368H109.746V21.802H105.462V24.268H110.268V25.816H111.888V29.65H110.268V31.198H104.94Z" fill="#1A1A1A"/>
<defs>
<clipPath id="clip0_271_2881">
<rect width="20" height="20" fill="white" transform="translate(20 15)"/>
</clipPath>
</defs>
</svg>
