<svg width="313" height="50" viewBox="0 0 313 50" fill="none" xmlns="http://www.w3.org/2000/svg">
<rect width="313" height="50" rx="5" fill="#1A1A1A"/>
<path d="M30 35L27 21L30 15H38L41 21L38 35H30ZM33 19V21H31V23H33V28H35V23H37V21H35V19H33Z" fill="#4AE3B5"/>
<path d="M70.7 31.198V29.65H69.098V21.136H70.7V19.552H76.028V21.136H77.648V23.368H75.506V21.802H71.222V24.268H74.444V26.482H71.222V28.966H75.506V27.4H77.648V29.65H76.028V31.198H70.7ZM79.8382 31.198V19.552H81.9622V21.136H83.5462V22.702H85.1842V27.4H86.2462V19.552H88.3882V31.198H86.2462V29.65H84.6622V28.066H83.0242V23.368H81.9622V31.198H79.8382ZM90.5785 31.198V19.552H95.9245V21.136H97.5085V22.702H99.1285V28.066H97.5085V29.65H95.9245V31.198H90.5785ZM92.7025 28.966H95.3845V27.4H96.9865V23.368H95.3845V21.802H92.7025V28.966ZM106.524 31.198V29.65H104.922V27.4H107.046V28.966H111.33V26.482H106.524V24.934H104.922V21.136H106.524V19.552H111.852V21.136H113.472V23.368H111.33V21.802H107.046V24.268H111.852V25.816H113.472V29.65H111.852V31.198H106.524ZM115.662 31.198V28.966H117.264V21.802H115.662V19.552H121.008V21.802H119.388V28.966H121.008V31.198H115.662ZM123.203 31.198V21.136H124.805V19.552H126.929V21.136H128.549V24.268H129.611V21.136H131.231V19.552H133.373V21.136H134.957V31.198H132.851V21.802H131.753V24.934H130.133V29.65H128.009V24.934H126.389V21.802H125.327V31.198H123.203ZM138.763 31.198V29.65H137.161V19.552H139.285V28.966H143.569V19.552H145.711V29.65H144.091V31.198H138.763ZM149.503 31.198V29.65H147.901V19.552H150.025V28.966H154.309V27.4H156.451V29.65H154.831V31.198H149.503ZM158.641 31.198V22.702H160.243V21.136H161.827V19.552H163.987V21.136H165.571V22.702H167.191V31.198H165.049V28.066H160.765V31.198H158.641ZM160.765 25.816H165.049V23.368H163.447V21.802H162.367V23.368H160.765V25.816ZM171.495 31.198V21.802H170.433V23.368H168.309V21.136H169.911V19.552H175.239V21.136H176.859V23.368H174.717V21.802H173.655V31.198H171.495ZM179.049 31.198V28.966H180.651V21.802H179.049V19.552H184.395V21.802H182.775V28.966H184.395V31.198H179.049ZM188.192 31.198V29.65H186.59V21.136H188.192V19.552H193.52V21.136H195.14V29.65H193.52V31.198H188.192ZM188.714 28.966H192.998V21.802H188.714V28.966ZM197.33 31.198V19.552H199.454V21.136H201.038V22.702H202.676V27.4H203.738V19.552H205.88V31.198H203.738V29.65H202.154V28.066H200.516V23.368H199.454V31.198H197.33Z" fill="#4AE3B5"/>
</svg>
