<svg width="313" height="50" viewBox="0 0 313 50" fill="none" xmlns="http://www.w3.org/2000/svg">
<rect width="313" height="50" rx="5" fill="#4AE3B5"/>
<path d="M30 35L27 21L30 15H38L41 21L38 35H30ZM33 19V21H31V23H33V28H35V23H37V21H35V19H33Z" fill="#1A1A1A"/>
<path d="M82.2137 31.198V29.65H80.6117V21.136H82.2137V19.552H87.5417V21.136H89.1617V23.368H87.0197V21.802H82.7357V24.268H85.9577V26.482H82.7357V28.966H87.0197V27.4H89.1617V29.65H87.5417V31.198H82.2137ZM91.3519 31.198V19.552H93.4759V21.136H95.0599V22.702H96.6979V27.4H97.7599V19.552H99.9019V31.198H97.7599V29.65H96.1759V28.066H94.5379V23.368H93.4759V31.198H91.3519ZM102.092 31.198V19.552H107.438V21.136H109.022V22.702H110.642V28.066H109.022V29.65H107.438V31.198H102.092ZM104.216 28.966H106.898V27.4H108.5V23.368H106.898V21.802H104.216V28.966ZM118.038 31.198V29.65H116.436V27.4H118.56V28.966H122.844V26.482H118.038V24.934H116.436V21.136H118.038V19.552H123.366V21.136H124.986V23.368H122.844V21.802H118.56V24.268H123.366V25.816H124.986V29.65H123.366V31.198H118.038ZM127.176 31.198V28.966H128.778V21.802H127.176V19.552H132.522V21.802H130.902V28.966H132.522V31.198H127.176ZM134.717 31.198V21.136H136.319V19.552H138.443V21.136H140.063V24.268H141.125V21.136H142.745V19.552H144.887V21.136H146.471V31.198H144.365V21.802H143.267V24.934H141.647V29.65H139.523V24.934H137.903V21.802H136.841V31.198H134.717ZM150.276 31.198V29.65H148.674V19.552H150.798V28.966H155.082V19.552H157.224V29.65H155.604V31.198H150.276ZM161.016 31.198V29.65H159.414V19.552H161.538V28.966H165.822V27.4H167.964V29.65H166.344V31.198H161.016ZM170.155 31.198V22.702H171.757V21.136H173.341V19.552H175.501V21.136H177.085V22.702H178.705V31.198H176.563V28.066H172.279V31.198H170.155ZM172.279 25.816H176.563V23.368H174.961V21.802H173.881V23.368H172.279V25.816ZM183.009 31.198V21.802H181.947V23.368H179.823V21.136H181.425V19.552H186.753V21.136H188.373V23.368H186.231V21.802H185.169V31.198H183.009ZM190.563 31.198V28.966H192.165V21.802H190.563V19.552H195.909V21.802H194.289V28.966H195.909V31.198H190.563ZM199.706 31.198V29.65H198.104V21.136H199.706V19.552H205.034V21.136H206.654V29.65H205.034V31.198H199.706ZM200.228 28.966H204.512V21.802H200.228V28.966ZM208.844 31.198V19.552H210.968V21.136H212.552V22.702H214.19V27.4H215.252V19.552H217.394V31.198H215.252V29.65H213.668V28.066H212.03V23.368H210.968V31.198H208.844Z" fill="#1A1A1A"/>
</svg>
