<svg width="184" height="20" viewBox="0 0 184 20" fill="none" xmlns="http://www.w3.org/2000/svg">
<path d="M3.53 19.36V16.66H0.8V2.8H3.53V0.0699987H11.99V2.8H14.75V5.8H11.69V3.1H3.83V8.23H9.29V11.2H3.83V16.36H11.69V13.63H14.75V16.66H11.99V19.36H3.53ZM18.3781 19.36V5.5H29.5681V8.23H32.3281V19.36H29.2681V8.5H21.4081V19.36H18.3781ZM39.9151 19.36V16.66H37.1851V11.2H34.4551V5.5H37.4851V10.9H40.1851V16.36H42.6451V10.9H45.3451V5.5H48.4051V11.2H45.6451V16.66H42.9451V19.36H39.9151ZM51.4543 19.36V5.5H54.4843V19.36H51.4543ZM51.4543 3.1V0.0699987H54.4843V3.1H51.4543ZM58.1047 19.36V8.23H60.8347V5.5H69.2947V8.23H72.0547V11.2H68.9947V8.5H61.1347V19.36H58.1047ZM77.5046 19.36V16.66H74.7746V8.23H77.5046V5.5H85.9646V8.23H88.7246V16.66H85.9646V19.36H77.5046ZM77.8046 16.36H85.6646V8.5H77.8046V16.36ZM92.3527 19.36V5.5H103.543V8.23H106.303V19.36H103.243V8.5H95.3827V19.36H92.3527ZM109.931 19.36V5.5H118.421V8.23H120.821V5.5H126.611V8.23H129.311V19.36H126.311V8.5H121.121V19.36H118.121V8.5H112.961V19.36H109.931ZM135.366 19.36V16.66H132.636V8.23H135.366V5.5H143.826V8.23H146.586V11.2H143.526V8.5H135.666V10.9H141.126V13.93H135.666V16.36H143.526V13.6H146.586V16.63H143.826V19.36H135.366ZM150.214 19.36V5.5H161.404V8.23H164.164V19.36H161.104V8.5H153.244V19.36H150.214ZM172.021 19.36V16.66H169.321V8.5H166.591V5.5H169.321V0.0699987H172.321V5.5H180.541V8.5H172.321V16.36H180.241V13.63H183.271V16.66H180.541V19.36H172.021Z" fill="#4AE3B5"/>
</svg>
