<svg width="150" height="50" viewBox="0 0 150 50" fill="none" xmlns="http://www.w3.org/2000/svg">
<rect width="150" height="50" rx="5" fill="#1A1A1A"/>
<g clip-path="url(#clip0_270_2727)">
<path d="M24 15H28V17H26V19H24V15ZM24 25H22V19H24V25ZM26 27H24V25H26V27ZM28 29V27H26V29H22V27H20V29H22V31H26V35H28V31H30V29H28ZM28 29V31H26V29H28ZM34 17V19H28V17H34ZM38 19H36V17H34V15H38V19ZM38 25V19H40V25H38ZM36 27V25H38V27H36ZM34 29V27H36V29H34ZM34 31H32V29H34V31ZM34 31H36V35H34V31Z" fill="#4AE3B5"/>
</g>
<path d="M63.8514 31.198V29.65H62.2494V21.136H63.8514V19.552H69.1794V21.136H70.7994V24.934H68.6574V21.802H64.3734V28.966H68.6574V28.066H67.0554V26.482H65.4354V24.268H67.5954V25.816H70.7994V29.65H69.1794V31.198H63.8514ZM72.9896 31.198V28.966H74.5916V21.802H72.9896V19.552H78.3356V21.802H76.7156V28.966H78.3356V31.198H72.9896ZM83.7166 31.198V21.802H82.6546V23.368H80.5306V21.136H82.1326V19.552H87.4606V21.136H89.0806V23.368H86.9386V21.802H85.8766V31.198H83.7166ZM90.7259 31.198V19.552H92.8499V24.268H93.9119V22.702H96.0719V24.268H97.1339V19.552H99.2759V31.198H97.1339V26.482H92.8499V31.198H90.7259ZM103.068 31.198V29.65H101.466V19.552H103.59V28.966H107.874V19.552H110.016V29.65H108.396V31.198H103.068ZM113.808 31.198V29.65H112.206V21.136H113.808V19.552H119.136V21.136H120.756V24.934H119.136V25.816H120.756V29.65H119.136V31.198H113.808ZM114.33 28.966H118.614V26.482H115.392V24.268H118.614V21.802H114.33V28.966Z" fill="#4AE3B5"/>
<defs>
<clipPath id="clip0_270_2727">
<rect width="20" height="20" fill="white" transform="translate(20 15)"/>
</clipPath>
</defs>
</svg>
