<svg width="46" height="47" viewBox="0 0 46 47" fill="none" xmlns="http://www.w3.org/2000/svg">
<rect x="4" y="4.5" width="42" height="42" rx="2.5" fill="#F87A53"/>
<path d="M17 20.7C17 19.1912 17 18.4376 17.4688 17.9688C17.9376 17.5 18.6912 17.5 20.2 17.5C21.7088 17.5 22.4624 17.5 22.9312 17.9688C23.4 18.4376 23.4 19.1912 23.4 20.7V30.3C23.4 31.8088 23.4 32.5624 22.9312 33.0312C22.4624 33.5 21.7088 33.5 20.2 33.5C18.6912 33.5 17.9376 33.5 17.4688 33.0312C17 32.5624 17 31.8088 17 30.3V20.7ZM26.6 20.7C26.6 19.1912 26.6 18.4376 27.0688 17.9688C27.5376 17.5 28.2912 17.5 29.8 17.5C31.3088 17.5 32.0624 17.5 32.5312 17.9688C33 18.4376 33 19.1912 33 20.7V30.3C33 31.8088 33 32.5624 32.5312 33.0312C32.0624 33.5 31.3088 33.5 29.8 33.5C28.2912 33.5 27.5376 33.5 27.0688 33.0312C26.6 32.5624 26.6 31.8088 26.6 30.3V20.7Z" fill="#1A1A1A"/>
</svg>
