<svg width="313" height="50" viewBox="0 0 313 50" fill="none" xmlns="http://www.w3.org/2000/svg">
<rect width="313" height="50" rx="5" fill="#4AE3B5"/>
<path d="M30 35L27 21L30 15H38L41 21L38 35H30ZM33 19V21H31V23H33V28H35V23H37V21H35V19H33Z" fill="#1A1A1A"/>
<path d="M79.6673 31.198V21.136H81.2693V19.552H86.5973V21.136H88.2173V26.482H86.5973V28.066H85.8233V28.966H87.4073V31.198H85.3013V29.65H83.6633V28.066H81.7913V31.198H79.6673ZM81.7913 25.816H86.0753V21.802H81.7913V25.816ZM92.0096 31.198V29.65H90.4076V21.136H92.0096V19.552H97.3376V21.136H98.9576V23.368H96.8156V21.802H92.5316V24.268H95.7536V26.482H92.5316V28.966H96.8156V27.4H98.9576V29.65H97.3376V31.198H92.0096ZM102.75 31.198V29.65H101.148V27.4H103.272V28.966H107.556V26.482H102.75V24.934H101.148V21.136H102.75V19.552H108.078V21.136H109.698V23.368H107.556V21.802H103.272V24.268H108.078V25.816H109.698V29.65H108.078V31.198H102.75ZM114.722 31.198V21.802H113.66V23.368H111.536V21.136H113.138V19.552H118.466V21.136H120.086V23.368H117.944V21.802H116.882V31.198H114.722ZM121.556 31.198V22.702H123.158V21.136H124.742V19.552H126.902V21.136H128.486V22.702H130.106V31.198H127.964V28.066H123.68V31.198H121.556ZM123.68 25.816H127.964V23.368H126.362V21.802H125.282V23.368H123.68V25.816ZM132.296 31.198V21.136H133.898V19.552H139.226V21.136H140.846V26.482H139.226V28.066H138.452V28.966H140.036V31.198H137.93V29.65H136.292V28.066H134.42V31.198H132.296ZM134.42 25.816H138.704V21.802H134.42V25.816ZM146.222 31.198V21.802H145.16V23.368H143.036V21.136H144.638V19.552H149.966V21.136H151.586V23.368H149.444V21.802H148.382V31.198H146.222ZM158.982 31.198V29.65H157.38V27.4H159.504V28.966H163.788V26.482H158.982V24.934H157.38V21.136H158.982V19.552H164.31V21.136H165.93V23.368H163.788V21.802H159.504V24.268H164.31V25.816H165.93V29.65H164.31V31.198H158.982ZM168.12 31.198V28.966H169.722V21.802H168.12V19.552H173.466V21.802H171.846V28.966H173.466V31.198H168.12ZM175.661 31.198V21.136H177.263V19.552H179.387V21.136H181.007V24.268H182.069V21.136H183.689V19.552H185.831V21.136H187.415V31.198H185.309V21.802H184.211V24.934H182.591V29.65H180.467V24.934H178.847V21.802H177.785V31.198H175.661ZM191.221 31.198V29.65H189.619V19.552H191.743V28.966H196.027V19.552H198.169V29.65H196.549V31.198H191.221ZM201.961 31.198V29.65H200.359V19.552H202.483V28.966H206.767V27.4H208.909V29.65H207.289V31.198H201.961ZM211.099 31.198V22.702H212.701V21.136H214.285V19.552H216.445V21.136H218.029V22.702H219.649V31.198H217.507V28.066H213.223V31.198H211.099ZM213.223 25.816H217.507V23.368H215.905V21.802H214.825V23.368H213.223V25.816ZM223.953 31.198V21.802H222.891V23.368H220.767V21.136H222.369V19.552H227.697V21.136H229.317V23.368H227.175V21.802H226.113V31.198H223.953ZM231.507 31.198V28.966H233.109V21.802H231.507V19.552H236.853V21.802H235.233V28.966H236.853V31.198H231.507ZM240.65 31.198V29.65H239.048V21.136H240.65V19.552H245.978V21.136H247.598V29.65H245.978V31.198H240.65ZM241.172 28.966H245.456V21.802H241.172V28.966ZM249.788 31.198V19.552H251.912V21.136H253.496V22.702H255.134V27.4H256.196V19.552H258.338V31.198H256.196V29.65H254.612V28.066H252.974V23.368H251.912V31.198H249.788Z" fill="#1A1A1A"/>
</svg>
