<svg width="408" height="988" viewBox="0 0 408 988" fill="none" xmlns="http://www.w3.org/2000/svg">
<rect x="2" y="2" width="404" height="984" rx="12" fill="#4AE3B5" stroke="#4AE3B5" stroke-width="4" stroke-linejoin="round"/>
<path fill-rule="evenodd" clip-rule="evenodd" d="M283 336.8C283.003 339.397 282.161 341.924 280.6 344V346.4C280.6 347.355 280.221 348.27 279.546 348.946C278.87 349.621 277.955 350 277 350V348.8C277 348.482 276.874 348.176 276.649 347.951C276.423 347.726 276.118 347.6 275.8 347.6C275.482 347.6 275.177 347.726 274.951 347.951C274.726 348.176 274.6 348.482 274.6 348.8V350H272.2V348.8C272.2 348.482 272.074 348.176 271.849 347.951C271.623 347.726 271.318 347.6 271 347.6C270.682 347.6 270.377 347.726 270.151 347.951C269.926 348.176 269.8 348.482 269.8 348.8V350H267.4V348.8C267.4 348.482 267.274 348.176 267.049 347.951C266.823 347.726 266.518 347.6 266.2 347.6C265.882 347.6 265.577 347.726 265.351 347.951C265.126 348.176 265 348.482 265 348.8V350C264.045 350 263.13 349.621 262.454 348.946C261.779 348.27 261.4 347.355 261.4 346.4V344C259.839 341.924 258.997 339.397 259 336.8C259 333.465 260.363 330.73 262.588 328.848C264.794 326.98 267.782 326 271 326C274.218 326 277.206 326.98 279.412 328.848C281.636 330.73 283 333.464 283 336.8ZM266.2 334.4C265.563 334.4 264.953 334.653 264.503 335.103C264.053 335.553 263.8 336.163 263.8 336.8C263.8 337.437 264.053 338.047 264.503 338.497C264.953 338.947 265.563 339.2 266.2 339.2C266.837 339.2 267.447 338.947 267.897 338.497C268.347 338.047 268.6 337.437 268.6 336.8C268.6 336.163 268.347 335.553 267.897 335.103C267.447 334.653 266.837 334.4 266.2 334.4ZM272.073 340.898C271.87 340.592 271.456 340.4 271 340.4C270.544 340.4 270.13 340.592 269.927 340.898L268.727 342.698C268.636 342.829 268.592 342.986 268.601 343.145C268.61 343.304 268.673 343.455 268.779 343.574C268.998 343.838 269.384 344 269.8 344H272.2C272.616 344 273.002 343.838 273.22 343.573C273.326 343.454 273.389 343.303 273.398 343.144C273.408 342.985 273.364 342.827 273.273 342.697L272.073 340.897V340.898ZM273.4 336.8C273.4 336.163 273.653 335.553 274.103 335.103C274.553 334.653 275.163 334.4 275.8 334.4C276.437 334.4 277.047 334.653 277.497 335.103C277.947 335.553 278.2 336.163 278.2 336.8C278.2 337.437 277.947 338.047 277.497 338.497C277.047 338.947 276.437 339.2 275.8 339.2C275.163 339.2 274.553 338.947 274.103 338.497C273.653 338.047 273.4 337.437 273.4 336.8Z" fill="#1A1A1A"/>
<path d="M99.95 326C101.95 326 103.625 326.781 104.976 328.343C106.326 329.905 107.001 331.763 107 333.916C107 334.296 106.98 334.67 106.94 335.04C106.9 335.41 106.83 335.774 106.73 336.132H99.23L97.22 332.902H95.06L93.44 338.348L92.03 336.132H83.27C83.17 335.773 83.1 335.409 83.06 335.04C83.02 334.671 83 334.307 83 333.947C83 331.773 83.67 329.905 85.01 328.343C86.35 326.781 88.02 326 90.02 326C90.98 326 91.8852 326.201 92.7356 326.602C93.586 327.003 94.3408 327.562 95 328.28C95.64 327.562 96.3852 327.003 97.2356 326.602C98.086 326.201 98.9908 326 99.95 326ZM94.97 350L85.04 339.456C84.92 339.33 84.81 339.203 84.71 339.077C84.61 338.95 84.51 338.813 84.41 338.665H90.74L92.81 341.926H94.94L96.56 336.449L97.94 338.665H105.56L105.26 339.045L104.96 339.425L94.97 350Z" fill="#1A1A1A"/>
<rect x="16" y="42" width="355" height="230" fill="#4AE3B5"/>
<path d="M71.0099 157.528V132.472H68.1779V136.648H62.5139V130.696H66.7859V126.472H80.9939V130.696H85.3139V136.648H79.6019V132.472H76.7699V157.528H71.0099ZM89.7014 157.528V126.472H95.3654V139.048H98.1974V134.872H108.181V139.048H112.501V157.528H106.789V140.824H99.6374V144.952H95.3654V157.528H89.7014ZM121.677 157.528V153.4H117.405V139.048H121.677V134.872H135.885V139.048H140.205V144.952H134.493V140.824H123.069V143.176H131.661V149.176H123.069V151.576H134.493V147.352H140.205V153.352H135.885V157.528H121.677ZM150.317 157.528V153.4H146.045V126.472H151.709V151.576H163.133V147.4H168.845V153.4H164.525V157.528H150.317ZM174.686 157.528V134.872H180.35V157.528H174.686ZM174.686 132.472V126.472H180.35V132.472H174.686ZM186.217 157.528V130.696H190.489V126.472H204.697V130.696H209.017V136.648H203.305V132.472H191.881V139.048H200.473V144.952H191.881V157.528H186.217ZM214.348 157.528V153.4H210.076V139.048H214.348V134.872H228.556V139.048H232.876V144.952H227.164V140.824H215.74V143.176H224.332V149.176H215.74V151.576H227.164V147.352H232.876V153.352H228.556V157.528H214.348ZM242.989 157.528V153.4H238.717V130.696H242.989V126.472H257.197V130.696H261.517V153.4H257.197V157.528H242.989ZM244.381 151.576H255.805V132.472H244.381V151.576ZM267.358 157.528V130.696H271.63V126.472H285.838V130.696H290.158V136.648H284.446V132.472H273.022V139.048H281.614V144.952H273.022V157.528H267.358ZM295.998 157.528V130.696H300.27V126.472H314.478V130.696H318.798V144.952H314.478V149.176H301.662V157.528H295.998ZM301.662 143.176H313.086V132.472H301.662V143.176ZM327.973 165.928V161.752H323.701V155.8H329.365V159.976H340.837V153.4H327.973V149.176H323.701V134.872H329.365V147.4H340.837V134.872H346.501V161.752H342.229V165.928H327.973ZM76.8085 217.33V203.17H79.4785V200.56H82.1185V197.92H85.7185V200.56H88.3585V203.17H91.0585V217.33H87.4885V212.11H80.3485V217.33H76.8085ZM80.3485 208.36H87.4885V204.28H84.8185V201.67H83.0185V204.28H80.3485V208.36ZM103.385 217.33V214.75H100.715V211H104.255V213.61H111.395V209.47H103.385V206.89H100.715V200.56H103.385V197.92H112.265V200.56H114.965V204.28H111.395V201.67H104.255V205.78H112.265V208.36H114.965V214.75H112.265V217.33H103.385ZM118.615 217.33V203.17H122.155V217.33H118.615ZM118.615 201.67V197.92H122.155V201.67H118.615ZM125.236 217.33V203.17H134.146V205.78H135.916V203.17H142.186V205.78H144.826V217.33H141.316V206.89H136.786V217.33H133.246V206.89H128.776V217.33H125.236ZM148.498 222.43V205.78H151.168V203.17H160.048V205.78H162.748V214.75H160.048V217.33H152.038V222.43H148.498ZM152.038 213.61H159.178V206.89H152.038V213.61ZM166.398 217.33V197.92H169.938V217.33H166.398ZM175.689 217.33V214.75H173.019V205.78H175.689V203.17H184.569V205.78H187.269V209.47H183.699V206.89H176.559V208.36H181.929V212.11H176.559V213.61H183.699V210.97H187.269V214.72H184.569V217.33H175.689ZM196.926 217.33V203.17H199.596V200.56H202.236V197.92H205.836V200.56H208.476V203.17H211.176V217.33H207.606V212.11H200.466V217.33H196.926ZM200.466 208.36H207.606V204.28H204.936V201.67H203.136V204.28H200.466V208.36ZM214.826 217.33V205.78H217.496V203.17H226.376V205.78H229.076V209.47H225.506V206.89H218.366V217.33H214.826ZM238.036 217.33V214.75H235.396V206.89H232.726V203.17H235.396V197.92H238.936V203.17H246.976V206.89H238.936V213.61H246.106V211H249.676V214.75H246.976V217.33H238.036ZM253.322 217.33V203.17H256.862V217.33H253.322ZM253.322 201.67V197.92H256.862V201.67H253.322ZM260.529 217.33V200.56H263.199V197.92H272.079V200.56H274.779V204.28H271.209V201.67H264.069V205.78H274.779V217.33H271.209V209.47H264.069V217.33H260.529ZM281.1 217.33V214.75H278.43V205.78H281.1V203.17H289.98V205.78H292.68V209.47H289.11V206.89H281.97V213.61H289.11V211H292.68V214.75H289.98V217.33H281.1ZM296.33 217.33V203.17H299.87V217.33H296.33ZM296.33 201.67V197.92H299.87V201.67H296.33ZM305.621 217.33V214.75H302.951V205.78H305.621V203.17H314.501V205.78H317.231V213.61H319.901V217.33H316.331V214.75H314.501V217.33H305.621ZM306.491 213.61H313.631V206.89H306.491V213.61ZM322.639 217.33V197.92H326.179V217.33H322.639ZM104.791 262.33V259.75H102.121V242.92H105.661V258.61H112.801V256H116.371V259.75H113.671V262.33H104.791ZM120.021 262.33V248.17H123.561V262.33H120.021ZM120.021 246.67V242.92H123.561V246.67H120.021ZM127.228 262.33V245.56H129.898V242.92H138.778V245.56H141.478V249.28H137.908V246.67H130.768V250.78H136.138V254.47H130.768V262.33H127.228ZM144.811 262.33V259.75H142.141V250.78H144.811V248.17H153.691V250.78H156.391V254.47H152.821V251.89H145.681V253.36H151.051V257.11H145.681V258.61H152.821V255.97H156.391V259.72H153.691V262.33H144.811ZM168.717 262.33V259.75H166.047V256H169.587V258.61H176.727V254.47H168.717V251.89H166.047V245.56H168.717V242.92H177.597V245.56H180.297V249.28H176.727V246.67H169.587V250.78H177.597V253.36H180.297V259.75H177.597V262.33H168.717ZM183.947 262.33V248.17H187.487V262.33H183.947ZM183.947 246.67V242.92H187.487V246.67H183.947ZM190.568 262.33V248.17H199.478V250.78H201.248V248.17H207.518V250.78H210.158V262.33H206.648V251.89H202.118V262.33H198.578V251.89H194.108V262.33H190.568ZM215.914 262.33V259.75H213.244V248.17H216.784V258.61H223.924V248.17H227.494V259.75H224.794V262.33H215.914ZM231.144 262.33V242.92H234.684V262.33H231.144ZM240.436 262.33V259.75H237.766V250.78H240.436V248.17H249.316V250.78H252.046V258.61H254.716V262.33H251.146V259.75H249.316V262.33H240.436ZM241.306 258.61H248.446V251.89H241.306V258.61ZM260.361 262.33V259.75H257.721V251.89H255.051V248.17H257.721V242.92H261.261V248.17H269.301V251.89H261.261V258.61H268.431V256H272.001V259.75H269.301V262.33H260.361ZM277.408 262.33V259.75H274.738V250.78H277.408V248.17H286.288V250.78H288.988V259.75H286.288V262.33H277.408ZM278.278 258.61H285.418V251.89H278.278V258.61ZM292.639 262.33V250.78H295.309V248.17H304.189V250.78H306.889V254.47H303.319V251.89H296.179V262.33H292.639Z" fill="#1A1A1A"/>
<path d="M192.75 405C190.047 405.606 187.418 406.502 184.907 407.673C141.083 428.155 113 485.432 113 534.503C113 581.143 148.013 619.467 192.75 623.702V405ZM209.25 623.702C253.987 619.467 289 581.154 289 534.514C289 530.041 288.769 525.516 288.307 520.94L209.25 600.008V623.702ZM269.86 461.067C265.64 453.154 260.706 445.643 255.12 438.627L209.25 484.497V521.677L269.86 461.067ZM243.988 426.417C236.101 418.749 227.017 412.418 217.093 407.673C214.582 406.502 211.953 405.606 209.25 405V461.166L243.988 426.417ZM277.296 476.951L209.25 545.008V576.666L283.5 502.416L284.952 500.964C283.016 492.776 280.457 484.748 277.296 476.951Z" fill="black"/>
</svg>
