<svg width="408" height="988" viewBox="0 0 408 988" fill="none" xmlns="http://www.w3.org/2000/svg">
<rect x="2" y="2" width="404" height="984" rx="12" fill="#4AE3B5" stroke="#4AE3B5" stroke-width="4" stroke-linejoin="round"/>
<path fill-rule="evenodd" clip-rule="evenodd" d="M283 336.8C283.003 339.397 282.161 341.924 280.6 344V346.4C280.6 347.355 280.221 348.27 279.546 348.946C278.87 349.621 277.955 350 277 350V348.8C277 348.482 276.874 348.176 276.649 347.951C276.423 347.726 276.118 347.6 275.8 347.6C275.482 347.6 275.177 347.726 274.951 347.951C274.726 348.176 274.6 348.482 274.6 348.8V350H272.2V348.8C272.2 348.482 272.074 348.176 271.849 347.951C271.623 347.726 271.318 347.6 271 347.6C270.682 347.6 270.377 347.726 270.151 347.951C269.926 348.176 269.8 348.482 269.8 348.8V350H267.4V348.8C267.4 348.482 267.274 348.176 267.049 347.951C266.823 347.726 266.518 347.6 266.2 347.6C265.882 347.6 265.577 347.726 265.351 347.951C265.126 348.176 265 348.482 265 348.8V350C264.045 350 263.13 349.621 262.454 348.946C261.779 348.27 261.4 347.355 261.4 346.4V344C259.839 341.924 258.997 339.397 259 336.8C259 333.465 260.363 330.73 262.588 328.848C264.794 326.98 267.782 326 271 326C274.218 326 277.206 326.98 279.412 328.848C281.636 330.73 283 333.464 283 336.8ZM266.2 334.4C265.563 334.4 264.953 334.653 264.503 335.103C264.053 335.553 263.8 336.163 263.8 336.8C263.8 337.437 264.053 338.047 264.503 338.497C264.953 338.947 265.563 339.2 266.2 339.2C266.837 339.2 267.447 338.947 267.897 338.497C268.347 338.047 268.6 337.437 268.6 336.8C268.6 336.163 268.347 335.553 267.897 335.103C267.447 334.653 266.837 334.4 266.2 334.4ZM272.073 340.898C271.87 340.592 271.456 340.4 271 340.4C270.544 340.4 270.13 340.592 269.927 340.898L268.727 342.698C268.636 342.829 268.592 342.986 268.601 343.145C268.61 343.304 268.673 343.455 268.779 343.574C268.998 343.838 269.384 344 269.8 344H272.2C272.616 344 273.002 343.838 273.22 343.573C273.326 343.454 273.389 343.303 273.398 343.144C273.408 342.985 273.364 342.827 273.273 342.697L272.073 340.897V340.898ZM273.4 336.8C273.4 336.163 273.653 335.553 274.103 335.103C274.553 334.653 275.163 334.4 275.8 334.4C276.437 334.4 277.047 334.653 277.497 335.103C277.947 335.553 278.2 336.163 278.2 336.8C278.2 337.437 277.947 338.047 277.497 338.497C277.047 338.947 276.437 339.2 275.8 339.2C275.163 339.2 274.553 338.947 274.103 338.497C273.653 338.047 273.4 337.437 273.4 336.8Z" fill="#1A1A1A"/>
<path d="M99.95 326C101.95 326 103.625 326.781 104.976 328.343C106.326 329.905 107.001 331.763 107 333.916C107 334.296 106.98 334.67 106.94 335.04C106.9 335.41 106.83 335.774 106.73 336.132H99.23L97.22 332.902H95.06L93.44 338.348L92.03 336.132H83.27C83.17 335.773 83.1 335.409 83.06 335.04C83.02 334.671 83 334.307 83 333.947C83 331.773 83.67 329.905 85.01 328.343C86.35 326.781 88.02 326 90.02 326C90.98 326 91.8852 326.201 92.7356 326.602C93.586 327.003 94.3408 327.562 95 328.28C95.64 327.562 96.3852 327.003 97.2356 326.602C98.086 326.201 98.9908 326 99.95 326ZM94.97 350L85.04 339.456C84.92 339.33 84.81 339.203 84.71 339.077C84.61 338.95 84.51 338.813 84.41 338.665H90.74L92.81 341.926H94.94L96.56 336.449L97.94 338.665H105.56L105.26 339.045L104.96 339.425L94.97 350Z" fill="#1A1A1A"/>
<path d="M74.4436 157.528V130.696H78.7156V126.472H92.9236V130.696H97.2436V144.952H92.9236V149.176H80.1076V157.528H74.4436ZM80.1076 143.176H91.5316V132.472H80.1076V143.176ZM107.356 157.528V153.4H103.084V130.696H107.356V126.472H121.564V130.696H125.884V136.648H120.172V132.472H108.748V139.048H117.34V144.952H108.748V151.576H120.172V147.4H125.884V153.4H121.564V157.528H107.356ZM140.221 157.528V132.472H137.389V136.648H131.725V130.696H135.997V126.472H150.205V130.696H154.525V136.648H148.813V132.472H145.981V157.528H140.221ZM158.444 157.528V130.696H162.716V126.472H176.924V130.696H181.244V144.952H176.924V149.176H174.86V151.576H179.084V157.528H173.468V153.4H169.1V149.176H164.108V157.528H158.444ZM164.108 143.176H175.532V132.472H164.108V143.176ZM187.084 157.528V151.576H191.356V132.472H187.084V126.472H201.34V132.472H197.02V151.576H201.34V157.528H187.084ZM207.194 157.528V130.696H211.466V126.472H225.674V130.696H229.994V144.952H225.674V149.176H212.858V157.528H207.194ZM212.858 143.176H224.282V132.472H212.858V143.176ZM235.834 157.528V151.576H240.106V132.472H235.834V126.472H250.09V132.472H245.77V151.576H250.09V157.528H235.834ZM255.944 157.528V151.576H260.216V143.176H264.44V140.824H260.216V132.472H255.944V126.472H261.608V130.696H265.88V139.048H268.76V130.696H273.032V126.472H278.744V132.472H274.424V140.824H270.2V143.176H274.424V151.576H278.744V157.528H273.032V153.4H268.76V144.952H265.88V153.4H261.608V157.528H255.944ZM287.403 157.528V153.4H283.131V130.696H287.403V126.472H301.611V130.696H305.931V136.648H300.219V132.472H288.795V139.048H297.387V144.952H288.795V151.576H300.219V147.4H305.931V153.4H301.611V157.528H287.403ZM316.044 157.528V153.4H311.772V126.472H317.436V151.576H328.86V147.4H334.572V153.4H330.252V157.528H316.044ZM75.4881 217.374V201.326H78.5141V198.368H81.5061V195.376H85.5861V198.368H88.5781V201.326H91.6381V217.374H87.5921V211.458H79.5001V217.374H75.4881ZM79.5001 207.208H87.5921V202.584H84.5661V199.626H82.5261V202.584H79.5001V207.208ZM95.7752 217.374V195.376H99.7872V198.368H102.779V201.326H105.873V210.2H107.879V195.376H111.925V217.374H107.879V214.45H104.887V211.458H101.793V202.584H99.7872V217.374H95.7752ZM122.869 217.374V201.326H125.895V198.368H128.887V195.376H132.967V198.368H135.959V201.326H139.019V217.374H134.973V211.458H126.881V217.374H122.869ZM126.881 207.208H134.973V202.584H131.947V199.626H129.907V202.584H126.881V207.208ZM147.149 217.374V199.626H145.143V202.584H141.131V198.368H144.157V195.376H154.221V198.368H157.281V202.584H153.235V199.626H151.229V217.374H147.149ZM165.41 217.374V199.626H163.404V202.584H159.392V198.368H162.418V195.376H172.482V198.368H175.542V202.584H171.496V199.626H169.49V217.374H165.41ZM181.676 217.374V214.45H178.65V198.368H181.676V195.376H191.74V198.368H194.8V202.584H190.754V199.626H182.662V204.284H188.748V208.466H182.662V213.158H190.754V210.2H194.8V214.45H191.74V217.374H181.676ZM198.937 217.374V198.368H201.963V195.376H205.975V198.368H209.035V204.284H211.041V198.368H214.101V195.376H218.147V198.368H221.139V217.374H217.161V199.626H215.087V205.542H212.027V214.45H208.015V205.542H204.955V199.626H202.949V217.374H198.937ZM225.301 217.374V198.368H228.327V195.376H238.391V198.368H241.451V208.466H238.391V211.458H229.313V217.374H225.301ZM229.313 207.208H237.405V199.626H229.313V207.208ZM250.942 217.374V199.626H248.936V202.584H244.924V198.368H247.95V195.376H258.014V198.368H261.074V202.584H257.028V199.626H255.022V217.374H250.942ZM272.017 217.374V201.326H275.043V198.368H278.035V195.376H282.115V198.368H285.107V201.326H288.167V217.374H284.121V211.458H276.029V217.374H272.017ZM276.029 207.208H284.121V202.584H281.095V199.626H279.055V202.584H276.029V207.208ZM296.297 217.374V199.626H294.291V202.584H290.279V198.368H293.305V195.376H303.369V198.368H306.429V202.584H302.383V199.626H300.377V217.374H296.297ZM317.373 217.374V201.326H320.399V198.368H323.391V195.376H327.471V198.368H330.463V201.326H333.523V217.374H329.477V211.458H321.385V217.374H317.373ZM321.385 207.208H329.477V202.584H326.451V199.626H324.411V202.584H321.385V207.208ZM48.5271 258.374V236.376H58.6251V239.368H61.6171V242.326H64.6771V252.458H61.6171V255.45H58.6251V258.374H48.5271ZM52.5391 254.158H57.6051V251.2H60.6311V243.584H57.6051V240.626H52.5391V254.158ZM67.1209 258.374V254.158H70.1469V240.626H67.1209V236.376H77.2189V240.626H74.1589V254.158H77.2189V258.374H67.1209ZM84.391 258.374V255.45H81.365V239.368H84.391V236.376H94.455V239.368H97.515V246.542H93.469V240.626H85.377V254.158H93.469V252.458H90.443V249.466H87.383V245.284H91.463V248.208H97.515V255.45H94.455V258.374H84.391ZM101.652 258.374V254.158H104.678V240.626H101.652V236.376H111.75V240.626H108.69V254.158H111.75V258.374H101.652ZM121.914 258.374V240.626H119.908V243.584H115.896V239.368H118.922V236.376H128.986V239.368H132.046V243.584H128V240.626H125.994V258.374H121.914ZM134.822 258.374V242.326H137.848V239.368H140.84V236.376H144.92V239.368H147.912V242.326H150.972V258.374H146.926V252.458H138.834V258.374H134.822ZM138.834 248.208H146.926V243.584H143.9V240.626H141.86V243.584H138.834V248.208ZM158.135 258.374V255.45H155.109V236.376H159.121V254.158H167.213V251.2H171.259V255.45H168.199V258.374H158.135ZM182.203 258.374V239.368H185.229V236.376H195.293V239.368H198.353V249.466H195.293V252.458H186.215V258.374H182.203ZM186.215 248.208H194.307V240.626H186.215V248.208ZM205.516 258.374V255.45H202.49V239.368H205.516V236.376H215.58V239.368H218.64V243.584H214.594V240.626H206.502V245.284H212.588V249.466H206.502V254.158H214.594V251.2H218.64V255.45H215.58V258.374H205.516ZM228.795 258.374V240.626H226.789V243.584H222.777V239.368H225.803V236.376H235.867V239.368H238.927V243.584H234.881V240.626H232.875V258.374H228.795ZM241.703 258.374V239.368H244.729V236.376H254.793V239.368H257.853V249.466H254.793V252.458H253.331V254.158H256.323V258.374H252.345V255.45H249.251V252.458H245.715V258.374H241.703ZM245.715 248.208H253.807V240.626H245.715V248.208ZM261.99 258.374V254.158H265.016V240.626H261.99V236.376H272.088V240.626H269.028V254.158H272.088V258.374H261.99ZM283.041 258.374V236.376H293.139V239.368H296.131V242.326H299.191V252.458H296.131V255.45H293.139V258.374H283.041ZM287.053 254.158H292.119V251.2H295.145V243.584H292.119V240.626H287.053V254.158ZM301.635 258.374V254.158H304.661V240.626H301.635V236.376H311.733V240.626H308.673V254.158H311.733V258.374H301.635ZM318.905 258.374V255.45H315.879V251.2H319.891V254.158H327.983V249.466H318.905V246.542H315.879V239.368H318.905V236.376H328.969V239.368H332.029V243.584H327.983V240.626H319.891V245.284H328.969V248.208H332.029V255.45H328.969V258.374H318.905ZM336.166 258.374V236.376H340.178V245.284H342.184V242.326H346.264V245.284H348.27V236.376H352.316V258.374H348.27V249.466H340.178V258.374H336.166ZM356.453 258V253.75H360.465V258H356.453Z" fill="#1A1A1A"/>
<path d="M192.75 405C190.047 405.606 187.418 406.502 184.907 407.673C141.083 428.155 113 485.432 113 534.503C113 581.143 148.013 619.467 192.75 623.702V405ZM209.25 623.702C253.987 619.467 289 581.154 289 534.514C289 530.041 288.769 525.516 288.307 520.94L209.25 600.008V623.702ZM269.86 461.067C265.64 453.154 260.706 445.643 255.12 438.627L209.25 484.497V521.677L269.86 461.067ZM243.988 426.417C236.101 418.749 227.017 412.418 217.093 407.673C214.582 406.502 211.953 405.606 209.25 405V461.166L243.988 426.417ZM277.296 476.951L209.25 545.008V576.666L283.5 502.416L284.952 500.964C283.016 492.776 280.457 484.748 277.296 476.951Z" fill="black"/>
</svg>
