<svg width="408" height="988" viewBox="0 0 408 988" fill="none" xmlns="http://www.w3.org/2000/svg">
<rect x="2" y="2" width="404" height="984" rx="12" fill="#4AE3B5" stroke="#4AE3B5" stroke-width="4" stroke-linejoin="round"/>
<path d="M99.95 326C101.95 326 103.625 326.781 104.976 328.343C106.326 329.905 107.001 331.763 107 333.916C107 334.296 106.98 334.67 106.94 335.04C106.9 335.41 106.83 335.774 106.73 336.132H99.23L97.22 332.902H95.06L93.44 338.348L92.03 336.132H83.27C83.17 335.773 83.1 335.409 83.06 335.04C83.02 334.671 83 334.307 83 333.947C83 331.773 83.67 329.905 85.01 328.343C86.35 326.781 88.02 326 90.02 326C90.98 326 91.8852 326.201 92.7356 326.602C93.586 327.003 94.3408 327.562 95 328.28C95.64 327.562 96.3852 327.003 97.2356 326.602C98.086 326.201 98.9908 326 99.95 326ZM94.97 350L85.04 339.456C84.92 339.33 84.81 339.203 84.71 339.077C84.61 338.95 84.51 338.813 84.41 338.665H90.74L92.81 341.926H94.94L96.56 336.449L97.94 338.665H105.56L105.26 339.045L104.96 339.425L94.97 350Z" fill="#1A1A1A"/>
<path fill-rule="evenodd" clip-rule="evenodd" d="M283 336.8C283.003 339.397 282.161 341.924 280.6 344V346.4C280.6 347.355 280.221 348.27 279.546 348.946C278.87 349.621 277.955 350 277 350V348.8C277 348.482 276.874 348.176 276.649 347.951C276.423 347.726 276.118 347.6 275.8 347.6C275.482 347.6 275.177 347.726 274.951 347.951C274.726 348.176 274.6 348.482 274.6 348.8V350H272.2V348.8C272.2 348.482 272.074 348.176 271.849 347.951C271.623 347.726 271.318 347.6 271 347.6C270.682 347.6 270.377 347.726 270.151 347.951C269.926 348.176 269.8 348.482 269.8 348.8V350H267.4V348.8C267.4 348.482 267.274 348.176 267.049 347.951C266.823 347.726 266.518 347.6 266.2 347.6C265.882 347.6 265.577 347.726 265.351 347.951C265.126 348.176 265 348.482 265 348.8V350C264.045 350 263.13 349.621 262.454 348.946C261.779 348.27 261.4 347.355 261.4 346.4V344C259.839 341.924 258.997 339.397 259 336.8C259 333.465 260.363 330.73 262.588 328.848C264.794 326.98 267.782 326 271 326C274.218 326 277.206 326.98 279.412 328.848C281.636 330.73 283 333.464 283 336.8ZM266.2 334.4C265.563 334.4 264.953 334.653 264.503 335.103C264.053 335.553 263.8 336.163 263.8 336.8C263.8 337.437 264.053 338.047 264.503 338.497C264.953 338.947 265.563 339.2 266.2 339.2C266.837 339.2 267.447 338.947 267.897 338.497C268.347 338.047 268.6 337.437 268.6 336.8C268.6 336.163 268.347 335.553 267.897 335.103C267.447 334.653 266.837 334.4 266.2 334.4ZM272.073 340.898C271.87 340.592 271.456 340.4 271 340.4C270.544 340.4 270.13 340.592 269.927 340.898L268.727 342.698C268.636 342.829 268.592 342.986 268.601 343.145C268.61 343.304 268.673 343.455 268.779 343.574C268.998 343.838 269.384 344 269.8 344H272.2C272.616 344 273.002 343.838 273.22 343.573C273.326 343.454 273.389 343.303 273.398 343.144C273.408 342.985 273.364 342.827 273.273 342.697L272.073 340.897V340.898ZM273.4 336.8C273.4 336.163 273.653 335.553 274.103 335.103C274.553 334.653 275.163 334.4 275.8 334.4C276.437 334.4 277.047 334.653 277.497 335.103C277.947 335.553 278.2 336.163 278.2 336.8C278.2 337.437 277.947 338.047 277.497 338.497C277.047 338.947 276.437 339.2 275.8 339.2C275.163 339.2 274.553 338.947 274.103 338.497C273.653 338.047 273.4 337.437 273.4 336.8Z" fill="#1A1A1A"/>
<path d="M106.752 98.646V95.55H103.548V91.05H107.796V94.182H116.364V89.214H106.752V86.118H103.548V78.522H106.752V75.354H117.408V78.522H120.648V82.986H116.364V79.854H107.796V84.786H117.408V87.882H120.648V95.55H117.408V98.646H106.752ZM125.028 98.646V94.182H128.232V79.854H125.028V75.354H135.72V79.854H132.48V94.182H135.72V98.646H125.028ZM140.11 98.646V78.522H143.314V75.354H147.562V78.522H150.802V84.786H152.926V78.522H156.166V75.354H160.45V78.522H163.618V98.646H159.406V79.854H157.21V86.118H153.97V95.55H149.722V86.118H146.482V79.854H144.358V98.646H140.11ZM171.228 98.646V95.55H168.024V75.354H172.272V94.182H180.84V75.354H185.124V95.55H181.884V98.646H171.228ZM192.709 98.646V95.55H189.505V75.354H193.753V94.182H202.321V91.05H206.605V95.55H203.365V98.646H192.709ZM210.985 98.646V81.654H214.189V78.522H217.357V75.354H221.677V78.522H224.845V81.654H228.085V98.646H223.801V92.382H215.233V98.646H210.985ZM215.233 87.882H223.801V82.986H220.597V79.854H218.437V82.986H215.233V87.882ZM236.693 98.646V79.854H234.569V82.986H230.321V78.522H233.525V75.354H244.181V78.522H247.421V82.986H243.137V79.854H241.013V98.646H236.693ZM251.801 98.646V94.182H255.005V79.854H251.801V75.354H262.493V79.854H259.253V94.182H262.493V98.646H251.801ZM266.884 98.646V75.354H271.132V78.522H274.3V81.654H277.576V91.05H279.7V75.354H283.984V98.646H279.7V95.55H276.532V92.382H273.256V82.986H271.132V98.646H266.884ZM291.568 98.646V95.55H288.364V78.522H291.568V75.354H302.224V78.522H305.464V86.118H301.18V79.854H292.612V94.182H301.18V92.382H297.976V89.214H294.736V84.786H299.056V87.882H305.464V95.55H302.224V98.646H291.568ZM133.132 141.646V118.354H137.38V121.522H140.548V124.654H143.824V134.05H145.948V118.354H150.232V141.646H145.948V138.55H142.78V135.382H139.504V125.986H137.38V141.646H133.132ZM154.612 141.646V124.654H157.816V121.522H160.984V118.354H165.304V121.522H168.472V124.654H171.712V141.646H167.428V135.382H158.86V141.646H154.612ZM158.86 130.882H167.428V125.986H164.224V122.854H162.064V125.986H158.86V130.882ZM180.32 141.646V122.854H178.196V125.986H173.948V121.522H177.152V118.354H187.808V121.522H191.048V125.986H186.764V122.854H184.64V141.646H180.32ZM197.543 141.646V138.55H194.339V118.354H198.587V137.182H207.155V118.354H211.439V138.55H208.199V141.646H197.543ZM215.819 141.646V121.522H219.023V118.354H229.679V121.522H232.919V132.214H229.679V135.382H228.131V137.182H231.299V141.646H227.087V138.55H223.811V135.382H220.067V141.646H215.819ZM220.067 130.882H228.635V122.854H220.067V130.882ZM237.3 141.646V124.654H240.504V121.522H243.672V118.354H247.992V121.522H251.16V124.654H254.4V141.646H250.116V135.382H241.548V141.646H237.3ZM241.548 130.882H250.116V125.986H246.912V122.854H244.752V125.986H241.548V130.882ZM261.984 141.646V138.55H258.78V118.354H263.028V137.182H271.596V134.05H275.88V138.55H272.64V141.646H261.984ZM116.982 184.646V181.55H113.778V177.05H118.026V180.182H126.594V175.214H116.982V172.118H113.778V164.522H116.982V161.354H127.638V164.522H130.878V168.986H126.594V165.854H118.026V170.786H127.638V173.882H130.878V181.55H127.638V184.646H116.982ZM138.463 184.646V181.55H135.259V164.522H138.463V161.354H149.119V164.522H152.359V168.986H148.075V165.854H139.507V170.786H145.951V175.214H139.507V180.182H148.075V177.05H152.359V181.55H149.119V184.646H138.463ZM159.943 184.646V181.55H156.739V161.354H160.987V180.182H169.555V177.05H173.839V181.55H170.599V184.646H159.943ZM181.423 184.646V181.55H178.219V164.522H181.423V161.354H192.079V164.522H195.319V168.986H191.035V165.854H182.467V170.786H188.911V175.214H182.467V180.182H191.035V177.05H195.319V181.55H192.079V184.646H181.423ZM202.904 184.646V181.55H199.7V164.522H202.904V161.354H213.56V164.522H216.8V172.118H212.516V165.854H203.948V180.182H212.516V173.882H216.8V181.55H213.56V184.646H202.904ZM226.463 184.646V165.854H224.339V168.986H220.091V164.522H223.295V161.354H233.951V164.522H237.191V168.986H232.907V165.854H230.783V184.646H226.463ZM241.571 184.646V180.182H244.775V165.854H241.571V161.354H252.263V165.854H249.023V180.182H252.263V184.646H241.571ZM259.857 184.646V181.55H256.653V164.522H259.857V161.354H270.513V164.522H273.753V181.55H270.513V184.646H259.857ZM260.901 180.182H269.469V165.854H260.901V180.182ZM278.134 184.646V161.354H282.382V164.522H285.55V167.654H288.826V177.05H290.95V161.354H295.234V184.646H290.95V181.55H287.782V178.382H284.506V168.986H282.382V184.646H278.134ZM92.232 227.646V224.55H89.028V204.354H93.276V223.182H95.4V216.882H98.64V207.522H102.888V216.882H106.128V223.182H108.324V204.354H112.536V224.55H109.368V227.646H105.084V224.55H101.844V218.214H99.72V224.55H96.48V227.646H92.232ZM116.942 227.646V223.182H120.146V208.854H116.942V204.354H127.634V208.854H124.394V223.182H127.634V227.646H116.942ZM138.396 227.646V208.854H136.272V211.986H132.024V207.522H135.228V204.354H145.884V207.522H149.124V211.986H144.84V208.854H142.716V227.646H138.396ZM152.415 227.646V204.354H156.663V213.786H158.787V210.654H163.107V213.786H165.231V204.354H169.515V227.646H165.231V218.214H156.663V227.646H152.415ZM184.306 227.646V224.55H181.102V207.522H184.306V204.354H194.962V207.522H198.202V215.118H193.918V208.854H185.35V223.182H193.918V221.382H190.714V218.214H187.474V213.786H191.794V216.882H198.202V224.55H194.962V227.646H184.306ZM205.787 227.646V224.55H202.583V207.522H205.787V204.354H216.443V207.522H219.683V211.986H215.399V208.854H206.831V213.786H213.275V218.214H206.831V223.182H215.399V220.05H219.683V224.55H216.443V227.646H205.787ZM224.063 227.646V204.354H228.311V207.522H231.479V210.654H234.755V220.05H236.879V204.354H241.163V227.646H236.879V224.55H233.711V221.382H230.435V211.986H228.311V227.646H224.063ZM248.748 227.646V224.55H245.544V207.522H248.748V204.354H259.404V207.522H262.644V211.986H258.36V208.854H249.792V213.786H256.236V218.214H249.792V223.182H258.36V220.05H262.644V224.55H259.404V227.646H248.748ZM273.396 227.646V208.854H271.272V211.986H267.024V207.522H270.228V204.354H280.884V207.522H284.124V211.986H279.84V208.854H277.716V227.646H273.396ZM288.505 227.646V223.182H291.709V208.854H288.505V204.354H299.197V208.854H295.957V223.182H299.197V227.646H288.505ZM306.088 227.646V224.55H302.884V207.522H306.088V204.354H316.744V207.522H319.984V215.118H315.7V208.854H307.132V223.182H315.7V216.882H319.984V224.55H316.744V227.646H306.088ZM110.561 270.646V253.654H113.765V250.522H116.933V247.354H121.253V250.522H124.421V253.654H127.661V270.646H123.377V264.382H114.809V270.646H110.561ZM114.809 259.882H123.377V254.986H120.173V251.854H118.013V254.986H114.809V259.882ZM135.246 270.646V267.55H132.042V247.354H136.29V266.182H144.858V263.05H149.142V267.55H145.902V270.646H135.246ZM156.726 270.646V267.55H153.522V250.522H156.726V247.354H167.382V250.522H170.622V258.118H166.338V251.854H157.77V266.182H166.338V264.382H163.134V261.214H159.894V256.786H164.214V259.882H170.622V267.55H167.382V270.646H156.726ZM178.207 270.646V267.55H175.003V250.522H178.207V247.354H188.863V250.522H192.103V267.55H188.863V270.646H178.207ZM179.251 266.182H187.819V251.854H179.251V266.182ZM196.483 270.646V250.522H199.687V247.354H210.343V250.522H213.583V261.214H210.343V264.382H208.795V266.182H211.963V270.646H207.751V267.55H204.475V264.382H200.731V270.646H196.483ZM200.731 259.882H209.299V251.854H200.731V259.882ZM217.964 270.646V266.182H221.168V251.854H217.964V247.354H228.656V251.854H225.416V266.182H228.656V270.646H217.964ZM239.418 270.646V251.854H237.294V254.986H233.046V250.522H236.25V247.354H246.906V250.522H250.146V254.986H245.862V251.854H243.738V270.646H239.418ZM253.436 270.646V247.354H257.684V256.786H259.808V253.654H264.128V256.786H266.252V247.354H270.536V270.646H266.252V261.214H257.684V270.646H253.436ZM274.917 270.646V250.522H278.121V247.354H282.369V250.522H285.609V256.786H287.733V250.522H290.973V247.354H295.257V250.522H298.425V270.646H294.213V251.854H292.017V258.118H288.777V267.55H284.529V258.118H281.289V251.854H279.165V270.646H274.917Z" fill="#1A1A1A"/>
</svg>
