<svg width="217" height="214" viewBox="0 0 217 214" fill="none" xmlns="http://www.w3.org/2000/svg">
<ellipse cx="112.5" cy="102.5" rx="103.5" ry="102.5" fill="#1A1A1A"/>
<circle cx="81" cy="7" r="1" fill="#D2D6DB"/>
<circle cx="97" cy="7" r="1" fill="#D2D6DB"/>
<circle cx="113" cy="7" r="1" fill="#D2D6DB"/>
<circle cx="129" cy="7" r="1" fill="#D2D6DB"/>
<circle cx="145" cy="7" r="1" fill="#D2D6DB"/>
<circle cx="65" cy="23" r="1" fill="#D2D6DB"/>
<circle cx="81" cy="23" r="1" fill="#D2D6DB"/>
<circle cx="97" cy="23" r="1" fill="#D2D6DB"/>
<circle cx="113" cy="23" r="1" fill="#D2D6DB"/>
<circle cx="129" cy="23" r="1" fill="#D2D6DB"/>
<circle cx="145" cy="23" r="1" fill="#D2D6DB"/>
<circle cx="161" cy="23" r="1" fill="#D2D6DB"/>
<circle cx="33" cy="39" r="1" fill="#D2D6DB"/>
<circle cx="49" cy="39" r="1" fill="#D2D6DB"/>
<circle cx="65" cy="39" r="1" fill="#D2D6DB"/>
<circle cx="81" cy="39" r="1" fill="#D2D6DB"/>
<circle cx="97" cy="39" r="1" fill="#D2D6DB"/>
<circle cx="113" cy="39" r="1" fill="#D2D6DB"/>
<circle cx="129" cy="39" r="1" fill="#D2D6DB"/>
<circle cx="145" cy="39" r="1" fill="#D2D6DB"/>
<circle cx="161" cy="39" r="1" fill="#D2D6DB"/>
<circle cx="177" cy="39" r="1" fill="#D2D6DB"/>
<circle cx="33" cy="55" r="1" fill="#D2D6DB"/>
<circle cx="49" cy="55" r="1" fill="#D2D6DB"/>
<circle cx="65" cy="55" r="1" fill="#D2D6DB"/>
<circle cx="81" cy="55" r="1" fill="#D2D6DB"/>
<circle cx="97" cy="55" r="1" fill="#D2D6DB"/>
<circle cx="113" cy="55" r="1" fill="#D2D6DB"/>
<circle cx="129" cy="55" r="1" fill="#D2D6DB"/>
<circle cx="145" cy="55" r="1" fill="#D2D6DB"/>
<circle cx="161" cy="55" r="1" fill="#D2D6DB"/>
<circle cx="177" cy="55" r="1" fill="#D2D6DB"/>
<circle cx="193" cy="55" r="1" fill="#D2D6DB"/>
<circle cx="17" cy="71" r="1" fill="#D2D6DB"/>
<circle cx="33" cy="71" r="1" fill="#D2D6DB"/>
<circle cx="49" cy="71" r="1" fill="#D2D6DB"/>
<circle cx="65" cy="71" r="1" fill="#D2D6DB"/>
<circle cx="81" cy="71" r="1" fill="#D2D6DB"/>
<circle cx="97" cy="71" r="1" fill="#D2D6DB"/>
<circle cx="113" cy="71" r="1" fill="#D2D6DB"/>
<circle cx="129" cy="71" r="1" fill="#D2D6DB"/>
<circle cx="145" cy="71" r="1" fill="#D2D6DB"/>
<circle cx="161" cy="71" r="1" fill="#D2D6DB"/>
<circle cx="177" cy="71" r="1" fill="#D2D6DB"/>
<circle cx="193" cy="71" r="1" fill="#D2D6DB"/>
<circle cx="209" cy="71" r="1" fill="#D2D6DB"/>
<circle cx="17" cy="87" r="1" fill="#D2D6DB"/>
<circle cx="33" cy="87" r="1" fill="#D2D6DB"/>
<circle cx="49" cy="87" r="1" fill="#D2D6DB"/>
<circle cx="65" cy="87" r="1" fill="#D2D6DB"/>
<circle cx="81" cy="87" r="1" fill="#D2D6DB"/>
<circle cx="97" cy="87" r="1" fill="#D2D6DB"/>
<circle cx="113" cy="87" r="1" fill="#D2D6DB"/>
<circle cx="129" cy="87" r="1" fill="#D2D6DB"/>
<circle cx="145" cy="87" r="1" fill="#D2D6DB"/>
<circle cx="161" cy="87" r="1" fill="#D2D6DB"/>
<circle cx="177" cy="87" r="1" fill="#D2D6DB"/>
<circle cx="193" cy="87" r="1" fill="#D2D6DB"/>
<circle cx="209" cy="87" r="1" fill="#D2D6DB"/>
<circle cx="17" cy="103" r="1" fill="#D2D6DB"/>
<circle cx="33" cy="103" r="1" fill="#D2D6DB"/>
<circle cx="49" cy="103" r="1" fill="#D2D6DB"/>
<circle cx="65" cy="103" r="1" fill="#D2D6DB"/>
<circle cx="81" cy="103" r="1" fill="#D2D6DB"/>
<circle cx="97" cy="103" r="1" fill="#D2D6DB"/>
<circle cx="113" cy="103" r="1" fill="#D2D6DB"/>
<circle cx="129" cy="103" r="1" fill="#D2D6DB"/>
<circle cx="145" cy="103" r="1" fill="#D2D6DB"/>
<circle cx="161" cy="103" r="1" fill="#D2D6DB"/>
<circle cx="177" cy="103" r="1" fill="#D2D6DB"/>
<circle cx="193" cy="103" r="1" fill="#D2D6DB"/>
<circle cx="209" cy="103" r="1" fill="#D2D6DB"/>
<circle cx="17" cy="119" r="1" fill="#D2D6DB"/>
<circle cx="33" cy="119" r="1" fill="#D2D6DB"/>
<circle cx="49" cy="119" r="1" fill="#D2D6DB"/>
<circle cx="65" cy="119" r="1" fill="#D2D6DB"/>
<circle cx="81" cy="119" r="1" fill="#D2D6DB"/>
<circle cx="97" cy="119" r="1" fill="#D2D6DB"/>
<circle cx="113" cy="119" r="1" fill="#D2D6DB"/>
<circle cx="129" cy="119" r="1" fill="#D2D6DB"/>
<circle cx="145" cy="119" r="1" fill="#D2D6DB"/>
<circle cx="161" cy="119" r="1" fill="#D2D6DB"/>
<circle cx="177" cy="119" r="1" fill="#D2D6DB"/>
<circle cx="193" cy="119" r="1" fill="#D2D6DB"/>
<circle cx="209" cy="119" r="1" fill="#D2D6DB"/>
<circle cx="17" cy="135" r="1" fill="#D2D6DB"/>
<circle cx="33" cy="135" r="1" fill="#D2D6DB"/>
<circle cx="49" cy="135" r="1" fill="#D2D6DB"/>
<circle cx="65" cy="135" r="1" fill="#D2D6DB"/>
<circle cx="81" cy="135" r="1" fill="#D2D6DB"/>
<circle cx="97" cy="135" r="1" fill="#D2D6DB"/>
<circle cx="113" cy="135" r="1" fill="#D2D6DB"/>
<circle cx="129" cy="135" r="1" fill="#D2D6DB"/>
<circle cx="145" cy="135" r="1" fill="#D2D6DB"/>
<circle cx="161" cy="135" r="1" fill="#D2D6DB"/>
<circle cx="177" cy="135" r="1" fill="#D2D6DB"/>
<circle cx="193" cy="135" r="1" fill="#D2D6DB"/>
<circle cx="209" cy="135" r="1" fill="#D2D6DB"/>
<circle cx="33" cy="151" r="1" fill="#D2D6DB"/>
<circle cx="49" cy="151" r="1" fill="#D2D6DB"/>
<circle cx="65" cy="151" r="1" fill="#D2D6DB"/>
<circle cx="81" cy="151" r="1" fill="#D2D6DB"/>
<circle cx="97" cy="151" r="1" fill="#D2D6DB"/>
<circle cx="113" cy="151" r="1" fill="#D2D6DB"/>
<circle cx="129" cy="151" r="1" fill="#D2D6DB"/>
<circle cx="145" cy="151" r="1" fill="#D2D6DB"/>
<circle cx="161" cy="151" r="1" fill="#D2D6DB"/>
<circle cx="177" cy="151" r="1" fill="#D2D6DB"/>
<circle cx="193" cy="151" r="1" fill="#D2D6DB"/>
<circle cx="33" cy="167" r="1" fill="#D2D6DB"/>
<circle cx="49" cy="167" r="1" fill="#D2D6DB"/>
<circle cx="65" cy="167" r="1" fill="#D2D6DB"/>
<circle cx="81" cy="167" r="1" fill="#D2D6DB"/>
<circle cx="97" cy="167" r="1" fill="#D2D6DB"/>
<circle cx="113" cy="167" r="1" fill="#D2D6DB"/>
<circle cx="129" cy="167" r="1" fill="#D2D6DB"/>
<circle cx="145" cy="167" r="1" fill="#D2D6DB"/>
<circle cx="161" cy="167" r="1" fill="#D2D6DB"/>
<circle cx="177" cy="167" r="1" fill="#D2D6DB"/>
<circle cx="193" cy="167" r="1" fill="#D2D6DB"/>
<circle cx="49" cy="183" r="1" fill="#D2D6DB"/>
<circle cx="65" cy="183" r="1" fill="#D2D6DB"/>
<circle cx="81" cy="183" r="1" fill="#D2D6DB"/>
<circle cx="97" cy="183" r="1" fill="#D2D6DB"/>
<circle cx="113" cy="183" r="1" fill="#D2D6DB"/>
<circle cx="129" cy="183" r="1" fill="#D2D6DB"/>
<circle cx="145" cy="183" r="1" fill="#D2D6DB"/>
<circle cx="161" cy="183" r="1" fill="#D2D6DB"/>
<circle cx="177" cy="183" r="1" fill="#D2D6DB"/>
<circle cx="81" cy="199" r="1" fill="#D2D6DB"/>
<circle cx="97" cy="199" r="1" fill="#D2D6DB"/>
<circle cx="113" cy="199" r="1" fill="#D2D6DB"/>
<circle cx="129" cy="199" r="1" fill="#D2D6DB"/>
<circle cx="145" cy="199" r="1" fill="#D2D6DB"/>
</svg>
