<svg width="299" height="34" viewBox="0 0 299 34" fill="none" xmlns="http://www.w3.org/2000/svg">
<rect width="299" height="34" fill="#4AE3B5"/>
<path d="M1.68 26.336V13.4H4.228V10.88H6.748V8.332H9.604V10.88H12.124V13.4H14.7V26.336H11.844V21.268H4.508V26.336H1.68ZM4.508 18.44H11.844V13.68H9.324V11.16H7.028V13.68H4.508V18.44ZM20.0874 26.336V23.816H17.5394V15.948H20.0874V13.4H27.9834V15.948H30.5594V18.72H27.7034V16.2H20.3674V23.536H27.7034V20.988H30.5594V23.816H27.9834V26.336H20.0874ZM37.6191 26.336V23.816H35.0991V16.2H32.5511V13.4H35.0991V8.332H37.8991V13.4H45.5711V16.2H37.8991V23.536H45.2911V20.988H48.1191V23.816H45.5711V26.336H37.6191ZM53.5014 26.336V23.816H50.9534V13.4H53.7814V23.536H61.1174V13.4H63.9734V23.816H61.3974V26.336H53.5014ZM69.3608 26.336V23.816H66.8128V15.948H69.3608V13.4H77.2568V15.948H79.8328V23.536H82.3808V26.336H79.5528V23.816H77.2568V26.336H69.3608ZM69.6408 23.536H76.9768V16.2H69.6408V23.536ZM87.7402 26.336V23.816H85.2202V16.2H82.6722V13.4H85.2202V8.332H88.0202V13.4H95.6922V16.2H88.0202V23.536H95.4122V20.988H98.2402V23.816H95.6922V26.336H87.7402ZM103.322 26.336V23.816H100.774V15.948H103.322V13.4H111.218V15.948H113.794V23.816H111.218V26.336H103.322ZM103.602 23.536H110.938V16.2H103.602V23.536ZM117.18 26.336V15.948H119.728V13.4H127.624V15.948H130.2V18.72H127.344V16.2H120.008V26.336H117.18ZM133.039 26.336V23.536H143.203V21.268H135.587V18.72H133.039V15.948H135.587V13.4H146.059V16.2H135.867V18.44H143.483V20.988H146.059V23.816H143.483V26.336H133.039ZM160.119 30.48V25.328H157.599V20.288H155.051V14.94H157.599V9.844H160.119V4.804H162.975V10.124H160.399V15.22H157.879V20.008H160.399V25.132H162.975V30.48H160.119ZM168.072 26.336V23.816H165.524V10.88H168.072V8.332H175.968V10.88H178.544V23.816H175.968V26.336H168.072ZM168.352 23.536H175.688V11.16H168.352V23.536ZM184.478 26.336V23.816H181.93V13.4H184.758V23.536H192.094V13.4H194.95V23.816H192.374V26.336H184.478ZM202.283 26.336V23.816H199.763V16.2H197.215V13.4H199.763V8.332H202.563V13.4H210.235V16.2H202.563V23.536H209.955V20.988H212.783V23.816H210.235V26.336H202.283ZM216.164 31.264V15.948H218.712V13.4H226.608V15.948H229.184V23.816H226.608V26.336H218.992V31.264H216.164ZM218.992 23.536H226.328V16.2H218.992V23.536ZM235.119 26.336V23.816H232.571V13.4H235.399V23.536H242.735V13.4H245.591V23.816H243.015V26.336H235.119ZM252.924 26.336V23.816H250.404V16.2H247.856V13.4H250.404V8.332H253.204V13.4H260.876V16.2H253.204V23.536H260.596V20.988H263.424V23.816H260.876V26.336H252.924ZM266.258 26.336V23.536H276.422V21.268H268.806V18.72H266.258V15.948H268.806V13.4H279.278V16.2H269.086V18.44H276.702V20.988H279.278V23.816H276.702V26.336H266.258ZM281.824 30.48V25.132H284.372V20.008H286.92V15.22H284.372V10.124H281.824V4.804H284.652V9.844H287.2V14.94H289.748V20.288H287.2V25.328H284.652V30.48H281.824Z" fill="#1A1A1A"/>
</svg>
