<svg width="519" height="34" viewBox="0 0 519 34" fill="none" xmlns="http://www.w3.org/2000/svg">
<rect width="519" height="34" fill="#1A1A1A"/>
<path d="M177.282 20.2V17.776H184.05V20.2H177.282ZM188.347 26.464V24.28H186.163V11.032H188.347V8.872H192.955V11.272H188.587V24.04H192.955V26.464H188.347ZM199.944 25.288V14.2H202.128V12.04H204.288V9.856H206.736V12.04H208.896V14.2H211.104V25.288H208.656V20.944H202.368V25.288H199.944ZM202.368 18.52H208.656V14.44H206.496V12.28H204.528V14.44H202.368V18.52ZM215.956 25.288V23.128H213.772V12.04H215.956V9.856H222.724V12.04H224.932V16.6H222.484V12.28H216.196V22.888H222.484V18.52H224.932V23.128H222.724V25.288H215.956ZM231.452 25.288V12.28H229.532V14.44H227.108V12.04H229.292V9.856H236.06V12.04H238.268V14.44H235.82V12.28H233.9V25.288H231.452ZM242.628 25.288V23.128H240.444V9.856H242.868V22.888H249.156V9.856H251.604V23.128H249.396V25.288H242.628ZM253.78 25.288V14.2H255.964V12.04H258.124V9.856H260.572V12.04H262.732V14.2H264.94V25.288H262.492V20.944H256.204V25.288H253.78ZM256.204 18.52H262.492V14.44H260.332V12.28H258.364V14.44H256.204V18.52ZM270.757 25.288V12.28H268.837V14.44H266.413V12.04H268.597V9.856H275.365V12.04H277.573V14.44H275.125V12.28H273.205V25.288H270.757ZM281.933 25.288V23.128H279.749V12.04H281.933V9.856H288.701V12.04H290.909V23.128H288.701V25.288H281.933ZM282.173 22.888H288.461V12.28H282.173V22.888ZM293.811 25.288V12.04H295.995V9.856H302.763V12.04H304.971V18.76H302.763V20.944H301.707V22.888H303.867V25.288H301.467V23.128H299.259V20.944H296.235V25.288H293.811ZM296.235 18.52H302.523V12.28H296.235V18.52ZM310.058 25.288V23.128H307.874V20.704H310.298V22.888H316.586V18.76H310.058V16.6H307.874V12.04H310.058V9.856H316.826V12.04H319.034V14.44H316.586V12.28H310.298V16.384H316.826V18.52H319.034V23.128H316.826V25.288H310.058ZM326.021 26.464V24.04H330.389V11.272H326.021V8.872H330.629V11.032H332.813V24.28H330.629V26.464H326.021ZM334.829 20.2V17.776H341.597V20.2H334.829Z" fill="#4AE3B5"/>
</svg>
