<svg width="432" height="138" viewBox="0 0 432 138" fill="none" xmlns="http://www.w3.org/2000/svg">
<rect width="432" height="138" fill="#4AE3B5"/>
<path d="M3.171 90.252V88.362H1.26V78.66H3.171V76.749H9.093V78.66H11.025V82.65H9.093V84.33H11.025V88.362H9.093V90.252H3.171ZM3.381 88.152H8.883V84.54H5.061V82.461H8.883V78.87H3.381V88.152ZM13.5647 90.252V80.55H15.6857V90.252H13.5647ZM13.5647 78.87V76.749H15.6857V78.87H13.5647ZM19.7208 90.252V88.362H17.8098V82.461H19.7208V80.55H25.6428V82.461H27.5748V88.152H29.4858V90.252H27.3648V88.362H25.6428V90.252H19.7208ZM19.9308 88.152H25.4328V82.65H19.9308V88.152ZM31.386 90.252V88.152H39.009V86.451H33.297V84.54H31.386V82.461H33.297V80.55H41.151V82.65H33.507V84.33H39.219V86.241H41.151V88.362H39.219V90.252H31.386ZM47.8948 90.252V88.152H55.5178V86.451H49.8058V84.54H47.8948V82.461H49.8058V80.55H57.6598V82.65H50.0158V84.33H55.7278V86.241H57.6598V88.362H55.7278V90.252H47.8948ZM60.1995 90.252V76.749H62.3205V82.461H64.0005V80.55H68.0325V82.461H69.9645V90.252H67.8225V82.65H64.2105V84.54H62.3205V90.252H60.1995ZM72.5041 90.252V80.55H74.6251V90.252H72.5041ZM72.5041 78.87V76.749H74.6251V78.87H72.5041ZM77.1594 90.252V78.66H79.0704V76.749H84.9924V78.66H86.9244V80.76H84.7824V78.87H79.2804V82.461H83.1024V84.54H79.2804V90.252H77.1594ZM91.3784 90.252V88.362H89.4884V82.65H87.5774V80.55H89.4884V76.749H91.5884V80.55H97.3424V82.65H91.5884V88.152H97.1324V86.241H99.2534V88.362H97.3424V90.252H91.3784ZM101.379 90.252V88.152H109.002V86.451H103.29V84.54H101.379V82.461H103.29V80.55H111.144V82.65H103.5V84.33H109.212V86.241H111.144V88.362H109.212V90.252H101.379ZM121.689 90.252V88.362H119.799V82.65H117.888V80.55H119.799V76.749H121.899V80.55H127.653V82.65H121.899V88.152H127.443V86.241H129.564V88.362H127.653V90.252H121.689ZM131.69 90.252V76.749H133.811V82.461H135.491V80.55H139.523V82.461H141.455V90.252H139.313V82.65H135.701V84.54H133.811V90.252H131.69ZM145.495 90.252V88.362H143.584V82.461H145.495V80.55H151.417V82.461H153.349V84.54H151.207V82.65H145.705V84.33H149.527V86.451H145.705V88.152H151.207V86.22H153.349V88.341H151.417V90.252H145.495ZM160.093 90.252V80.55H167.926V82.461H169.858V90.252H167.716V82.65H162.214V90.252H160.093ZM173.673 90.252V88.362H171.762V82.461H173.673V80.55H179.595V82.461H181.527V84.54H179.385V82.65H173.883V84.33H177.705V86.451H173.883V88.152H179.385V86.22H181.527V88.341H179.595V90.252H173.673ZM185.978 90.252V88.362H184.067V80.55H186.188V88.152H191.69V80.55H193.832V88.362H191.9V90.252H185.978ZM196.166 90.252V82.461H198.077V80.55H203.999V82.461H205.931V84.54H203.789V82.65H198.287V90.252H196.166ZM209.746 90.252V88.362H207.835V82.461H209.746V80.55H215.668V82.461H217.6V88.362H215.668V90.252H209.746ZM209.956 88.152H215.458V82.65H209.956V88.152ZM220.14 90.252V80.55H227.973V82.461H229.905V90.252H227.763V82.65H222.261V90.252H220.14ZM233.39 80.76V79.584H234.356V78.87H232.445V76.749H234.566V78.66H235.511V79.794H234.566V80.76H233.39ZM238.043 90.252V88.152H245.666V86.451H239.954V84.54H238.043V82.461H239.954V80.55H247.808V82.65H240.164V84.33H245.876V86.241H247.808V88.362H245.876V90.252H238.043ZM3.171 115.252V113.362H1.26V107.461H3.171V105.55H9.093V107.461H11.025V113.362H9.093V115.252H3.171ZM3.381 113.152H8.883V107.65H3.381V113.152ZM15.4757 115.252V113.362H13.5647V105.55H15.6857V113.152H21.1877V105.55H23.3297V113.362H21.3977V115.252H15.4757ZM28.8296 115.252V113.362H26.9396V107.65H25.0286V105.55H26.9396V101.749H29.0396V105.55H34.7936V107.65H29.0396V113.152H34.5836V111.241H36.7046V113.362H34.7936V115.252H28.8296ZM39.2405 118.948V107.461H41.1515V105.55H47.0735V107.461H49.0055V113.362H47.0735V115.252H41.3615V118.948H39.2405ZM41.3615 113.152H46.8635V107.65H41.3615V113.152ZM53.4562 115.252V113.362H51.5452V105.55H53.6662V113.152H59.1682V105.55H61.3102V113.362H59.3782V115.252H53.4562ZM66.81 115.252V113.362H64.92V107.65H63.009V105.55H64.92V101.749H67.02V105.55H72.774V107.65H67.02V113.152H72.564V111.241H74.685V113.362H72.774V115.252H66.81ZM85.226 115.252V113.362H83.336V107.65H81.425V105.55H83.336V101.749H85.436V105.55H91.19V107.65H85.436V113.152H90.98V111.241H93.101V113.362H91.19V115.252H85.226ZM96.9122 115.252V113.362H95.0012V107.461H96.9122V105.55H102.834V107.461H104.766V113.362H102.834V115.252H96.9122ZM97.1222 113.152H102.624V107.65H97.1222V113.152ZM111.51 115.252V101.749H113.631V107.461H115.311V105.55H119.343V107.461H121.275V115.252H119.133V107.65H115.521V109.54H113.631V115.252H111.51ZM125.316 115.252V113.362H123.405V107.461H125.316V105.55H131.238V107.461H133.17V109.54H131.028V107.65H125.526V109.33H129.348V111.451H125.526V113.152H131.028V111.22H133.17V113.341H131.238V115.252H125.316ZM135.709 115.252V101.749H137.83V115.252H135.709ZM140.364 118.948V107.461H142.275V105.55H148.197V107.461H150.129V113.362H148.197V115.252H142.485V118.948H140.364ZM142.485 113.152H147.987V107.65H142.485V113.152ZM156.873 115.252V105.55H158.994V115.252H156.873ZM156.873 103.87V101.749H158.994V103.87H156.873ZM164.694 115.252V113.362H162.804V107.65H160.893V105.55H162.804V101.749H164.904V105.55H170.658V107.65H164.904V113.152H170.448V111.241H172.569V113.362H170.658V115.252H164.694ZM181.22 115.252V113.362H179.309V107.461H181.22V105.55H187.142V107.461H189.074V113.152H190.985V115.252H188.864V113.362H187.142V115.252H181.22ZM181.43 113.152H186.932V107.65H181.43V113.152ZM194.386 115.252V113.362H192.475V107.461H194.386V105.55H200.308V107.461H202.24V109.54H200.098V107.65H194.596V113.152H200.098V111.241H202.24V113.362H200.308V115.252H194.386ZM207.535 115.252V113.362H205.645V107.65H203.734V105.55H205.645V101.749H207.745V105.55H213.499V107.65H207.745V113.152H213.289V111.241H215.41V113.362H213.499V115.252H207.535ZM217.946 115.252V105.55H220.067V115.252H217.946ZM217.946 103.87V101.749H220.067V103.87H217.946ZM226.213 115.252V113.362H224.302V109.54H222.391V105.55H224.512V109.33H226.402V113.152H228.124V109.33H230.014V105.55H232.156V109.54H230.224V113.362H228.334V115.252H226.213ZM235.771 115.252V113.362H233.86V107.461H235.771V105.55H241.693V107.461H243.625V113.152H245.536V115.252H243.415V113.362H241.693V115.252H235.771ZM235.981 113.152H241.483V107.65H235.981V113.152ZM249.555 115.252V113.362H247.665V107.65H245.754V105.55H247.665V101.749H249.765V105.55H255.519V107.65H249.765V113.152H255.309V111.241H257.43V113.362H255.519V115.252H249.555ZM261.241 115.252V113.362H259.33V107.461H261.241V105.55H267.163V107.461H269.095V109.54H266.953V107.65H261.451V109.33H265.273V111.451H261.451V113.152H266.953V111.22H269.095V113.341H267.163V115.252H261.241ZM271.635 115V112.879H273.756V115H271.635Z" fill="#1A1A1A"/>
<rect width="432" height="34" fill="#1A1A1A"/>
<path d="M124.243 20.2V17.776H131.011V20.2H124.243ZM135.308 26.464V24.28H133.124V11.032H135.308V8.872H139.916V11.272H135.548V24.04H139.916V26.464H135.308ZM149.089 25.288V23.128H146.905V12.04H149.089V9.856H155.857V12.04H158.065V16.6H155.857V18.52H158.065V23.128H155.857V25.288H149.089ZM149.329 22.888H155.617V18.76H151.249V16.384H155.617V12.28H149.329V22.888ZM160.967 25.288V22.888H163.151V12.28H160.967V9.856H167.759V12.28H165.551V22.888H167.759V25.288H160.967ZM170.67 25.288V14.2H172.854V12.04H175.014V9.856H177.462V12.04H179.622V14.2H181.83V25.288H179.382V20.944H173.094V25.288H170.67ZM173.094 18.52H179.382V14.44H177.222V12.28H175.254V14.44H173.094V18.52ZM186.917 25.288V23.128H184.733V20.704H187.157V22.888H193.445V18.76H186.917V16.6H184.733V12.04H186.917V9.856H193.685V12.04H195.893V14.44H193.445V12.28H187.157V16.384H193.685V18.52H195.893V23.128H193.685V25.288H186.917ZM203.6 25.288V9.856H206.024V12.04H208.184V14.2H210.392V20.704H212.312V9.856H214.76V25.288H212.312V23.128H210.152V20.944H207.944V14.44H206.024V25.288H203.6ZM219.847 25.288V23.128H217.663V12.04H219.847V9.856H226.615V12.04H228.823V14.44H226.375V12.28H220.087V16.384H224.455V18.76H220.087V22.888H226.375V20.704H228.823V23.128H226.615V25.288H219.847ZM233.909 25.288V23.128H231.725V9.856H234.149V22.888H240.437V9.856H242.885V23.128H240.677V25.288H233.909ZM245.788 25.288V12.04H247.972V9.856H254.74V12.04H256.948V18.76H254.74V20.944H253.684V22.888H255.844V25.288H253.444V23.128H251.236V20.944H248.212V25.288H245.788ZM248.212 18.52H254.5V12.28H248.212V18.52ZM262.034 25.288V23.128H259.85V12.04H262.034V9.856H268.802V12.04H271.01V23.128H268.802V25.288H262.034ZM262.274 22.888H268.562V12.28H262.274V22.888ZM273.913 25.288V9.856H276.337V12.04H278.497V14.2H280.705V20.704H282.625V9.856H285.073V25.288H282.625V23.128H280.465V20.944H278.257V14.44H276.337V25.288H273.913ZM292.06 26.464V24.04H296.428V11.272H292.06V8.872H296.668V11.032H298.852V24.28H296.668V26.464H292.06ZM300.868 20.2V17.776H307.636V20.2H300.868Z" fill="#4AE3B5"/>
</svg>
