<svg width="433" height="279" viewBox="0 0 433 279" fill="none" xmlns="http://www.w3.org/2000/svg">
<mask id="path-1-inside-1_238_1755" fill="white">
<rect width="433" height="279" rx="5"/>
</mask>
<rect width="433" height="279" rx="5" fill="black"/>
<rect width="433" height="279" rx="5" stroke="#4AE3B5" stroke-width="40" mask="url(#path-1-inside-1_238_1755)"/>
<rect width="433" height="279" rx="5" stroke="black" stroke-opacity="0.5" stroke-width="40" mask="url(#path-1-inside-1_238_1755)"/>
<path d="M173.022 147.259V145.315H171.057V133.37H173.238V145.099H178.897V143.134H181.101V145.315H179.113V147.259H173.022ZM185.024 147.259V145.315H183.059V139.246H185.024V137.28H191.116V139.246H193.103V145.315H191.116V147.259H185.024ZM185.24 145.099H190.9V139.44H185.24V145.099ZM197.681 147.259V145.315H195.715V139.246H197.681V137.28H203.772V139.246H205.759V145.099H207.725V147.259H205.543V145.315H203.772V147.259H197.681ZM197.897 145.099H203.556V139.44H197.897V145.099ZM211.223 147.259V145.315H209.257V139.246H211.223V137.28H217.12V133.37H219.301V145.315H217.314V147.259H211.223ZM211.439 145.099H217.098V139.44H211.439V145.099ZM221.914 147.259V137.28H224.095V147.259H221.914ZM221.914 135.552V133.37H224.095V135.552H221.914ZM226.28 147.259V137.28H234.337V139.246H236.324V147.259H234.121V139.44H228.462V147.259H226.28ZM240.48 151.169V149.225H238.514V147.065H240.696V149.009H246.377V145.315H240.48V143.35H238.514V139.246H240.48V137.28H246.593V139.246H248.558V149.225H246.593V151.169H240.48ZM240.696 143.134H246.377V139.44H240.696V143.134ZM251.171 147V144.818H253.352V147H251.171ZM255.959 147V144.818H258.14V147H255.959ZM260.747 147V144.818H262.929V147H260.747Z" fill="#4AE3B5"/>
</svg>
