<svg width="432" height="119" viewBox="0 0 432 119" fill="none" xmlns="http://www.w3.org/2000/svg">
<rect width="432" height="119" fill="#4AE3B5"/>
<path d="M1.26 88.252V74.749H3.381V80.461H5.061V78.55H7.203V80.461H8.883V74.749H11.025V88.252H8.883V82.54H3.381V88.252H1.26ZM13.5647 88.252V78.55H15.6857V88.252H13.5647ZM13.5647 76.87V74.749H15.6857V76.87H13.5647ZM20.131 88.252V86.362H18.22V80.461H20.131V78.55H25.864V74.749H27.985V86.362H26.053V88.252H20.131ZM20.341 86.152H25.843V80.65H20.341V86.152ZM32.0255 88.252V86.362H30.1145V80.461H32.0255V78.55H37.7585V74.749H39.8795V86.362H37.9475V88.252H32.0255ZM32.2355 86.152H37.7375V80.65H32.2355V86.152ZM43.92 88.252V86.362H42.009V80.461H43.92V78.55H49.842V80.461H51.774V82.54H49.632V80.65H44.13V82.33H47.952V84.451H44.13V86.152H49.632V84.22H51.774V86.341H49.842V88.252H43.92ZM54.3137 88.252V78.55H62.1467V80.461H64.0787V88.252H61.9367V80.65H56.4347V88.252H54.3137ZM70.8225 88.252V78.55H78.6555V80.461H80.5875V88.252H78.4455V80.65H72.9435V88.252H70.8225ZM84.4024 88.252V86.362H82.4914V80.461H84.4024V78.55H90.3244V80.461H92.2564V82.54H90.1144V80.65H84.6124V82.33H88.4344V84.451H84.6124V86.152H90.1144V84.22H92.2564V86.341H90.3244V88.252H84.4024ZM96.7071 88.252V86.362H94.7961V78.55H96.9171V86.152H102.419V78.55H104.561V86.362H102.629V88.252H96.7071ZM106.896 88.252V80.461H108.807V78.55H114.729V80.461H116.661V82.54H114.519V80.65H109.017V88.252H106.896ZM120.476 88.252V86.362H118.565V80.461H120.476V78.55H126.398V80.461H128.33V86.362H126.398V88.252H120.476ZM120.686 86.152H126.188V80.65H120.686V86.152ZM130.869 88.252V78.55H138.702V80.461H140.634V88.252H138.492V80.65H132.99V88.252H130.869ZM147.378 91.948V80.461H149.289V78.55H155.211V80.461H157.143V86.362H155.211V88.252H149.499V91.948H147.378ZM149.499 86.152H155.001V80.65H149.499V86.152ZM159.683 88.252V80.461H161.594V78.55H167.516V80.461H169.448V82.54H167.306V80.65H161.804V88.252H159.683ZM173.263 88.252V86.362H171.352V80.461H173.263V78.55H179.185V80.461H181.117V86.362H179.185V88.252H173.263ZM173.473 86.152H178.975V80.65H173.473V86.152ZM185.567 88.252V86.362H183.656V80.461H185.567V78.55H191.489V80.461H193.421V82.54H191.279V80.65H185.777V86.152H191.279V84.241H193.421V86.362H191.489V88.252H185.567ZM197.236 88.252V86.362H195.325V80.461H197.236V78.55H203.158V80.461H205.09V82.54H202.948V80.65H197.446V82.33H201.268V84.451H197.446V86.152H202.948V84.22H205.09V86.341H203.158V88.252H197.236ZM207.63 88.252V86.152H215.253V84.451H209.541V82.54H207.63V80.461H209.541V78.55H217.395V80.65H209.751V82.33H215.463V84.241H217.395V86.362H215.463V88.252H207.63ZM219.525 88.252V86.152H227.148V84.451H221.436V82.54H219.525V80.461H221.436V78.55H229.29V80.65H221.646V82.33H227.358V84.241H229.29V86.362H227.358V88.252H219.525ZM233.33 88.252V86.362H231.419V80.461H233.33V78.55H239.252V80.461H241.184V82.54H239.042V80.65H233.54V82.33H237.362V84.451H233.54V86.152H239.042V84.22H241.184V86.341H239.252V88.252H233.33ZM243.724 88.252V86.152H251.347V84.451H245.635V82.54H243.724V80.461H245.635V78.55H253.489V80.65H245.845V82.33H251.557V84.241H253.489V86.362H251.557V88.252H243.724ZM1.26 113.252V111.152H8.883V109.451H3.171V107.54H1.26V105.461H3.171V103.55H11.025V105.65H3.381V107.33H9.093V109.241H11.025V111.362H9.093V113.252H1.26ZM13.5647 113.252V103.55H15.6857V113.252H13.5647ZM13.5647 101.87V99.749H15.6857V101.87H13.5647ZM19.7208 117.053V115.163H17.8098V113.063H19.9308V114.953H25.4538V111.362H19.7208V109.451H17.8098V105.461H19.7208V103.55H25.6638V105.461H27.5748V115.163H25.6638V117.053H19.7208ZM19.9308 109.241H25.4538V105.65H19.9308V109.241ZM30.1145 113.252V103.55H37.9475V105.461H39.8795V113.252H37.7375V105.65H32.2355V113.252H30.1145ZM43.6944 113.252V111.362H41.7834V105.461H43.6944V103.55H49.6164V105.461H51.5484V111.152H53.4594V113.252H51.3384V111.362H49.6164V113.252H43.6944ZM43.9044 111.152H49.4064V105.65H43.9044V111.152ZM55.3596 113.252V99.749H57.4806V113.252H55.3596ZM59.6047 113.252V111.152H67.2277V109.451H61.5157V107.54H59.6047V105.461H61.5157V103.55H69.3697V105.65H61.7257V107.33H67.4377V109.241H69.3697V111.362H67.4377V113.252H59.6047ZM78.0245 113.252V111.362H76.1135V99.749H78.2345V103.55H83.9465V105.461H85.8785V111.362H83.9465V113.252H78.0245ZM78.2345 111.152H83.7365V105.65H78.2345V111.152ZM89.919 113.252V111.362H88.008V105.461H89.919V103.55H95.841V105.461H97.773V107.54H95.631V105.65H90.129V107.33H93.951V109.451H90.129V111.152H95.631V109.22H97.773V111.341H95.841V113.252H89.919ZM104.114 113.252V111.362H102.224V105.65H100.313V103.55H102.224V99.749H104.324V103.55H110.078V105.65H104.324V111.152H109.868V109.241H111.989V111.362H110.078V113.252H104.114ZM113.889 113.252V103.55H116.01V111.152H119.622V103.55H121.722V111.152H125.355V103.55H127.455V111.362H125.565V113.252H121.512V111.362H119.832V113.252H113.889ZM131.263 113.252V111.362H129.352V105.461H131.263V103.55H137.185V105.461H139.117V107.54H136.975V105.65H131.473V107.33H135.295V109.451H131.473V111.152H136.975V109.22H139.117V111.341H137.185V113.252H131.263ZM143.567 113.252V111.362H141.656V105.461H143.567V103.55H149.489V105.461H151.421V107.54H149.279V105.65H143.777V107.33H147.599V109.451H143.777V111.152H149.279V109.22H151.421V111.341H149.489V113.252H143.567ZM153.961 113.252V103.55H161.794V105.461H163.726V113.252H161.584V105.65H156.082V113.252H153.961ZM170.47 113.252V99.749H172.591V113.252H170.47ZM176.626 113.252V111.362H174.715V105.461H176.626V103.55H182.548V105.461H184.48V111.152H186.391V113.252H184.27V111.362H182.548V113.252H176.626ZM176.836 111.152H182.338V105.65H176.836V111.152ZM189.361 117.053V115.163H187.45V113.063H189.571V114.953H195.094V111.362H189.361V109.451H187.45V103.55H189.571V109.241H195.094V103.55H197.215V115.163H195.304V117.053H189.361ZM201.666 113.252V111.362H199.755V105.461H201.666V103.55H207.588V105.461H209.52V107.54H207.378V105.65H201.876V107.33H205.698V109.451H201.876V111.152H207.378V109.22H209.52V111.341H207.588V113.252H201.666ZM212.06 113.252V105.461H213.971V103.55H219.893V105.461H221.825V107.54H219.683V105.65H214.181V113.252H212.06ZM223.954 113.252V111.152H231.577V109.451H225.865V107.54H223.954V105.461H225.865V103.55H233.719V105.65H226.075V107.33H231.787V109.241H233.719V111.362H231.787V113.252H223.954ZM236.259 113V110.879H238.38V113H236.259Z" fill="#1A1A1A"/>
<rect width="432" height="34" fill="#1A1A1A"/>
<path d="M110.181 20.2V17.776H116.949V20.2H110.181ZM121.245 26.464V24.28H119.061V11.032H121.245V8.872H125.853V11.272H121.485V24.04H125.853V26.464H121.245ZM132.842 25.288V9.856H135.266V16.384H137.186V14.2H139.634V16.384H141.554V9.856H144.002V25.288H141.554V18.76H135.266V25.288H132.842ZM146.905 25.288V22.888H149.089V12.28H146.905V9.856H153.697V12.28H151.489V22.888H153.697V25.288H146.905ZM156.608 25.288V9.856H163.4V12.04H165.56V14.2H167.768V20.944H165.56V23.128H163.4V25.288H156.608ZM159.032 22.888H163.16V20.704H165.32V14.44H163.16V12.28H159.032V22.888ZM170.67 25.288V9.856H177.462V12.04H179.622V14.2H181.83V20.944H179.622V23.128H177.462V25.288H170.67ZM173.094 22.888H177.222V20.704H179.382V14.44H177.222V12.28H173.094V22.888ZM186.917 25.288V23.128H184.733V12.04H186.917V9.856H193.685V12.04H195.893V14.44H193.445V12.28H187.157V16.384H191.525V18.76H187.157V22.888H193.445V20.704H195.893V23.128H193.685V25.288H186.917ZM198.795 25.288V9.856H201.219V12.04H203.379V14.2H205.587V20.704H207.507V9.856H209.955V25.288H207.507V23.128H205.347V20.944H203.139V14.44H201.219V25.288H198.795ZM217.663 25.288V9.856H220.087V12.04H222.247V14.2H224.455V20.704H226.375V9.856H228.823V25.288H226.375V23.128H224.215V20.944H222.007V14.44H220.087V25.288H217.663ZM233.909 25.288V23.128H231.725V12.04H233.909V9.856H240.677V12.04H242.885V14.44H240.437V12.28H234.149V16.384H238.517V18.76H234.149V22.888H240.437V20.704H242.885V23.128H240.677V25.288H233.909ZM247.972 25.288V23.128H245.788V9.856H248.212V22.888H254.5V9.856H256.948V23.128H254.74V25.288H247.972ZM259.85 25.288V12.04H262.034V9.856H268.802V12.04H271.01V18.76H268.802V20.944H267.746V22.888H269.906V25.288H267.506V23.128H265.298V20.944H262.274V25.288H259.85ZM262.274 18.52H268.562V12.28H262.274V18.52ZM276.097 25.288V23.128H273.913V12.04H276.097V9.856H282.865V12.04H285.073V23.128H282.865V25.288H276.097ZM276.337 22.888H282.625V12.28H276.337V22.888ZM287.975 25.288V9.856H290.399V12.04H292.559V14.2H294.767V20.704H296.687V9.856H299.135V25.288H296.687V23.128H294.527V20.944H292.319V14.44H290.399V25.288H287.975ZM306.122 26.464V24.04H310.49V11.272H306.122V8.872H310.73V11.032H312.914V24.28H310.73V26.464H306.122ZM314.931 20.2V17.776H321.699V20.2H314.931Z" fill="#4AE3B5"/>
</svg>
