<svg width="432" height="127" viewBox="0 0 432 127" fill="none" xmlns="http://www.w3.org/2000/svg">
<rect width="432" height="34" fill="#1A1A1A"/>
<path d="M1.26 97.252V83.749H3.381V89.461H5.061V87.55H7.203V89.461H8.883V83.749H11.025V97.252H8.883V91.54H3.381V97.252H1.26ZM13.5647 97.252V87.55H15.6857V97.252H13.5647ZM13.5647 85.87V83.749H15.6857V85.87H13.5647ZM20.131 97.252V95.362H18.22V89.461H20.131V87.55H25.864V83.749H27.985V95.362H26.053V97.252H20.131ZM20.341 95.152H25.843V89.65H20.341V95.152ZM32.0255 97.252V95.362H30.1145V89.461H32.0255V87.55H37.7585V83.749H39.8795V95.362H37.9475V97.252H32.0255ZM32.2355 95.152H37.7375V89.65H32.2355V95.152ZM43.92 97.252V95.362H42.009V89.461H43.92V87.55H49.842V89.461H51.774V91.54H49.632V89.65H44.13V91.33H47.952V93.451H44.13V95.152H49.632V93.22H51.774V95.341H49.842V97.252H43.92ZM54.3137 97.252V87.55H62.1467V89.461H64.0787V97.252H61.9367V89.65H56.4347V97.252H54.3137ZM70.8225 97.252V87.55H78.6555V89.461H80.5875V97.252H78.4455V89.65H72.9435V97.252H70.8225ZM84.4024 97.252V95.362H82.4914V89.461H84.4024V87.55H90.3244V89.461H92.2564V91.54H90.1144V89.65H84.6124V91.33H88.4344V93.451H84.6124V95.152H90.1144V93.22H92.2564V95.341H90.3244V97.252H84.4024ZM96.7071 97.252V95.362H94.7961V87.55H96.9171V95.152H102.419V87.55H104.561V95.362H102.629V97.252H96.7071ZM106.896 97.252V89.461H108.807V87.55H114.729V89.461H116.661V91.54H114.519V89.65H109.017V97.252H106.896ZM120.476 97.252V95.362H118.565V89.461H120.476V87.55H126.398V89.461H128.33V95.362H126.398V97.252H120.476ZM120.686 95.152H126.188V89.65H120.686V95.152ZM130.869 97.252V87.55H138.702V89.461H140.634V97.252H138.492V89.65H132.99V97.252H130.869ZM147.378 100.948V89.461H149.289V87.55H155.211V89.461H157.143V95.362H155.211V97.252H149.499V100.948H147.378ZM149.499 95.152H155.001V89.65H149.499V95.152ZM159.683 97.252V89.461H161.594V87.55H167.516V89.461H169.448V91.54H167.306V89.65H161.804V97.252H159.683ZM173.263 97.252V95.362H171.352V89.461H173.263V87.55H179.185V89.461H181.117V95.362H179.185V97.252H173.263ZM173.473 95.152H178.975V89.65H173.473V95.152ZM185.567 97.252V95.362H183.656V89.461H185.567V87.55H191.489V89.461H193.421V91.54H191.279V89.65H185.777V95.152H191.279V93.241H193.421V95.362H191.489V97.252H185.567ZM197.236 97.252V95.362H195.325V89.461H197.236V87.55H203.158V89.461H205.09V91.54H202.948V89.65H197.446V91.33H201.268V93.451H197.446V95.152H202.948V93.22H205.09V95.341H203.158V97.252H197.236ZM207.63 97.252V95.152H215.253V93.451H209.541V91.54H207.63V89.461H209.541V87.55H217.395V89.65H209.751V91.33H215.463V93.241H217.395V95.362H215.463V97.252H207.63ZM219.525 97.252V95.152H227.148V93.451H221.436V91.54H219.525V89.461H221.436V87.55H229.29V89.65H221.646V91.33H227.358V93.241H229.29V95.362H227.358V97.252H219.525ZM233.33 97.252V95.362H231.419V89.461H233.33V87.55H239.252V89.461H241.184V91.54H239.042V89.65H233.54V91.33H237.362V93.451H233.54V95.152H239.042V93.22H241.184V95.341H239.252V97.252H233.33ZM243.724 97.252V95.152H251.347V93.451H245.635V91.54H243.724V89.461H245.635V87.55H253.489V89.65H245.845V91.33H251.557V93.241H253.489V95.362H251.557V97.252H243.724ZM1.26 122.252V120.152H8.883V118.451H3.171V116.54H1.26V114.461H3.171V112.55H11.025V114.65H3.381V116.33H9.093V118.241H11.025V120.362H9.093V122.252H1.26ZM13.5647 122.252V112.55H15.6857V122.252H13.5647ZM13.5647 110.87V108.749H15.6857V110.87H13.5647ZM19.7208 126.053V124.163H17.8098V122.063H19.9308V123.953H25.4538V120.362H19.7208V118.451H17.8098V114.461H19.7208V112.55H25.6638V114.461H27.5748V124.163H25.6638V126.053H19.7208ZM19.9308 118.241H25.4538V114.65H19.9308V118.241ZM30.1145 122.252V112.55H37.9475V114.461H39.8795V122.252H37.7375V114.65H32.2355V122.252H30.1145ZM43.6944 122.252V120.362H41.7834V114.461H43.6944V112.55H49.6164V114.461H51.5484V120.152H53.4594V122.252H51.3384V120.362H49.6164V122.252H43.6944ZM43.9044 120.152H49.4064V114.65H43.9044V120.152ZM55.3596 122.252V108.749H57.4806V122.252H55.3596ZM59.6047 122.252V120.152H67.2277V118.451H61.5157V116.54H59.6047V114.461H61.5157V112.55H69.3697V114.65H61.7257V116.33H67.4377V118.241H69.3697V120.362H67.4377V122.252H59.6047ZM78.0245 122.252V120.362H76.1135V108.749H78.2345V112.55H83.9465V114.461H85.8785V120.362H83.9465V122.252H78.0245ZM78.2345 120.152H83.7365V114.65H78.2345V120.152ZM89.919 122.252V120.362H88.008V114.461H89.919V112.55H95.841V114.461H97.773V116.54H95.631V114.65H90.129V116.33H93.951V118.451H90.129V120.152H95.631V118.22H97.773V120.341H95.841V122.252H89.919ZM104.114 122.252V120.362H102.224V114.65H100.313V112.55H102.224V108.749H104.324V112.55H110.078V114.65H104.324V120.152H109.868V118.241H111.989V120.362H110.078V122.252H104.114ZM113.889 122.252V112.55H116.01V120.152H119.622V112.55H121.722V120.152H125.355V112.55H127.455V120.362H125.565V122.252H121.512V120.362H119.832V122.252H113.889ZM131.263 122.252V120.362H129.352V114.461H131.263V112.55H137.185V114.461H139.117V116.54H136.975V114.65H131.473V116.33H135.295V118.451H131.473V120.152H136.975V118.22H139.117V120.341H137.185V122.252H131.263ZM143.567 122.252V120.362H141.656V114.461H143.567V112.55H149.489V114.461H151.421V116.54H149.279V114.65H143.777V116.33H147.599V118.451H143.777V120.152H149.279V118.22H151.421V120.341H149.489V122.252H143.567ZM153.961 122.252V112.55H161.794V114.461H163.726V122.252H161.584V114.65H156.082V122.252H153.961ZM170.47 122.252V108.749H172.591V122.252H170.47ZM176.626 122.252V120.362H174.715V114.461H176.626V112.55H182.548V114.461H184.48V120.152H186.391V122.252H184.27V120.362H182.548V122.252H176.626ZM176.836 120.152H182.338V114.65H176.836V120.152ZM189.361 126.053V124.163H187.45V122.063H189.571V123.953H195.094V120.362H189.361V118.451H187.45V112.55H189.571V118.241H195.094V112.55H197.215V124.163H195.304V126.053H189.361ZM201.666 122.252V120.362H199.755V114.461H201.666V112.55H207.588V114.461H209.52V116.54H207.378V114.65H201.876V116.33H205.698V118.451H201.876V120.152H207.378V118.22H209.52V120.341H207.588V122.252H201.666ZM212.06 122.252V114.461H213.971V112.55H219.893V114.461H221.825V116.54H219.683V114.65H214.181V122.252H212.06ZM223.954 122.252V120.152H231.577V118.451H225.865V116.54H223.954V114.461H225.865V112.55H233.719V114.65H226.075V116.33H231.787V118.241H233.719V120.362H231.787V122.252H223.954ZM236.259 122V119.879H238.38V122H236.259Z" fill="#1A1A1A"/>
<path d="M110.181 20.2V17.776H116.949V20.2H110.181ZM121.245 26.464V24.28H119.061V11.032H121.245V8.872H125.853V11.272H121.485V24.04H125.853V26.464H121.245ZM132.842 25.288V9.856H135.266V16.384H137.186V14.2H139.634V16.384H141.554V9.856H144.002V25.288H141.554V18.76H135.266V25.288H132.842ZM146.905 25.288V22.888H149.089V12.28H146.905V9.856H153.697V12.28H151.489V22.888H153.697V25.288H146.905ZM156.608 25.288V9.856H163.4V12.04H165.56V14.2H167.768V20.944H165.56V23.128H163.4V25.288H156.608ZM159.032 22.888H163.16V20.704H165.32V14.44H163.16V12.28H159.032V22.888ZM170.67 25.288V9.856H177.462V12.04H179.622V14.2H181.83V20.944H179.622V23.128H177.462V25.288H170.67ZM173.094 22.888H177.222V20.704H179.382V14.44H177.222V12.28H173.094V22.888ZM186.917 25.288V23.128H184.733V12.04H186.917V9.856H193.685V12.04H195.893V14.44H193.445V12.28H187.157V16.384H191.525V18.76H187.157V22.888H193.445V20.704H195.893V23.128H193.685V25.288H186.917ZM198.795 25.288V9.856H201.219V12.04H203.379V14.2H205.587V20.704H207.507V9.856H209.955V25.288H207.507V23.128H205.347V20.944H203.139V14.44H201.219V25.288H198.795ZM217.663 25.288V9.856H220.087V12.04H222.247V14.2H224.455V20.704H226.375V9.856H228.823V25.288H226.375V23.128H224.215V20.944H222.007V14.44H220.087V25.288H217.663ZM233.909 25.288V23.128H231.725V12.04H233.909V9.856H240.677V12.04H242.885V14.44H240.437V12.28H234.149V16.384H238.517V18.76H234.149V22.888H240.437V20.704H242.885V23.128H240.677V25.288H233.909ZM247.972 25.288V23.128H245.788V9.856H248.212V22.888H254.5V9.856H256.948V23.128H254.74V25.288H247.972ZM259.85 25.288V12.04H262.034V9.856H268.802V12.04H271.01V18.76H268.802V20.944H267.746V22.888H269.906V25.288H267.506V23.128H265.298V20.944H262.274V25.288H259.85ZM262.274 18.52H268.562V12.28H262.274V18.52ZM276.097 25.288V23.128H273.913V12.04H276.097V9.856H282.865V12.04H285.073V23.128H282.865V25.288H276.097ZM276.337 22.888H282.625V12.28H276.337V22.888ZM287.975 25.288V9.856H290.399V12.04H292.559V14.2H294.767V20.704H296.687V9.856H299.135V25.288H296.687V23.128H294.527V20.944H292.319V14.44H290.399V25.288H287.975ZM306.122 26.464V24.04H310.49V11.272H306.122V8.872H310.73V11.032H312.914V24.28H310.73V26.464H306.122ZM314.931 20.2V17.776H321.699V20.2H314.931Z" fill="#4AE3B5"/>
</svg>
