<svg width="1652" height="140" viewBox="0 0 1652 140" fill="none" xmlns="http://www.w3.org/2000/svg">
<rect width="1652" height="140" fill="#4AE3B5"/>
<path d="M1.68 26.336V8.332H4.508V10.88H7.028V13.4H9.604V20.988H11.844V8.332H14.7V26.336H11.844V23.816H9.324V21.268H6.748V13.68H4.508V26.336H1.68ZM20.0874 26.336V23.816H17.5394V15.948H20.0874V13.4H27.9834V15.948H30.5594V18.72H27.7034V16.2H20.3674V18.44H25.4634V21.268H20.3674V23.536H27.7034V20.96H30.5594V23.788H27.9834V26.336H20.0874ZM36.4936 26.336V23.816H33.9456V13.4H36.7736V23.536H44.1096V13.4H46.9656V23.816H44.3896V26.336H36.4936ZM50.0784 26.336V15.948H52.6264V13.4H60.5224V15.948H63.0984V18.72H60.2424V16.2H52.9064V26.336H50.0784ZM68.185 26.336V23.816H65.637V15.948H68.185V13.4H76.081V15.948H78.657V23.536H81.205V26.336H78.377V23.816H76.081V26.336H68.185ZM68.465 23.536H75.801V16.2H68.465V23.536ZM83.7386 26.336V8.332H86.5666V26.336H83.7386ZM95.5511 26.336V8.332H98.3791V10.88H100.899V13.4H103.475V20.988H105.715V8.332H108.571V26.336H105.715V23.816H103.195V21.268H100.619V13.68H98.3791V26.336H95.5511ZM113.958 26.336V23.816H111.41V15.948H113.958V13.4H121.854V15.948H124.43V18.72H121.574V16.2H114.238V18.44H119.334V21.268H114.238V23.536H121.574V20.96H124.43V23.788H121.854V26.336H113.958ZM132.885 26.336V23.816H130.365V16.2H127.817V13.4H130.365V8.332H133.165V13.4H140.837V16.2H133.165V23.536H140.557V20.988H143.385V23.816H140.837V26.336H132.885ZM145.918 26.336V13.4H148.746V23.536H153.562V13.4H156.362V23.536H161.206V13.4H164.006V23.816H161.486V26.336H156.082V23.816H153.842V26.336H145.918ZM169.083 26.336V23.816H166.535V15.948H169.083V13.4H176.979V15.948H179.555V23.816H176.979V26.336H169.083ZM169.363 23.536H176.699V16.2H169.363V23.536ZM182.942 26.336V15.948H185.49V13.4H193.386V15.948H195.962V18.72H193.106V16.2H185.77V26.336H182.942ZM198.801 26.336V8.332H201.629V18.44H203.869V15.948H208.965V13.4H211.821V16.2H209.245V18.72H204.149V20.988H209.245V23.536H211.821V26.336H208.965V23.816H203.869V21.268H201.629V26.336H198.801ZM225.881 30.48V25.328H223.361V20.288H220.813V14.94H223.361V9.844H225.881V4.804H228.737V10.124H226.161V15.22H223.641V20.008H226.161V25.132H228.737V30.48H225.881ZM233.833 26.336V23.816H231.285V10.88H233.833V8.332H241.729V10.88H244.305V16.2H241.729V18.44H244.305V23.816H241.729V26.336H233.833ZM234.113 23.536H241.449V18.72H236.353V15.948H241.449V11.16H234.113V23.536ZM247.692 26.336V10.88H250.24V8.332H258.136V10.88H260.712V18.72H258.136V21.268H256.904V23.536H259.424V26.336H256.624V23.816H254.048V21.268H250.52V26.336H247.692ZM250.52 18.44H257.856V11.16H250.52V18.44ZM264.098 26.336V13.4H266.646V10.88H269.166V8.332H272.022V10.88H274.542V13.4H277.118V26.336H274.262V21.268H266.926V26.336H264.098ZM266.926 18.44H274.262V13.68H271.742V11.16H269.446V13.68H266.926V18.44ZM280.504 26.336V23.536H283.052V11.16H280.504V8.332H288.428V11.16H285.852V23.536H288.428V26.336H280.504ZM291.825 26.336V8.332H294.653V10.88H297.173V13.4H299.749V20.988H301.989V8.332H304.845V26.336H301.989V23.816H299.469V21.268H296.893V13.68H294.653V26.336H291.825ZM307.391 30.48V25.132H309.939V20.008H312.487V15.22H309.939V10.124H307.391V4.804H310.219V9.844H312.767V14.94H315.315V20.288H312.767V25.328H310.219V30.48H307.391Z" fill="#1A1A1A"/>
<path d="M3.171 84.252V82.362H1.26V72.66H3.171V70.749H9.093V72.66H11.025V76.65H8.883V72.87H3.381V82.152H8.883V78.33H11.025V82.362H9.093V84.252H3.171ZM15.4757 84.252V82.362H13.5647V74.55H15.6857V82.152H21.1877V74.55H23.3297V82.362H21.3977V84.252H15.4757ZM25.6643 84.252V82.152H33.2873V80.451H27.5753V78.54H25.6643V76.461H27.5753V74.55H35.4293V76.65H27.7853V78.33H33.4973V80.241H35.4293V82.362H33.4973V84.252H25.6643ZM41.77 84.252V82.362H39.88V76.65H37.969V74.55H39.88V70.749H41.98V74.55H47.734V76.65H41.98V82.152H47.524V80.241H49.645V82.362H47.734V84.252H41.77ZM53.4562 84.252V82.362H51.5452V76.461H53.4562V74.55H59.3782V76.461H61.3102V82.362H59.3782V84.252H53.4562ZM53.6662 82.152H59.1682V76.65H53.6662V82.152ZM63.8498 84.252V74.55H69.7928V76.461H71.4728V74.55H75.5258V76.461H77.4158V84.252H75.3158V76.65H71.6828V84.252H69.5828V76.65H65.9708V84.252H63.8498ZM79.9485 84.252V74.55H82.0695V84.252H79.9485ZM79.9485 72.87V70.749H82.0695V72.87H79.9485ZM84.3987 84.252V82.152H86.3097V80.241H88.1997V78.33H90.1317V76.65H84.3987V74.55H94.1637V76.65H92.2317V78.54H90.3417V80.451H88.4097V82.152H94.1637V84.252H84.3987ZM98.2042 84.252V82.362H96.2932V76.461H98.2042V74.55H104.126V76.461H106.058V78.54H103.916V76.65H98.4142V78.33H102.236V80.451H98.4142V82.152H103.916V80.22H106.058V82.341H104.126V84.252H98.2042ZM116.603 84.252V82.362H114.713V76.65H112.802V74.55H114.713V70.749H116.813V74.55H122.567V76.65H116.813V82.152H122.357V80.241H124.478V82.362H122.567V84.252H116.603ZM126.604 84.252V70.749H128.725V76.461H130.405V74.55H134.437V76.461H136.369V84.252H134.227V76.65H130.615V78.54H128.725V84.252H126.604ZM140.409 84.252V82.362H138.498V76.461H140.409V74.55H146.331V76.461H148.263V78.54H146.121V76.65H140.619V78.33H144.441V80.451H140.619V82.152H146.121V80.22H148.263V82.341H146.331V84.252H140.409ZM160.131 74.76V73.584H161.097V72.87H159.165V70.749H161.307V72.66H162.231V73.794H161.307V74.76H160.131ZM155.952 74.76V73.584H156.918V72.87H155.007V70.749H157.128V72.66H158.073V73.794H157.128V74.76H155.952ZM166.68 84.252V82.362H164.769V70.749H166.89V74.55H172.602V76.461H174.534V82.362H172.602V84.252H166.68ZM166.89 82.152H172.392V76.65H166.89V82.152ZM176.663 84.252V76.461H178.574V74.55H184.496V76.461H186.428V78.54H184.286V76.65H178.784V84.252H176.663ZM190.243 84.252V82.362H188.332V76.461H190.243V74.55H196.165V76.461H198.097V82.152H200.008V84.252H197.887V82.362H196.165V84.252H190.243ZM190.453 82.152H195.955V76.65H190.453V82.152ZM201.908 84.252V74.55H204.029V84.252H201.908ZM201.908 72.87V70.749H204.029V72.87H201.908ZM206.154 84.252V74.55H213.987V76.461H215.919V84.252H213.777V76.65H208.275V84.252H206.154ZM223.582 74.76V73.584H224.548V72.87H222.616V70.749H224.758V72.66H225.682V73.794H224.758V74.76H223.582ZM219.403 74.76V73.584H220.369V72.87H218.458V70.749H220.579V72.66H221.524V73.794H220.579V74.76H219.403ZM234.335 84.252V82.362H232.424V76.461H234.335V74.55H240.257V76.461H242.189V82.362H240.257V84.252H234.335ZM234.545 82.152H240.047V76.65H234.545V82.152ZM244.729 84.252V72.66H246.64V70.749H252.562V72.66H254.494V74.76H252.352V72.87H246.85V76.461H250.672V78.54H246.85V84.252H244.729ZM263.149 88.053V86.163H261.238V84.063H263.359V85.953H268.882V82.362H263.149V80.451H261.238V74.55H263.359V80.241H268.882V74.55H271.003V86.163H269.092V88.053H263.149ZM275.453 84.252V82.362H273.542V76.461H275.453V74.55H281.375V76.461H283.307V82.362H281.375V84.252H275.453ZM275.663 82.152H281.165V76.65H275.663V82.152ZM287.758 84.252V82.362H285.847V74.55H287.968V82.152H293.47V74.55H295.612V82.362H293.68V84.252H287.758ZM297.947 84.252V76.461H299.858V74.55H305.78V76.461H307.712V78.54H305.57V76.65H300.068V84.252H297.947ZM314.455 84.252V82.152H322.078V80.451H316.366V78.54H314.455V76.461H316.366V74.55H324.22V76.65H316.576V78.33H322.288V80.241H324.22V82.362H322.288V84.252H314.455ZM326.76 87.948V76.461H328.671V74.55H334.593V76.461H336.525V82.362H334.593V84.252H328.881V87.948H326.76ZM328.881 82.152H334.383V76.65H328.881V82.152ZM340.976 84.252V82.362H339.065V76.461H340.976V74.55H346.898V76.461H348.83V78.54H346.688V76.65H341.186V78.33H345.008V80.451H341.186V82.152H346.688V80.22H348.83V82.341H346.898V84.252H340.976ZM353.28 84.252V82.362H351.369V76.461H353.28V74.55H359.202V76.461H361.134V78.54H358.992V76.65H353.49V82.152H358.992V80.241H361.134V82.362H359.202V84.252H353.28ZM363.674 84.252V74.55H365.795V84.252H363.674ZM363.674 72.87V70.749H365.795V72.87H363.674ZM369.83 84.252V82.362H367.919V76.461H369.83V74.55H375.752V76.461H377.684V78.54H375.542V76.65H370.04V78.33H373.862V80.451H370.04V82.152H375.542V80.22H377.684V82.341H375.752V84.252H369.83ZM380.224 84.252V82.152H387.847V80.451H382.135V78.54H380.224V76.461H382.135V74.55H389.989V76.65H382.345V78.33H388.057V80.241H389.989V82.362H388.057V84.252H380.224ZM398.644 84.252V82.362H396.733V70.749H398.854V74.55H404.566V76.461H406.498V82.362H404.566V84.252H398.644ZM398.854 82.152H404.356V76.65H398.854V82.152ZM410.538 88.053V86.163H408.627V84.063H410.748V85.953H416.271V82.362H410.538V80.451H408.627V74.55H410.748V80.241H416.271V74.55H418.392V86.163H416.481V88.053H410.538ZM425.136 84.252V82.152H432.759V80.451H427.047V78.54H425.136V76.461H427.047V74.55H434.901V76.65H427.257V78.33H432.969V80.241H434.901V82.362H432.969V84.252H425.136ZM438.942 84.252V82.362H437.031V76.461H438.942V74.55H444.864V76.461H446.796V78.54H444.654V76.65H439.152V78.33H442.974V80.451H439.152V82.152H444.654V80.22H446.796V82.341H444.864V84.252H438.942ZM449.335 84.252V70.749H451.456V84.252H449.335ZM455.491 84.252V82.362H453.58V76.461H455.491V74.55H461.413V76.461H463.345V78.54H461.203V76.65H455.701V78.33H459.523V80.451H455.701V82.152H461.203V80.22H463.345V82.341H461.413V84.252H455.491ZM467.796 84.252V82.362H465.885V76.461H467.796V74.55H473.718V76.461H475.65V78.54H473.508V76.65H468.006V82.152H473.508V80.241H475.65V82.362H473.718V84.252H467.796ZM480.945 84.252V82.362H479.055V76.65H477.144V74.55H479.055V70.749H481.155V74.55H486.909V76.65H481.155V82.152H486.699V80.241H488.82V82.362H486.909V84.252H480.945ZM491.356 84.252V74.55H493.477V84.252H491.356ZM491.356 72.87V70.749H493.477V72.87H491.356ZM495.601 84.252V74.55H503.434V76.461H505.366V84.252H503.224V76.65H497.722V84.252H495.601ZM509.406 88.053V86.163H507.495V84.063H509.616V85.953H515.139V82.362H509.406V80.451H507.495V76.461H509.406V74.55H515.349V76.461H517.26V86.163H515.349V88.053H509.406ZM509.616 80.241H515.139V76.65H509.616V80.241ZM524.004 84.252V82.152H531.627V80.451H525.915V78.54H524.004V76.461H525.915V74.55H533.769V76.65H526.125V78.33H531.837V80.241H533.769V82.362H531.837V84.252H524.004ZM537.81 84.252V82.362H535.899V76.461H537.81V74.55H543.732V76.461H545.664V78.54H543.522V76.65H538.02V78.33H541.842V80.451H538.02V82.152H543.522V80.22H545.664V82.341H543.732V84.252H537.81ZM548.203 84.252V74.55H556.036V76.461H557.968V84.252H555.826V76.65H550.324V84.252H548.203ZM560.098 84.252V82.152H567.721V80.451H562.009V78.54H560.098V76.461H562.009V74.55H569.863V76.65H562.219V78.33H567.931V80.241H569.863V82.362H567.931V84.252H560.098ZM573.903 84.252V82.362H571.992V76.461H573.903V74.55H579.825V76.461H581.757V82.362H579.825V84.252H573.903ZM574.113 82.152H579.615V76.65H574.113V82.152ZM584.297 84.252V76.461H586.208V74.55H592.13V76.461H594.062V78.54H591.92V76.65H586.418V84.252H584.297ZM596.192 84.252V82.152H603.815V80.451H598.103V78.54H596.192V76.461H598.103V74.55H605.957V76.65H598.313V78.33H604.025V80.241H605.957V82.362H604.025V84.252H596.192ZM614.611 84.252V82.362H612.7V76.461H614.611V74.55H620.533V76.461H622.465V82.152H624.376V84.252H622.255V82.362H620.533V84.252H614.611ZM614.821 82.152H620.323V76.65H614.821V82.152ZM626.277 84.252V74.55H634.11V76.461H636.042V84.252H633.9V76.65H628.398V84.252H626.277ZM640.082 84.252V82.362H638.171V76.461H640.082V74.55H645.815V70.749H647.936V82.362H646.004V84.252H640.082ZM640.292 82.152H645.794V76.65H640.292V82.152ZM656.591 84.252V82.362H654.68V76.461H656.591V74.55H662.513V76.461H664.445V82.152H666.356V84.252H664.235V82.362H662.513V84.252H656.591ZM656.801 82.152H662.303V76.65H656.801V82.152ZM669.757 84.252V82.362H667.846V76.461H669.757V74.55H675.679V76.461H677.611V78.54H675.469V76.65H669.967V82.152H675.469V80.241H677.611V82.362H675.679V84.252H669.757ZM682.906 84.252V82.362H681.016V76.65H679.105V74.55H681.016V70.749H683.116V74.55H688.87V76.65H683.116V82.152H688.66V80.241H690.781V82.362H688.87V84.252H682.906ZM694.817 84.252V82.362H692.906V74.55H695.027V82.152H700.529V74.55H702.671V82.362H700.739V84.252H694.817ZM706.712 84.252V82.362H704.801V76.461H706.712V74.55H712.634V76.461H714.566V82.152H716.477V84.252H714.356V82.362H712.634V84.252H706.712ZM706.922 82.152H712.424V76.65H706.922V82.152ZM720.497 84.252V82.362H718.607V76.65H716.696V74.55H718.607V70.749H720.707V74.55H726.461V76.65H720.707V82.152H726.251V80.241H728.372V82.362H726.461V84.252H720.497ZM732.183 84.252V82.362H730.272V76.461H732.183V74.55H738.105V76.461H740.037V82.362H738.105V84.252H732.183ZM732.393 82.152H737.895V76.65H732.393V82.152ZM742.576 84.252V76.461H744.487V74.55H750.409V76.461H752.341V78.54H750.199V76.65H744.697V84.252H742.576ZM754.471 84.252V82.152H762.094V80.451H756.382V78.54H754.471V76.461H756.382V74.55H764.236V76.65H756.592V78.33H762.304V80.241H764.236V82.362H762.304V84.252H754.471ZM770.98 84.252V72.66H772.891V70.749H778.813V72.66H780.745V74.76H778.603V72.87H773.101V76.461H776.923V78.54H773.101V84.252H770.98ZM780.967 84.252V76.461H782.878V74.55H788.8V76.461H790.732V78.54H788.59V76.65H783.088V84.252H780.967ZM794.547 84.252V82.362H792.636V76.461H794.547V74.55H800.469V76.461H802.401V82.362H800.469V84.252H794.547ZM794.757 82.152H800.259V76.65H794.757V82.152ZM804.941 84.252V74.55H810.884V76.461H812.564V74.55H816.617V76.461H818.507V84.252H816.407V76.65H812.774V84.252H810.674V76.65H807.062V84.252H804.941ZM829.044 84.252V82.362H827.154V76.65H825.243V74.55H827.154V70.749H829.254V74.55H835.008V76.65H829.254V82.152H834.798V80.241H836.919V82.362H835.008V84.252H829.044ZM839.045 84.252V70.749H841.166V76.461H842.846V74.55H846.878V76.461H848.81V84.252H846.668V76.65H843.056V78.54H841.166V84.252H839.045ZM852.851 84.252V82.362H850.94V76.461H852.851V74.55H858.773V76.461H860.705V78.54H858.563V76.65H853.061V78.33H856.883V80.451H853.061V82.152H858.563V80.22H860.705V82.341H858.773V84.252H852.851ZM869.359 84.252V82.362H867.448V76.461H869.359V74.55H875.281V76.461H877.213V82.362H875.281V84.252H869.359ZM869.569 82.152H875.071V76.65H869.569V82.152ZM879.753 87.948V76.461H881.664V74.55H887.586V76.461H889.518V82.362H887.586V84.252H881.874V87.948H879.753ZM881.874 82.152H887.376V76.65H881.874V82.152ZM895.859 84.252V82.362H893.969V76.65H892.058V74.55H893.969V70.749H896.069V74.55H901.823V76.65H896.069V82.152H901.613V80.241H903.734V82.362H901.823V84.252H895.859ZM906.27 84.252V74.55H908.391V84.252H906.27ZM906.27 72.87V70.749H908.391V72.87H906.27ZM912.426 84.252V82.362H910.515V76.461H912.426V74.55H918.348V76.461H920.28V82.362H918.348V84.252H912.426ZM912.636 82.152H918.138V76.65H912.636V82.152ZM922.82 84.252V74.55H930.653V76.461H932.585V84.252H930.443V76.65H924.941V84.252H922.82ZM934.714 84.252V82.152H942.337V80.451H936.625V78.54H934.714V76.461H936.625V74.55H944.479V76.65H936.835V78.33H942.547V80.241H944.479V82.362H942.547V84.252H934.714ZM953.134 84.252V82.362H951.223V70.749H953.344V74.55H959.056V76.461H960.988V82.362H959.056V84.252H953.134ZM953.344 82.152H958.846V76.65H953.344V82.152ZM965.028 84.252V82.362H963.117V76.461H965.028V74.55H970.95V76.461H972.882V78.54H970.74V76.65H965.238V78.33H969.06V80.451H965.238V82.152H970.74V80.22H972.882V82.341H970.95V84.252H965.028ZM975.422 84.252V70.749H977.543V84.252H975.422ZM981.578 84.252V82.362H979.667V76.461H981.578V74.55H987.5V76.461H989.432V82.362H987.5V84.252H981.578ZM981.788 82.152H987.29V76.65H981.788V82.152ZM991.972 84.252V74.55H994.093V82.152H997.705V74.55H999.805V82.152H1003.44V74.55H1005.54V82.362H1003.65V84.252H999.595V82.362H997.915V84.252H991.972ZM1008.07 84V81.879H1010.19V84H1008.07ZM1018.84 84.252V82.362H1016.93V80.241H1019.05V82.152H1024.55V78.54H1018.84V76.65H1016.93V72.66H1018.84V70.749H1024.76V72.66H1026.69V74.76H1024.55V72.87H1019.05V76.461H1024.76V78.33H1026.69V82.362H1024.76V84.252H1018.84ZM1030.51 84.252V82.362H1028.6V76.461H1030.51V74.55H1036.43V76.461H1038.36V78.54H1036.22V76.65H1030.72V78.33H1034.54V80.451H1030.72V82.152H1036.22V80.22H1038.36V82.341H1036.43V84.252H1030.51ZM1040.9 84.252V74.55H1048.74V76.461H1050.67V84.252H1048.53V76.65H1043.02V84.252H1040.9ZM1052.8 84.252V82.152H1060.42V80.451H1054.71V78.54H1052.8V76.461H1054.71V74.55H1062.56V76.65H1054.92V78.33H1060.63V80.241H1062.56V82.362H1060.63V84.252H1052.8ZM1066.6 84.252V82.362H1064.69V76.461H1066.6V74.55H1072.53V76.461H1074.46V82.362H1072.53V84.252H1066.6ZM1066.81 82.152H1072.32V76.65H1066.81V82.152ZM1077 84.252V76.461H1078.91V74.55H1084.83V76.461H1086.76V78.54H1084.62V76.65H1079.12V84.252H1077ZM1088.89 84.252V82.152H1096.51V80.451H1090.8V78.54H1088.89V76.461H1090.8V74.55H1098.66V76.65H1091.01V78.33H1096.72V80.241H1098.66V82.362H1096.72V84.252H1088.89ZM1107.31 84.252V82.362H1105.4V76.461H1107.31V74.55H1113.23V76.461H1115.17V82.152H1117.08V84.252H1114.96V82.362H1113.23V84.252H1107.31ZM1107.52 82.152H1113.02V76.65H1107.52V82.152ZM1119.61 84.252V76.461H1121.52V74.55H1127.45V76.461H1129.38V78.54H1127.24V76.65H1121.73V84.252H1119.61ZM1133.19 84.252V82.362H1131.28V76.461H1133.19V74.55H1139.11V76.461H1141.05V78.54H1138.9V76.65H1133.4V78.33H1137.22V80.451H1133.4V82.152H1138.9V80.22H1141.05V82.341H1139.11V84.252H1133.19ZM1147.79 84.252V70.749H1149.91V84.252H1147.79ZM1152.45 84.252V74.55H1154.57V84.252H1152.45ZM1152.45 72.87V70.749H1154.57V72.87H1152.45ZM1157.1 84.252V82.152H1164.72V80.451H1159.01V78.54H1157.1V76.461H1159.01V74.55H1166.87V76.65H1159.22V78.33H1164.93V80.241H1166.87V82.362H1164.93V84.252H1157.1ZM1173.21 84.252V82.362H1171.32V76.65H1169.41V74.55H1171.32V70.749H1173.42V74.55H1179.17V76.65H1173.42V82.152H1178.96V80.241H1181.08V82.362H1179.17V84.252H1173.21ZM1184.89 84.252V82.362H1182.98V76.461H1184.89V74.55H1190.81V76.461H1192.75V78.54H1190.6V76.65H1185.1V78.33H1188.92V80.451H1185.1V82.152H1190.6V80.22H1192.75V82.341H1190.81V84.252H1184.89ZM1197.2 84.252V82.362H1195.29V76.461H1197.2V74.55H1202.93V70.749H1205.05V82.362H1203.12V84.252H1197.2ZM1197.41 82.152H1202.91V76.65H1197.41V82.152ZM1213.71 84.252V82.362H1211.8V76.461H1213.71V74.55H1219.63V76.461H1221.56V82.152H1223.47V84.252H1221.35V82.362H1219.63V84.252H1213.71ZM1213.92 82.152H1219.42V76.65H1213.92V82.152ZM1227.49 84.252V82.362H1225.6V76.65H1223.69V74.55H1225.6V70.749H1227.7V74.55H1233.45V76.65H1227.7V82.152H1233.24V80.241H1235.37V82.362H1233.45V84.252H1227.49ZM1245.91 84.252V82.362H1244.02V76.65H1242.11V74.55H1244.02V70.749H1246.12V74.55H1251.87V76.65H1246.12V82.152H1251.66V80.241H1253.78V82.362H1251.87V84.252H1245.91ZM1255.91 84.252V70.749H1258.03V76.461H1259.71V74.55H1263.74V76.461H1265.67V84.252H1263.53V76.65H1259.92V78.54H1258.03V84.252H1255.91ZM1269.71 84.252V82.362H1267.8V76.461H1269.71V74.55H1275.63V76.461H1277.57V78.54H1275.42V76.65H1269.92V78.33H1273.74V80.451H1269.92V82.152H1275.42V80.22H1277.57V82.341H1275.63V84.252H1269.71ZM1284.31 84.252V70.749H1286.43V84.252H1284.31ZM1290.47 84.252V82.362H1288.56V76.461H1290.47V74.55H1296.39V76.461H1298.32V78.54H1296.18V76.65H1290.68V78.33H1294.5V80.451H1290.68V82.152H1296.18V80.22H1298.32V82.341H1296.39V84.252H1290.47ZM1300.86 84.252V72.66H1302.77V70.749H1308.69V72.66H1310.63V74.76H1308.48V72.87H1302.98V76.461H1306.8V78.54H1302.98V84.252H1300.86ZM1315.08 84.252V82.362H1313.19V76.65H1311.28V74.55H1313.19V70.749H1315.29V74.55H1321.04V76.65H1315.29V82.152H1320.83V80.241H1322.95V82.362H1321.04V84.252H1315.08ZM1326.44 85.89V84.714H1327.4V84H1325.49V81.879H1327.61V83.79H1328.56V84.924H1327.61V85.89H1326.44ZM1335.29 84.252V74.55H1337.41V82.152H1341.03V74.55H1343.13V82.152H1346.76V74.55H1348.86V82.362H1346.97V84.252H1342.92V82.362H1341.24V84.252H1335.29ZM1350.98 84.252V70.749H1353.1V76.461H1354.78V74.55H1358.81V76.461H1360.75V84.252H1358.6V76.65H1354.99V78.54H1353.1V84.252H1350.98ZM1363.29 84.252V74.55H1365.41V84.252H1363.29ZM1363.29 72.87V70.749H1365.41V72.87H1363.29ZM1367.94 84.252V70.749H1370.06V84.252H1367.94ZM1374.1 84.252V82.362H1372.19V76.461H1374.1V74.55H1380.02V76.461H1381.95V78.54H1379.81V76.65H1374.31V78.33H1378.13V80.451H1374.31V82.152H1379.81V80.22H1381.95V82.341H1380.02V84.252H1374.1ZM1390.61 84.252V82.362H1388.7V76.461H1390.61V74.55H1396.53V76.461H1398.46V82.152H1400.37V84.252H1398.25V82.362H1396.53V84.252H1390.61ZM1390.82 82.152H1396.32V76.65H1390.82V82.152ZM1403.77 84.252V82.362H1401.86V76.461H1403.77V74.55H1409.69V76.461H1411.63V78.54H1409.48V76.65H1403.98V82.152H1409.48V80.241H1411.63V82.362H1409.69V84.252H1403.77ZM1416.92 84.252V82.362H1415.03V76.65H1413.12V74.55H1415.03V70.749H1417.13V74.55H1422.89V76.65H1417.13V82.152H1422.68V80.241H1424.8V82.362H1422.89V84.252H1416.92ZM1428.83 84.252V82.362H1426.92V74.55H1429.04V82.152H1434.55V74.55H1436.69V82.362H1434.76V84.252H1428.83ZM1440.73 84.252V82.362H1438.82V76.461H1440.73V74.55H1446.65V76.461H1448.58V82.152H1450.49V84.252H1448.37V82.362H1446.65V84.252H1440.73ZM1440.94 82.152H1446.44V76.65H1440.94V82.152ZM1454.51 84.252V82.362H1452.62V76.65H1450.71V74.55H1452.62V70.749H1454.72V74.55H1460.48V76.65H1454.72V82.152H1460.27V80.241H1462.39V82.362H1460.48V84.252H1454.51ZM1466.2 84.252V82.362H1464.29V76.461H1466.2V74.55H1472.12V76.461H1474.05V82.362H1472.12V84.252H1466.2ZM1466.41 82.152H1471.91V76.65H1466.41V82.152ZM1476.59 84.252V76.461H1478.5V74.55H1484.43V76.461H1486.36V78.54H1484.22V76.65H1478.71V84.252H1476.59ZM1488.49 84.252V82.152H1496.11V80.451H1490.4V78.54H1488.49V76.461H1490.4V74.55H1498.25V76.65H1490.61V78.33H1496.32V80.241H1498.25V82.362H1496.32V84.252H1488.49ZM1506.91 84.252V82.362H1505V76.461H1506.91V74.55H1512.83V76.461H1514.76V82.152H1516.67V84.252H1514.55V82.362H1512.83V84.252H1506.91ZM1507.12 82.152H1512.62V76.65H1507.12V82.152ZM1519.21 84.252V76.461H1521.12V74.55H1527.04V76.461H1528.97V78.54H1526.83V76.65H1521.33V84.252H1519.21ZM1532.79 84.252V82.362H1530.88V76.461H1532.79V74.55H1538.71V76.461H1540.64V78.54H1538.5V76.65H1533V78.33H1536.82V80.451H1533V82.152H1538.5V80.22H1540.64V82.341H1538.71V84.252H1532.79ZM1549.3 84.252V82.362H1547.39V76.461H1549.3V74.55H1555.22V76.461H1557.15V82.152H1559.06V84.252H1556.94V82.362H1555.22V84.252H1549.3ZM1549.51 82.152H1555.01V76.65H1549.51V82.152ZM1563.08 84.252V82.362H1561.19V76.65H1559.28V74.55H1561.19V70.749H1563.29V74.55H1569.04V76.65H1563.29V82.152H1568.83V80.241H1570.96V82.362H1569.04V84.252H1563.08ZM1581.5 84.252V82.362H1579.61V76.65H1577.7V74.55H1579.61V70.749H1581.71V74.55H1587.46V76.65H1581.71V82.152H1587.25V80.241H1589.37V82.362H1587.46V84.252H1581.5ZM1591.5 84.252V70.749H1593.62V76.461H1595.3V74.55H1599.33V76.461H1601.26V84.252H1599.12V76.65H1595.51V78.54H1593.62V84.252H1591.5ZM1605.3 84.252V82.362H1603.39V76.461H1605.3V74.55H1611.22V76.461H1613.16V78.54H1611.01V76.65H1605.51V78.33H1609.33V80.451H1605.51V82.152H1611.01V80.22H1613.16V82.341H1611.22V84.252H1605.3ZM1.26 109.252V101.461H3.171V99.55H9.093V101.461H11.025V103.54H8.883V101.65H3.381V109.252H1.26ZM13.5647 109.252V99.55H15.6857V109.252H13.5647ZM13.5647 97.87V95.749H15.6857V97.87H13.5647ZM19.7208 113.053V111.163H17.8098V109.063H19.9308V110.953H25.4538V107.362H19.7208V105.451H17.8098V101.461H19.7208V99.55H25.6638V101.461H27.5748V111.163H25.6638V113.053H19.7208ZM19.9308 105.241H25.4538V101.65H19.9308V105.241ZM29.7043 109.252V95.749H31.8253V101.461H33.5053V99.55H37.5373V101.461H39.4693V109.252H37.3273V101.65H33.7153V103.54H31.8253V109.252H29.7043ZM44.9692 109.252V107.362H43.0792V101.65H41.1682V99.55H43.0792V95.749H45.1792V99.55H50.9332V101.65H45.1792V107.152H50.7232V105.241H52.8442V107.362H50.9332V109.252H44.9692ZM55.3801 109V106.879H57.5011V109H55.3801ZM66.1505 109.252V107.362H64.2395V97.66H66.1505V95.749H72.0725V97.66H74.0045V101.65H71.8625V97.87H66.3605V107.152H71.8625V103.33H74.0045V107.362H72.0725V109.252H66.1505ZM76.5442 109.252V95.749H78.6652V101.461H80.3452V99.55H84.3772V101.461H86.3092V109.252H84.1672V101.65H80.5552V103.54H78.6652V109.252H76.5442ZM90.3497 109.252V107.362H88.4387V101.461H90.3497V99.55H96.2717V101.461H98.2037V107.362H96.2717V109.252H90.3497ZM90.5597 107.152H96.0617V101.65H90.5597V107.152ZM102.654 109.252V107.362H100.743V101.461H102.654V99.55H108.576V101.461H110.508V107.362H108.576V109.252H102.654ZM102.864 107.152H108.366V101.65H102.864V107.152ZM113.048 109.252V107.152H120.671V105.451H114.959V103.54H113.048V101.461H114.959V99.55H122.813V101.65H115.169V103.33H120.881V105.241H122.813V107.362H120.881V109.252H113.048ZM126.854 109.252V107.362H124.943V101.461H126.854V99.55H132.776V101.461H134.708V103.54H132.566V101.65H127.064V103.33H130.886V105.451H127.064V107.152H132.566V105.22H134.708V107.341H132.776V109.252H126.854ZM145.252 109.252V107.362H143.362V101.65H141.451V99.55H143.362V95.749H145.462V99.55H151.216V101.65H145.462V107.152H151.006V105.241H153.127V107.362H151.216V109.252H145.252ZM155.253 109.252V95.749H157.374V101.461H159.054V99.55H163.086V101.461H165.018V109.252H162.876V101.65H159.264V103.54H157.374V109.252H155.253ZM169.059 109.252V107.362H167.148V101.461H169.059V99.55H174.981V101.461H176.913V103.54H174.771V101.65H169.269V103.33H173.091V105.451H169.269V107.152H174.771V105.22H176.913V107.341H174.981V109.252H169.059ZM185.567 109.252V107.362H183.656V101.461H185.567V99.55H191.489V101.461H193.421V103.54H191.279V101.65H185.777V107.152H191.279V105.241H193.421V107.362H191.489V109.252H185.567ZM197.236 109.252V107.362H195.325V101.461H197.236V99.55H203.158V101.461H205.09V107.362H203.158V109.252H197.236ZM197.446 107.152H202.948V101.65H197.446V107.152ZM207.63 109.252V99.55H213.573V101.461H215.253V99.55H219.306V101.461H221.196V109.252H219.096V101.65H215.463V109.252H213.363V101.65H209.751V109.252H207.63ZM223.729 112.948V101.461H225.64V99.55H231.562V101.461H233.494V107.362H231.562V109.252H225.85V112.948H223.729ZM225.85 107.152H231.352V101.65H225.85V107.152ZM237.944 109.252V107.362H236.033V101.461H237.944V99.55H243.866V101.461H245.798V107.362H243.866V109.252H237.944ZM238.154 107.152H243.656V101.65H238.154V107.152ZM248.338 109.252V99.55H256.171V101.461H258.103V109.252H255.961V101.65H250.459V109.252H248.338ZM261.918 109.252V107.362H260.007V101.461H261.918V99.55H267.84V101.461H269.772V103.54H267.63V101.65H262.128V103.33H265.95V105.451H262.128V107.152H267.63V105.22H269.772V107.341H267.84V109.252H261.918ZM272.312 109.252V99.55H280.145V101.461H282.077V109.252H279.935V101.65H274.433V109.252H272.312ZM287.577 109.252V107.362H285.687V101.65H283.776V99.55H285.687V95.749H287.787V99.55H293.541V101.65H287.787V107.152H293.331V105.241H295.452V107.362H293.541V109.252H287.577ZM297.577 109.252V107.152H305.2V105.451H299.488V103.54H297.577V101.461H299.488V99.55H307.342V101.65H299.698V103.33H305.41V105.241H307.342V107.362H305.41V109.252H297.577ZM315.997 113.053V111.163H314.086V109.063H316.207V110.953H321.73V107.362H315.997V105.451H314.086V99.55H316.207V105.241H321.73V99.55H323.851V111.163H321.94V113.053H315.997ZM328.302 109.252V107.362H326.391V101.461H328.302V99.55H334.224V101.461H336.156V107.362H334.224V109.252H328.302ZM328.512 107.152H334.014V101.65H328.512V107.152ZM340.607 109.252V107.362H338.696V99.55H340.817V107.152H346.319V99.55H348.461V107.362H346.529V109.252H340.607ZM357.115 109.252V107.362H355.204V95.749H357.325V99.55H363.037V101.461H364.969V107.362H363.037V109.252H357.115ZM357.325 107.152H362.827V101.65H357.325V107.152ZM369.01 109.252V107.362H367.099V101.461H369.01V99.55H374.932V101.461H376.864V103.54H374.722V101.65H369.22V103.33H373.042V105.451H369.22V107.152H374.722V105.22H376.864V107.341H374.932V109.252H369.01ZM379.404 109.252V95.749H381.525V109.252H379.404ZM384.059 109.252V99.55H386.18V109.252H384.059ZM384.059 97.87V95.749H386.18V97.87H384.059ZM390.215 109.252V107.362H388.304V101.461H390.215V99.55H396.137V101.461H398.069V103.54H395.927V101.65H390.425V103.33H394.247V105.451H390.425V107.152H395.927V105.22H398.069V107.341H396.137V109.252H390.215ZM404.221 109.252V107.362H402.31V103.54H400.399V99.55H402.52V103.33H404.41V107.152H406.132V103.33H408.022V99.55H410.164V103.54H408.232V107.362H406.342V109.252H404.221ZM413.778 109.252V107.362H411.867V101.461H413.778V99.55H419.7V101.461H421.632V103.54H419.49V101.65H413.988V103.33H417.81V105.451H413.988V107.152H419.49V105.22H421.632V107.341H419.7V109.252H413.778ZM428.376 109.252V99.55H430.497V107.152H434.109V99.55H436.209V107.152H439.842V99.55H441.942V107.362H440.052V109.252H435.999V107.362H434.319V109.252H428.376ZM444.475 109.252V99.55H446.596V109.252H444.475ZM444.475 97.87V95.749H446.596V97.87H444.475ZM449.13 109.252V95.749H451.251V109.252H449.13ZM453.785 109.252V95.749H455.906V109.252H453.785ZM464.556 109.252V107.362H462.645V95.749H464.766V99.55H470.478V101.461H472.41V107.362H470.478V109.252H464.556ZM464.766 107.152H470.268V101.65H464.766V107.152ZM476.45 109.252V107.362H474.539V101.461H476.45V99.55H482.372V101.461H484.304V103.54H482.162V101.65H476.66V103.33H480.482V105.451H476.66V107.152H482.162V105.22H484.304V107.341H482.372V109.252H476.45ZM486.844 109.252V107.152H494.467V105.451H488.755V103.54H486.844V101.461H488.755V99.55H496.609V101.65H488.965V103.33H494.677V105.241H496.609V107.362H494.677V109.252H486.844ZM502.95 109.252V107.362H501.06V101.65H499.149V99.55H501.06V95.749H503.16V99.55H508.914V101.65H503.16V107.152H508.704V105.241H510.825V107.362H508.914V109.252H502.95ZM519.476 109.252V107.362H517.565V101.461H519.476V99.55H525.398V101.461H527.33V103.54H525.188V101.65H519.686V103.33H523.508V105.451H519.686V107.152H525.188V105.22H527.33V107.341H525.398V109.252H519.476ZM537.492 112.948V109.252H531.78V107.362H529.869V101.461H531.78V99.55H537.702V101.461H539.634V112.948H537.492ZM531.99 107.152H537.492V101.65H531.99V107.152ZM543.675 109.252V107.362H541.764V99.55H543.885V107.152H549.387V99.55H551.529V107.362H549.597V109.252H543.675ZM554.069 109.252V99.55H556.19V109.252H554.069ZM554.069 97.87V95.749H556.19V97.87H554.069ZM558.724 112.948V101.461H560.635V99.55H566.557V101.461H568.489V107.362H566.557V109.252H560.845V112.948H558.724ZM560.845 107.152H566.347V101.65H560.845V107.152ZM577.144 113.053V111.163H575.233V109.063H577.354V110.953H582.877V107.362H577.144V105.451H575.233V99.55H577.354V105.241H582.877V99.55H584.998V111.163H583.087V113.053H577.144ZM589.448 109.252V107.362H587.537V101.461H589.448V99.55H595.37V101.461H597.302V107.362H595.37V109.252H589.448ZM589.658 107.152H595.16V101.65H589.658V107.152ZM601.753 109.252V107.362H599.842V99.55H601.963V107.152H607.465V99.55H609.607V107.362H607.675V109.252H601.753ZM611.942 109.252V101.461H613.853V99.55H619.775V101.461H621.707V103.54H619.565V101.65H614.063V109.252H611.942ZM630.361 109.252V107.362H628.45V101.461H630.361V99.55H636.283V101.461H638.215V107.362H636.283V109.252H630.361ZM630.571 107.152H636.073V101.65H630.571V107.152ZM640.755 109.252V101.461H642.666V99.55H648.588V101.461H650.52V103.54H648.378V101.65H642.876V109.252H640.755ZM654.561 113.053V111.163H652.65V109.063H654.771V110.953H660.294V107.362H654.561V105.451H652.65V101.461H654.561V99.55H660.504V101.461H662.415V111.163H660.504V113.053H654.561ZM654.771 105.241H660.294V101.65H654.771V105.241ZM666.23 109.252V107.362H664.319V101.461H666.23V99.55H672.152V101.461H674.084V107.152H675.995V109.252H673.874V107.362H672.152V109.252H666.23ZM666.44 107.152H671.942V101.65H666.44V107.152ZM677.895 109.252V99.55H685.728V101.461H687.66V109.252H685.518V101.65H680.016V109.252H677.895ZM690.199 109.252V99.55H692.32V109.252H690.199ZM690.199 97.87V95.749H692.32V97.87H690.199ZM694.855 109.252V107.152H702.478V105.451H696.766V103.54H694.855V101.461H696.766V99.55H704.62V101.65H696.976V103.33H702.688V105.241H704.62V107.362H702.688V109.252H694.855ZM707.159 109.252V99.55H713.102V101.461H714.782V99.55H718.835V101.461H720.725V109.252H718.625V101.65H714.992V109.252H712.892V101.65H709.28V109.252H707.159ZM727.462 109.252V97.66H729.373V95.749H735.295V97.66H737.227V99.76H735.085V97.87H729.583V101.461H733.405V103.54H729.583V109.252H727.462ZM739.586 109.252V107.362H737.675V101.461H739.586V99.55H745.508V101.461H747.44V107.362H745.508V109.252H739.586ZM739.796 107.152H745.298V101.65H739.796V107.152ZM749.98 109.252V101.461H751.891V99.55H757.813V101.461H759.745V103.54H757.603V101.65H752.101V109.252H749.98ZM766.489 109.252V99.55H768.61V109.252H766.489ZM766.489 97.87V95.749H768.61V97.87H766.489ZM774.309 109.252V107.362H772.419V101.65H770.508V99.55H772.419V95.749H774.519V99.55H780.273V101.65H774.519V107.152H780.063V105.241H782.184V107.362H780.273V109.252H774.309ZM784.31 109.252V107.152H791.933V105.451H786.221V103.54H784.31V101.461H786.221V99.55H794.075V101.65H786.431V103.33H792.143V105.241H794.075V107.362H792.143V109.252H784.31ZM802.73 109.252V107.362H800.819V101.461H802.73V99.55H808.652V101.461H810.584V103.54H808.442V101.65H802.94V103.33H806.762V105.451H802.94V107.152H808.442V105.22H810.584V107.341H808.652V109.252H802.73ZM813.123 109.252V99.55H820.956V101.461H822.888V109.252H820.746V101.65H815.244V109.252H813.123ZM828.199 109.252V107.362H826.288V103.54H824.377V99.55H826.498V103.33H828.388V107.152H830.11V103.33H832V99.55H834.142V103.54H832.21V107.362H830.32V109.252H828.199ZM836.277 109.252V99.55H838.398V109.252H836.277ZM836.277 97.87V95.749H838.398V97.87H836.277ZM840.932 109.252V101.461H842.843V99.55H848.765V101.461H850.697V103.54H848.555V101.65H843.053V109.252H840.932ZM854.512 109.252V107.362H852.601V101.461H854.512V99.55H860.434V101.461H862.366V107.362H860.434V109.252H854.512ZM854.722 107.152H860.224V101.65H854.722V107.152ZM864.906 109.252V99.55H872.739V101.461H874.671V109.252H872.529V101.65H867.027V109.252H864.906ZM877.21 109.252V99.55H883.153V101.461H884.833V99.55H888.886V101.461H890.776V109.252H888.676V101.65H885.043V109.252H882.943V101.65H879.331V109.252H877.21ZM895.015 109.252V107.362H893.104V101.461H895.015V99.55H900.937V101.461H902.869V103.54H900.727V101.65H895.225V103.33H899.047V105.451H895.225V107.152H900.727V105.22H902.869V107.341H900.937V109.252H895.015ZM905.408 109.252V99.55H913.241V101.461H915.173V109.252H913.031V101.65H907.529V109.252H905.408ZM920.673 109.252V107.362H918.783V101.65H916.872V99.55H918.783V95.749H920.883V99.55H926.637V101.65H920.883V107.152H926.427V105.241H928.548V107.362H926.637V109.252H920.673ZM931.084 109V106.879H933.205V109H931.084ZM941.855 109.252V107.362H939.944V97.66H941.855V95.749H947.777V97.66H949.709V107.362H947.777V109.252H941.855ZM942.065 107.152H947.567V97.87H942.065V107.152ZM952.248 109.252V99.55H960.081V101.461H962.013V109.252H959.871V101.65H954.369V109.252H952.248ZM966.054 109.252V107.362H964.143V101.461H966.054V99.55H971.976V101.461H973.908V103.54H971.766V101.65H966.264V107.152H971.766V105.241H973.908V107.362H971.976V109.252H966.054ZM977.723 109.252V107.362H975.812V101.461H977.723V99.55H983.645V101.461H985.577V103.54H983.435V101.65H977.933V103.33H981.755V105.451H977.933V107.152H983.435V105.22H985.577V107.341H983.645V109.252H977.723ZM992.321 109.252V107.152H999.944V105.451H994.232V103.54H992.321V101.461H994.232V99.55H1002.09V101.65H994.442V103.33H1000.15V105.241H1002.09V107.362H1000.15V109.252H992.321ZM1006.13 109.252V107.362H1004.22V101.461H1006.13V99.55H1012.05V101.461H1013.98V103.54H1011.84V101.65H1006.34V103.33H1010.16V105.451H1006.34V107.152H1011.84V105.22H1013.98V107.341H1012.05V109.252H1006.13ZM1016.52 109.252V95.749H1018.64V109.252H1016.52ZM1022.68 109.252V107.362H1020.76V101.461H1022.68V99.55H1028.6V101.461H1030.53V103.54H1028.39V101.65H1022.89V103.33H1026.71V105.451H1022.89V107.152H1028.39V105.22H1030.53V107.341H1028.6V109.252H1022.68ZM1034.98 109.252V107.362H1033.07V101.461H1034.98V99.55H1040.9V101.461H1042.83V103.54H1040.69V101.65H1035.19V107.152H1040.69V105.241H1042.83V107.362H1040.9V109.252H1034.98ZM1048.13 109.252V107.362H1046.24V101.65H1044.33V99.55H1046.24V95.749H1048.34V99.55H1054.09V101.65H1048.34V107.152H1053.88V105.241H1056V107.362H1054.09V109.252H1048.13ZM1059.82 109.252V107.362H1057.9V101.461H1059.82V99.55H1065.74V101.461H1067.67V103.54H1065.53V101.65H1060.03V103.33H1063.85V105.451H1060.03V107.152H1065.53V105.22H1067.67V107.341H1065.74V109.252H1059.82ZM1072.12 109.252V107.362H1070.21V101.461H1072.12V99.55H1077.85V95.749H1079.97V107.362H1078.04V109.252H1072.12ZM1072.33 107.152H1077.83V101.65H1072.33V107.152ZM1083.46 110.89V109.714H1084.42V109H1082.51V106.879H1084.63V108.79H1085.58V109.924H1084.63V110.89H1083.46ZM1092.32 109.252V95.749H1094.44V109.252H1092.32ZM1096.97 109.252V99.55H1099.09V109.252H1096.97ZM1096.97 97.87V95.749H1099.09V97.87H1096.97ZM1101.22 109.252V99.55H1109.05V101.461H1110.98V109.252H1108.84V101.65H1103.34V109.252H1101.22ZM1113.11 109.252V95.749H1115.23V103.33H1116.91V101.461H1120.73V99.55H1122.88V101.65H1120.94V103.54H1117.12V105.241H1120.94V107.152H1122.88V109.252H1120.73V107.362H1116.91V105.451H1115.23V109.252H1113.11ZM1133.42 109.252V107.362H1131.53V101.65H1129.62V99.55H1131.53V95.749H1133.63V99.55H1139.39V101.65H1133.63V107.152H1139.18V105.241H1141.3V107.362H1139.39V109.252H1133.42ZM1143.42 109.252V95.749H1145.54V101.461H1147.22V99.55H1151.26V101.461H1153.19V109.252H1151.05V101.65H1147.43V103.54H1145.54V109.252H1143.42ZM1157.23 109.252V107.362H1155.32V101.461H1157.23V99.55H1163.15V101.461H1165.08V103.54H1162.94V101.65H1157.44V103.33H1161.26V105.451H1157.44V107.152H1162.94V105.22H1165.08V107.341H1163.15V109.252H1157.23ZM1171.83 109.252V107.152H1179.45V105.451H1173.74V103.54H1171.83V101.461H1173.74V99.55H1181.59V101.65H1173.95V103.33H1179.66V105.241H1181.59V107.362H1179.66V109.252H1171.83ZM1185.63 109.252V107.362H1183.72V101.461H1185.63V99.55H1191.55V101.461H1193.48V103.54H1191.34V101.65H1185.84V103.33H1189.66V105.451H1185.84V107.152H1191.34V105.22H1193.48V107.341H1191.55V109.252H1185.63ZM1196.02 109.252V99.55H1203.86V101.461H1205.79V109.252H1203.65V101.65H1198.15V109.252H1196.02ZM1207.92 109.252V107.152H1215.54V105.451H1209.83V103.54H1207.92V101.461H1209.83V99.55H1217.68V101.65H1210.04V103.33H1215.75V105.241H1217.68V107.362H1215.75V109.252H1207.92ZM1221.72 109.252V107.362H1219.81V101.461H1221.72V99.55H1227.65V101.461H1229.58V107.362H1227.65V109.252H1221.72ZM1221.93 107.152H1227.44V101.65H1221.93V107.152ZM1232.12 109.252V101.461H1234.03V99.55H1239.95V101.461H1241.88V103.54H1239.74V101.65H1234.24V109.252H1232.12ZM1244.01 109.252V107.152H1251.64V105.451H1245.92V103.54H1244.01V101.461H1245.92V99.55H1253.78V101.65H1246.13V103.33H1251.85V105.241H1253.78V107.362H1251.85V109.252H1244.01ZM1264.32 109.252V107.362H1262.43V101.65H1260.52V99.55H1262.43V95.749H1264.53V99.55H1270.29V101.65H1264.53V107.152H1270.08V105.241H1272.2V107.362H1270.29V109.252H1264.32ZM1276.01 109.252V107.362H1274.1V101.461H1276.01V99.55H1281.93V101.461H1283.86V107.362H1281.93V109.252H1276.01ZM1276.22 107.152H1281.72V101.65H1276.22V107.152ZM1294.41 109.252V107.362H1292.52V101.65H1290.61V99.55H1292.52V95.749H1294.62V99.55H1300.37V101.65H1294.62V107.152H1300.16V105.241H1302.28V107.362H1300.37V109.252H1294.41ZM1304.41 109.252V95.749H1306.53V101.461H1308.21V99.55H1312.24V101.461H1314.17V109.252H1312.03V101.65H1308.42V103.54H1306.53V109.252H1304.41ZM1318.21 109.252V107.362H1316.3V101.461H1318.21V99.55H1324.14V101.461H1326.07V103.54H1323.93V101.65H1318.42V103.33H1322.25V105.451H1318.42V107.152H1323.93V105.22H1326.07V107.341H1324.14V109.252H1318.21ZM1334.72 109.252V107.362H1332.81V101.461H1334.72V99.55H1340.64V101.461H1342.58V107.152H1344.49V109.252H1342.37V107.362H1340.64V109.252H1334.72ZM1334.93 107.152H1340.43V101.65H1334.93V107.152ZM1347.89 109.252V107.362H1345.98V101.461H1347.89V99.55H1353.81V101.461H1355.74V103.54H1353.6V101.65H1348.1V107.152H1353.6V105.241H1355.74V107.362H1353.81V109.252H1347.89ZM1361.04 109.252V107.362H1359.15V101.65H1357.24V99.55H1359.15V95.749H1361.25V99.55H1367V101.65H1361.25V107.152H1366.79V105.241H1368.91V107.362H1367V109.252H1361.04ZM1372.95 109.252V107.362H1371.04V99.55H1373.16V107.152H1378.66V99.55H1380.8V107.362H1378.87V109.252H1372.95ZM1384.84 109.252V107.362H1382.93V101.461H1384.84V99.55H1390.77V101.461H1392.7V107.152H1394.61V109.252H1392.49V107.362H1390.77V109.252H1384.84ZM1385.05 107.152H1390.56V101.65H1385.05V107.152ZM1398.63 109.252V107.362H1396.74V101.65H1394.83V99.55H1396.74V95.749H1398.84V99.55H1404.59V101.65H1398.84V107.152H1404.38V105.241H1406.5V107.362H1404.59V109.252H1398.63ZM1410.31 109.252V107.362H1408.4V101.461H1410.31V99.55H1416.24V101.461H1418.17V107.362H1416.24V109.252H1410.31ZM1410.52 107.152H1416.03V101.65H1410.52V107.152ZM1420.71 109.252V101.461H1422.62V99.55H1428.54V101.461H1430.47V103.54H1428.33V101.65H1422.83V109.252H1420.71ZM1432.6 109.252V107.152H1440.23V105.451H1434.51V103.54H1432.6V101.461H1434.51V99.55H1442.37V101.65H1434.72V103.33H1440.44V105.241H1442.37V107.362H1440.44V109.252H1432.6ZM1452.91 109.252V107.362H1451.02V101.65H1449.11V99.55H1451.02V95.749H1453.12V99.55H1458.88V101.65H1453.12V107.152H1458.67V105.241H1460.79V107.362H1458.88V109.252H1452.91ZM1464.6 109.252V107.362H1462.69V101.461H1464.6V99.55H1470.52V101.461H1472.45V107.362H1470.52V109.252H1464.6ZM1464.81 107.152H1470.31V101.65H1464.81V107.152ZM1481.11 109.252V107.362H1479.2V101.461H1481.11V99.55H1487.03V101.461H1488.96V103.54H1486.82V101.65H1481.32V107.152H1486.82V105.241H1488.96V107.362H1487.03V109.252H1481.11ZM1492.78 109.252V107.362H1490.87V101.461H1492.78V99.55H1498.7V101.461H1500.63V107.362H1498.7V109.252H1492.78ZM1492.99 107.152H1498.49V101.65H1492.99V107.152ZM1503.17 109.252V99.55H1509.11V101.461H1510.79V99.55H1514.85V101.461H1516.74V109.252H1514.64V101.65H1511V109.252H1508.9V101.65H1505.29V109.252H1503.17ZM1519.27 112.948V101.461H1521.18V99.55H1527.1V101.461H1529.03V107.362H1527.1V109.252H1521.39V112.948H1519.27ZM1521.39 107.152H1526.89V101.65H1521.39V107.152ZM1531.57 109.252V95.749H1533.69V109.252H1531.57ZM1537.73 109.252V107.362H1535.82V101.461H1537.73V99.55H1543.65V101.461H1545.58V103.54H1543.44V101.65H1537.94V103.33H1541.76V105.451H1537.94V107.152H1543.44V105.22H1545.58V107.341H1543.65V109.252H1537.73ZM1551.92 109.252V107.362H1550.03V101.65H1548.12V99.55H1550.03V95.749H1552.13V99.55H1557.89V101.65H1552.13V107.152H1557.68V105.241H1559.8V107.362H1557.89V109.252H1551.92ZM1563.61 109.252V107.362H1561.7V101.461H1563.61V99.55H1569.53V101.461H1571.46V103.54H1569.32V101.65H1563.82V103.33H1567.64V105.451H1563.82V107.152H1569.32V105.22H1571.46V107.341H1569.53V109.252H1563.61ZM1582.01 109.252V107.362H1580.12V101.65H1578.21V99.55H1580.12V95.749H1582.22V99.55H1587.97V101.65H1582.22V107.152H1587.76V105.241H1589.88V107.362H1587.97V109.252H1582.01ZM1592.01 109.252V95.749H1594.13V101.461H1595.81V99.55H1599.84V101.461H1601.78V109.252H1599.63V101.65H1596.02V103.54H1594.13V109.252H1592.01ZM1605.82 109.252V107.362H1603.9V101.461H1605.82V99.55H1611.74V101.461H1613.67V103.54H1611.53V101.65H1606.03V103.33H1609.85V105.451H1606.03V107.152H1611.53V105.22H1613.67V107.341H1611.74V109.252H1605.82ZM3.171 134.252V132.362H1.26V120.749H3.381V124.55H9.093V126.461H11.025V132.362H9.093V134.252H3.171ZM3.381 132.152H8.883V126.65H3.381V132.152ZM13.1545 134.252V126.461H15.0655V124.55H20.9875V126.461H22.9195V128.54H20.7775V126.65H15.2755V134.252H13.1545ZM26.7345 134.252V132.362H24.8235V126.461H26.7345V124.55H32.6565V126.461H34.5885V132.152H36.4995V134.252H34.3785V132.362H32.6565V134.252H26.7345ZM26.9445 132.152H32.4465V126.65H26.9445V132.152ZM38.3996 134.252V124.55H40.5206V134.252H38.3996ZM38.3996 122.87V120.749H40.5206V122.87H38.3996ZM42.6448 134.252V124.55H50.4778V126.461H52.4098V134.252H50.2678V126.65H44.7658V134.252H42.6448ZM55.8945 124.76V123.584H56.8605V122.87H54.9495V120.749H57.0705V122.66H58.0155V123.794H57.0705V124.76H55.8945ZM60.5481 134.252V132.152H68.1711V130.451H62.4591V128.54H60.5481V126.461H62.4591V124.55H70.3131V126.65H62.6691V128.33H68.3811V130.241H70.3131V132.362H68.3811V134.252H60.5481ZM77.0569 134.252V124.55H79.1779V132.152H82.7899V124.55H84.8899V132.152H88.5229V124.55H90.6229V132.362H88.7329V134.252H84.6799V132.362H82.9999V134.252H77.0569ZM93.1555 134.252V124.55H95.2765V134.252H93.1555ZM93.1555 122.87V120.749H95.2765V122.87H93.1555ZM97.8108 134.252V126.461H99.7218V124.55H105.644V126.461H107.576V128.54H105.434V126.65H99.9318V134.252H97.8108ZM110.115 134.252V124.55H112.236V134.252H110.115ZM110.115 122.87V120.749H112.236V122.87H110.115ZM114.361 134.252V124.55H122.194V126.461H124.126V134.252H121.984V126.65H116.482V134.252H114.361ZM128.166 138.053V136.163H126.255V134.063H128.376V135.953H133.899V132.362H128.166V130.451H126.255V126.461H128.166V124.55H134.109V126.461H136.02V136.163H134.109V138.053H128.166ZM128.376 130.241H133.899V126.65H128.376V130.241ZM144.675 134.252V132.362H142.764V126.461H144.675V124.55H150.597V126.461H152.529V132.152H154.44V134.252H152.319V132.362H150.597V134.252H144.675ZM144.885 132.152H150.387V126.65H144.885V132.152ZM156.34 134.252V124.55H164.173V126.461H166.105V134.252H163.963V126.65H158.461V134.252H156.34ZM170.146 134.252V132.362H168.235V126.461H170.146V124.55H175.879V120.749H178V132.362H176.068V134.252H170.146ZM170.356 132.152H175.858V126.65H170.356V132.152ZM186.654 134.252V132.362H184.743V120.749H186.864V124.55H192.576V126.461H194.508V132.362H192.576V134.252H186.654ZM186.864 132.152H192.366V126.65H186.864V132.152ZM196.638 134.252V126.461H198.549V124.55H204.471V126.461H206.403V128.54H204.261V126.65H198.759V134.252H196.638ZM208.943 134.252V124.55H211.064V134.252H208.943ZM208.943 122.87V120.749H211.064V122.87H208.943ZM213.188 134.252V124.55H221.021V126.461H222.953V134.252H220.811V126.65H215.309V134.252H213.188ZM226.993 138.053V136.163H225.082V134.063H227.203V135.953H232.726V132.362H226.993V130.451H225.082V126.461H226.993V124.55H232.936V126.461H234.847V136.163H232.936V138.053H226.993ZM227.203 130.241H232.726V126.65H227.203V130.241ZM243.502 138.053V136.163H241.591V134.063H243.712V135.953H249.235V132.362H243.502V130.451H241.591V124.55H243.712V130.241H249.235V124.55H251.356V136.163H249.445V138.053H243.502ZM255.807 134.252V132.362H253.896V126.461H255.807V124.55H261.729V126.461H263.661V132.362H261.729V134.252H255.807ZM256.017 132.152H261.519V126.65H256.017V132.152ZM268.111 134.252V132.362H266.2V124.55H268.321V132.152H273.823V124.55H275.965V132.362H274.033V134.252H268.111ZM278.3 134.252V126.461H280.211V124.55H286.133V126.461H288.065V128.54H285.923V126.65H280.421V134.252H278.3ZM296.72 134.252V132.362H294.809V126.461H296.72V124.55H302.642V126.461H304.574V132.362H302.642V134.252H296.72ZM296.93 132.152H302.432V126.65H296.93V132.152ZM307.114 134.252V126.461H309.025V124.55H314.947V126.461H316.879V128.54H314.737V126.65H309.235V134.252H307.114ZM320.919 138.053V136.163H319.008V134.063H321.129V135.953H326.652V132.362H320.919V130.451H319.008V126.461H320.919V124.55H326.862V126.461H328.773V136.163H326.862V138.053H320.919ZM321.129 130.241H326.652V126.65H321.129V130.241ZM332.588 134.252V132.362H330.677V126.461H332.588V124.55H338.51V126.461H340.442V132.152H342.353V134.252H340.232V132.362H338.51V134.252H332.588ZM332.798 132.152H338.3V126.65H332.798V132.152ZM344.253 134.252V124.55H352.086V126.461H354.018V134.252H351.876V126.65H346.374V134.252H344.253ZM356.558 134.252V124.55H358.679V134.252H356.558ZM356.558 122.87V120.749H358.679V122.87H356.558ZM361.213 134.252V132.152H368.836V130.451H363.124V128.54H361.213V126.461H363.124V124.55H370.978V126.65H363.334V128.33H369.046V130.241H370.978V132.362H369.046V134.252H361.213ZM373.518 134.252V124.55H379.461V126.461H381.141V124.55H385.194V126.461H387.084V134.252H384.984V126.65H381.351V134.252H379.251V126.65H375.639V134.252H373.518ZM397.622 134.252V132.362H395.732V126.65H393.821V124.55H395.732V120.749H397.832V124.55H403.586V126.65H397.832V132.152H403.376V130.241H405.497V132.362H403.586V134.252H397.622ZM409.308 134.252V132.362H407.397V126.461H409.308V124.55H415.23V126.461H417.162V132.362H415.23V134.252H409.308ZM409.518 132.152H415.02V126.65H409.518V132.152ZM423.906 134.252V120.749H426.027V134.252H423.906ZM428.561 134.252V124.55H430.682V134.252H428.561ZM428.561 122.87V120.749H430.682V122.87H428.561ZM433.216 134.252V122.66H435.127V120.749H441.049V122.66H442.981V124.76H440.839V122.87H435.337V126.461H439.159V128.54H435.337V134.252H433.216ZM445.34 134.252V132.362H443.429V126.461H445.34V124.55H451.262V126.461H453.194V128.54H451.052V126.65H445.55V128.33H449.372V130.451H445.55V132.152H451.052V130.22H453.194V132.341H451.262V134.252H445.34ZM455.734 134V131.879H457.855V134H455.734Z" fill="#1A1A1A"/>
</svg>
