<svg width="668" height="386" viewBox="0 0 668 386" fill="none" xmlns="http://www.w3.org/2000/svg">
<rect x="2.5" y="2.5" width="663" height="381" rx="17.5" fill="#1A1A1A"/>
<rect x="2.5" y="2.5" width="663" height="381" rx="17.5" stroke="#4AE3B5" stroke-width="5" stroke-dasharray="10 10"/>
<circle cx="138" cy="63" r="23.5" fill="#6C756B" stroke="#1A1A1A" stroke-width="3"/>
<circle cx="138" cy="141" r="23.5" fill="#6C756B" stroke="#1A1A1A" stroke-width="3"/>
<circle cx="138" cy="219" r="23.5" fill="#6C756B" stroke="#1A1A1A" stroke-width="3"/>
<circle cx="138" cy="297" r="23.5" fill="#6C756B" stroke="#1A1A1A" stroke-width="3"/>
<line x1="138.888" y1="61.7912" x2="236.888" y2="133.791" stroke="#6C756B" stroke-width="3"/>
<line x1="138.714" y1="139.681" x2="236.714" y2="192.681" stroke="#6C756B" stroke-width="3"/>
<line x1="137.409" y1="295.621" x2="235.409" y2="253.621" stroke="#6C756B" stroke-width="3"/>
<line x1="137.629" y1="217.547" x2="235.629" y2="192.547" stroke="#6C756B" stroke-width="3"/>
<line x1="143" y1="64.5" x2="6" y2="64.5" stroke="#6C756B" stroke-width="3"/>
<line x1="663" y1="64.5" x2="526" y2="64.5" stroke="#6C756B" stroke-width="3"/>
<line x1="668" y1="142.5" x2="531" y2="142.5" stroke="#6C756B" stroke-width="3"/>
<line x1="668" y1="220.5" x2="531" y2="220.5" stroke="#6C756B" stroke-width="3"/>
<line x1="663" y1="298.5" x2="526" y2="298.5" stroke="#6C756B" stroke-width="3"/>
<line x1="530.263" y1="298.307" x2="436.263" y2="245.307" stroke="#6C756B" stroke-width="3"/>
<line x1="530.572" y1="220.438" x2="436.572" y2="192.438" stroke="#6C756B" stroke-width="3"/>
<line x1="531.704" y1="142.324" x2="437.704" y2="192.324" stroke="#6C756B" stroke-width="3"/>
<line x1="531.912" y1="64.1908" x2="437.912" y2="136.191" stroke="#6C756B" stroke-width="3"/>
<line x1="138" y1="142.5" x2="1" y2="142.5" stroke="#6C756B" stroke-width="3"/>
<line x1="138" y1="220.5" x2="1" y2="220.5" stroke="#6C756B" stroke-width="3"/>
<line x1="143" y1="298.5" x2="6" y2="298.5" stroke="#6C756B" stroke-width="3"/>
<circle cx="531" cy="63" r="23.5" fill="#6C756B" stroke="#1A1A1A" stroke-width="3"/>
<circle cx="531" cy="141" r="23.5" fill="#6C756B" stroke="#1A1A1A" stroke-width="3"/>
<circle cx="531" cy="219" r="23.5" fill="#6C756B" stroke="#1A1A1A" stroke-width="3"/>
<circle cx="531" cy="297" r="23.5" fill="#6C756B" stroke="#1A1A1A" stroke-width="3"/>
<circle cx="236" cy="134" r="23.5" fill="#DDB967" stroke="#1A1A1A" stroke-width="3"/>
<circle cx="236" cy="193" r="23.5" fill="#DDB967" stroke="#1A1A1A" stroke-width="3"/>
<circle cx="236" cy="252" r="23.5" fill="#DDB967" stroke="#1A1A1A" stroke-width="3"/>
<circle cx="436" cy="134" r="23.5" fill="#985F99" stroke="#1A1A1A" stroke-width="3"/>
<circle cx="436" cy="191" r="23.5" fill="#985F99" stroke="#1A1A1A" stroke-width="3"/>
<circle cx="436" cy="248" r="23.5" fill="#985F99" stroke="#1A1A1A" stroke-width="3"/>
</svg>
