<svg width="668" height="386" viewBox="0 0 668 386" fill="none" xmlns="http://www.w3.org/2000/svg">
<rect x="2.5" y="2.5" width="663" height="381" rx="17.5" fill="#1A1A1A"/>
<rect x="2.5" y="2.5" width="663" height="381" rx="17.5" stroke="#4AE3B5" stroke-width="5" stroke-dasharray="10 10"/>
<circle cx="138" cy="63" r="23.5" fill="#6C756B" stroke="#1A1A1A" stroke-width="3"/>
<circle cx="138" cy="141" r="23.5" fill="#6C756B" stroke="#1A1A1A" stroke-width="3"/>
<circle cx="138" cy="219" r="23.5" fill="#6C756B" stroke="#1A1A1A" stroke-width="3"/>
<circle cx="138" cy="297" r="23.5" fill="#6C756B" stroke="#1A1A1A" stroke-width="3"/>
<line x1="138.888" y1="61.7912" x2="236.888" y2="133.791" stroke="#6C756B" stroke-width="3"/>
<line x1="138.714" y1="139.681" x2="236.714" y2="192.681" stroke="#6C756B" stroke-width="3"/>
<line x1="137.409" y1="295.621" x2="235.409" y2="253.621" stroke="#6C756B" stroke-width="3"/>
<line x1="137.629" y1="217.547" x2="235.629" y2="192.547" stroke="#6C756B" stroke-width="3"/>
<line x1="143" y1="64.5" x2="6" y2="64.5" stroke="#6C756B" stroke-width="3"/>
<line x1="663" y1="64.5" x2="526" y2="64.5" stroke="#6C756B" stroke-width="3"/>
<line x1="668" y1="142.5" x2="531" y2="142.5" stroke="#6C756B" stroke-width="3"/>
<line x1="668" y1="220.5" x2="531" y2="220.5" stroke="#6C756B" stroke-width="3"/>
<line x1="663" y1="298.5" x2="526" y2="298.5" stroke="#6C756B" stroke-width="3"/>
<line x1="530.263" y1="298.307" x2="436.263" y2="245.307" stroke="#6C756B" stroke-width="3"/>
<line x1="530.572" y1="220.438" x2="436.572" y2="192.438" stroke="#6C756B" stroke-width="3"/>
<line x1="531.704" y1="142.324" x2="437.704" y2="192.324" stroke="#6C756B" stroke-width="3"/>
<line x1="531.912" y1="64.1908" x2="437.912" y2="136.191" stroke="#6C756B" stroke-width="3"/>
<line x1="138" y1="142.5" x2="1" y2="142.5" stroke="#6C756B" stroke-width="3"/>
<line x1="138" y1="220.5" x2="1" y2="220.5" stroke="#6C756B" stroke-width="3"/>
<line x1="143" y1="298.5" x2="6" y2="298.5" stroke="#6C756B" stroke-width="3"/>
<circle cx="531" cy="63" r="23.5" fill="#6C756B" stroke="#1A1A1A" stroke-width="3"/>
<circle cx="531" cy="141" r="23.5" fill="#6C756B" stroke="#1A1A1A" stroke-width="3"/>
<circle cx="531" cy="219" r="23.5" fill="#6C756B" stroke="#1A1A1A" stroke-width="3"/>
<circle cx="531" cy="297" r="23.5" fill="#6C756B" stroke="#1A1A1A" stroke-width="3"/>
<path d="M200.098 318.198V315.966H206.506V315.066H201.7V313.482H200.098V311.268H201.7V309.702H208.648V311.934H202.222V312.816H207.028V314.4H208.648V316.65H207.028V318.198H200.098ZM212.089 318.198V316.65H210.487V311.268H212.089V309.702H217.417V311.268H219.037V313.482H216.895V311.934H212.611V312.816H215.833V315.066H212.611V315.966H216.895V314.382H219.037V316.632H217.417V318.198H212.089ZM221.227 318.198V309.702H228.157V311.268H229.777V318.198H227.635V311.934H223.351V318.198H221.227ZM231.616 318.198V315.966H238.024V315.066H233.218V313.482H231.616V311.268H233.218V309.702H240.166V311.934H233.74V312.816H238.546V314.4H240.166V316.65H238.546V318.198H231.616ZM243.606 318.198V316.65H242.004V311.268H243.606V309.702H248.934V311.268H250.554V316.65H248.934V318.198H243.606ZM244.128 315.966H248.412V311.934H244.128V315.966ZM252.744 318.198V311.268H254.346V309.702H259.674V311.268H261.294V313.482H259.152V311.934H254.868V318.198H252.744ZM263.133 318.198V315.966H269.541V315.066H264.735V313.482H263.133V311.268H264.735V309.702H271.683V311.934H265.257V312.816H270.063V314.4H271.683V316.65H270.063V318.198H263.133Z" fill="#4AE3B5"/>
<path d="M390.7 318.198V316.65H389.098V311.268H390.7V309.702H396.028V311.268H397.666V315.966H399.268V318.198H397.126V316.65H396.028V318.198H390.7ZM391.222 315.966H395.506V311.934H391.222V315.966ZM402.161 318.198V316.65H400.559V311.268H402.161V309.702H407.489V311.268H409.109V313.482H406.967V311.934H402.683V315.966H406.967V314.4H409.109V316.65H407.489V318.198H402.161ZM413.589 318.198V316.65H412.005V311.934H410.403V309.702H412.005V306.552H414.129V309.702H418.953V311.934H414.129V315.966H418.431V314.4H420.573V316.65H418.953V318.198H413.589ZM424.011 318.198V316.65H422.409V309.702H424.533V315.966H428.817V309.702H430.959V316.65H429.339V318.198H424.011ZM434.399 318.198V316.65H432.797V311.268H434.399V309.702H439.727V311.268H441.365V315.966H442.967V318.198H440.825V316.65H439.727V318.198H434.399ZM434.921 315.966H439.205V311.934H434.921V315.966ZM446.354 318.198V316.65H444.77V311.934H443.168V309.702H444.77V306.552H446.894V309.702H451.718V311.934H446.894V315.966H451.196V314.4H453.338V316.65H451.718V318.198H446.354ZM456.583 318.198V316.65H454.981V311.268H456.583V309.702H461.911V311.268H463.531V316.65H461.911V318.198H456.583ZM457.105 315.966H461.389V311.934H457.105V315.966ZM465.721 318.198V311.268H467.323V309.702H472.651V311.268H474.271V313.482H472.129V311.934H467.845V318.198H465.721ZM476.11 318.198V315.966H482.518V315.066H477.712V313.482H476.11V311.268H477.712V309.702H484.66V311.934H478.234V312.816H483.04V314.4H484.66V316.65H483.04V318.198H476.11Z" fill="#4AE3B5"/>
<path d="M222.064 66.198V64.65H220.462V54.552H222.586V63.966H226.87V62.4H229.012V64.65H227.392V66.198H222.064ZM231.202 66.198V57.702H233.326V66.198H231.202ZM231.202 56.802V54.552H233.326V56.802H231.202ZM235.175 66.198V57.702H242.105V59.268H243.725V66.198H241.583V59.934H237.299V66.198H235.175ZM245.564 66.198V54.552H247.688V60.816H248.75V59.268H251.972V57.702H254.114V59.934H252.494V61.482H249.29V62.4H252.494V63.966H254.114V66.198H251.972V64.65H248.75V63.066H247.688V66.198H245.564ZM261.51 66.198V64.65H259.908V62.4H262.032V63.966H266.316V61.482H261.51V59.934H259.908V56.136H261.51V54.552H266.838V56.136H268.458V58.368H266.316V56.802H262.032V59.268H266.838V60.816H268.458V64.65H266.838V66.198H261.51ZM271.705 66.198V64.65H270.103V59.268H271.705V57.702H277.033V59.268H278.653V61.482H276.511V59.934H272.227V60.816H275.449V63.066H272.227V63.966H276.511V62.382H278.653V64.632H277.033V66.198H271.705ZM280.843 66.198V57.702H287.773V59.268H289.393V66.198H287.251V59.934H282.967V66.198H280.843ZM291.232 66.198V63.966H297.64V63.066H292.834V61.482H291.232V59.268H292.834V57.702H299.782V59.934H293.356V60.816H298.162V62.4H299.782V64.65H298.162V66.198H291.232ZM303.222 66.198V64.65H301.62V59.268H303.222V57.702H308.55V59.268H310.17V64.65H308.55V66.198H303.222ZM303.744 63.966H308.028V59.934H303.744V63.966ZM312.361 66.198V59.268H313.963V57.702H319.291V59.268H320.911V61.482H318.769V59.934H314.485V66.198H312.361ZM322.749 66.198V63.966H329.157V63.066H324.351V61.482H322.749V59.268H324.351V57.702H331.299V59.934H324.873V60.816H329.679V62.4H331.299V64.65H329.679V66.198H322.749ZM338.695 66.198V64.65H337.093V62.4H338.695V60.816H340.279V59.934H338.695V58.368H337.093V56.136H338.695V54.552H344.023V56.136H345.643V58.368H344.023V59.934H342.439V60.816H344.023V62.4H345.661V63.966H347.263V66.198H345.121V64.65H344.023V66.198H338.695ZM339.217 63.966H343.501V63.066H341.899V61.482H340.819V63.066H339.217V63.966ZM340.819 59.268H341.899V57.702H343.501V56.802H339.217V57.702H340.819V59.268ZM353.054 66.198V57.702H354.656V56.136H356.24V54.552H358.4V56.136H359.984V57.702H361.604V66.198H359.462V63.066H355.178V66.198H353.054ZM355.178 60.816H359.462V58.368H357.86V56.802H356.78V58.368H355.178V60.816ZM365.045 66.198V64.65H363.443V59.268H365.045V57.702H370.373V59.268H371.993V61.482H369.851V59.934H365.567V63.966H369.851V62.4H371.993V64.65H370.373V66.198H365.045ZM376.472 66.198V64.65H374.888V59.934H373.286V57.702H374.888V54.552H377.012V57.702H381.836V59.934H377.012V63.966H381.314V62.4H383.456V64.65H381.836V66.198H376.472ZM386.894 66.198V64.65H385.292V57.702H387.416V63.966H391.7V57.702H393.842V64.65H392.222V66.198H386.894ZM397.283 66.198V64.65H395.681V59.268H397.283V57.702H402.611V59.268H404.249V63.966H405.851V66.198H403.709V64.65H402.611V66.198H397.283ZM397.805 63.966H402.089V59.934H397.805V63.966ZM409.238 66.198V64.65H407.654V59.934H406.052V57.702H407.654V54.552H409.778V57.702H414.602V59.934H409.778V63.966H414.08V62.4H416.222V64.65H414.602V66.198H409.238ZM419.467 66.198V64.65H417.865V59.268H419.467V57.702H424.795V59.268H426.415V64.65H424.795V66.198H419.467ZM419.989 63.966H424.273V59.934H419.989V63.966ZM428.605 66.198V59.268H430.207V57.702H435.535V59.268H437.155V61.482H435.013V59.934H430.729V66.198H428.605ZM438.994 66.198V63.966H445.402V63.066H440.596V61.482H438.994V59.268H440.596V57.702H447.544V59.934H441.118V60.816H445.924V62.4H447.544V64.65H445.924V66.198H438.994Z" fill="#4AE3B5"/>
</svg>
