<svg width="1652" height="140" viewBox="0 0 1652 140" fill="none" xmlns="http://www.w3.org/2000/svg">
<rect width="1652" height="140" fill="#4AE3B5"/>
<path d="M1.68 26.336V8.332H4.508V10.88H7.028V13.4H9.604V20.988H11.844V8.332H14.7V26.336H11.844V23.816H9.324V21.268H6.748V13.68H4.508V26.336H1.68ZM20.0874 26.336V23.816H17.5394V15.948H20.0874V13.4H27.9834V15.948H30.5594V18.72H27.7034V16.2H20.3674V18.44H25.4634V21.268H20.3674V23.536H27.7034V20.96H30.5594V23.788H27.9834V26.336H20.0874ZM36.4936 26.336V23.816H33.9456V13.4H36.7736V23.536H44.1096V13.4H46.9656V23.816H44.3896V26.336H36.4936ZM50.0784 26.336V15.948H52.6264V13.4H60.5224V15.948H63.0984V18.72H60.2424V16.2H52.9064V26.336H50.0784ZM68.185 26.336V23.816H65.637V15.948H68.185V13.4H76.081V15.948H78.657V23.536H81.205V26.336H78.377V23.816H76.081V26.336H68.185ZM68.465 23.536H75.801V16.2H68.465V23.536ZM83.7386 26.336V8.332H86.5666V26.336H83.7386ZM95.5511 26.336V8.332H98.3791V10.88H100.899V13.4H103.475V20.988H105.715V8.332H108.571V26.336H105.715V23.816H103.195V21.268H100.619V13.68H98.3791V26.336H95.5511ZM113.958 26.336V23.816H111.41V15.948H113.958V13.4H121.854V15.948H124.43V18.72H121.574V16.2H114.238V18.44H119.334V21.268H114.238V23.536H121.574V20.96H124.43V23.788H121.854V26.336H113.958ZM132.885 26.336V23.816H130.365V16.2H127.817V13.4H130.365V8.332H133.165V13.4H140.837V16.2H133.165V23.536H140.557V20.988H143.385V23.816H140.837V26.336H132.885ZM145.918 26.336V13.4H148.746V23.536H153.562V13.4H156.362V23.536H161.206V13.4H164.006V23.816H161.486V26.336H156.082V23.816H153.842V26.336H145.918ZM169.083 26.336V23.816H166.535V15.948H169.083V13.4H176.979V15.948H179.555V23.816H176.979V26.336H169.083ZM169.363 23.536H176.699V16.2H169.363V23.536ZM182.942 26.336V15.948H185.49V13.4H193.386V15.948H195.962V18.72H193.106V16.2H185.77V26.336H182.942ZM198.801 26.336V8.332H201.629V18.44H203.869V15.948H208.965V13.4H211.821V16.2H209.245V18.72H204.149V20.988H209.245V23.536H211.821V26.336H208.965V23.816H203.869V21.268H201.629V26.336H198.801ZM225.881 30.48V25.328H223.361V20.288H220.813V14.94H223.361V9.844H225.881V4.804H228.737V10.124H226.161V15.22H223.641V20.008H226.161V25.132H228.737V30.48H225.881ZM233.833 26.336V23.816H231.285V10.88H233.833V8.332H241.729V10.88H244.305V16.2H241.729V18.44H244.305V23.816H241.729V26.336H233.833ZM234.113 23.536H241.449V18.72H236.353V15.948H241.449V11.16H234.113V23.536ZM247.692 26.336V10.88H250.24V8.332H258.136V10.88H260.712V18.72H258.136V21.268H256.904V23.536H259.424V26.336H256.624V23.816H254.048V21.268H250.52V26.336H247.692ZM250.52 18.44H257.856V11.16H250.52V18.44ZM264.098 26.336V13.4H266.646V10.88H269.166V8.332H272.022V10.88H274.542V13.4H277.118V26.336H274.262V21.268H266.926V26.336H264.098ZM266.926 18.44H274.262V13.68H271.742V11.16H269.446V13.68H266.926V18.44ZM280.504 26.336V23.536H283.052V11.16H280.504V8.332H288.428V11.16H285.852V23.536H288.428V26.336H280.504ZM291.825 26.336V8.332H294.653V10.88H297.173V13.4H299.749V20.988H301.989V8.332H304.845V26.336H301.989V23.816H299.469V21.268H296.893V13.68H294.653V26.336H291.825ZM307.391 30.48V25.132H309.939V20.008H312.487V15.22H309.939V10.124H307.391V4.804H310.219V9.844H312.767V14.94H315.315V20.288H312.767V25.328H310.219V30.48H307.391Z" fill="#1A1A1A"/>
<path d="M3.171 93.252V91.362H1.26V81.66H3.171V79.749H9.093V81.66H11.025V85.65H8.883V81.87H3.381V91.152H8.883V87.33H11.025V91.362H9.093V93.252H3.171ZM15.4757 93.252V91.362H13.5647V83.55H15.6857V91.152H21.1877V83.55H23.3297V91.362H21.3977V93.252H15.4757ZM25.6643 93.252V91.152H33.2873V89.451H27.5753V87.54H25.6643V85.461H27.5753V83.55H35.4293V85.65H27.7853V87.33H33.4973V89.241H35.4293V91.362H33.4973V93.252H25.6643ZM41.77 93.252V91.362H39.88V85.65H37.969V83.55H39.88V79.749H41.98V83.55H47.734V85.65H41.98V91.152H47.524V89.241H49.645V91.362H47.734V93.252H41.77ZM53.4562 93.252V91.362H51.5452V85.461H53.4562V83.55H59.3782V85.461H61.3102V91.362H59.3782V93.252H53.4562ZM53.6662 91.152H59.1682V85.65H53.6662V91.152ZM63.8498 93.252V83.55H69.7928V85.461H71.4728V83.55H75.5258V85.461H77.4158V93.252H75.3158V85.65H71.6828V93.252H69.5828V85.65H65.9708V93.252H63.8498ZM79.9485 93.252V83.55H82.0695V93.252H79.9485ZM79.9485 81.87V79.749H82.0695V81.87H79.9485ZM84.3987 93.252V91.152H86.3097V89.241H88.1997V87.33H90.1317V85.65H84.3987V83.55H94.1637V85.65H92.2317V87.54H90.3417V89.451H88.4097V91.152H94.1637V93.252H84.3987ZM98.2042 93.252V91.362H96.2932V85.461H98.2042V83.55H104.126V85.461H106.058V87.54H103.916V85.65H98.4142V87.33H102.236V89.451H98.4142V91.152H103.916V89.22H106.058V91.341H104.126V93.252H98.2042ZM114.713 97.053V95.163H112.802V93.063H114.923V94.953H120.446V91.362H114.713V89.451H112.802V83.55H114.923V89.241H120.446V83.55H122.567V95.163H120.656V97.053H114.713ZM127.018 93.252V91.362H125.107V85.461H127.018V83.55H132.94V85.461H134.872V91.362H132.94V93.252H127.018ZM127.228 91.152H132.73V85.65H127.228V91.152ZM139.322 93.252V91.362H137.411V83.55H139.532V91.152H145.034V83.55H147.176V91.362H145.244V93.252H139.322ZM149.511 93.252V85.461H151.422V83.55H157.344V85.461H159.276V87.54H157.134V85.65H151.632V93.252H149.511ZM166.02 93.252V91.152H173.643V89.451H167.931V87.54H166.02V85.461H167.931V83.55H175.785V85.65H168.141V87.33H173.853V89.241H175.785V91.362H173.853V93.252H166.02ZM178.324 96.948V85.461H180.235V83.55H186.157V85.461H188.089V91.362H186.157V93.252H180.445V96.948H178.324ZM180.445 91.152H185.947V85.65H180.445V91.152ZM192.54 93.252V91.362H190.629V85.461H192.54V83.55H198.462V85.461H200.394V87.54H198.252V85.65H192.75V87.33H196.572V89.451H192.75V91.152H198.252V89.22H200.394V91.341H198.462V93.252H192.54ZM204.845 93.252V91.362H202.934V85.461H204.845V83.55H210.767V85.461H212.699V87.54H210.557V85.65H205.055V91.152H210.557V89.241H212.699V91.362H210.767V93.252H204.845ZM215.239 93.252V83.55H217.36V93.252H215.239ZM215.239 81.87V79.749H217.36V81.87H215.239ZM221.395 93.252V91.362H219.484V85.461H221.395V83.55H227.317V85.461H229.249V87.54H227.107V85.65H221.605V87.33H225.427V89.451H221.605V91.152H227.107V89.22H229.249V91.341H227.317V93.252H221.395ZM231.788 93.252V91.152H239.411V89.451H233.699V87.54H231.788V85.461H233.699V83.55H241.553V85.65H233.909V87.33H239.621V89.241H241.553V91.362H239.621V93.252H231.788ZM245.038 83.76V82.584H246.004V81.87H244.093V79.749H246.214V81.66H247.159V82.794H246.214V83.76H245.038ZM258.999 83.76V81.849H258.054V80.715H258.999V79.749H260.175V80.904H259.209V81.639H261.12V83.76H258.999ZM254.82 83.76V81.849H253.896V80.715H254.82V79.749H255.996V80.904H255.03V81.639H256.962V83.76H254.82ZM265.568 93.252V91.362H263.657V81.66H265.568V79.749H271.49V81.66H273.422V85.65H271.49V87.33H273.422V91.362H271.49V93.252H265.568ZM265.778 91.152H271.28V87.54H267.458V85.461H271.28V81.87H265.778V91.152ZM276.202 93.3V84.025H278.477V81.75H285.527V84.025H287.827V86.5H285.277V84.25H278.727V93.3H276.202ZM292.369 93.3V91.05H290.094V84.025H292.369V81.75H299.419V84.025H301.719V90.8H303.994V93.3H301.469V91.05H299.419V93.3H292.369ZM292.619 90.8H299.169V84.25H292.619V90.8ZM306.256 93.3V81.75H308.781V93.3H306.256ZM306.256 79.75V77.225H308.781V79.75H306.256ZM311.31 93.3V81.75H320.635V84.025H322.935V93.3H320.385V84.25H313.835V93.3H311.31ZM330.842 83.76V82.584H331.808V81.87H329.876V79.749H332.018V81.66H332.942V82.794H332.018V83.76H330.842ZM326.663 83.76V82.584H327.629V81.87H325.718V79.749H327.839V81.66H328.784V82.794H327.839V83.76H326.663ZM339.684 93.252V79.749H341.805V85.461H343.485V83.55H347.517V85.461H349.449V93.252H347.307V85.65H343.695V87.54H341.805V93.252H339.684ZM353.489 93.252V91.362H351.578V85.461H353.489V83.55H359.411V85.461H361.343V87.54H359.201V85.65H353.699V87.33H357.521V89.451H353.699V91.152H359.201V89.22H361.343V91.341H359.411V93.252H353.489ZM363.883 93.252V85.461H365.794V83.55H371.716V85.461H373.648V87.54H371.506V85.65H366.004V93.252H363.883ZM377.463 93.252V91.362H375.552V85.461H377.463V83.55H383.385V85.461H385.317V87.54H383.175V85.65H377.673V87.33H381.495V89.451H377.673V91.152H383.175V89.22H385.317V91.341H383.385V93.252H377.463ZM398.031 93.36V77.1H395.631V79.8H392.601V76.8H395.331V74.07H398.331V76.8H401.091V93.36H398.031ZM404.73 93V89.97H407.76V93H404.73ZM418.757 93.252V91.362H416.846V81.66H418.757V79.749H424.679V81.66H426.611V85.65H424.469V81.87H418.967V91.152H424.469V87.33H426.611V91.362H424.679V93.252H418.757ZM429.151 93.252V79.749H431.272V85.461H432.952V83.55H436.984V85.461H438.916V93.252H436.774V85.65H433.162V87.54H431.272V93.252H429.151ZM442.956 93.252V91.362H441.045V85.461H442.956V83.55H448.878V85.461H450.81V91.362H448.878V93.252H442.956ZM443.166 91.152H448.668V85.65H443.166V91.152ZM455.261 93.252V91.362H453.35V85.461H455.261V83.55H461.183V85.461H463.115V91.362H461.183V93.252H455.261ZM455.471 91.152H460.973V85.65H455.471V91.152ZM465.655 93.252V91.152H473.278V89.451H467.566V87.54H465.655V85.461H467.566V83.55H475.42V85.65H467.776V87.33H473.488V89.241H475.42V91.362H473.488V93.252H465.655ZM479.46 93.252V91.362H477.549V85.461H479.46V83.55H485.382V85.461H487.314V87.54H485.172V85.65H479.67V87.33H483.492V89.451H479.67V91.152H485.172V89.22H487.314V91.341H485.382V93.252H479.46ZM495.948 93.252V91.383H494.058V83.424H496.368V90.9H501.618V83.424H503.949V91.383H502.038V93.252H495.948ZM506.486 96.864V85.314H508.376V83.424H514.466V85.314H516.377V91.383H514.466V93.252H508.796V96.864H506.486ZM508.796 90.9H514.046V85.776H508.796V90.9ZM526.897 93.252V91.383H525.007V85.776H523.117V83.424H525.007V79.707H527.296V83.424H533.008V85.776H527.296V90.9H532.588V89.01H534.898V91.383H533.008V93.252H526.897ZM538.686 93.252V91.383H536.796V85.314H538.686V83.424H544.776V85.314H546.687V91.383H544.776V93.252H538.686ZM539.106 90.9H544.356V85.776H539.106V90.9ZM555.339 93.252V91.362H553.428V89.241H555.549V91.152H561.051V87.54H555.339V85.461H561.051V81.87H555.549V83.76H553.428V81.66H555.339V79.749H561.261V81.66H563.193V85.65H561.261V87.33H563.193V91.362H561.261V93.252H555.339ZM569.937 93.252V91.152H577.56V89.451H571.848V87.54H569.937V85.461H571.848V83.55H579.702V85.65H572.058V87.33H577.77V89.241H579.702V91.362H577.77V93.252H569.937ZM583.742 93.252V91.362H581.831V85.461H583.742V83.55H589.664V85.461H591.596V87.54H589.454V85.65H583.952V87.33H587.774V89.451H583.952V91.152H589.454V89.22H591.596V91.341H589.664V93.252H583.742ZM594.136 93.252V83.55H601.969V85.461H603.901V93.252H601.759V85.65H596.257V93.252H594.136ZM606.031 93.252V91.152H613.654V89.451H607.942V87.54H606.031V85.461H607.942V83.55H615.796V85.65H608.152V87.33H613.864V89.241H615.796V91.362H613.864V93.252H606.031ZM619.836 93.252V91.362H617.925V85.461H619.836V83.55H625.758V85.461H627.69V91.362H625.758V93.252H619.836ZM620.046 91.152H625.548V85.65H620.046V91.152ZM630.23 93.252V85.461H632.141V83.55H638.063V85.461H639.995V87.54H637.853V85.65H632.351V93.252H630.23ZM642.124 93.252V91.152H649.747V89.451H644.035V87.54H642.124V85.461H644.035V83.55H651.889V85.65H644.245V87.33H649.957V89.241H651.889V91.362H649.957V93.252H642.124ZM658.633 93.252V81.66H660.544V79.749H666.466V81.66H668.398V83.76H666.256V81.87H660.754V85.461H664.576V87.54H660.754V93.252H658.633ZM668.62 93.252V85.461H670.531V83.55H676.453V85.461H678.385V87.54H676.243V85.65H670.741V93.252H668.62ZM682.2 93.252V91.362H680.289V85.461H682.2V83.55H688.122V85.461H690.054V91.362H688.122V93.252H682.2ZM682.41 91.152H687.912V85.65H682.41V91.152ZM692.594 93.252V83.55H698.537V85.461H700.217V83.55H704.27V85.461H706.16V93.252H704.06V85.65H700.427V93.252H698.327V85.65H694.715V93.252H692.594ZM716.698 93.252V91.362H714.808V85.65H712.897V83.55H714.808V79.749H716.908V83.55H722.662V85.65H716.908V91.152H722.452V89.241H724.573V91.362H722.662V93.252H716.698ZM726.698 93.252V79.749H728.819V85.461H730.499V83.55H734.531V85.461H736.463V93.252H734.321V85.65H730.709V87.54H728.819V93.252H726.698ZM740.504 93.252V91.362H738.593V85.461H740.504V83.55H746.426V85.461H748.358V87.54H746.216V85.65H740.714V87.33H744.536V89.451H740.714V91.152H746.216V89.22H748.358V91.341H746.426V93.252H740.504ZM755.102 93.252V79.749H757.223V93.252H755.102ZM761.258 93.252V91.362H759.347V85.461H761.258V83.55H767.18V85.461H769.112V87.54H766.97V85.65H761.468V87.33H765.29V89.451H761.468V91.152H766.97V89.22H769.112V91.341H767.18V93.252H761.258ZM771.652 93.252V81.66H773.563V79.749H779.485V81.66H781.417V83.76H779.275V81.87H773.773V85.461H777.595V87.54H773.773V93.252H771.652ZM785.871 93.252V91.362H783.981V85.65H782.07V83.55H783.981V79.749H786.081V83.55H791.835V85.65H786.081V91.152H791.625V89.241H793.746V91.362H791.835V93.252H785.871ZM802.397 93.252V91.362H800.486V85.461H802.397V83.55H808.319V85.461H810.251V91.152H812.162V93.252H810.041V91.362H808.319V93.252H802.397ZM802.607 91.152H808.109V85.65H802.607V91.152ZM814.062 93.252V83.55H821.895V85.461H823.827V93.252H821.685V85.65H816.183V93.252H814.062ZM827.867 93.252V91.362H825.956V85.461H827.867V83.55H833.6V79.749H835.721V91.362H833.789V93.252H827.867ZM828.077 91.152H833.579V85.65H828.077V91.152ZM844.355 93.252V91.383H842.465V83.424H844.775V90.9H850.025V83.424H852.356V91.383H850.445V93.252H844.355ZM854.893 96.864V85.314H856.783V83.424H862.873V85.314H864.784V91.383H862.873V93.252H857.203V96.864H854.893ZM857.203 90.9H862.453V85.776H857.203V90.9ZM875.305 93.252V91.383H873.415V85.776H871.525V83.424H873.415V79.707H875.704V83.424H881.416V85.776H875.704V90.9H880.996V89.01H883.306V91.383H881.416V93.252H875.305ZM887.093 93.252V91.383H885.203V85.314H887.093V83.424H893.183V85.314H895.094V91.383H893.183V93.252H887.093ZM887.513 90.9H892.763V85.776H887.513V90.9ZM903.746 93.252V91.362H901.835V89.241H903.956V91.152H909.458V87.54H903.746V85.461H909.458V81.87H903.956V83.76H901.835V81.66H903.746V79.749H909.668V81.66H911.6V85.65H909.668V87.33H911.6V91.362H909.668V93.252H903.746ZM920.255 93.252V91.362H918.344V85.461H920.255V83.55H926.177V85.461H928.109V91.152H930.02V93.252H927.899V91.362H926.177V93.252H920.255ZM920.465 91.152H925.967V85.65H920.465V91.152ZM933.421 93.252V91.362H931.51V85.461H933.421V83.55H939.343V85.461H941.275V87.54H939.133V85.65H933.631V91.152H939.133V89.241H941.275V91.362H939.343V93.252H933.421ZM946.57 93.252V91.362H944.68V85.65H942.769V83.55H944.68V79.749H946.78V83.55H952.534V85.65H946.78V91.152H952.324V89.241H954.445V91.362H952.534V93.252H946.57ZM958.482 93.252V91.362H956.571V83.55H958.692V91.152H964.194V83.55H966.336V91.362H964.404V93.252H958.482ZM970.376 93.252V91.362H968.465V85.461H970.376V83.55H976.298V85.461H978.23V91.152H980.141V93.252H978.02V91.362H976.298V93.252H970.376ZM970.586 91.152H976.088V85.65H970.586V91.152ZM984.161 93.252V91.362H982.271V85.65H980.36V83.55H982.271V79.749H984.371V83.55H990.125V85.65H984.371V91.152H989.915V89.241H992.036V91.362H990.125V93.252H984.161ZM995.847 93.252V91.362H993.936V85.461H995.847V83.55H1001.77V85.461H1003.7V91.362H1001.77V93.252H995.847ZM996.057 91.152H1001.56V85.65H996.057V91.152ZM1006.24 93.252V85.461H1008.15V83.55H1014.07V85.461H1016.01V87.54H1013.86V85.65H1008.36V93.252H1006.24ZM1018.14 93.252V91.152H1025.76V89.451H1020.05V87.54H1018.14V85.461H1020.05V83.55H1027.9V85.65H1020.26V87.33H1025.97V89.241H1027.9V91.362H1025.97V93.252H1018.14ZM1034.64 93.252V81.66H1036.55V79.749H1042.48V81.66H1044.41V83.76H1042.27V81.87H1036.76V85.461H1040.59V87.54H1036.76V93.252H1034.64ZM1044.63 93.252V85.461H1046.54V83.55H1052.46V85.461H1054.4V87.54H1052.25V85.65H1046.75V93.252H1044.63ZM1058.21 93.252V91.362H1056.3V85.461H1058.21V83.55H1064.13V85.461H1066.07V91.362H1064.13V93.252H1058.21ZM1058.42 91.152H1063.92V85.65H1058.42V91.152ZM1068.6 93.252V83.55H1074.55V85.461H1076.23V83.55H1080.28V85.461H1082.17V93.252H1080.07V85.65H1076.44V93.252H1074.34V85.65H1070.73V93.252H1068.6ZM1092.71 93.252V91.362H1090.82V85.65H1088.91V83.55H1090.82V79.749H1092.92V83.55H1098.67V85.65H1092.92V91.152H1098.46V89.241H1100.58V91.362H1098.67V93.252H1092.71ZM1102.71 93.252V79.749H1104.83V85.461H1106.51V83.55H1110.54V85.461H1112.47V93.252H1110.33V85.65H1106.72V87.54H1104.83V93.252H1102.71ZM1116.51 93.252V91.362H1114.6V85.461H1116.51V83.55H1122.44V85.461H1124.37V87.54H1122.23V85.65H1116.72V87.33H1120.55V89.451H1116.72V91.152H1122.23V89.22H1124.37V91.341H1122.44V93.252H1116.51ZM1131.11 93.252V85.461H1133.02V83.55H1138.95V85.461H1140.88V87.54H1138.74V85.65H1133.23V93.252H1131.11ZM1143.42 93.252V83.55H1145.54V93.252H1143.42ZM1143.42 81.87V79.749H1145.54V81.87H1143.42ZM1149.57 97.053V95.163H1147.66V93.063H1149.78V94.953H1155.31V91.362H1149.57V89.451H1147.66V85.461H1149.57V83.55H1155.52V85.461H1157.43V95.163H1155.52V97.053H1149.57ZM1149.78 89.241H1155.31V85.65H1149.78V89.241ZM1159.56 93.252V79.749H1161.68V85.461H1163.36V83.55H1167.39V85.461H1169.32V93.252H1167.18V85.65H1163.57V87.54H1161.68V93.252H1159.56ZM1174.82 93.252V91.362H1172.93V85.65H1171.02V83.55H1172.93V79.749H1175.03V83.55H1180.79V85.65H1175.03V91.152H1180.58V89.241H1182.7V91.362H1180.79V93.252H1174.82ZM1185.23 93V90.879H1187.35V93H1185.23ZM1197.36 93.36V90.66H1194.63V84.9H1197.36V82.23H1205.52V77.1H1197.66V79.8H1194.63V76.8H1197.36V74.07H1205.82V76.8H1208.58V82.5H1205.82V85.2H1197.66V90.36H1205.52V87.63H1208.58V90.66H1205.82V93.36H1197.36ZM1212.21 93V89.97H1215.24V93H1212.21ZM1224.33 93.252V83.55H1226.24V81.66H1228.13V79.749H1230.27V81.66H1232.16V83.55H1234.09V93.252H1231.95V89.451H1226.45V93.252H1224.33ZM1226.45 87.33H1231.95V83.76H1230.06V81.87H1228.34V83.76H1226.45V87.33ZM1238.54 93.252V91.362H1236.63V85.461H1238.54V83.55H1244.28V79.749H1246.4V91.362H1244.46V93.252H1238.54ZM1238.75 91.152H1244.25V85.65H1238.75V91.152ZM1250.44 93.252V91.362H1248.53V85.461H1250.44V83.55H1256.17V79.749H1258.29V91.362H1256.36V93.252H1250.44ZM1250.65 91.152H1256.15V85.65H1250.65V91.152ZM1268.84 93.252V91.362H1266.95V85.65H1265.03V83.55H1266.95V79.749H1269.05V83.55H1274.8V85.65H1269.05V91.152H1274.59V89.241H1276.71V91.362H1274.8V93.252H1268.84ZM1278.84 93.252V79.749H1280.96V85.461H1282.64V83.55H1286.67V85.461H1288.6V93.252H1286.46V85.65H1282.85V87.54H1280.96V93.252H1278.84ZM1292.64 93.252V91.362H1290.73V85.461H1292.64V83.55H1298.56V85.461H1300.5V87.54H1298.35V85.65H1292.85V87.33H1296.67V89.451H1292.85V91.152H1298.35V89.22H1300.5V91.341H1298.56V93.252H1292.64ZM1303.04 93.252V83.55H1308.98V85.461H1310.66V83.55H1314.71V85.461H1316.6V93.252H1314.5V85.65H1310.87V93.252H1308.77V85.65H1305.16V93.252H1303.04ZM1327.14 93.252V91.362H1325.25V85.65H1323.34V83.55H1325.25V79.749H1327.35V83.55H1333.1V85.65H1327.35V91.152H1332.89V89.241H1335.01V91.362H1333.1V93.252H1327.14ZM1338.83 93.252V91.362H1336.91V85.461H1338.83V83.55H1344.75V85.461H1346.68V91.362H1344.75V93.252H1338.83ZM1339.04 91.152H1344.54V85.65H1339.04V91.152ZM1357.22 93.252V91.362H1355.33V85.65H1353.42V83.55H1355.33V79.749H1357.43V83.55H1363.19V85.65H1357.43V91.152H1362.98V89.241H1365.1V91.362H1363.19V93.252H1357.22ZM1367.22 93.252V79.749H1369.35V85.461H1371.03V83.55H1375.06V85.461H1376.99V93.252H1374.85V85.65H1371.24V87.54H1369.35V93.252H1367.22ZM1381.03 93.252V91.362H1379.12V85.461H1381.03V83.55H1386.95V85.461H1388.88V87.54H1386.74V85.65H1381.24V87.33H1385.06V89.451H1381.24V91.152H1386.74V89.22H1388.88V91.341H1386.95V93.252H1381.03ZM1395.63 93.252V83.55H1403.46V85.461H1405.39V93.252H1403.25V85.65H1397.75V93.252H1395.63ZM1409.21 93.252V91.362H1407.3V85.461H1409.21V83.55H1415.13V85.461H1417.06V87.54H1414.92V85.65H1409.42V87.33H1413.24V89.451H1409.42V91.152H1414.92V89.22H1417.06V91.341H1415.13V93.252H1409.21ZM1421.51 93.252V91.362H1419.6V83.55H1421.72V91.152H1427.22V83.55H1429.37V91.362H1427.43V93.252H1421.51ZM1431.7 93.252V85.461H1433.61V83.55H1439.53V85.461H1441.47V87.54H1439.32V85.65H1433.82V93.252H1431.7ZM1445.28 93.252V91.362H1443.37V85.461H1445.28V83.55H1451.2V85.461H1453.14V91.152H1455.05V93.252H1452.93V91.362H1451.2V93.252H1445.28ZM1445.49 91.152H1450.99V85.65H1445.49V91.152ZM1456.95 93.252V79.749H1459.07V93.252H1456.95ZM1465.81 93.252V83.55H1473.64V85.461H1475.57V93.252H1473.43V85.65H1467.93V93.252H1465.81ZM1479.39 93.252V91.362H1477.47V85.461H1479.39V83.55H1485.31V85.461H1487.24V87.54H1485.1V85.65H1479.6V87.33H1483.42V89.451H1479.6V91.152H1485.1V89.22H1487.24V91.341H1485.31V93.252H1479.39ZM1493.58 93.252V91.362H1491.69V85.65H1489.78V83.55H1491.69V79.749H1493.79V83.55H1499.54V85.65H1493.79V91.152H1499.33V89.241H1501.46V91.362H1499.54V93.252H1493.58ZM1503.36 93.252V83.55H1505.48V91.152H1509.09V83.55H1511.19V91.152H1514.82V83.55H1516.92V91.362H1515.03V93.252H1510.98V91.362H1509.3V93.252H1503.36ZM1520.73 93.252V91.362H1518.82V85.461H1520.73V83.55H1526.65V85.461H1528.58V91.362H1526.65V93.252H1520.73ZM1520.94 91.152H1526.44V85.65H1520.94V91.152ZM1531.12 93.252V85.461H1533.03V83.55H1538.96V85.461H1540.89V87.54H1538.75V85.65H1533.24V93.252H1531.12ZM1543.02 93.252V79.749H1545.14V87.33H1546.82V85.461H1550.64V83.55H1552.78V85.65H1550.85V87.54H1547.03V89.241H1550.85V91.152H1552.78V93.252H1550.64V91.362H1546.82V89.451H1545.14V93.252H1543.02ZM1561.44 93.252V91.362H1559.53V85.461H1561.44V83.55H1567.36V85.461H1569.29V91.362H1567.36V93.252H1561.44ZM1561.65 91.152H1567.15V85.65H1561.65V91.152ZM1571.83 93.252V83.55H1579.66V85.461H1581.6V93.252H1579.45V85.65H1573.95V93.252H1571.83ZM1585.41 93.252V91.362H1583.5V85.461H1585.41V83.55H1591.33V85.461H1593.27V87.54H1591.12V85.65H1585.62V87.33H1589.44V89.451H1585.62V91.152H1591.12V89.22H1593.27V91.341H1591.33V93.252H1585.41ZM1601.92 93.252V91.362H1600.01V85.461H1601.92V83.55H1607.84V85.461H1609.77V91.152H1611.69V93.252H1609.56V91.362H1607.84V93.252H1601.92ZM1602.13 91.152H1607.63V85.65H1602.13V91.152ZM1615.7 93.252V91.362H1613.81V85.65H1611.9V83.55H1613.81V79.749H1615.91V83.55H1621.67V85.65H1615.91V91.152H1621.46V89.241H1623.58V91.362H1621.67V93.252H1615.7ZM1632.23 93.252V91.362H1630.32V85.461H1632.23V83.55H1638.15V85.461H1640.08V91.152H1642V93.252H1639.87V91.362H1638.15V93.252H1632.23ZM1632.44 91.152H1637.94V85.65H1632.44V91.152ZM5.061 129.252V127.362H3.171V121.65H1.26V119.55H3.171V115.749H5.271V119.55H11.025V121.65H5.271V127.152H10.815V125.241H12.936V127.362H11.025V129.252H5.061ZM15.4719 129.252V119.55H17.5929V129.252H15.4719ZM15.4719 117.87V115.749H17.5929V117.87H15.4719ZM19.717 129.252V119.55H25.66V121.461H27.34V119.55H31.393V121.461H33.283V129.252H31.183V121.65H27.55V129.252H25.45V121.65H21.838V129.252H19.717ZM37.5216 129.252V127.362H35.6106V121.461H37.5216V119.55H43.4436V121.461H45.3756V123.54H43.2336V121.65H37.7316V123.33H41.5536V125.451H37.7316V127.152H43.2336V125.22H45.3756V127.341H43.4436V129.252H37.5216ZM47.9153 129V126.879H50.0363V129H47.9153ZM60.0446 129.36V126.66H57.3146V123.63H60.3446V126.36H68.2046V121.2H60.0446V118.23H68.2046V113.1H60.3446V115.8H57.3146V112.8H60.0446V110.07H68.5046V112.8H71.2646V118.5H68.5046V120.9H71.2646V126.66H68.5046V129.36H60.0446ZM74.8928 129V125.97H77.9228V129H74.8928ZM90.81 129.252V117.87H89.13V119.76H87.009V117.66H88.92V115.749H94.842V117.66H96.774V119.76H94.632V117.87H92.952V129.252H90.81ZM99.1329 129.252V127.362H97.2219V121.461H99.1329V119.55H105.055V121.461H106.987V127.362H105.055V129.252H99.1329ZM99.3429 127.152H104.845V121.65H99.3429V127.152ZM115.642 129.252V127.362H113.731V121.461H115.642V119.55H121.564V121.461H123.496V123.54H121.354V121.65H115.852V127.152H121.354V125.241H123.496V127.362H121.564V129.252H115.642ZM127.311 129.252V127.362H125.4V121.461H127.311V119.55H133.233V121.461H135.165V127.362H133.233V129.252H127.311ZM127.521 127.152H133.023V121.65H127.521V127.152ZM137.704 129.252V119.55H145.537V121.461H147.469V129.252H145.327V121.65H139.825V129.252H137.704ZM150.009 129.252V119.55H157.842V121.461H159.774V129.252H157.632V121.65H152.13V129.252H150.009ZM163.589 129.252V127.362H161.678V121.461H163.589V119.55H169.511V121.461H171.443V123.54H169.301V121.65H163.799V123.33H167.621V125.451H163.799V127.152H169.301V125.22H171.443V127.341H169.511V129.252H163.589ZM175.894 129.252V127.362H173.983V121.461H175.894V119.55H181.816V121.461H183.748V123.54H181.606V121.65H176.104V127.152H181.606V125.241H183.748V127.362H181.816V129.252H175.894ZM189.042 129.252V127.362H187.152V121.65H185.241V119.55H187.152V115.749H189.252V119.55H195.006V121.65H189.252V127.152H194.796V125.241H196.917V127.362H195.006V129.252H189.042ZM207.458 129.252V127.362H205.568V121.65H203.657V119.55H205.568V115.749H207.668V119.55H213.422V121.65H207.668V127.152H213.212V125.241H215.333V127.362H213.422V129.252H207.458ZM217.459 129.252V115.749H219.58V121.461H221.26V119.55H225.292V121.461H227.224V129.252H225.082V121.65H221.47V123.54H219.58V129.252H217.459ZM231.265 129.252V127.362H229.354V121.461H231.265V119.55H237.187V121.461H239.119V123.54H236.977V121.65H231.475V123.33H235.297V125.451H231.475V127.152H236.977V125.22H239.119V127.341H237.187V129.252H231.265ZM241.658 129.252V119.55H247.601V121.461H249.281V119.55H253.334V121.461H255.224V129.252H253.124V121.65H249.491V129.252H247.391V121.65H243.779V129.252H241.658ZM258.702 130.89V129.714H259.668V129H257.757V126.879H259.878V128.79H260.823V129.924H259.878V130.89H258.702ZM267.56 129.252V127.152H275.183V125.451H269.471V123.54H267.56V121.461H269.471V119.55H277.325V121.65H269.681V123.33H275.393V125.241H277.325V127.362H275.393V129.252H267.56ZM281.365 129.252V127.362H279.454V121.461H281.365V119.55H287.287V121.461H289.219V123.54H287.077V121.65H281.575V123.33H285.397V125.451H281.575V127.152H287.077V125.22H289.219V127.341H287.287V129.252H281.365ZM291.759 129.252V115.749H293.88V129.252H291.759ZM297.915 129.252V127.362H296.004V121.461H297.915V119.55H303.837V121.461H305.769V123.54H303.627V121.65H298.125V123.33H301.947V125.451H298.125V127.152H303.627V125.22H305.769V127.341H303.837V129.252H297.915ZM310.22 129.252V127.362H308.309V121.461H310.22V119.55H316.142V121.461H318.074V123.54H315.932V121.65H310.43V127.152H315.932V125.241H318.074V127.362H316.142V129.252H310.22ZM323.369 129.252V127.362H321.479V121.65H319.568V119.55H321.479V115.749H323.579V119.55H329.333V121.65H323.579V127.152H329.123V125.241H331.244V127.362H329.333V129.252H323.369ZM339.895 129.252V127.362H337.984V121.461H339.895V119.55H345.817V121.461H347.749V127.152H349.66V129.252H347.539V127.362H345.817V129.252H339.895ZM340.105 127.152H345.607V121.65H340.105V127.152ZM356.4 129.252V127.152H364.023V125.451H358.311V123.54H356.4V121.461H358.311V119.55H366.165V121.65H358.521V123.33H364.233V125.241H366.165V127.362H364.233V129.252H356.4ZM370.205 129.252V127.362H368.294V121.461H370.205V119.55H376.127V121.461H378.059V123.54H375.917V121.65H370.415V123.33H374.237V125.451H370.415V127.152H375.917V125.22H378.059V127.341H376.127V129.252H370.205ZM380.599 129.252V119.55H388.432V121.461H390.364V129.252H388.222V121.65H382.72V129.252H380.599ZM392.493 129.252V127.152H400.116V125.451H394.404V123.54H392.493V121.461H394.404V119.55H402.258V121.65H394.614V123.33H400.326V125.241H402.258V127.362H400.326V129.252H392.493ZM406.299 129.252V127.362H404.388V121.461H406.299V119.55H412.221V121.461H414.153V127.362H412.221V129.252H406.299ZM406.509 127.152H412.011V121.65H406.509V127.152ZM416.693 129.252V121.461H418.604V119.55H424.526V121.461H426.458V123.54H424.316V121.65H418.814V129.252H416.693ZM433.201 129.252V119.55H441.034V121.461H442.966V129.252H440.824V121.65H435.322V129.252H433.201ZM446.781 129.252V127.362H444.87V121.461H446.781V119.55H452.703V121.461H454.635V123.54H452.493V121.65H446.991V123.33H450.813V125.451H446.991V127.152H452.493V125.22H454.635V127.341H452.703V129.252H446.781ZM459.086 129.252V127.362H457.175V119.55H459.296V127.152H464.798V119.55H466.94V127.362H465.008V129.252H459.086ZM469.275 129.252V121.461H471.186V119.55H477.108V121.461H479.04V123.54H476.898V121.65H471.396V129.252H469.275ZM482.855 129.252V127.362H480.944V121.461H482.855V119.55H488.777V121.461H490.709V127.362H488.777V129.252H482.855ZM483.065 127.152H488.567V121.65H483.065V127.152ZM493.248 129.252V119.55H501.081V121.461H503.013V129.252H500.871V121.65H495.369V129.252H493.248ZM511.668 129.252V127.362H509.757V121.461H511.668V119.55H517.59V121.461H519.522V127.152H521.433V129.252H519.312V127.362H517.59V129.252H511.668ZM511.878 127.152H517.38V121.65H511.878V127.152ZM523.333 129.252V119.55H531.166V121.461H533.098V129.252H530.956V121.65H525.454V129.252H523.333ZM537.139 129.252V127.362H535.228V121.461H537.139V119.55H542.872V115.749H544.993V127.362H543.061V129.252H537.139ZM537.349 127.152H542.851V121.65H537.349V127.152ZM553.648 129.252V127.362H551.737V121.461H553.648V119.55H559.57V121.461H561.502V127.152H563.413V129.252H561.292V127.362H559.57V129.252H553.648ZM553.858 127.152H559.36V121.65H553.858V127.152ZM565.313 129.252V119.55H573.146V121.461H575.078V129.252H572.936V121.65H567.434V129.252H565.313ZM583.733 129.252V127.362H581.822V121.461H583.733V119.55H589.655V121.461H591.587V127.152H593.498V129.252H591.377V127.362H589.655V129.252H583.733ZM583.943 127.152H589.445V121.65H583.943V127.152ZM596.899 129.252V127.362H594.988V121.461H596.899V119.55H602.821V121.461H604.753V123.54H602.611V121.65H597.109V127.152H602.611V125.241H604.753V127.362H602.821V129.252H596.899ZM610.047 129.252V127.362H608.157V121.65H606.246V119.55H608.157V115.749H610.257V119.55H616.011V121.65H610.257V127.152H615.801V125.241H617.922V127.362H616.011V129.252H610.047ZM621.959 129.252V127.362H620.048V119.55H622.169V127.152H627.671V119.55H629.813V127.362H627.881V129.252H621.959ZM633.854 129.252V127.362H631.943V121.461H633.854V119.55H639.776V121.461H641.708V127.152H643.619V129.252H641.498V127.362H639.776V129.252H633.854ZM634.064 127.152H639.566V121.65H634.064V127.152ZM647.638 129.252V127.362H645.748V121.65H643.837V119.55H645.748V115.749H647.848V119.55H653.602V121.65H647.848V127.152H653.392V125.241H655.513V127.362H653.602V129.252H647.638ZM659.324 129.252V127.362H657.413V121.461H659.324V119.55H665.246V121.461H667.178V127.362H665.246V129.252H659.324ZM659.534 127.152H665.036V121.65H659.534V127.152ZM669.718 129.252V121.461H671.629V119.55H677.551V121.461H679.483V123.54H677.341V121.65H671.839V129.252H669.718ZM686.227 129.252V119.55H694.06V121.461H695.992V129.252H693.85V121.65H688.348V129.252H686.227ZM699.807 129.252V127.362H697.896V121.461H699.807V119.55H705.729V121.461H707.661V123.54H705.519V121.65H700.017V123.33H703.839V125.451H700.017V127.152H705.519V125.22H707.661V127.341H705.729V129.252H699.807ZM712.111 129.252V127.362H710.2V119.55H712.321V127.152H717.823V119.55H719.965V127.362H718.033V129.252H712.111ZM722.3 129.252V121.461H724.211V119.55H730.133V121.461H732.065V123.54H729.923V121.65H724.421V129.252H722.3ZM735.88 129.252V127.362H733.969V121.461H735.88V119.55H741.802V121.461H743.734V127.362H741.802V129.252H735.88ZM736.09 127.152H741.592V121.65H736.09V127.152ZM746.274 129.252V119.55H754.107V121.461H756.039V129.252H753.897V121.65H748.395V129.252H746.274ZM762.782 129.252V117.66H764.693V115.749H770.615V117.66H772.547V119.76H770.405V117.87H764.903V121.461H768.725V123.54H764.903V129.252H762.782ZM772.77 129.252V121.461H774.681V119.55H780.603V121.461H782.535V123.54H780.393V121.65H774.891V129.252H772.77ZM786.35 129.252V127.362H784.439V121.461H786.35V119.55H792.272V121.461H794.204V127.362H792.272V129.252H786.35ZM786.56 127.152H792.062V121.65H786.56V127.152ZM796.743 129.252V119.55H802.686V121.461H804.366V119.55H808.419V121.461H810.309V129.252H808.209V121.65H804.576V129.252H802.476V121.65H798.864V129.252H796.743ZM820.847 129.252V127.362H818.957V121.65H817.046V119.55H818.957V115.749H821.057V119.55H826.811V121.65H821.057V127.152H826.601V125.241H828.722V127.362H826.811V129.252H820.847ZM830.848 129.252V115.749H832.969V121.461H834.649V119.55H838.681V121.461H840.613V129.252H838.471V121.65H834.859V123.54H832.969V129.252H830.848ZM844.653 129.252V127.362H842.742V121.461H844.653V119.55H850.575V121.461H852.507V123.54H850.365V121.65H844.863V123.33H848.685V125.451H844.863V127.152H850.365V125.22H852.507V127.341H850.575V129.252H844.653ZM859.251 129.252V119.55H867.084V121.461H869.016V129.252H866.874V121.65H861.372V129.252H859.251ZM872.831 129.252V127.362H870.92V121.461H872.831V119.55H878.753V121.461H880.685V123.54H878.543V121.65H873.041V123.33H876.863V125.451H873.041V127.152H878.543V125.22H880.685V127.341H878.753V129.252H872.831ZM885.136 129.252V127.362H883.225V119.55H885.346V127.152H890.848V119.55H892.99V127.362H891.058V129.252H885.136ZM895.324 129.252V121.461H897.235V119.55H903.157V121.461H905.089V123.54H902.947V121.65H897.445V129.252H895.324ZM908.904 129.252V127.362H906.993V121.461H908.904V119.55H914.826V121.461H916.758V127.152H918.669V129.252H916.548V127.362H914.826V129.252H908.904ZM909.114 127.152H914.616V121.65H909.114V127.152ZM920.57 129.252V115.749H922.691V129.252H920.57ZM929.429 129.252V119.55H937.262V121.461H939.194V129.252H937.052V121.65H931.55V129.252H929.429ZM943.009 129.252V127.362H941.098V121.461H943.009V119.55H948.931V121.461H950.863V123.54H948.721V121.65H943.219V123.33H947.041V125.451H943.219V127.152H948.721V125.22H950.863V127.341H948.931V129.252H943.009ZM957.204 129.252V127.362H955.314V121.65H953.403V119.55H955.314V115.749H957.414V119.55H963.168V121.65H957.414V127.152H962.958V125.241H965.079V127.362H963.168V129.252H957.204ZM966.979 129.252V119.55H969.1V127.152H972.712V119.55H974.812V127.152H978.445V119.55H980.545V127.362H978.655V129.252H974.602V127.362H972.922V129.252H966.979ZM984.353 129.252V127.362H982.442V121.461H984.353V119.55H990.275V121.461H992.207V127.362H990.275V129.252H984.353ZM984.563 127.152H990.065V121.65H984.563V127.152ZM994.746 129.252V121.461H996.657V119.55H1002.58V121.461H1004.51V123.54H1002.37V121.65H996.867V129.252H994.746ZM1006.64 129.252V115.749H1008.76V123.33H1010.44V121.461H1014.26V119.55H1016.41V121.65H1014.47V123.54H1010.65V125.241H1014.47V127.152H1016.41V129.252H1014.26V127.362H1010.44V125.451H1008.76V129.252H1006.64ZM1018.95 129V126.879H1021.07V129H1018.95ZM1031.61 129.252V117.87H1029.93V119.76H1027.8V117.66H1029.72V115.749H1035.64V117.66H1037.57V119.76H1035.43V117.87H1033.75V129.252H1031.61ZM1039.47 129.252V115.749H1041.59V121.461H1043.27V119.55H1047.31V121.461H1049.24V129.252H1047.1V121.65H1043.48V123.54H1041.59V129.252H1039.47ZM1053.28 129.252V127.362H1051.37V121.461H1053.28V119.55H1059.2V121.461H1061.13V123.54H1058.99V121.65H1053.49V123.33H1057.31V125.451H1053.49V127.152H1058.99V125.22H1061.13V127.341H1059.2V129.252H1053.28ZM1063.67 129.252V119.55H1071.51V121.461H1073.44V129.252H1071.3V121.65H1065.79V129.252H1063.67ZM1076.92 130.89V129.714H1077.89V129H1075.98V126.879H1078.1V128.79H1079.04V129.924H1078.1V130.89H1076.92ZM1087.69 129.252V127.362H1085.78V117.66H1087.69V115.749H1093.61V117.66H1095.55V121.65H1093.4V117.87H1087.9V127.152H1093.4V123.33H1095.55V127.362H1093.61V129.252H1087.69ZM1098.09 129.252V115.749H1100.21V129.252H1098.09ZM1102.74 129.252V119.55H1104.86V129.252H1102.74ZM1102.74 117.87V115.749H1104.86V117.87H1102.74ZM1108.9 129.252V127.362H1106.99V121.461H1108.9V119.55H1114.82V121.461H1116.75V123.54H1114.61V121.65H1109.11V127.152H1114.61V125.241H1116.75V127.362H1114.82V129.252H1108.9ZM1118.88 129.252V115.749H1121V123.33H1122.68V121.461H1126.5V119.55H1128.65V121.65H1126.71V123.54H1122.89V125.241H1126.71V127.152H1128.65V129.252H1126.5V127.362H1122.68V125.451H1121V129.252H1118.88ZM1136.33 119.76V118.584H1137.3V117.87H1135.39V115.749H1137.51V117.66H1138.45V118.794H1137.51V119.76H1136.33ZM1142.9 129.252V127.362H1140.99V115.749H1143.11V127.152H1148.61V115.749H1150.75V127.362H1148.82V129.252H1142.9ZM1153.29 129.252V119.55H1161.13V121.461H1163.06V129.252H1160.92V121.65H1155.41V129.252H1153.29ZM1165.19 129.252V115.749H1167.31V129.252H1165.19ZM1171.34 129.252V127.362H1169.43V121.461H1171.34V119.55H1177.26V121.461H1179.2V123.54H1177.05V121.65H1171.55V123.33H1175.37V125.451H1171.55V127.152H1177.05V125.22H1179.2V127.341H1177.26V129.252H1171.34ZM1183.65 129.252V127.362H1181.74V121.461H1183.65V119.55H1189.57V121.461H1191.5V127.152H1193.41V129.252H1191.29V127.362H1189.57V129.252H1183.65ZM1183.86 127.152H1189.36V121.65H1183.86V127.152ZM1195.31 129.252V127.152H1202.94V125.451H1197.22V123.54H1195.31V121.461H1197.22V119.55H1205.08V121.65H1197.43V123.33H1203.15V125.241H1205.08V127.362H1203.15V129.252H1195.31ZM1207.62 129.252V115.749H1209.74V121.461H1211.42V119.55H1215.45V121.461H1217.38V129.252H1215.24V121.65H1211.63V123.54H1209.74V129.252H1207.62ZM1226.04 129.252V127.362H1224.13V117.66H1226.04V115.749H1231.96V117.66H1233.89V127.362H1231.96V129.252H1226.04ZM1226.25 127.152H1231.75V117.87H1226.25V127.152ZM1236.43 129.252V121.461H1238.34V119.55H1244.26V121.461H1246.2V123.54H1244.05V121.65H1238.55V129.252H1236.43ZM1250.24 133.053V131.163H1248.33V129.063H1250.45V130.953H1255.97V127.362H1250.24V125.451H1248.33V121.461H1250.24V119.55H1256.18V121.461H1258.09V131.163H1256.18V133.053H1250.24ZM1250.45 125.241H1255.97V121.65H1250.45V125.241ZM1261.91 129.252V127.362H1259.99V121.461H1261.91V119.55H1267.83V121.461H1269.76V127.152H1271.67V129.252H1269.55V127.362H1267.83V129.252H1261.91ZM1262.12 127.152H1267.62V121.65H1262.12V127.152ZM1273.57 129.252V119.55H1281.4V121.461H1283.34V129.252H1281.19V121.65H1275.69V129.252H1273.57ZM1285.88 129.252V119.55H1288V129.252H1285.88ZM1285.88 117.87V115.749H1288V117.87H1285.88ZM1290.53 129.252V127.152H1298.15V125.451H1292.44V123.54H1290.53V121.461H1292.44V119.55H1300.3V121.65H1292.65V123.33H1298.36V125.241H1300.3V127.362H1298.36V129.252H1290.53ZM1302.84 129.252V119.55H1308.78V121.461H1310.46V119.55H1314.51V121.461H1316.4V129.252H1314.3V121.65H1310.67V129.252H1308.57V121.65H1304.96V129.252H1302.84ZM1319.88 119.76V118.584H1320.84V117.87H1318.93V115.749H1321.05V117.66H1322V118.794H1321.05V119.76H1319.88ZM1332.54 129.252V127.362H1330.65V121.65H1328.74V119.55H1330.65V115.749H1332.75V119.55H1338.5V121.65H1332.75V127.152H1338.29V125.241H1340.41V127.362H1338.5V129.252H1332.54ZM1344.22 129.252V127.362H1342.31V121.461H1344.22V119.55H1350.15V121.461H1352.08V127.362H1350.15V129.252H1344.22ZM1344.43 127.152H1349.94V121.65H1344.43V127.152ZM1360.73 129.252V127.362H1358.82V115.749H1360.94V119.55H1366.65V121.461H1368.59V127.362H1366.65V129.252H1360.73ZM1360.94 127.152H1366.44V121.65H1360.94V127.152ZM1370.72 129.252V121.461H1372.63V119.55H1378.55V121.461H1380.48V123.54H1378.34V121.65H1372.84V129.252H1370.72ZM1383.02 129.252V119.55H1385.14V129.252H1383.02ZM1383.02 117.87V115.749H1385.14V117.87H1383.02ZM1387.27 129.252V119.55H1395.1V121.461H1397.03V129.252H1394.89V121.65H1389.39V129.252H1387.27ZM1401.07 133.053V131.163H1399.16V129.063H1401.28V130.953H1406.8V127.362H1401.07V125.451H1399.16V121.461H1401.07V119.55H1407.01V121.461H1408.93V131.163H1407.01V133.053H1401.07ZM1401.28 125.241H1406.8V121.65H1401.28V125.241ZM1417.58 133.053V131.163H1415.67V129.063H1417.79V130.953H1423.31V127.362H1417.58V125.451H1415.67V119.55H1417.79V125.241H1423.31V119.55H1425.43V131.163H1423.52V133.053H1417.58ZM1429.88 129.252V127.362H1427.97V121.461H1429.88V119.55H1435.81V121.461H1437.74V127.362H1435.81V129.252H1429.88ZM1430.09 127.152H1435.6V121.65H1430.09V127.152ZM1442.19 129.252V127.362H1440.28V119.55H1442.4V127.152H1447.9V119.55H1450.04V127.362H1448.11V129.252H1442.19ZM1452.38 129.252V121.461H1454.29V119.55H1460.21V121.461H1462.14V123.54H1460V121.65H1454.5V129.252H1452.38ZM1470.8 129.252V127.362H1468.89V121.461H1470.8V119.55H1476.72V121.461H1478.65V123.54H1476.51V121.65H1471.01V127.152H1476.51V125.241H1478.65V127.362H1476.72V129.252H1470.8ZM1481.19 129.252V121.461H1483.1V119.55H1489.02V121.461H1490.96V123.54H1488.81V121.65H1483.31V129.252H1481.19ZM1494.77 129.252V127.362H1492.86V121.461H1494.77V119.55H1500.69V121.461H1502.63V123.54H1500.48V121.65H1494.98V123.33H1498.8V125.451H1494.98V127.152H1500.48V125.22H1502.63V127.341H1500.69V129.252H1494.77ZM1507.08 129.252V127.362H1505.17V121.461H1507.08V119.55H1513V121.461H1514.93V127.152H1516.84V129.252H1514.72V127.362H1513V129.252H1507.08ZM1507.29 127.152H1512.79V121.65H1507.29V127.152ZM1520.86 129.252V127.362H1518.97V121.65H1517.06V119.55H1518.97V115.749H1521.07V119.55H1526.82V121.65H1521.07V127.152H1526.61V125.241H1528.74V127.362H1526.82V129.252H1520.86ZM1532.77 129.252V127.362H1530.86V119.55H1532.98V127.152H1538.48V119.55H1540.63V127.362H1538.69V129.252H1532.77ZM1542.96 129.252V121.461H1544.87V119.55H1550.79V121.461H1552.73V123.54H1550.58V121.65H1545.08V129.252H1542.96ZM1556.54 129.252V127.362H1554.63V121.461H1556.54V119.55H1562.46V121.461H1564.4V123.54H1562.25V121.65H1556.75V123.33H1560.57V125.451H1556.75V127.152H1562.25V125.22H1564.4V127.341H1562.46V129.252H1556.54ZM1574.94 129.252V127.362H1573.05V121.65H1571.14V119.55H1573.05V115.749H1575.15V119.55H1580.9V121.65H1575.15V127.152H1580.69V125.241H1582.81V127.362H1580.9V129.252H1574.94ZM1586.63 129.252V127.362H1584.72V121.461H1586.63V119.55H1592.55V121.461H1594.48V127.362H1592.55V129.252H1586.63ZM1586.84 127.152H1592.34V121.65H1586.84V127.152ZM1601.22 129.252V115.749H1603.34V129.252H1601.22ZM1605.88 129.252V119.55H1608V129.252H1605.88ZM1605.88 117.87V115.749H1608V117.87H1605.88ZM1610.53 129.252V117.66H1612.45V115.749H1618.37V117.66H1620.3V119.76H1618.16V117.87H1612.66V121.461H1616.48V123.54H1612.66V129.252H1610.53ZM1622.66 129.252V127.362H1620.75V121.461H1622.66V119.55H1628.58V121.461H1630.51V123.54H1628.37V121.65H1622.87V123.33H1626.69V125.451H1622.87V127.152H1628.37V125.22H1630.51V127.341H1628.58V129.252H1622.66ZM1633.05 129V126.879H1635.17V129H1633.05Z" fill="#1A1A1A"/>
<path d="M492.798 95.1H505.434V96.15H492.798V95.1ZM509.847 95.1H547.964V96.15H509.847V95.1Z" fill="#1A1A1A"/>
<path d="M841.205 95.1H853.841V96.15H841.205V95.1ZM858.253 95.1H896.371V96.15H858.253V95.1Z" fill="#1A1A1A"/>
</svg>
