<svg width="1190" height="408" viewBox="0 0 1190 408" fill="none" xmlns="http://www.w3.org/2000/svg">
<rect width="1190" height="408" rx="20" fill="#1A1A1A"/>
<path d="M26.44 50.288V34.856H28.864V37.04H31.024V39.2H33.232V45.704H35.152V34.856H37.6V50.288H35.152V48.128H32.992V45.944H30.784V39.44H28.864V50.288H26.44ZM42.2178 50.288V48.128H40.0338V41.384H42.2178V39.2H48.9858V41.384H51.1938V43.76H48.7458V41.6H42.4578V43.52H46.8258V45.944H42.4578V47.888H48.7458V45.68H51.1938V48.104H48.9858V50.288H42.2178ZM56.2803 50.288V48.128H54.0963V39.2H56.5203V47.888H62.8083V39.2H65.2563V48.128H63.0483V50.288H56.2803ZM67.9244 50.288V41.384H70.1084V39.2H76.8764V41.384H79.0844V43.76H76.6364V41.6H70.3484V50.288H67.9244ZM83.4443 50.288V48.128H81.2603V41.384H83.4443V39.2H90.2123V41.384H92.4203V47.888H94.6043V50.288H92.1803V48.128H90.2123V50.288H83.4443ZM83.6843 47.888H89.9723V41.6H83.6843V47.888ZM96.7759 50.288V34.856H99.1999V50.288H96.7759ZM106.901 50.288V34.856H109.325V37.04H111.485V39.2H113.693V45.704H115.613V34.856H118.061V50.288H115.613V48.128H113.453V45.944H111.245V39.44H109.325V50.288H106.901ZM122.679 50.288V48.128H120.495V41.384H122.679V39.2H129.447V41.384H131.655V43.76H129.207V41.6H122.919V43.52H127.287V45.944H122.919V47.888H129.207V45.68H131.655V48.104H129.447V50.288H122.679ZM138.901 50.288V48.128H136.741V41.6H134.557V39.2H136.741V34.856H139.141V39.2H145.717V41.6H139.141V47.888H145.477V45.704H147.901V48.128H145.717V50.288H138.901ZM150.073 50.288V39.2H152.497V47.888H156.625V39.2H159.025V47.888H163.177V39.2H165.577V48.128H163.417V50.288H158.785V48.128H156.865V50.288H150.073ZM169.929 50.288V48.128H167.745V41.384H169.929V39.2H176.697V41.384H178.905V48.128H176.697V50.288H169.929ZM170.169 47.888H176.457V41.6H170.169V47.888ZM181.807 50.288V41.384H183.991V39.2H190.759V41.384H192.967V43.76H190.519V41.6H184.231V50.288H181.807ZM195.401 50.288V34.856H197.825V43.52H199.745V41.384H204.113V39.2H206.561V41.6H204.353V43.76H199.985V45.704H204.353V47.888H206.561V50.288H204.113V48.128H199.745V45.944H197.825V50.288H195.401ZM218.612 53.84V49.424H216.452V45.104H214.268V40.52H216.452V36.152H218.612V31.832H221.06V36.392H218.852V40.76H216.692V44.864H218.852V49.256H221.06V53.84H218.612ZM225.429 50.288V48.128H223.245V37.04H225.429V34.856H232.197V37.04H234.405V41.6H232.197V43.52H234.405V48.128H232.197V50.288H225.429ZM225.669 47.888H231.957V43.76H227.589V41.384H231.957V37.28H225.669V47.888ZM237.307 50.288V37.04H239.491V34.856H246.259V37.04H248.467V43.76H246.259V45.944H245.203V47.888H247.363V50.288H244.963V48.128H242.755V45.944H239.731V50.288H237.307ZM239.731 43.52H246.019V37.28H239.731V43.52ZM251.37 50.288V39.2H253.554V37.04H255.714V34.856H258.162V37.04H260.322V39.2H262.53V50.288H260.082V45.944H253.794V50.288H251.37ZM253.794 43.52H260.082V39.44H257.922V37.28H255.954V39.44H253.794V43.52ZM265.432 50.288V47.888H267.616V37.28H265.432V34.856H272.224V37.28H270.016V47.888H272.224V50.288H265.432ZM275.135 50.288V34.856H277.559V37.04H279.719V39.2H281.927V45.704H283.847V34.856H286.295V50.288H283.847V48.128H281.687V45.944H279.479V39.44H277.559V50.288H275.135ZM288.478 53.84V49.256H290.662V44.864H292.846V40.76H290.662V36.392H288.478V31.832H290.902V36.152H293.086V40.52H295.27V45.104H293.086V49.424H290.902V53.84H288.478Z" fill="#4AE3B5"/>
<g clip-path="url(#clip0_238_864)">
<circle cx="1" cy="1" r="1" fill="#D2D6DB"/>
<circle cx="28" cy="1" r="1" fill="#D2D6DB"/>
<circle cx="55" cy="1" r="1" fill="#D2D6DB"/>
<circle cx="82" cy="1" r="1" fill="#D2D6DB"/>
<circle cx="109" cy="1" r="1" fill="#D2D6DB"/>
<circle cx="136" cy="1" r="1" fill="#D2D6DB"/>
<circle cx="163" cy="1" r="1" fill="#D2D6DB"/>
<circle cx="190" cy="1" r="1" fill="#D2D6DB"/>
<circle cx="217" cy="1" r="1" fill="#D2D6DB"/>
<circle cx="244" cy="1" r="1" fill="#D2D6DB"/>
<circle cx="271" cy="1" r="1" fill="#D2D6DB"/>
<circle cx="298" cy="1" r="1" fill="#D2D6DB"/>
<circle cx="325" cy="1" r="1" fill="#D2D6DB"/>
<circle cx="352" cy="1" r="1" fill="#D2D6DB"/>
<circle cx="379" cy="1" r="1" fill="#D2D6DB"/>
<circle cx="406" cy="1" r="1" fill="#D2D6DB"/>
<circle cx="433" cy="1" r="1" fill="#D2D6DB"/>
<circle cx="460" cy="1" r="1" fill="#D2D6DB"/>
<circle cx="487" cy="1" r="1" fill="#D2D6DB"/>
<circle cx="514" cy="1" r="1" fill="#D2D6DB"/>
<circle cx="541" cy="1" r="1" fill="#D2D6DB"/>
<circle cx="568" cy="1" r="1" fill="#D2D6DB"/>
<circle cx="595" cy="1" r="1" fill="#D2D6DB"/>
<circle cx="622" cy="1" r="1" fill="#D2D6DB"/>
<circle cx="649" cy="1" r="1" fill="#D2D6DB"/>
<circle cx="676" cy="1" r="1" fill="#D2D6DB"/>
<circle cx="703" cy="1" r="1" fill="#D2D6DB"/>
<circle cx="730" cy="1" r="1" fill="#D2D6DB"/>
<circle cx="757" cy="1" r="1" fill="#D2D6DB"/>
<circle cx="784" cy="1" r="1" fill="#D2D6DB"/>
<circle cx="811" cy="1" r="1" fill="#D2D6DB"/>
<circle cx="838" cy="1" r="1" fill="#D2D6DB"/>
<circle cx="865" cy="1" r="1" fill="#D2D6DB"/>
<circle cx="892" cy="1" r="1" fill="#D2D6DB"/>
<circle cx="919" cy="1" r="1" fill="#D2D6DB"/>
<circle cx="946" cy="1" r="1" fill="#D2D6DB"/>
<circle cx="973" cy="1" r="1" fill="#D2D6DB"/>
<circle cx="1000" cy="1" r="1" fill="#D2D6DB"/>
<circle cx="1027" cy="1" r="1" fill="#D2D6DB"/>
<circle cx="1054" cy="1" r="1" fill="#D2D6DB"/>
<circle cx="1081" cy="1" r="1" fill="#D2D6DB"/>
<circle cx="1108" cy="1" r="1" fill="#D2D6DB"/>
<circle cx="1135" cy="1" r="1" fill="#D2D6DB"/>
<circle cx="1162" cy="1" r="1" fill="#D2D6DB"/>
<circle cx="1189" cy="1" r="1" fill="#D2D6DB"/>
<circle cx="1" cy="28" r="1" fill="#D2D6DB"/>
<circle cx="28" cy="28" r="1" fill="#D2D6DB"/>
<circle cx="55" cy="28" r="1" fill="#D2D6DB"/>
<circle cx="82" cy="28" r="1" fill="#D2D6DB"/>
<circle cx="109" cy="28" r="1" fill="#D2D6DB"/>
<circle cx="136" cy="28" r="1" fill="#D2D6DB"/>
<circle cx="163" cy="28" r="1" fill="#D2D6DB"/>
<circle cx="190" cy="28" r="1" fill="#D2D6DB"/>
<circle cx="217" cy="28" r="1" fill="#D2D6DB"/>
<circle cx="244" cy="28" r="1" fill="#D2D6DB"/>
<circle cx="271" cy="28" r="1" fill="#D2D6DB"/>
<circle cx="298" cy="28" r="1" fill="#D2D6DB"/>
<circle cx="325" cy="28" r="1" fill="#D2D6DB"/>
<circle cx="352" cy="28" r="1" fill="#D2D6DB"/>
<circle cx="379" cy="28" r="1" fill="#D2D6DB"/>
<circle cx="406" cy="28" r="1" fill="#D2D6DB"/>
<circle cx="433" cy="28" r="1" fill="#D2D6DB"/>
<circle cx="460" cy="28" r="1" fill="#D2D6DB"/>
<circle cx="487" cy="28" r="1" fill="#D2D6DB"/>
<circle cx="514" cy="28" r="1" fill="#D2D6DB"/>
<circle cx="541" cy="28" r="1" fill="#D2D6DB"/>
<circle cx="568" cy="28" r="1" fill="#D2D6DB"/>
<circle cx="595" cy="28" r="1" fill="#D2D6DB"/>
<circle cx="622" cy="28" r="1" fill="#D2D6DB"/>
<circle cx="649" cy="28" r="1" fill="#D2D6DB"/>
<circle cx="676" cy="28" r="1" fill="#D2D6DB"/>
<circle cx="703" cy="28" r="1" fill="#D2D6DB"/>
<circle cx="730" cy="28" r="1" fill="#D2D6DB"/>
<circle cx="757" cy="28" r="1" fill="#D2D6DB"/>
<circle cx="784" cy="28" r="1" fill="#D2D6DB"/>
<circle cx="811" cy="28" r="1" fill="#D2D6DB"/>
<circle cx="838" cy="28" r="1" fill="#D2D6DB"/>
<circle cx="865" cy="28" r="1" fill="#D2D6DB"/>
<circle cx="892" cy="28" r="1" fill="#D2D6DB"/>
<circle cx="919" cy="28" r="1" fill="#D2D6DB"/>
<circle cx="946" cy="28" r="1" fill="#D2D6DB"/>
<circle cx="973" cy="28" r="1" fill="#D2D6DB"/>
<circle cx="1000" cy="28" r="1" fill="#D2D6DB"/>
<circle cx="1027" cy="28" r="1" fill="#D2D6DB"/>
<circle cx="1054" cy="28" r="1" fill="#D2D6DB"/>
<circle cx="1081" cy="28" r="1" fill="#D2D6DB"/>
<circle cx="1108" cy="28" r="1" fill="#D2D6DB"/>
<circle cx="1135" cy="28" r="1" fill="#D2D6DB"/>
<circle cx="1162" cy="28" r="1" fill="#D2D6DB"/>
<circle cx="1189" cy="28" r="1" fill="#D2D6DB"/>
<circle cx="1" cy="55" r="1" fill="#D2D6DB"/>
<circle cx="28" cy="55" r="1" fill="#D2D6DB"/>
<circle cx="55" cy="55" r="1" fill="#D2D6DB"/>
<circle cx="82" cy="55" r="1" fill="#D2D6DB"/>
<circle cx="109" cy="55" r="1" fill="#D2D6DB"/>
<circle cx="136" cy="55" r="1" fill="#D2D6DB"/>
<circle cx="163" cy="55" r="1" fill="#D2D6DB"/>
<circle cx="190" cy="55" r="1" fill="#D2D6DB"/>
<circle cx="217" cy="55" r="1" fill="#D2D6DB"/>
<circle cx="244" cy="55" r="1" fill="#D2D6DB"/>
<circle cx="271" cy="55" r="1" fill="#D2D6DB"/>
<circle cx="298" cy="55" r="1" fill="#D2D6DB"/>
<circle cx="325" cy="55" r="1" fill="#D2D6DB"/>
<circle cx="352" cy="55" r="1" fill="#D2D6DB"/>
<circle cx="379" cy="55" r="1" fill="#D2D6DB"/>
<circle cx="406" cy="55" r="1" fill="#D2D6DB"/>
<circle cx="433" cy="55" r="1" fill="#D2D6DB"/>
<circle cx="460" cy="55" r="1" fill="#D2D6DB"/>
<circle cx="487" cy="55" r="1" fill="#D2D6DB"/>
<circle cx="514" cy="55" r="1" fill="#D2D6DB"/>
<circle cx="541" cy="55" r="1" fill="#D2D6DB"/>
<circle cx="568" cy="55" r="1" fill="#D2D6DB"/>
<circle cx="595" cy="55" r="1" fill="#D2D6DB"/>
<circle cx="622" cy="55" r="1" fill="#D2D6DB"/>
<circle cx="649" cy="55" r="1" fill="#D2D6DB"/>
<circle cx="676" cy="55" r="1" fill="#D2D6DB"/>
<circle cx="703" cy="55" r="1" fill="#D2D6DB"/>
<circle cx="730" cy="55" r="1" fill="#D2D6DB"/>
<circle cx="757" cy="55" r="1" fill="#D2D6DB"/>
<circle cx="784" cy="55" r="1" fill="#D2D6DB"/>
<circle cx="811" cy="55" r="1" fill="#D2D6DB"/>
<circle cx="838" cy="55" r="1" fill="#D2D6DB"/>
<circle cx="865" cy="55" r="1" fill="#D2D6DB"/>
<circle cx="892" cy="55" r="1" fill="#D2D6DB"/>
<circle cx="919" cy="55" r="1" fill="#D2D6DB"/>
<circle cx="946" cy="55" r="1" fill="#D2D6DB"/>
<circle cx="973" cy="55" r="1" fill="#D2D6DB"/>
<circle cx="1000" cy="55" r="1" fill="#D2D6DB"/>
<circle cx="1027" cy="55" r="1" fill="#D2D6DB"/>
<circle cx="1054" cy="55" r="1" fill="#D2D6DB"/>
<circle cx="1081" cy="55" r="1" fill="#D2D6DB"/>
<circle cx="1108" cy="55" r="1" fill="#D2D6DB"/>
<circle cx="1135" cy="55" r="1" fill="#D2D6DB"/>
<circle cx="1162" cy="55" r="1" fill="#D2D6DB"/>
<circle cx="1189" cy="55" r="1" fill="#D2D6DB"/>
<circle cx="1" cy="82" r="1" fill="#D2D6DB"/>
<circle cx="28" cy="82" r="1" fill="#D2D6DB"/>
<circle cx="55" cy="82" r="1" fill="#D2D6DB"/>
<circle cx="82" cy="82" r="1" fill="#D2D6DB"/>
<circle cx="109" cy="82" r="1" fill="#D2D6DB"/>
<circle cx="136" cy="82" r="1" fill="#D2D6DB"/>
<circle cx="163" cy="82" r="1" fill="#D2D6DB"/>
<circle cx="190" cy="82" r="1" fill="#D2D6DB"/>
<circle cx="217" cy="82" r="1" fill="#D2D6DB"/>
<circle cx="244" cy="82" r="1" fill="#D2D6DB"/>
<circle cx="271" cy="82" r="1" fill="#D2D6DB"/>
<circle cx="298" cy="82" r="1" fill="#D2D6DB"/>
<circle cx="325" cy="82" r="1" fill="#D2D6DB"/>
<circle cx="352" cy="82" r="1" fill="#D2D6DB"/>
<circle cx="379" cy="82" r="1" fill="#D2D6DB"/>
<circle cx="406" cy="82" r="1" fill="#D2D6DB"/>
<circle cx="433" cy="82" r="1" fill="#D2D6DB"/>
<circle cx="460" cy="82" r="1" fill="#D2D6DB"/>
<circle cx="487" cy="82" r="1" fill="#D2D6DB"/>
<circle cx="514" cy="82" r="1" fill="#D2D6DB"/>
<circle cx="541" cy="82" r="1" fill="#D2D6DB"/>
<circle cx="568" cy="82" r="1" fill="#D2D6DB"/>
<circle cx="595" cy="82" r="1" fill="#D2D6DB"/>
<circle cx="622" cy="82" r="1" fill="#D2D6DB"/>
<circle cx="649" cy="82" r="1" fill="#D2D6DB"/>
<circle cx="676" cy="82" r="1" fill="#D2D6DB"/>
<circle cx="703" cy="82" r="1" fill="#D2D6DB"/>
<circle cx="730" cy="82" r="1" fill="#D2D6DB"/>
<circle cx="757" cy="82" r="1" fill="#D2D6DB"/>
<circle cx="784" cy="82" r="1" fill="#D2D6DB"/>
<circle cx="811" cy="82" r="1" fill="#D2D6DB"/>
<circle cx="838" cy="82" r="1" fill="#D2D6DB"/>
<circle cx="865" cy="82" r="1" fill="#D2D6DB"/>
<circle cx="892" cy="82" r="1" fill="#D2D6DB"/>
<circle cx="919" cy="82" r="1" fill="#D2D6DB"/>
<circle cx="946" cy="82" r="1" fill="#D2D6DB"/>
<circle cx="973" cy="82" r="1" fill="#D2D6DB"/>
<circle cx="1000" cy="82" r="1" fill="#D2D6DB"/>
<circle cx="1027" cy="82" r="1" fill="#D2D6DB"/>
<circle cx="1054" cy="82" r="1" fill="#D2D6DB"/>
<circle cx="1081" cy="82" r="1" fill="#D2D6DB"/>
<circle cx="1108" cy="82" r="1" fill="#D2D6DB"/>
<circle cx="1135" cy="82" r="1" fill="#D2D6DB"/>
<circle cx="1162" cy="82" r="1" fill="#D2D6DB"/>
<circle cx="1189" cy="82" r="1" fill="#D2D6DB"/>
<circle cx="1" cy="109" r="1" fill="#D2D6DB"/>
<circle cx="28" cy="109" r="1" fill="#D2D6DB"/>
<circle cx="55" cy="109" r="1" fill="#D2D6DB"/>
<circle cx="82" cy="109" r="1" fill="#D2D6DB"/>
<circle cx="109" cy="109" r="1" fill="#D2D6DB"/>
<circle cx="136" cy="109" r="1" fill="#D2D6DB"/>
<circle cx="163" cy="109" r="1" fill="#D2D6DB"/>
<circle cx="190" cy="109" r="1" fill="#D2D6DB"/>
<circle cx="217" cy="109" r="1" fill="#D2D6DB"/>
<circle cx="244" cy="109" r="1" fill="#D2D6DB"/>
<circle cx="271" cy="109" r="1" fill="#D2D6DB"/>
<circle cx="298" cy="109" r="1" fill="#D2D6DB"/>
<circle cx="325" cy="109" r="1" fill="#D2D6DB"/>
<circle cx="352" cy="109" r="1" fill="#D2D6DB"/>
<circle cx="379" cy="109" r="1" fill="#D2D6DB"/>
<circle cx="406" cy="109" r="1" fill="#D2D6DB"/>
<circle cx="433" cy="109" r="1" fill="#D2D6DB"/>
<circle cx="460" cy="109" r="1" fill="#D2D6DB"/>
<circle cx="487" cy="109" r="1" fill="#D2D6DB"/>
<circle cx="514" cy="109" r="1" fill="#D2D6DB"/>
<circle cx="541" cy="109" r="1" fill="#D2D6DB"/>
<circle cx="568" cy="109" r="1" fill="#D2D6DB"/>
<circle cx="595" cy="109" r="1" fill="#D2D6DB"/>
<circle cx="622" cy="109" r="1" fill="#D2D6DB"/>
<circle cx="649" cy="109" r="1" fill="#D2D6DB"/>
<circle cx="676" cy="109" r="1" fill="#D2D6DB"/>
<circle cx="703" cy="109" r="1" fill="#D2D6DB"/>
<circle cx="730" cy="109" r="1" fill="#D2D6DB"/>
<circle cx="757" cy="109" r="1" fill="#D2D6DB"/>
<circle cx="784" cy="109" r="1" fill="#D2D6DB"/>
<circle cx="811" cy="109" r="1" fill="#D2D6DB"/>
<circle cx="838" cy="109" r="1" fill="#D2D6DB"/>
<circle cx="865" cy="109" r="1" fill="#D2D6DB"/>
<circle cx="892" cy="109" r="1" fill="#D2D6DB"/>
<circle cx="919" cy="109" r="1" fill="#D2D6DB"/>
<circle cx="946" cy="109" r="1" fill="#D2D6DB"/>
<circle cx="973" cy="109" r="1" fill="#D2D6DB"/>
<circle cx="1000" cy="109" r="1" fill="#D2D6DB"/>
<circle cx="1027" cy="109" r="1" fill="#D2D6DB"/>
<circle cx="1054" cy="109" r="1" fill="#D2D6DB"/>
<circle cx="1081" cy="109" r="1" fill="#D2D6DB"/>
<circle cx="1108" cy="109" r="1" fill="#D2D6DB"/>
<circle cx="1135" cy="109" r="1" fill="#D2D6DB"/>
<circle cx="1162" cy="109" r="1" fill="#D2D6DB"/>
<circle cx="1189" cy="109" r="1" fill="#D2D6DB"/>
<circle cx="1" cy="136" r="1" fill="#D2D6DB"/>
<circle cx="28" cy="136" r="1" fill="#D2D6DB"/>
<circle cx="55" cy="136" r="1" fill="#D2D6DB"/>
<circle cx="82" cy="136" r="1" fill="#D2D6DB"/>
<circle cx="109" cy="136" r="1" fill="#D2D6DB"/>
<circle cx="136" cy="136" r="1" fill="#D2D6DB"/>
<circle cx="163" cy="136" r="1" fill="#D2D6DB"/>
<circle cx="190" cy="136" r="1" fill="#D2D6DB"/>
<circle cx="217" cy="136" r="1" fill="#D2D6DB"/>
<circle cx="244" cy="136" r="1" fill="#D2D6DB"/>
<circle cx="271" cy="136" r="1" fill="#D2D6DB"/>
<circle cx="298" cy="136" r="1" fill="#D2D6DB"/>
<circle cx="325" cy="136" r="1" fill="#D2D6DB"/>
<circle cx="352" cy="136" r="1" fill="#D2D6DB"/>
<circle cx="379" cy="136" r="1" fill="#D2D6DB"/>
<circle cx="406" cy="136" r="1" fill="#D2D6DB"/>
<circle cx="433" cy="136" r="1" fill="#D2D6DB"/>
<circle cx="460" cy="136" r="1" fill="#D2D6DB"/>
<circle cx="487" cy="136" r="1" fill="#D2D6DB"/>
<circle cx="514" cy="136" r="1" fill="#D2D6DB"/>
<circle cx="541" cy="136" r="1" fill="#D2D6DB"/>
<circle cx="568" cy="136" r="1" fill="#D2D6DB"/>
<circle cx="595" cy="136" r="1" fill="#D2D6DB"/>
<circle cx="622" cy="136" r="1" fill="#D2D6DB"/>
<circle cx="649" cy="136" r="1" fill="#D2D6DB"/>
<circle cx="676" cy="136" r="1" fill="#D2D6DB"/>
<circle cx="703" cy="136" r="1" fill="#D2D6DB"/>
<circle cx="730" cy="136" r="1" fill="#D2D6DB"/>
<circle cx="757" cy="136" r="1" fill="#D2D6DB"/>
<circle cx="784" cy="136" r="1" fill="#D2D6DB"/>
<circle cx="811" cy="136" r="1" fill="#D2D6DB"/>
<circle cx="838" cy="136" r="1" fill="#D2D6DB"/>
<circle cx="865" cy="136" r="1" fill="#D2D6DB"/>
<circle cx="892" cy="136" r="1" fill="#D2D6DB"/>
<circle cx="919" cy="136" r="1" fill="#D2D6DB"/>
<circle cx="946" cy="136" r="1" fill="#D2D6DB"/>
<circle cx="973" cy="136" r="1" fill="#D2D6DB"/>
<circle cx="1000" cy="136" r="1" fill="#D2D6DB"/>
<circle cx="1027" cy="136" r="1" fill="#D2D6DB"/>
<circle cx="1054" cy="136" r="1" fill="#D2D6DB"/>
<circle cx="1081" cy="136" r="1" fill="#D2D6DB"/>
<circle cx="1108" cy="136" r="1" fill="#D2D6DB"/>
<circle cx="1135" cy="136" r="1" fill="#D2D6DB"/>
<circle cx="1162" cy="136" r="1" fill="#D2D6DB"/>
<circle cx="1189" cy="136" r="1" fill="#D2D6DB"/>
<circle cx="1" cy="163" r="1" fill="#D2D6DB"/>
<circle cx="28" cy="163" r="1" fill="#D2D6DB"/>
<circle cx="55" cy="163" r="1" fill="#D2D6DB"/>
<circle cx="82" cy="163" r="1" fill="#D2D6DB"/>
<circle cx="109" cy="163" r="1" fill="#D2D6DB"/>
<circle cx="136" cy="163" r="1" fill="#D2D6DB"/>
<circle cx="163" cy="163" r="1" fill="#D2D6DB"/>
<circle cx="190" cy="163" r="1" fill="#D2D6DB"/>
<circle cx="217" cy="163" r="1" fill="#D2D6DB"/>
<circle cx="244" cy="163" r="1" fill="#D2D6DB"/>
<circle cx="271" cy="163" r="1" fill="#D2D6DB"/>
<circle cx="298" cy="163" r="1" fill="#D2D6DB"/>
<circle cx="325" cy="163" r="1" fill="#D2D6DB"/>
<circle cx="352" cy="163" r="1" fill="#D2D6DB"/>
<circle cx="379" cy="163" r="1" fill="#D2D6DB"/>
<circle cx="406" cy="163" r="1" fill="#D2D6DB"/>
<circle cx="433" cy="163" r="1" fill="#D2D6DB"/>
<circle cx="460" cy="163" r="1" fill="#D2D6DB"/>
<circle cx="487" cy="163" r="1" fill="#D2D6DB"/>
<circle cx="514" cy="163" r="1" fill="#D2D6DB"/>
<circle cx="541" cy="163" r="1" fill="#D2D6DB"/>
<circle cx="568" cy="163" r="1" fill="#D2D6DB"/>
<circle cx="595" cy="163" r="1" fill="#D2D6DB"/>
<circle cx="622" cy="163" r="1" fill="#D2D6DB"/>
<circle cx="649" cy="163" r="1" fill="#D2D6DB"/>
<circle cx="676" cy="163" r="1" fill="#D2D6DB"/>
<circle cx="703" cy="163" r="1" fill="#D2D6DB"/>
<circle cx="730" cy="163" r="1" fill="#D2D6DB"/>
<circle cx="757" cy="163" r="1" fill="#D2D6DB"/>
<circle cx="784" cy="163" r="1" fill="#D2D6DB"/>
<circle cx="811" cy="163" r="1" fill="#D2D6DB"/>
<circle cx="838" cy="163" r="1" fill="#D2D6DB"/>
<circle cx="865" cy="163" r="1" fill="#D2D6DB"/>
<circle cx="892" cy="163" r="1" fill="#D2D6DB"/>
<circle cx="919" cy="163" r="1" fill="#D2D6DB"/>
<circle cx="946" cy="163" r="1" fill="#D2D6DB"/>
<circle cx="973" cy="163" r="1" fill="#D2D6DB"/>
<circle cx="1000" cy="163" r="1" fill="#D2D6DB"/>
<circle cx="1027" cy="163" r="1" fill="#D2D6DB"/>
<circle cx="1054" cy="163" r="1" fill="#D2D6DB"/>
<circle cx="1081" cy="163" r="1" fill="#D2D6DB"/>
<circle cx="1108" cy="163" r="1" fill="#D2D6DB"/>
<circle cx="1135" cy="163" r="1" fill="#D2D6DB"/>
<circle cx="1162" cy="163" r="1" fill="#D2D6DB"/>
<circle cx="1189" cy="163" r="1" fill="#D2D6DB"/>
<circle cx="1" cy="190" r="1" fill="#D2D6DB"/>
<circle cx="28" cy="190" r="1" fill="#D2D6DB"/>
<circle cx="55" cy="190" r="1" fill="#D2D6DB"/>
<circle cx="82" cy="190" r="1" fill="#D2D6DB"/>
<circle cx="109" cy="190" r="1" fill="#D2D6DB"/>
<circle cx="136" cy="190" r="1" fill="#D2D6DB"/>
<circle cx="163" cy="190" r="1" fill="#D2D6DB"/>
<circle cx="190" cy="190" r="1" fill="#D2D6DB"/>
<circle cx="217" cy="190" r="1" fill="#D2D6DB"/>
<circle cx="244" cy="190" r="1" fill="#D2D6DB"/>
<circle cx="271" cy="190" r="1" fill="#D2D6DB"/>
<circle cx="298" cy="190" r="1" fill="#D2D6DB"/>
<circle cx="325" cy="190" r="1" fill="#D2D6DB"/>
<circle cx="352" cy="190" r="1" fill="#D2D6DB"/>
<circle cx="379" cy="190" r="1" fill="#D2D6DB"/>
<circle cx="406" cy="190" r="1" fill="#D2D6DB"/>
<circle cx="433" cy="190" r="1" fill="#D2D6DB"/>
<circle cx="460" cy="190" r="1" fill="#D2D6DB"/>
<circle cx="487" cy="190" r="1" fill="#D2D6DB"/>
<circle cx="514" cy="190" r="1" fill="#D2D6DB"/>
<circle cx="541" cy="190" r="1" fill="#D2D6DB"/>
<circle cx="568" cy="190" r="1" fill="#D2D6DB"/>
<circle cx="595" cy="190" r="1" fill="#D2D6DB"/>
<circle cx="622" cy="190" r="1" fill="#D2D6DB"/>
<circle cx="649" cy="190" r="1" fill="#D2D6DB"/>
<circle cx="676" cy="190" r="1" fill="#D2D6DB"/>
<circle cx="703" cy="190" r="1" fill="#D2D6DB"/>
<circle cx="730" cy="190" r="1" fill="#D2D6DB"/>
<circle cx="757" cy="190" r="1" fill="#D2D6DB"/>
<circle cx="784" cy="190" r="1" fill="#D2D6DB"/>
<circle cx="811" cy="190" r="1" fill="#D2D6DB"/>
<circle cx="838" cy="190" r="1" fill="#D2D6DB"/>
<circle cx="865" cy="190" r="1" fill="#D2D6DB"/>
<circle cx="892" cy="190" r="1" fill="#D2D6DB"/>
<circle cx="919" cy="190" r="1" fill="#D2D6DB"/>
<circle cx="946" cy="190" r="1" fill="#D2D6DB"/>
<circle cx="973" cy="190" r="1" fill="#D2D6DB"/>
<circle cx="1000" cy="190" r="1" fill="#D2D6DB"/>
<circle cx="1027" cy="190" r="1" fill="#D2D6DB"/>
<circle cx="1054" cy="190" r="1" fill="#D2D6DB"/>
<circle cx="1081" cy="190" r="1" fill="#D2D6DB"/>
<circle cx="1108" cy="190" r="1" fill="#D2D6DB"/>
<circle cx="1135" cy="190" r="1" fill="#D2D6DB"/>
<circle cx="1162" cy="190" r="1" fill="#D2D6DB"/>
<circle cx="1189" cy="190" r="1" fill="#D2D6DB"/>
<circle cx="1" cy="217" r="1" fill="#D2D6DB"/>
<circle cx="28" cy="217" r="1" fill="#D2D6DB"/>
<circle cx="55" cy="217" r="1" fill="#D2D6DB"/>
<circle cx="82" cy="217" r="1" fill="#D2D6DB"/>
<circle cx="109" cy="217" r="1" fill="#D2D6DB"/>
<circle cx="136" cy="217" r="1" fill="#D2D6DB"/>
<circle cx="163" cy="217" r="1" fill="#D2D6DB"/>
<circle cx="190" cy="217" r="1" fill="#D2D6DB"/>
<circle cx="217" cy="217" r="1" fill="#D2D6DB"/>
<circle cx="244" cy="217" r="1" fill="#D2D6DB"/>
<circle cx="271" cy="217" r="1" fill="#D2D6DB"/>
<circle cx="298" cy="217" r="1" fill="#D2D6DB"/>
<circle cx="325" cy="217" r="1" fill="#D2D6DB"/>
<circle cx="352" cy="217" r="1" fill="#D2D6DB"/>
<circle cx="379" cy="217" r="1" fill="#D2D6DB"/>
<circle cx="406" cy="217" r="1" fill="#D2D6DB"/>
<circle cx="433" cy="217" r="1" fill="#D2D6DB"/>
<circle cx="460" cy="217" r="1" fill="#D2D6DB"/>
<circle cx="487" cy="217" r="1" fill="#D2D6DB"/>
<circle cx="514" cy="217" r="1" fill="#D2D6DB"/>
<circle cx="541" cy="217" r="1" fill="#D2D6DB"/>
<circle cx="568" cy="217" r="1" fill="#D2D6DB"/>
<circle cx="595" cy="217" r="1" fill="#D2D6DB"/>
<circle cx="622" cy="217" r="1" fill="#D2D6DB"/>
<circle cx="649" cy="217" r="1" fill="#D2D6DB"/>
<circle cx="676" cy="217" r="1" fill="#D2D6DB"/>
<circle cx="703" cy="217" r="1" fill="#D2D6DB"/>
<circle cx="730" cy="217" r="1" fill="#D2D6DB"/>
<circle cx="757" cy="217" r="1" fill="#D2D6DB"/>
<circle cx="784" cy="217" r="1" fill="#D2D6DB"/>
<circle cx="811" cy="217" r="1" fill="#D2D6DB"/>
<circle cx="838" cy="217" r="1" fill="#D2D6DB"/>
<circle cx="865" cy="217" r="1" fill="#D2D6DB"/>
<circle cx="892" cy="217" r="1" fill="#D2D6DB"/>
<circle cx="919" cy="217" r="1" fill="#D2D6DB"/>
<circle cx="946" cy="217" r="1" fill="#D2D6DB"/>
<circle cx="973" cy="217" r="1" fill="#D2D6DB"/>
<circle cx="1000" cy="217" r="1" fill="#D2D6DB"/>
<circle cx="1027" cy="217" r="1" fill="#D2D6DB"/>
<circle cx="1054" cy="217" r="1" fill="#D2D6DB"/>
<circle cx="1081" cy="217" r="1" fill="#D2D6DB"/>
<circle cx="1108" cy="217" r="1" fill="#D2D6DB"/>
<circle cx="1135" cy="217" r="1" fill="#D2D6DB"/>
<circle cx="1162" cy="217" r="1" fill="#D2D6DB"/>
<circle cx="1189" cy="217" r="1" fill="#D2D6DB"/>
<circle cx="1" cy="244" r="1" fill="#D2D6DB"/>
<circle cx="28" cy="244" r="1" fill="#D2D6DB"/>
<circle cx="55" cy="244" r="1" fill="#D2D6DB"/>
<circle cx="82" cy="244" r="1" fill="#D2D6DB"/>
<circle cx="109" cy="244" r="1" fill="#D2D6DB"/>
<circle cx="136" cy="244" r="1" fill="#D2D6DB"/>
<circle cx="163" cy="244" r="1" fill="#D2D6DB"/>
<circle cx="190" cy="244" r="1" fill="#D2D6DB"/>
<circle cx="217" cy="244" r="1" fill="#D2D6DB"/>
<circle cx="244" cy="244" r="1" fill="#D2D6DB"/>
<circle cx="271" cy="244" r="1" fill="#D2D6DB"/>
<circle cx="298" cy="244" r="1" fill="#D2D6DB"/>
<circle cx="325" cy="244" r="1" fill="#D2D6DB"/>
<circle cx="352" cy="244" r="1" fill="#D2D6DB"/>
<circle cx="379" cy="244" r="1" fill="#D2D6DB"/>
<circle cx="406" cy="244" r="1" fill="#D2D6DB"/>
<circle cx="433" cy="244" r="1" fill="#D2D6DB"/>
<circle cx="460" cy="244" r="1" fill="#D2D6DB"/>
<circle cx="487" cy="244" r="1" fill="#D2D6DB"/>
<circle cx="514" cy="244" r="1" fill="#D2D6DB"/>
<circle cx="541" cy="244" r="1" fill="#D2D6DB"/>
<circle cx="568" cy="244" r="1" fill="#D2D6DB"/>
<circle cx="595" cy="244" r="1" fill="#D2D6DB"/>
<circle cx="622" cy="244" r="1" fill="#D2D6DB"/>
<circle cx="649" cy="244" r="1" fill="#D2D6DB"/>
<circle cx="676" cy="244" r="1" fill="#D2D6DB"/>
<circle cx="703" cy="244" r="1" fill="#D2D6DB"/>
<circle cx="730" cy="244" r="1" fill="#D2D6DB"/>
<circle cx="757" cy="244" r="1" fill="#D2D6DB"/>
<circle cx="784" cy="244" r="1" fill="#D2D6DB"/>
<circle cx="811" cy="244" r="1" fill="#D2D6DB"/>
<circle cx="838" cy="244" r="1" fill="#D2D6DB"/>
<circle cx="865" cy="244" r="1" fill="#D2D6DB"/>
<circle cx="892" cy="244" r="1" fill="#D2D6DB"/>
<circle cx="919" cy="244" r="1" fill="#D2D6DB"/>
<circle cx="946" cy="244" r="1" fill="#D2D6DB"/>
<circle cx="973" cy="244" r="1" fill="#D2D6DB"/>
<circle cx="1000" cy="244" r="1" fill="#D2D6DB"/>
<circle cx="1027" cy="244" r="1" fill="#D2D6DB"/>
<circle cx="1054" cy="244" r="1" fill="#D2D6DB"/>
<circle cx="1081" cy="244" r="1" fill="#D2D6DB"/>
<circle cx="1108" cy="244" r="1" fill="#D2D6DB"/>
<circle cx="1135" cy="244" r="1" fill="#D2D6DB"/>
<circle cx="1162" cy="244" r="1" fill="#D2D6DB"/>
<circle cx="1189" cy="244" r="1" fill="#D2D6DB"/>
<circle cx="1" cy="271" r="1" fill="#D2D6DB"/>
<circle cx="28" cy="271" r="1" fill="#D2D6DB"/>
<circle cx="55" cy="271" r="1" fill="#D2D6DB"/>
<circle cx="82" cy="271" r="1" fill="#D2D6DB"/>
<circle cx="109" cy="271" r="1" fill="#D2D6DB"/>
<circle cx="136" cy="271" r="1" fill="#D2D6DB"/>
<circle cx="163" cy="271" r="1" fill="#D2D6DB"/>
<circle cx="190" cy="271" r="1" fill="#D2D6DB"/>
<circle cx="217" cy="271" r="1" fill="#D2D6DB"/>
<circle cx="244" cy="271" r="1" fill="#D2D6DB"/>
<circle cx="271" cy="271" r="1" fill="#D2D6DB"/>
<circle cx="298" cy="271" r="1" fill="#D2D6DB"/>
<circle cx="325" cy="271" r="1" fill="#D2D6DB"/>
<circle cx="352" cy="271" r="1" fill="#D2D6DB"/>
<circle cx="379" cy="271" r="1" fill="#D2D6DB"/>
<circle cx="406" cy="271" r="1" fill="#D2D6DB"/>
<circle cx="433" cy="271" r="1" fill="#D2D6DB"/>
<circle cx="460" cy="271" r="1" fill="#D2D6DB"/>
<circle cx="487" cy="271" r="1" fill="#D2D6DB"/>
<circle cx="514" cy="271" r="1" fill="#D2D6DB"/>
<circle cx="541" cy="271" r="1" fill="#D2D6DB"/>
<circle cx="568" cy="271" r="1" fill="#D2D6DB"/>
<circle cx="595" cy="271" r="1" fill="#D2D6DB"/>
<circle cx="622" cy="271" r="1" fill="#D2D6DB"/>
<circle cx="649" cy="271" r="1" fill="#D2D6DB"/>
<circle cx="676" cy="271" r="1" fill="#D2D6DB"/>
<circle cx="703" cy="271" r="1" fill="#D2D6DB"/>
<circle cx="730" cy="271" r="1" fill="#D2D6DB"/>
<circle cx="757" cy="271" r="1" fill="#D2D6DB"/>
<circle cx="784" cy="271" r="1" fill="#D2D6DB"/>
<circle cx="811" cy="271" r="1" fill="#D2D6DB"/>
<circle cx="838" cy="271" r="1" fill="#D2D6DB"/>
<circle cx="865" cy="271" r="1" fill="#D2D6DB"/>
<circle cx="892" cy="271" r="1" fill="#D2D6DB"/>
<circle cx="919" cy="271" r="1" fill="#D2D6DB"/>
<circle cx="946" cy="271" r="1" fill="#D2D6DB"/>
<circle cx="973" cy="271" r="1" fill="#D2D6DB"/>
<circle cx="1000" cy="271" r="1" fill="#D2D6DB"/>
<circle cx="1027" cy="271" r="1" fill="#D2D6DB"/>
<circle cx="1054" cy="271" r="1" fill="#D2D6DB"/>
<circle cx="1081" cy="271" r="1" fill="#D2D6DB"/>
<circle cx="1108" cy="271" r="1" fill="#D2D6DB"/>
<circle cx="1135" cy="271" r="1" fill="#D2D6DB"/>
<circle cx="1162" cy="271" r="1" fill="#D2D6DB"/>
<circle cx="1189" cy="271" r="1" fill="#D2D6DB"/>
<circle cx="1" cy="298" r="1" fill="#D2D6DB"/>
<circle cx="28" cy="298" r="1" fill="#D2D6DB"/>
<circle cx="55" cy="298" r="1" fill="#D2D6DB"/>
<circle cx="82" cy="298" r="1" fill="#D2D6DB"/>
<circle cx="109" cy="298" r="1" fill="#D2D6DB"/>
<circle cx="136" cy="298" r="1" fill="#D2D6DB"/>
<circle cx="163" cy="298" r="1" fill="#D2D6DB"/>
<circle cx="190" cy="298" r="1" fill="#D2D6DB"/>
<circle cx="217" cy="298" r="1" fill="#D2D6DB"/>
<circle cx="244" cy="298" r="1" fill="#D2D6DB"/>
<circle cx="271" cy="298" r="1" fill="#D2D6DB"/>
<circle cx="298" cy="298" r="1" fill="#D2D6DB"/>
<circle cx="325" cy="298" r="1" fill="#D2D6DB"/>
<circle cx="352" cy="298" r="1" fill="#D2D6DB"/>
<circle cx="379" cy="298" r="1" fill="#D2D6DB"/>
<circle cx="406" cy="298" r="1" fill="#D2D6DB"/>
<circle cx="433" cy="298" r="1" fill="#D2D6DB"/>
<circle cx="460" cy="298" r="1" fill="#D2D6DB"/>
<circle cx="487" cy="298" r="1" fill="#D2D6DB"/>
<circle cx="514" cy="298" r="1" fill="#D2D6DB"/>
<circle cx="541" cy="298" r="1" fill="#D2D6DB"/>
<circle cx="568" cy="298" r="1" fill="#D2D6DB"/>
<circle cx="595" cy="298" r="1" fill="#D2D6DB"/>
<circle cx="622" cy="298" r="1" fill="#D2D6DB"/>
<circle cx="649" cy="298" r="1" fill="#D2D6DB"/>
<circle cx="676" cy="298" r="1" fill="#D2D6DB"/>
<circle cx="703" cy="298" r="1" fill="#D2D6DB"/>
<circle cx="730" cy="298" r="1" fill="#D2D6DB"/>
<circle cx="757" cy="298" r="1" fill="#D2D6DB"/>
<circle cx="784" cy="298" r="1" fill="#D2D6DB"/>
<circle cx="811" cy="298" r="1" fill="#D2D6DB"/>
<circle cx="838" cy="298" r="1" fill="#D2D6DB"/>
<circle cx="865" cy="298" r="1" fill="#D2D6DB"/>
<circle cx="892" cy="298" r="1" fill="#D2D6DB"/>
<circle cx="919" cy="298" r="1" fill="#D2D6DB"/>
<circle cx="946" cy="298" r="1" fill="#D2D6DB"/>
<circle cx="973" cy="298" r="1" fill="#D2D6DB"/>
<circle cx="1000" cy="298" r="1" fill="#D2D6DB"/>
<circle cx="1027" cy="298" r="1" fill="#D2D6DB"/>
<circle cx="1054" cy="298" r="1" fill="#D2D6DB"/>
<circle cx="1081" cy="298" r="1" fill="#D2D6DB"/>
<circle cx="1108" cy="298" r="1" fill="#D2D6DB"/>
<circle cx="1135" cy="298" r="1" fill="#D2D6DB"/>
<circle cx="1162" cy="298" r="1" fill="#D2D6DB"/>
<circle cx="1189" cy="298" r="1" fill="#D2D6DB"/>
<circle cx="1" cy="325" r="1" fill="#D2D6DB"/>
<circle cx="28" cy="325" r="1" fill="#D2D6DB"/>
<circle cx="55" cy="325" r="1" fill="#D2D6DB"/>
<circle cx="82" cy="325" r="1" fill="#D2D6DB"/>
<circle cx="109" cy="325" r="1" fill="#D2D6DB"/>
<circle cx="136" cy="325" r="1" fill="#D2D6DB"/>
<circle cx="163" cy="325" r="1" fill="#D2D6DB"/>
<circle cx="190" cy="325" r="1" fill="#D2D6DB"/>
<circle cx="217" cy="325" r="1" fill="#D2D6DB"/>
<circle cx="244" cy="325" r="1" fill="#D2D6DB"/>
<circle cx="271" cy="325" r="1" fill="#D2D6DB"/>
<circle cx="298" cy="325" r="1" fill="#D2D6DB"/>
<circle cx="325" cy="325" r="1" fill="#D2D6DB"/>
<circle cx="352" cy="325" r="1" fill="#D2D6DB"/>
<circle cx="379" cy="325" r="1" fill="#D2D6DB"/>
<circle cx="406" cy="325" r="1" fill="#D2D6DB"/>
<circle cx="433" cy="325" r="1" fill="#D2D6DB"/>
<circle cx="460" cy="325" r="1" fill="#D2D6DB"/>
<circle cx="487" cy="325" r="1" fill="#D2D6DB"/>
<circle cx="514" cy="325" r="1" fill="#D2D6DB"/>
<circle cx="541" cy="325" r="1" fill="#D2D6DB"/>
<circle cx="568" cy="325" r="1" fill="#D2D6DB"/>
<circle cx="595" cy="325" r="1" fill="#D2D6DB"/>
<circle cx="622" cy="325" r="1" fill="#D2D6DB"/>
<circle cx="649" cy="325" r="1" fill="#D2D6DB"/>
<circle cx="676" cy="325" r="1" fill="#D2D6DB"/>
<circle cx="703" cy="325" r="1" fill="#D2D6DB"/>
<circle cx="730" cy="325" r="1" fill="#D2D6DB"/>
<circle cx="757" cy="325" r="1" fill="#D2D6DB"/>
<circle cx="784" cy="325" r="1" fill="#D2D6DB"/>
<circle cx="811" cy="325" r="1" fill="#D2D6DB"/>
<circle cx="838" cy="325" r="1" fill="#D2D6DB"/>
<circle cx="865" cy="325" r="1" fill="#D2D6DB"/>
<circle cx="892" cy="325" r="1" fill="#D2D6DB"/>
<circle cx="919" cy="325" r="1" fill="#D2D6DB"/>
<circle cx="946" cy="325" r="1" fill="#D2D6DB"/>
<circle cx="973" cy="325" r="1" fill="#D2D6DB"/>
<circle cx="1000" cy="325" r="1" fill="#D2D6DB"/>
<circle cx="1027" cy="325" r="1" fill="#D2D6DB"/>
<circle cx="1054" cy="325" r="1" fill="#D2D6DB"/>
<circle cx="1081" cy="325" r="1" fill="#D2D6DB"/>
<circle cx="1108" cy="325" r="1" fill="#D2D6DB"/>
<circle cx="1135" cy="325" r="1" fill="#D2D6DB"/>
<circle cx="1162" cy="325" r="1" fill="#D2D6DB"/>
<circle cx="1189" cy="325" r="1" fill="#D2D6DB"/>
<circle cx="1" cy="352" r="1" fill="#D2D6DB"/>
<circle cx="28" cy="352" r="1" fill="#D2D6DB"/>
<circle cx="55" cy="352" r="1" fill="#D2D6DB"/>
<circle cx="82" cy="352" r="1" fill="#D2D6DB"/>
<circle cx="109" cy="352" r="1" fill="#D2D6DB"/>
<circle cx="136" cy="352" r="1" fill="#D2D6DB"/>
<circle cx="163" cy="352" r="1" fill="#D2D6DB"/>
<circle cx="190" cy="352" r="1" fill="#D2D6DB"/>
<circle cx="217" cy="352" r="1" fill="#D2D6DB"/>
<circle cx="244" cy="352" r="1" fill="#D2D6DB"/>
<circle cx="271" cy="352" r="1" fill="#D2D6DB"/>
<circle cx="298" cy="352" r="1" fill="#D2D6DB"/>
<circle cx="325" cy="352" r="1" fill="#D2D6DB"/>
<circle cx="352" cy="352" r="1" fill="#D2D6DB"/>
<circle cx="379" cy="352" r="1" fill="#D2D6DB"/>
<circle cx="406" cy="352" r="1" fill="#D2D6DB"/>
<circle cx="433" cy="352" r="1" fill="#D2D6DB"/>
<circle cx="460" cy="352" r="1" fill="#D2D6DB"/>
<circle cx="487" cy="352" r="1" fill="#D2D6DB"/>
<circle cx="514" cy="352" r="1" fill="#D2D6DB"/>
<circle cx="541" cy="352" r="1" fill="#D2D6DB"/>
<circle cx="568" cy="352" r="1" fill="#D2D6DB"/>
<circle cx="595" cy="352" r="1" fill="#D2D6DB"/>
<circle cx="622" cy="352" r="1" fill="#D2D6DB"/>
<circle cx="649" cy="352" r="1" fill="#D2D6DB"/>
<circle cx="676" cy="352" r="1" fill="#D2D6DB"/>
<circle cx="703" cy="352" r="1" fill="#D2D6DB"/>
<circle cx="730" cy="352" r="1" fill="#D2D6DB"/>
<circle cx="757" cy="352" r="1" fill="#D2D6DB"/>
<circle cx="784" cy="352" r="1" fill="#D2D6DB"/>
<circle cx="811" cy="352" r="1" fill="#D2D6DB"/>
<circle cx="838" cy="352" r="1" fill="#D2D6DB"/>
<circle cx="865" cy="352" r="1" fill="#D2D6DB"/>
<circle cx="892" cy="352" r="1" fill="#D2D6DB"/>
<circle cx="919" cy="352" r="1" fill="#D2D6DB"/>
<circle cx="946" cy="352" r="1" fill="#D2D6DB"/>
<circle cx="973" cy="352" r="1" fill="#D2D6DB"/>
<circle cx="1000" cy="352" r="1" fill="#D2D6DB"/>
<circle cx="1027" cy="352" r="1" fill="#D2D6DB"/>
<circle cx="1054" cy="352" r="1" fill="#D2D6DB"/>
<circle cx="1081" cy="352" r="1" fill="#D2D6DB"/>
<circle cx="1108" cy="352" r="1" fill="#D2D6DB"/>
<circle cx="1135" cy="352" r="1" fill="#D2D6DB"/>
<circle cx="1162" cy="352" r="1" fill="#D2D6DB"/>
<circle cx="1189" cy="352" r="1" fill="#D2D6DB"/>
<circle cx="1" cy="379" r="1" fill="#D2D6DB"/>
<circle cx="28" cy="379" r="1" fill="#D2D6DB"/>
<circle cx="55" cy="379" r="1" fill="#D2D6DB"/>
<circle cx="82" cy="379" r="1" fill="#D2D6DB"/>
<circle cx="109" cy="379" r="1" fill="#D2D6DB"/>
<circle cx="136" cy="379" r="1" fill="#D2D6DB"/>
<circle cx="163" cy="379" r="1" fill="#D2D6DB"/>
<circle cx="190" cy="379" r="1" fill="#D2D6DB"/>
<circle cx="217" cy="379" r="1" fill="#D2D6DB"/>
<circle cx="244" cy="379" r="1" fill="#D2D6DB"/>
<circle cx="271" cy="379" r="1" fill="#D2D6DB"/>
<circle cx="298" cy="379" r="1" fill="#D2D6DB"/>
<circle cx="325" cy="379" r="1" fill="#D2D6DB"/>
<circle cx="352" cy="379" r="1" fill="#D2D6DB"/>
<circle cx="379" cy="379" r="1" fill="#D2D6DB"/>
<circle cx="406" cy="379" r="1" fill="#D2D6DB"/>
<circle cx="433" cy="379" r="1" fill="#D2D6DB"/>
<circle cx="460" cy="379" r="1" fill="#D2D6DB"/>
<circle cx="487" cy="379" r="1" fill="#D2D6DB"/>
<circle cx="514" cy="379" r="1" fill="#D2D6DB"/>
<circle cx="541" cy="379" r="1" fill="#D2D6DB"/>
<circle cx="568" cy="379" r="1" fill="#D2D6DB"/>
<circle cx="595" cy="379" r="1" fill="#D2D6DB"/>
<circle cx="622" cy="379" r="1" fill="#D2D6DB"/>
<circle cx="649" cy="379" r="1" fill="#D2D6DB"/>
<circle cx="676" cy="379" r="1" fill="#D2D6DB"/>
<circle cx="703" cy="379" r="1" fill="#D2D6DB"/>
<circle cx="730" cy="379" r="1" fill="#D2D6DB"/>
<circle cx="757" cy="379" r="1" fill="#D2D6DB"/>
<circle cx="784" cy="379" r="1" fill="#D2D6DB"/>
<circle cx="811" cy="379" r="1" fill="#D2D6DB"/>
<circle cx="838" cy="379" r="1" fill="#D2D6DB"/>
<circle cx="865" cy="379" r="1" fill="#D2D6DB"/>
<circle cx="892" cy="379" r="1" fill="#D2D6DB"/>
<circle cx="919" cy="379" r="1" fill="#D2D6DB"/>
<circle cx="946" cy="379" r="1" fill="#D2D6DB"/>
<circle cx="973" cy="379" r="1" fill="#D2D6DB"/>
<circle cx="1000" cy="379" r="1" fill="#D2D6DB"/>
<circle cx="1027" cy="379" r="1" fill="#D2D6DB"/>
<circle cx="1054" cy="379" r="1" fill="#D2D6DB"/>
<circle cx="1081" cy="379" r="1" fill="#D2D6DB"/>
<circle cx="1108" cy="379" r="1" fill="#D2D6DB"/>
<circle cx="1135" cy="379" r="1" fill="#D2D6DB"/>
<circle cx="1162" cy="379" r="1" fill="#D2D6DB"/>
<circle cx="1189" cy="379" r="1" fill="#D2D6DB"/>
<circle cx="1" cy="406" r="1" fill="#D2D6DB"/>
<circle cx="28" cy="406" r="1" fill="#D2D6DB"/>
<circle cx="55" cy="406" r="1" fill="#D2D6DB"/>
<circle cx="82" cy="406" r="1" fill="#D2D6DB"/>
<circle cx="109" cy="406" r="1" fill="#D2D6DB"/>
<circle cx="136" cy="406" r="1" fill="#D2D6DB"/>
<circle cx="163" cy="406" r="1" fill="#D2D6DB"/>
<circle cx="190" cy="406" r="1" fill="#D2D6DB"/>
<circle cx="217" cy="406" r="1" fill="#D2D6DB"/>
<circle cx="244" cy="406" r="1" fill="#D2D6DB"/>
<circle cx="271" cy="406" r="1" fill="#D2D6DB"/>
<circle cx="298" cy="406" r="1" fill="#D2D6DB"/>
<circle cx="325" cy="406" r="1" fill="#D2D6DB"/>
<circle cx="352" cy="406" r="1" fill="#D2D6DB"/>
<circle cx="379" cy="406" r="1" fill="#D2D6DB"/>
<circle cx="406" cy="406" r="1" fill="#D2D6DB"/>
<circle cx="433" cy="406" r="1" fill="#D2D6DB"/>
<circle cx="460" cy="406" r="1" fill="#D2D6DB"/>
<circle cx="487" cy="406" r="1" fill="#D2D6DB"/>
<circle cx="514" cy="406" r="1" fill="#D2D6DB"/>
<circle cx="541" cy="406" r="1" fill="#D2D6DB"/>
<circle cx="568" cy="406" r="1" fill="#D2D6DB"/>
<circle cx="595" cy="406" r="1" fill="#D2D6DB"/>
<circle cx="622" cy="406" r="1" fill="#D2D6DB"/>
<circle cx="649" cy="406" r="1" fill="#D2D6DB"/>
<circle cx="676" cy="406" r="1" fill="#D2D6DB"/>
<circle cx="703" cy="406" r="1" fill="#D2D6DB"/>
<circle cx="730" cy="406" r="1" fill="#D2D6DB"/>
<circle cx="757" cy="406" r="1" fill="#D2D6DB"/>
<circle cx="784" cy="406" r="1" fill="#D2D6DB"/>
<circle cx="811" cy="406" r="1" fill="#D2D6DB"/>
<circle cx="838" cy="406" r="1" fill="#D2D6DB"/>
<circle cx="865" cy="406" r="1" fill="#D2D6DB"/>
<circle cx="892" cy="406" r="1" fill="#D2D6DB"/>
<circle cx="919" cy="406" r="1" fill="#D2D6DB"/>
<circle cx="946" cy="406" r="1" fill="#D2D6DB"/>
<circle cx="973" cy="406" r="1" fill="#D2D6DB"/>
<circle cx="1000" cy="406" r="1" fill="#D2D6DB"/>
<circle cx="1027" cy="406" r="1" fill="#D2D6DB"/>
<circle cx="1054" cy="406" r="1" fill="#D2D6DB"/>
<circle cx="1081" cy="406" r="1" fill="#D2D6DB"/>
<circle cx="1108" cy="406" r="1" fill="#D2D6DB"/>
<circle cx="1135" cy="406" r="1" fill="#D2D6DB"/>
<circle cx="1162" cy="406" r="1" fill="#D2D6DB"/>
<circle cx="1189" cy="406" r="1" fill="#D2D6DB"/>
</g>
<defs>
<clipPath id="clip0_238_864">
<rect width="1190" height="408" fill="white"/>
</clipPath>
</defs>
</svg>
