<svg width="668" height="386" viewBox="0 0 668 386" fill="none" xmlns="http://www.w3.org/2000/svg">
<rect x="2.5" y="2.5" width="663" height="381" rx="17.5" fill="#1A1A1A"/>
<rect x="2.5" y="2.5" width="663" height="381" rx="17.5" stroke="#4AE3B5" stroke-width="5" stroke-dasharray="10 10"/>
<line x1="138" y1="233.5" x2="1" y2="233.5" stroke="#6C756B" stroke-width="3"/>
<line x1="143" y1="77.5" x2="6" y2="77.5" stroke="#6C756B" stroke-width="3"/>
<line x1="206" y1="114.5" x2="6" y2="114.5" stroke="#6C756B" stroke-width="3"/>
<line x1="206" y1="270.5" x2="6" y2="270.5" stroke="#6C756B" stroke-width="3"/>
<line x1="206" y1="192.5" y2="192.5" stroke="#6C756B" stroke-width="3"/>
<line x1="138" y1="155.5" x2="1" y2="155.5" stroke="#6C756B" stroke-width="3"/>
<line x1="143" y1="311.5" x2="6" y2="311.5" stroke="#6C756B" stroke-width="3"/>
<path d="M145.098 365.198V362.966H151.506V362.066H146.7V360.482H145.098V358.268H146.7V356.702H153.648V358.934H147.222V359.816H152.028V361.4H153.648V363.65H152.028V365.198H145.098ZM157.089 365.198V363.65H155.487V358.268H157.089V356.702H162.417V358.268H164.037V360.482H161.895V358.934H157.611V359.816H160.833V362.066H157.611V362.966H161.895V361.382H164.037V363.632H162.417V365.198H157.089ZM166.227 365.198V356.702H173.157V358.268H174.777V365.198H172.635V358.934H168.351V365.198H166.227ZM176.616 365.198V362.966H183.024V362.066H178.218V360.482H176.616V358.268H178.218V356.702H185.166V358.934H178.74V359.816H183.546V361.4H185.166V363.65H183.546V365.198H176.616ZM188.606 365.198V363.65H187.004V358.268H188.606V356.702H193.934V358.268H195.554V363.65H193.934V365.198H188.606ZM189.128 362.966H193.412V358.934H189.128V362.966ZM197.744 365.198V358.268H199.346V356.702H204.674V358.268H206.294V360.482H204.152V358.934H199.868V365.198H197.744ZM208.133 365.198V362.966H214.541V362.066H209.735V360.482H208.133V358.268H209.735V356.702H216.683V358.934H210.257V359.816H215.063V361.4H216.683V363.65H215.063V365.198H208.133Z" fill="#4AE3B5"/>
<path d="M438.7 364.198V362.65H437.098V357.268H438.7V355.702H444.028V357.268H445.666V361.966H447.268V364.198H445.126V362.65H444.028V364.198H438.7ZM439.222 361.966H443.506V357.934H439.222V361.966ZM450.161 364.198V362.65H448.559V357.268H450.161V355.702H455.489V357.268H457.109V359.482H454.967V357.934H450.683V361.966H454.967V360.4H457.109V362.65H455.489V364.198H450.161ZM461.589 364.198V362.65H460.005V357.934H458.403V355.702H460.005V352.552H462.129V355.702H466.953V357.934H462.129V361.966H466.431V360.4H468.573V362.65H466.953V364.198H461.589ZM472.011 364.198V362.65H470.409V355.702H472.533V361.966H476.817V355.702H478.959V362.65H477.339V364.198H472.011ZM482.399 364.198V362.65H480.797V357.268H482.399V355.702H487.727V357.268H489.365V361.966H490.967V364.198H488.825V362.65H487.727V364.198H482.399ZM482.921 361.966H487.205V357.934H482.921V361.966ZM494.354 364.198V362.65H492.77V357.934H491.168V355.702H492.77V352.552H494.894V355.702H499.718V357.934H494.894V361.966H499.196V360.4H501.338V362.65H499.718V364.198H494.354ZM504.583 364.198V362.65H502.981V357.268H504.583V355.702H509.911V357.268H511.531V362.65H509.911V364.198H504.583ZM505.105 361.966H509.389V357.934H505.105V361.966ZM513.721 364.198V357.268H515.323V355.702H520.651V357.268H522.271V359.482H520.129V357.934H515.845V364.198H513.721ZM524.11 364.198V361.966H530.518V361.066H525.712V359.482H524.11V357.268H525.712V355.702H532.66V357.934H526.234V358.816H531.04V360.4H532.66V362.65H531.04V364.198H524.11Z" fill="#4AE3B5"/>
<path d="M222.064 33.198V31.65H220.462V21.552H222.586V30.966H226.87V29.4H229.012V31.65H227.392V33.198H222.064ZM231.202 33.198V24.702H233.326V33.198H231.202ZM231.202 23.802V21.552H233.326V23.802H231.202ZM235.175 33.198V24.702H242.105V26.268H243.725V33.198H241.583V26.934H237.299V33.198H235.175ZM245.564 33.198V21.552H247.688V27.816H248.75V26.268H251.972V24.702H254.114V26.934H252.494V28.482H249.29V29.4H252.494V30.966H254.114V33.198H251.972V31.65H248.75V30.066H247.688V33.198H245.564ZM261.51 33.198V31.65H259.908V29.4H262.032V30.966H266.316V28.482H261.51V26.934H259.908V23.136H261.51V21.552H266.838V23.136H268.458V25.368H266.316V23.802H262.032V26.268H266.838V27.816H268.458V31.65H266.838V33.198H261.51ZM271.705 33.198V31.65H270.103V26.268H271.705V24.702H277.033V26.268H278.653V28.482H276.511V26.934H272.227V27.816H275.449V30.066H272.227V30.966H276.511V29.382H278.653V31.632H277.033V33.198H271.705ZM280.843 33.198V24.702H287.773V26.268H289.393V33.198H287.251V26.934H282.967V33.198H280.843ZM291.232 33.198V30.966H297.64V30.066H292.834V28.482H291.232V26.268H292.834V24.702H299.782V26.934H293.356V27.816H298.162V29.4H299.782V31.65H298.162V33.198H291.232ZM303.222 33.198V31.65H301.62V26.268H303.222V24.702H308.55V26.268H310.17V31.65H308.55V33.198H303.222ZM303.744 30.966H308.028V26.934H303.744V30.966ZM312.361 33.198V26.268H313.963V24.702H319.291V26.268H320.911V28.482H318.769V26.934H314.485V33.198H312.361ZM322.749 33.198V30.966H329.157V30.066H324.351V28.482H322.749V26.268H324.351V24.702H331.299V26.934H324.873V27.816H329.679V29.4H331.299V31.65H329.679V33.198H322.749ZM338.695 33.198V31.65H337.093V29.4H338.695V27.816H340.279V26.934H338.695V25.368H337.093V23.136H338.695V21.552H344.023V23.136H345.643V25.368H344.023V26.934H342.439V27.816H344.023V29.4H345.661V30.966H347.263V33.198H345.121V31.65H344.023V33.198H338.695ZM339.217 30.966H343.501V30.066H341.899V28.482H340.819V30.066H339.217V30.966ZM340.819 26.268H341.899V24.702H343.501V23.802H339.217V24.702H340.819V26.268ZM353.054 33.198V24.702H354.656V23.136H356.24V21.552H358.4V23.136H359.984V24.702H361.604V33.198H359.462V30.066H355.178V33.198H353.054ZM355.178 27.816H359.462V25.368H357.86V23.802H356.78V25.368H355.178V27.816ZM365.045 33.198V31.65H363.443V26.268H365.045V24.702H370.373V26.268H371.993V28.482H369.851V26.934H365.567V30.966H369.851V29.4H371.993V31.65H370.373V33.198H365.045ZM376.472 33.198V31.65H374.888V26.934H373.286V24.702H374.888V21.552H377.012V24.702H381.836V26.934H377.012V30.966H381.314V29.4H383.456V31.65H381.836V33.198H376.472ZM386.894 33.198V31.65H385.292V24.702H387.416V30.966H391.7V24.702H393.842V31.65H392.222V33.198H386.894ZM397.283 33.198V31.65H395.681V26.268H397.283V24.702H402.611V26.268H404.249V30.966H405.851V33.198H403.709V31.65H402.611V33.198H397.283ZM397.805 30.966H402.089V26.934H397.805V30.966ZM409.238 33.198V31.65H407.654V26.934H406.052V24.702H407.654V21.552H409.778V24.702H414.602V26.934H409.778V30.966H414.08V29.4H416.222V31.65H414.602V33.198H409.238ZM419.467 33.198V31.65H417.865V26.268H419.467V24.702H424.795V26.268H426.415V31.65H424.795V33.198H419.467ZM419.989 30.966H424.273V26.934H419.989V30.966ZM428.605 33.198V26.268H430.207V24.702H435.535V26.268H437.155V28.482H435.013V26.934H430.729V33.198H428.605ZM438.994 33.198V30.966H445.402V30.066H440.596V28.482H438.994V26.268H440.596V24.702H447.544V26.934H441.118V27.816H445.924V29.4H447.544V31.65H445.924V33.198H438.994Z" fill="#4AE3B5"/>
<line y1="-1.5" x2="137" y2="-1.5" transform="matrix(1 8.74228e-08 8.74228e-08 -1 529 232)" stroke="#6C756B" stroke-width="3"/>
<line y1="-1.5" x2="137" y2="-1.5" transform="matrix(1 8.74228e-08 8.74228e-08 -1 524 76)" stroke="#6C756B" stroke-width="3"/>
<line y1="-1.5" x2="200" y2="-1.5" transform="matrix(1 0 0 -1 461 113)" stroke="#6C756B" stroke-width="3"/>
<line y1="-1.5" x2="200" y2="-1.5" transform="matrix(1 0 0 -1 461 272)" stroke="#6C756B" stroke-width="3"/>
<line y1="-1.5" x2="206" y2="-1.5" transform="matrix(1 0 0 -1 461 191)" stroke="#6C756B" stroke-width="3"/>
<line y1="-1.5" x2="137" y2="-1.5" transform="matrix(1 8.74228e-08 8.74228e-08 -1 529 154)" stroke="#6C756B" stroke-width="3"/>
<line y1="-1.5" x2="137" y2="-1.5" transform="matrix(1 8.74228e-08 8.74228e-08 -1 524 310)" stroke="#6C756B" stroke-width="3"/>
</svg>
