<svg width="519" height="34" viewBox="0 0 519 34" fill="none" xmlns="http://www.w3.org/2000/svg">
<rect width="519" height="34" fill="#1A1A1A"/>
<path d="M189.06 20.2V17.776H195.828V20.2H189.06ZM200.124 26.464V24.28H197.94V11.032H200.124V8.872H204.732V11.272H200.364V24.04H204.732V26.464H200.124ZM213.905 25.288V23.128H211.721V20.704H214.145V22.888H220.433V18.76H213.905V16.6H211.721V12.04H213.905V9.856H220.673V12.04H222.881V14.44H220.433V12.28H214.145V16.384H220.673V18.52H222.881V23.128H220.673V25.288H213.905ZM227.968 25.288V23.128H225.784V12.04H227.968V9.856H234.736V12.04H236.944V14.44H234.496V12.28H228.208V16.384H232.576V18.76H228.208V22.888H234.496V20.704H236.944V23.128H234.736V25.288H227.968ZM239.846 25.288V9.856H242.27V12.04H244.43V14.2H246.638V20.704H248.558V9.856H251.006V25.288H248.558V23.128H246.398V20.944H244.19V14.44H242.27V25.288H239.846ZM256.093 25.288V23.128H253.909V20.704H256.333V22.888H262.621V18.76H256.093V16.6H253.909V12.04H256.093V9.856H262.861V12.04H265.069V14.44H262.621V12.28H256.333V16.384H262.861V18.52H265.069V23.128H262.861V25.288H256.093ZM270.155 25.288V23.128H267.971V12.04H270.155V9.856H276.923V12.04H279.131V23.128H276.923V25.288H270.155ZM270.395 22.888H276.683V12.28H270.395V22.888ZM282.034 25.288V12.04H284.218V9.856H290.986V12.04H293.194V18.76H290.986V20.944H289.93V22.888H292.09V25.288H289.69V23.128H287.482V20.944H284.458V25.288H282.034ZM284.458 18.52H290.746V12.28H284.458V18.52ZM298.28 25.288V23.128H296.096V20.704H298.52V22.888H304.808V18.76H298.28V16.6H296.096V12.04H298.28V9.856H305.048V12.04H307.256V14.44H304.808V12.28H298.52V16.384H305.048V18.52H307.256V23.128H305.048V25.288H298.28ZM314.243 26.464V24.04H318.611V11.272H314.243V8.872H318.851V11.032H321.035V24.28H318.851V26.464H314.243ZM323.052 20.2V17.776H329.82V20.2H323.052Z" fill="#4AE3B5"/>
</svg>
