<svg width="233" height="34" viewBox="0 0 233 34" fill="none" xmlns="http://www.w3.org/2000/svg">
<rect width="233" height="34" fill="#4AE3B5"/>
<path d="M4.228 26.336V23.816H1.68V20.988H4.508V23.536H11.844V18.72H4.228V16.2H1.68V10.88H4.228V8.332H12.124V10.88H14.7V13.68H11.844V11.16H4.508V15.948H12.124V18.44H14.7V23.816H12.124V26.336H4.228ZM19.7866 26.336V23.816H17.2386V15.948H19.7866V13.4H27.6826V15.948H30.2586V18.72H27.4026V16.2H20.0666V18.44H25.1626V21.268H20.0666V23.536H27.4026V20.96H30.2586V23.788H27.6826V26.336H19.7866ZM33.6448 26.336V13.4H44.0888V15.948H46.6648V26.336H43.8088V16.2H36.4728V26.336H33.6448ZM49.5042 26.336V23.536H59.6682V21.268H52.0522V18.72H49.5042V15.948H52.0522V13.4H62.5242V16.2H52.3322V18.44H59.9482V20.988H62.5242V23.816H59.9482V26.336H49.5042ZM67.9116 26.336V23.816H65.3636V15.948H67.9116V13.4H75.8076V15.948H78.3836V23.816H75.8076V26.336H67.9116ZM68.1916 23.536H75.5276V16.2H68.1916V23.536ZM81.7698 26.336V15.948H84.3178V13.4H92.2138V15.948H94.7898V18.72H91.9338V16.2H84.5978V26.336H81.7698ZM97.6292 26.336V23.536H107.793V21.268H100.177V18.72H97.6292V15.948H100.177V13.4H110.649V16.2H100.457V18.44H108.073V20.988H110.649V23.816H108.073V26.336H97.6292ZM124.709 30.48V25.328H122.189V20.288H119.641V14.94H122.189V9.844H124.709V4.804H127.565V10.124H124.989V15.22H122.469V20.008H124.989V25.132H127.565V30.48H124.709ZM130.114 26.336V23.536H132.662V11.16H130.114V8.332H138.038V11.16H135.462V23.536H138.038V26.336H130.114ZM140.586 26.336V13.4H151.03V15.948H153.606V26.336H150.75V16.2H143.414V26.336H140.586ZM156.993 31.264V15.948H159.541V13.4H167.437V15.948H170.013V23.816H167.437V26.336H159.821V31.264H156.993ZM159.821 23.536H167.157V16.2H159.821V23.536ZM175.947 26.336V23.816H173.399V13.4H176.227V23.536H183.563V13.4H186.419V23.816H183.843V26.336H175.947ZM193.752 26.336V23.816H191.232V16.2H188.684V13.4H191.232V8.332H194.032V13.4H201.704V16.2H194.032V23.536H201.424V20.988H204.252V23.816H201.704V26.336H193.752ZM207.086 26.336V23.536H217.25V21.268H209.634V18.72H207.086V15.948H209.634V13.4H220.106V16.2H209.914V18.44H217.53V20.988H220.106V23.816H217.53V26.336H207.086ZM222.653 30.48V25.132H225.201V20.008H227.749V15.22H225.201V10.124H222.653V4.804H225.481V9.844H228.029V14.94H230.577V20.288H228.029V25.328H225.481V30.48H222.653Z" fill="#1A1A1A"/>
</svg>
