<svg width="861" height="63" viewBox="0 0 861 63" fill="none" xmlns="http://www.w3.org/2000/svg">
<rect width="860.4" height="62.4" rx="5" fill="#1A1A1A"/>
<path d="M317.617 18.2003C308.163 18.242 300.462 29.9194 310.224 39.3655C310.679 40.7765 312.646 41.668 315.597 42.5784C317.739 43.2444 318.472 42.3027 317.981 41.0613C315.859 35.7015 311.039 35.8841 310.701 35.3937C304.859 26.927 314.241 18.8798 321.952 22.519C330.723 26.6563 327.226 34.6454 322.241 38.0255C320.317 39.3244 319.139 41.0185 319.772 42.697C320.111 43.5951 321.751 44.3104 322.372 44.1861C322.862 44.0882 320.317 42.7257 321.902 41.0795C323.161 39.7657 326.974 38.9992 328.985 35.3319C332.804 28.3825 330.61 22.0942 321.586 18.8814C320.898 18.6385 320.213 18.4639 319.527 18.3511C318.896 18.2479 318.257 18.1975 317.617 18.2003L317.617 18.2003ZM318.264 22.6535C318.264 22.6535 316.658 24.3599 316.686 26.1043C316.688 26.4615 316.76 26.8237 316.869 27.167C317.447 27.8339 317.915 28.6068 318.321 29.4456C318.723 28.4183 319.235 27.5375 319.871 26.8197C319.911 26.6032 319.933 26.3899 319.933 26.1742C319.909 24.4308 318.264 22.6535 318.264 22.6535ZM324.755 25.6487C321.729 25.8241 319.772 28.497 318.605 30.8257C318.555 30.9319 318.183 30.961 318.118 30.8513C317.257 29.3226 316.717 28.1742 315.653 27.3083C314.645 26.4867 313.375 25.9978 311.664 25.9887C311.738 26.6546 312.06 28.4797 313.408 29.4914C313.868 29.8378 314.536 30.0174 315.214 30.1713C315.889 30.3203 316.582 30.438 317.111 30.7459C317.537 30.9945 317.809 31.3831 317.939 31.835C318.068 32.2852 318.065 32.7964 317.966 33.3381C317.799 34.279 317.348 35.3138 316.745 36.267C316.745 36.267 318.528 36.9955 318.845 39.745C319.436 38.3373 320.68 37.5323 320.68 37.5323C320.025 36.6193 319.095 34.2568 318.874 33.3282C318.751 32.7941 318.712 32.286 318.813 31.8292C318.912 31.3732 319.157 30.9682 319.569 30.6974C320.079 30.3622 320.759 30.2075 321.428 30.0199C322.1 29.8313 322.753 29.6107 323.203 29.237C323.998 28.5702 324.394 27.6128 324.587 26.8095C324.681 26.4069 324.73 26.0479 324.749 25.7928C324.755 25.7302 324.754 25.6972 324.755 25.6487ZM312.69 38.4745C313.24 38.4893 314.702 39.6093 314.289 39.6927C312.491 40.0554 312.252 38.9362 312.518 38.5421C312.551 38.4928 312.611 38.4724 312.69 38.4745Z" fill="#4AE3B5"/>
<path d="M357.94 38.4378V36.5802H356.018V24.4626H358.567V35.7594H363.707V24.4626H366.278V36.5802H364.334V38.4378H357.94ZM368.906 38.4378V24.4626H371.455V26.3634H373.356V28.2426H375.321V33.8802H376.596V24.4626H379.166V38.4378H376.596V36.5802H374.695V34.6794H372.729V29.0418H371.455V38.4378H368.906ZM383.717 38.4378V36.5802H381.794V24.4626H384.343V35.7594H389.484V33.8802H392.054V36.5802H390.11V38.4378H383.717ZM396.605 38.4378V36.5802H394.683V26.3634H396.605V24.4626H402.999V26.3634H404.943V29.0418H402.372V27.1626H397.231V30.1218H401.098V32.7786H397.231V35.7594H402.372V33.8802H404.943V36.5802H402.999V38.4378H396.605ZM407.571 38.4378V28.2426H409.493V26.3634H411.394V24.4626H413.986V26.3634H415.887V28.2426H417.831V38.4378H415.261V34.6794H410.12V38.4378H407.571ZM410.12 31.9794H415.261V29.0418H413.338V27.1626H412.042V29.0418H410.12V31.9794ZM422.382 38.4378V36.5802H420.459V33.8802H423.008V35.7594H428.149V32.7786H422.382V30.921H420.459V26.3634H422.382V24.4626H428.775V26.3634H430.719V29.0418H428.149V27.1626H423.008V30.1218H428.775V31.9794H430.719V36.5802H428.775V38.4378H422.382ZM433.347 38.4378V24.4626H435.896V30.1218H437.171V28.2426H439.763V30.1218H441.037V24.4626H443.607V38.4378H441.037V32.7786H435.896V38.4378H433.347ZM452.482 38.4378V36.5802H450.56V26.3634H452.482V24.4626H458.876V26.3634H460.82V36.5802H458.876V38.4378H452.482ZM453.109 35.7594H458.25V27.1626H453.109V35.7594ZM463.448 38.4378V26.3634H465.371V24.4626H471.764V26.3634H473.708V32.7786H471.764V34.6794H470.835V35.7594H472.736V38.4378H470.209V36.5802H468.243V34.6794H465.997V38.4378H463.448ZM465.997 31.9794H471.138V27.1626H465.997V31.9794ZM478.259 38.4378V36.5802H476.337V26.3634H478.259V24.4626H484.653V26.3634H486.597V30.921H484.026V27.1626H478.885V35.7594H484.026V34.6794H482.104V32.7786H480.16V30.1218H482.752V31.9794H486.597V36.5802H484.653V38.4378H478.259ZM489.225 38.4378V28.2426H491.147V26.3634H493.048V24.4626H495.64V26.3634H497.541V28.2426H499.485V38.4378H496.914V34.6794H491.774V38.4378H489.225ZM491.774 31.9794H496.914V29.0418H494.992V27.1626H493.696V29.0418H491.774V31.9794ZM502.113 38.4378V24.4626H504.662V26.3634H506.563V28.2426H508.528V33.8802H509.803V24.4626H512.373V38.4378H509.803V36.5802H507.902V34.6794H505.936V29.0418H504.662V38.4378H502.113ZM515.001 38.4378V35.7594H516.924V27.1626H515.001V24.4626H521.417V27.1626H519.473V35.7594H521.417V38.4378H515.001ZM525.973 38.4378V36.5802H524.051V33.8802H526.599V35.7594H531.74V32.7786H525.973V30.921H524.051V26.3634H525.973V24.4626H532.367V26.3634H534.311V29.0418H531.74V27.1626H526.599V30.1218H532.367V31.9794H534.311V36.5802H532.367V38.4378H525.973ZM536.939 38.4378V26.3634H538.861V24.4626H541.41V26.3634H543.354V30.1218H544.628V26.3634H546.572V24.4626H549.143V26.3634H551.044V38.4378H548.516V27.1626H547.199V30.921H545.255V36.5802H542.706V30.921H540.762V27.1626H539.488V38.4378H536.939Z" fill="#4AE3B5"/>
</svg>
