<svg width="432" height="62" viewBox="0 0 432 62" fill="none" xmlns="http://www.w3.org/2000/svg">
<rect width="432" height="62" rx="5" fill="#4AE3B5"/>
<path d="M103.417 18.0001C93.9626 18.0418 86.2623 29.7192 96.0237 39.1653C96.4786 40.5763 98.4459 41.4678 101.397 42.3782C103.539 43.0442 104.272 42.1025 103.78 40.8611C101.659 35.5013 96.8387 35.6839 96.5004 35.1935C90.6588 26.7268 100.041 18.6796 107.752 22.3188C116.522 26.4561 113.026 34.4452 108.041 37.8253C106.117 39.1242 104.939 40.8183 105.571 42.4968C105.911 43.3949 107.551 44.1102 108.172 43.9859C108.662 43.888 106.117 42.5256 107.702 40.8793C108.96 39.5655 112.774 38.799 114.785 35.1317C118.604 28.1823 116.41 21.894 107.386 18.6812C106.698 18.4383 106.013 18.2637 105.326 18.1509C104.695 18.0478 104.057 17.9973 103.417 18.0001L103.417 18.0001ZM104.064 22.4533C104.064 22.4533 102.458 24.1597 102.486 25.9041C102.488 26.2613 102.56 26.6235 102.669 26.9668C103.247 27.6337 103.715 28.4066 104.121 29.2454C104.522 28.2181 105.034 27.3373 105.671 26.6195C105.711 26.403 105.733 26.1898 105.733 25.974C105.709 24.2306 104.064 22.4533 104.064 22.4533ZM110.555 25.4485C107.529 25.6239 105.572 28.2968 104.405 30.6255C104.355 30.7317 103.983 30.7608 103.918 30.6511C103.057 29.1224 102.516 27.974 101.452 27.1081C100.445 26.2865 99.1744 25.7976 97.4639 25.7885C97.5378 26.4544 97.8602 28.2795 99.2081 29.2912C99.668 29.6377 100.336 29.8172 101.014 29.9711C101.689 30.1201 102.382 30.2378 102.911 30.5457C103.337 30.7943 103.609 31.1829 103.739 31.6348C103.868 32.085 103.864 32.5962 103.765 33.1379C103.599 34.0788 103.148 35.1136 102.545 36.0668C102.545 36.0668 104.328 36.7953 104.645 39.5448C105.236 38.1371 106.48 37.3321 106.48 37.3321C105.825 36.4191 104.895 34.0566 104.673 33.128C104.551 32.5939 104.512 32.0858 104.613 31.629C104.712 31.173 104.957 30.768 105.368 30.4972C105.879 30.1621 106.559 30.0073 107.228 29.8197C107.9 29.6311 108.553 29.4105 109.002 29.0368C109.798 28.37 110.194 27.4126 110.387 26.6093C110.481 26.2067 110.53 25.8477 110.548 25.5926C110.555 25.53 110.554 25.497 110.555 25.4485ZM98.4898 38.2743C99.0401 38.2891 100.502 39.4091 100.089 39.4925C98.2908 39.8553 98.0518 38.736 98.3179 38.3419C98.3512 38.2926 98.4112 38.2722 98.4898 38.2743Z" fill="#1A1A1A"/>
<path d="M143.74 38.2376V36.38H141.818V24.2624H144.366V35.5592H149.507V24.2624H152.078V36.38H150.134V38.2376H143.74ZM154.706 38.2376V24.2624H157.255V26.1632H159.155V28.0424H161.121V33.68H162.395V24.2624H164.966V38.2376H162.395V36.38H160.495V34.4792H158.529V28.8416H157.255V38.2376H154.706ZM169.517 38.2376V36.38H167.594V24.2624H170.143V35.5592H175.284V33.68H177.854V36.38H175.91V38.2376H169.517ZM182.405 38.2376V36.38H180.482V26.1632H182.405V24.2624H188.798V26.1632H190.742V28.8416H188.172V26.9624H183.031V29.9216H186.898V32.5784H183.031V35.5592H188.172V33.68H190.742V36.38H188.798V38.2376H182.405ZM193.371 38.2376V28.0424H195.293V26.1632H197.194V24.2624H199.786V26.1632H201.687V28.0424H203.631V38.2376H201.06V34.4792H195.92V38.2376H193.371ZM195.92 31.7792H201.06V28.8416H199.138V26.9624H197.842V28.8416H195.92V31.7792ZM208.181 38.2376V36.38H206.259V33.68H208.808V35.5592H213.949V32.5784H208.181V30.7208H206.259V26.1632H208.181V24.2624H214.575V26.1632H216.519V28.8416H213.949V26.9624H208.808V29.9216H214.575V31.7792H216.519V36.38H214.575V38.2376H208.181ZM219.147 38.2376V24.2624H221.696V29.9216H222.97V28.0424H225.562V29.9216H226.837V24.2624H229.407V38.2376H226.837V32.5784H221.696V38.2376H219.147ZM238.282 38.2376V36.38H236.36V26.1632H238.282V24.2624H244.676V26.1632H246.62V36.38H244.676V38.2376H238.282ZM238.909 35.5592H244.049V26.9624H238.909V35.5592ZM249.248 38.2376V26.1632H251.17V24.2624H257.564V26.1632H259.508V32.5784H257.564V34.4792H256.635V35.5592H258.536V38.2376H256.009V36.38H254.043V34.4792H251.797V38.2376H249.248ZM251.797 31.7792H256.938V26.9624H251.797V31.7792ZM264.059 38.2376V36.38H262.136V26.1632H264.059V24.2624H270.452V26.1632H272.396V30.7208H269.826V26.9624H264.685V35.5592H269.826V34.4792H267.904V32.5784H265.96V29.9216H268.552V31.7792H272.396V36.38H270.452V38.2376H264.059ZM275.025 38.2376V28.0424H276.947V26.1632H278.848V24.2624H281.44V26.1632H283.341V28.0424H285.285V38.2376H282.714V34.4792H277.573V38.2376H275.025ZM277.573 31.7792H282.714V28.8416H280.792V26.9624H279.496V28.8416H277.573V31.7792ZM287.913 38.2376V24.2624H290.462V26.1632H292.363V28.0424H294.328V33.68H295.603V24.2624H298.173V38.2376H295.603V36.38H293.702V34.4792H291.736V28.8416H290.462V38.2376H287.913ZM300.801 38.2376V35.5592H302.724V26.9624H300.801V24.2624H307.216V26.9624H305.272V35.5592H307.216V38.2376H300.801ZM311.773 38.2376V36.38H309.85V33.68H312.399V35.5592H317.54V32.5784H311.773V30.7208H309.85V26.1632H311.773V24.2624H318.166V26.1632H320.11V28.8416H317.54V26.9624H312.399V29.9216H318.166V31.7792H320.11V36.38H318.166V38.2376H311.773ZM322.739 38.2376V26.1632H324.661V24.2624H327.21V26.1632H329.154V29.9216H330.428V26.1632H332.372V24.2624H334.943V26.1632H336.843V38.2376H334.316V26.9624H332.999V30.7208H331.055V36.38H328.506V30.7208H326.562V26.9624H325.287V38.2376H322.739Z" fill="#1A1A1A"/>
</svg>
